<?xml version="1.0" encoding="utf-8" standalone="no"?>
<!DOCTYPE svg PUBLIC "-//W3C//DTD SVG 1.1//EN"
  "http://www.w3.org/Graphics/SVG/1.1/DTD/svg11.dtd">
<svg xmlns:xlink="http://www.w3.org/1999/xlink" width="720pt" height="720pt" viewBox="0 0 720 720" xmlns="http://www.w3.org/2000/svg" version="1.1">
 <metadata>
  <rdf:RDF xmlns:dc="http://purl.org/dc/elements/1.1/" xmlns:cc="http://creativecommons.org/ns#" xmlns:rdf="http://www.w3.org/1999/02/22-rdf-syntax-ns#">
   <cc:Work>
    <dc:type rdf:resource="http://purl.org/dc/dcmitype/StillImage"/>
    <dc:date>2025-02-19T11:48:42.107404</dc:date>
    <dc:format>image/svg+xml</dc:format>
    <dc:creator>
     <cc:Agent>
      <dc:title>Matplotlib v3.10.0, https://matplotlib.org/</dc:title>
     </cc:Agent>
    </dc:creator>
   </cc:Work>
  </rdf:RDF>
 </metadata>
 <defs>
  <style type="text/css">*{stroke-linejoin: round; stroke-linecap: butt}</style>
 </defs>
 <g id="figure_1">
  <g id="patch_1">
   <path d="M 0 720 
L 720 720 
L 720 0 
L 0 0 
z
" style="fill: #ffffff"/>
  </g>
  <g id="axes_1">
   <g id="patch_2">
    <path d="M 90 640.8 
L 648 640.8 
L 648 86.4 
L 90 86.4 
z
" style="fill: #ffffff"/>
   </g>
   <g id="patch_3">
    <path d="M 345.689995 380.802516 
C 349.29241 380.802516 352.747764 379.371261 355.295056 376.823969 
C 357.842348 374.276677 359.273603 370.821323 359.273603 367.218909 
C 359.273603 363.616494 357.842348 360.16114 355.295056 357.613848 
C 352.747764 355.066556 349.29241 353.635301 345.689995 353.635301 
C 342.087581 353.635301 338.632226 355.066556 336.084934 357.613848 
C 333.537643 360.16114 332.106388 363.616494 332.106388 367.218909 
C 332.106388 370.821323 333.537643 374.276677 336.084934 376.823969 
C 338.632226 379.371261 342.087581 380.802516 345.689995 380.802516 
z
" clip-path="url(#pc9e627564b)" style="fill: #0000ff; stroke: #0000ff; stroke-linejoin: miter"/>
   </g>
   <g id="patch_4">
    <path d="M 618.925928 370.929344 
C 619.909947 370.929344 620.853796 370.53839 621.549602 369.842583 
C 622.245409 369.146776 622.636364 368.202928 622.636364 367.218909 
C 622.636364 366.234889 622.245409 365.291041 621.549602 364.595234 
C 620.853796 363.899428 619.909947 363.508473 618.925928 363.508473 
C 617.941909 363.508473 616.99806 363.899428 616.302253 364.595234 
C 615.606447 365.291041 615.215492 366.234889 615.215492 367.218909 
C 615.215492 368.202928 615.606447 369.146776 616.302253 369.842583 
C 616.99806 370.53839 617.941909 370.929344 618.925928 370.929344 
z
" clip-path="url(#pc9e627564b)" style="fill: #808080; stroke: #808080; stroke-linejoin: miter"/>
   </g>
   <g id="matplotlib.axis_1">
    <g id="xtick_1">
     <g id="line2d_1">
      <defs>
       <path id="mfe03d5bb90" d="M 0 0 
L 0 3.5 
" style="stroke: #000000; stroke-width: 0.8"/>
      </defs>
      <g>
       <use xlink:href="#mfe03d5bb90" x="132.446552" y="640.8" style="stroke: #000000; stroke-width: 0.8"/>
      </g>
     </g>
     <g id="text_1">
      <!-- −300000 -->
      <g transform="translate(109.169208 655.398438) scale(0.1 -0.1)">
       <defs>
        <path id="DejaVuSerif-2212" d="M 678 2259 
L 4684 2259 
L 4684 1753 
L 678 1753 
L 678 2259 
z
" transform="scale(0.015625)"/>
        <path id="DejaVuSerif-33" d="M 622 4469 
Q 988 4606 1323 4678 
Q 1659 4750 1953 4750 
Q 2638 4750 3022 4454 
Q 3406 4159 3406 3634 
Q 3406 3213 3140 2930 
Q 2875 2647 2388 2547 
Q 2963 2466 3280 2130 
Q 3597 1794 3597 1259 
Q 3597 606 3158 257 
Q 2719 -91 1894 -91 
Q 1528 -91 1179 -12 
Q 831 66 488 225 
L 488 1131 
L 838 1131 
Q 869 681 1141 450 
Q 1413 219 1906 219 
Q 2384 219 2661 495 
Q 2938 772 2938 1253 
Q 2938 1803 2653 2086 
Q 2369 2369 1819 2369 
L 1522 2369 
L 1522 2688 
L 1678 2688 
Q 2225 2688 2498 2914 
Q 2772 3141 2772 3597 
Q 2772 4006 2547 4223 
Q 2322 4441 1900 4441 
Q 1478 4441 1245 4241 
Q 1013 4041 972 3647 
L 622 3647 
L 622 4469 
z
" transform="scale(0.015625)"/>
        <path id="DejaVuSerif-30" d="M 2034 219 
Q 2513 219 2750 744 
Q 2988 1269 2988 2328 
Q 2988 3391 2750 3916 
Q 2513 4441 2034 4441 
Q 1556 4441 1318 3916 
Q 1081 3391 1081 2328 
Q 1081 1269 1318 744 
Q 1556 219 2034 219 
z
M 2034 -91 
Q 1275 -91 848 546 
Q 422 1184 422 2328 
Q 422 3475 848 4112 
Q 1275 4750 2034 4750 
Q 2797 4750 3222 4112 
Q 3647 3475 3647 2328 
Q 3647 1184 3222 546 
Q 2797 -91 2034 -91 
z
" transform="scale(0.015625)"/>
       </defs>
       <use xlink:href="#DejaVuSerif-2212"/>
       <use xlink:href="#DejaVuSerif-33" transform="translate(83.789062 0)"/>
       <use xlink:href="#DejaVuSerif-30" transform="translate(147.412109 0)"/>
       <use xlink:href="#DejaVuSerif-30" transform="translate(211.035156 0)"/>
       <use xlink:href="#DejaVuSerif-30" transform="translate(274.658203 0)"/>
       <use xlink:href="#DejaVuSerif-30" transform="translate(338.28125 0)"/>
       <use xlink:href="#DejaVuSerif-30" transform="translate(401.904297 0)"/>
      </g>
     </g>
    </g>
    <g id="xtick_2">
     <g id="line2d_2">
      <g>
       <use xlink:href="#mfe03d5bb90" x="203.5277" y="640.8" style="stroke: #000000; stroke-width: 0.8"/>
      </g>
     </g>
     <g id="text_2">
      <!-- −200000 -->
      <g transform="translate(180.250356 655.398438) scale(0.1 -0.1)">
       <defs>
        <path id="DejaVuSerif-32" d="M 819 3553 
L 469 3553 
L 469 4384 
Q 803 4563 1142 4656 
Q 1481 4750 1806 4750 
Q 2534 4750 2956 4397 
Q 3378 4044 3378 3438 
Q 3378 2753 2422 1800 
Q 2347 1728 2309 1691 
L 1131 513 
L 3078 513 
L 3078 1088 
L 3444 1088 
L 3444 0 
L 434 0 
L 434 341 
L 1850 1753 
Q 2319 2222 2519 2614 
Q 2719 3006 2719 3438 
Q 2719 3909 2473 4175 
Q 2228 4441 1797 4441 
Q 1350 4441 1106 4219 
Q 863 3997 819 3553 
z
" transform="scale(0.015625)"/>
       </defs>
       <use xlink:href="#DejaVuSerif-2212"/>
       <use xlink:href="#DejaVuSerif-32" transform="translate(83.789062 0)"/>
       <use xlink:href="#DejaVuSerif-30" transform="translate(147.412109 0)"/>
       <use xlink:href="#DejaVuSerif-30" transform="translate(211.035156 0)"/>
       <use xlink:href="#DejaVuSerif-30" transform="translate(274.658203 0)"/>
       <use xlink:href="#DejaVuSerif-30" transform="translate(338.28125 0)"/>
       <use xlink:href="#DejaVuSerif-30" transform="translate(401.904297 0)"/>
      </g>
     </g>
    </g>
    <g id="xtick_3">
     <g id="line2d_3">
      <g>
       <use xlink:href="#mfe03d5bb90" x="274.608847" y="640.8" style="stroke: #000000; stroke-width: 0.8"/>
      </g>
     </g>
     <g id="text_3">
      <!-- −100000 -->
      <g transform="translate(251.331504 655.398438) scale(0.1 -0.1)">
       <defs>
        <path id="DejaVuSerif-31" d="M 909 0 
L 909 331 
L 1722 331 
L 1722 4213 
L 781 3603 
L 781 4013 
L 1919 4750 
L 2350 4750 
L 2350 331 
L 3163 331 
L 3163 0 
L 909 0 
z
" transform="scale(0.015625)"/>
       </defs>
       <use xlink:href="#DejaVuSerif-2212"/>
       <use xlink:href="#DejaVuSerif-31" transform="translate(83.789062 0)"/>
       <use xlink:href="#DejaVuSerif-30" transform="translate(147.412109 0)"/>
       <use xlink:href="#DejaVuSerif-30" transform="translate(211.035156 0)"/>
       <use xlink:href="#DejaVuSerif-30" transform="translate(274.658203 0)"/>
       <use xlink:href="#DejaVuSerif-30" transform="translate(338.28125 0)"/>
       <use xlink:href="#DejaVuSerif-30" transform="translate(401.904297 0)"/>
      </g>
     </g>
    </g>
    <g id="xtick_4">
     <g id="line2d_4">
      <g>
       <use xlink:href="#mfe03d5bb90" x="345.689995" y="640.8" style="stroke: #000000; stroke-width: 0.8"/>
      </g>
     </g>
     <g id="text_4">
      <!-- 0 -->
      <g transform="translate(342.508745 655.398438) scale(0.1 -0.1)">
       <use xlink:href="#DejaVuSerif-30"/>
      </g>
     </g>
    </g>
    <g id="xtick_5">
     <g id="line2d_5">
      <g>
       <use xlink:href="#mfe03d5bb90" x="416.771143" y="640.8" style="stroke: #000000; stroke-width: 0.8"/>
      </g>
     </g>
     <g id="text_5">
      <!-- 100000 -->
      <g transform="translate(397.683643 655.398438) scale(0.1 -0.1)">
       <use xlink:href="#DejaVuSerif-31"/>
       <use xlink:href="#DejaVuSerif-30" transform="translate(63.623047 0)"/>
       <use xlink:href="#DejaVuSerif-30" transform="translate(127.246094 0)"/>
       <use xlink:href="#DejaVuSerif-30" transform="translate(190.869141 0)"/>
       <use xlink:href="#DejaVuSerif-30" transform="translate(254.492188 0)"/>
       <use xlink:href="#DejaVuSerif-30" transform="translate(318.115234 0)"/>
      </g>
     </g>
    </g>
    <g id="xtick_6">
     <g id="line2d_6">
      <g>
       <use xlink:href="#mfe03d5bb90" x="487.852291" y="640.8" style="stroke: #000000; stroke-width: 0.8"/>
      </g>
     </g>
     <g id="text_6">
      <!-- 200000 -->
      <g transform="translate(468.764791 655.398438) scale(0.1 -0.1)">
       <use xlink:href="#DejaVuSerif-32"/>
       <use xlink:href="#DejaVuSerif-30" transform="translate(63.623047 0)"/>
       <use xlink:href="#DejaVuSerif-30" transform="translate(127.246094 0)"/>
       <use xlink:href="#DejaVuSerif-30" transform="translate(190.869141 0)"/>
       <use xlink:href="#DejaVuSerif-30" transform="translate(254.492188 0)"/>
       <use xlink:href="#DejaVuSerif-30" transform="translate(318.115234 0)"/>
      </g>
     </g>
    </g>
    <g id="xtick_7">
     <g id="line2d_7">
      <g>
       <use xlink:href="#mfe03d5bb90" x="558.933439" y="640.8" style="stroke: #000000; stroke-width: 0.8"/>
      </g>
     </g>
     <g id="text_7">
      <!-- 300000 -->
      <g transform="translate(539.845939 655.398438) scale(0.1 -0.1)">
       <use xlink:href="#DejaVuSerif-33"/>
       <use xlink:href="#DejaVuSerif-30" transform="translate(63.623047 0)"/>
       <use xlink:href="#DejaVuSerif-30" transform="translate(127.246094 0)"/>
       <use xlink:href="#DejaVuSerif-30" transform="translate(190.869141 0)"/>
       <use xlink:href="#DejaVuSerif-30" transform="translate(254.492188 0)"/>
       <use xlink:href="#DejaVuSerif-30" transform="translate(318.115234 0)"/>
      </g>
     </g>
    </g>
    <g id="xtick_8">
     <g id="line2d_8">
      <g>
       <use xlink:href="#mfe03d5bb90" x="630.014587" y="640.8" style="stroke: #000000; stroke-width: 0.8"/>
      </g>
     </g>
     <g id="text_8">
      <!-- 400000 -->
      <g transform="translate(610.927087 655.398438) scale(0.1 -0.1)">
       <defs>
        <path id="DejaVuSerif-34" d="M 2234 1581 
L 2234 4063 
L 641 1581 
L 2234 1581 
z
M 3609 0 
L 1484 0 
L 1484 331 
L 2234 331 
L 2234 1247 
L 197 1247 
L 197 1588 
L 2241 4750 
L 2859 4750 
L 2859 1581 
L 3750 1581 
L 3750 1247 
L 2859 1247 
L 2859 331 
L 3609 331 
L 3609 0 
z
" transform="scale(0.015625)"/>
       </defs>
       <use xlink:href="#DejaVuSerif-34"/>
       <use xlink:href="#DejaVuSerif-30" transform="translate(63.623047 0)"/>
       <use xlink:href="#DejaVuSerif-30" transform="translate(127.246094 0)"/>
       <use xlink:href="#DejaVuSerif-30" transform="translate(190.869141 0)"/>
       <use xlink:href="#DejaVuSerif-30" transform="translate(254.492188 0)"/>
       <use xlink:href="#DejaVuSerif-30" transform="translate(318.115234 0)"/>
      </g>
     </g>
    </g>
    <g id="text_9">
     <!-- X [km] -->
     <g transform="translate(342.08625 673.635625) scale(0.16 -0.16)">
      <defs>
       <path id="DejaVuSerif-58" d="M 2119 1997 
L 978 331 
L 1581 331 
L 1581 0 
L 38 0 
L 38 331 
L 575 331 
L 1919 2291 
L 556 4331 
L 56 4331 
L 56 4666 
L 1906 4666 
L 1906 4331 
L 1356 4331 
L 2356 2828 
L 3384 4331 
L 2784 4331 
L 2784 4666 
L 4313 4666 
L 4313 4331 
L 3788 4331 
L 2553 2534 
L 4025 331 
L 4525 331 
L 4525 0 
L 2675 0 
L 2675 331 
L 3231 331 
L 2119 1997 
z
" transform="scale(0.015625)"/>
       <path id="DejaVuSerif-20" transform="scale(0.015625)"/>
       <path id="DejaVuSerif-5b" d="M 550 4863 
L 2003 4863 
L 2003 4531 
L 1147 4531 
L 1147 -513 
L 2003 -513 
L 2003 -844 
L 550 -844 
L 550 4863 
z
" transform="scale(0.015625)"/>
       <path id="DejaVuSerif-6b" d="M 1831 0 
L 219 0 
L 219 331 
L 738 331 
L 738 4531 
L 184 4531 
L 184 4863 
L 1313 4863 
L 1313 1697 
L 2713 2988 
L 2234 2988 
L 2234 3322 
L 3738 3322 
L 3738 2988 
L 3169 2988 
L 2181 2075 
L 3444 331 
L 3922 331 
L 3922 0 
L 2284 0 
L 2284 331 
L 2759 331 
L 1766 1697 
L 1313 1275 
L 1313 331 
L 1831 331 
L 1831 0 
z
" transform="scale(0.015625)"/>
       <path id="DejaVuSerif-6d" d="M 3316 2675 
Q 3481 3041 3739 3227 
Q 3997 3413 4341 3413 
Q 4863 3413 5119 3089 
Q 5375 2766 5375 2113 
L 5375 331 
L 5894 331 
L 5894 0 
L 4300 0 
L 4300 331 
L 4800 331 
L 4800 2047 
Q 4800 2556 4650 2772 
Q 4500 2988 4153 2988 
Q 3769 2988 3567 2697 
Q 3366 2406 3366 1850 
L 3366 331 
L 3866 331 
L 3866 0 
L 2291 0 
L 2291 331 
L 2791 331 
L 2791 2069 
Q 2791 2566 2641 2777 
Q 2491 2988 2144 2988 
Q 1759 2988 1557 2697 
Q 1356 2406 1356 1850 
L 1356 331 
L 1856 331 
L 1856 0 
L 263 0 
L 263 331 
L 781 331 
L 781 2994 
L 231 2994 
L 231 3322 
L 1356 3322 
L 1356 2731 
Q 1516 3063 1762 3238 
Q 2009 3413 2322 3413 
Q 2709 3413 2968 3220 
Q 3228 3028 3316 2675 
z
" transform="scale(0.015625)"/>
       <path id="DejaVuSerif-5d" d="M 1947 4863 
L 1947 -844 
L 494 -844 
L 494 -513 
L 1350 -513 
L 1350 4531 
L 494 4531 
L 494 4863 
L 1947 4863 
z
" transform="scale(0.015625)"/>
      </defs>
      <use xlink:href="#DejaVuSerif-58"/>
      <use xlink:href="#DejaVuSerif-20" transform="translate(71.191406 0)"/>
      <use xlink:href="#DejaVuSerif-5b" transform="translate(102.978516 0)"/>
      <use xlink:href="#DejaVuSerif-6b" transform="translate(141.992188 0)"/>
      <use xlink:href="#DejaVuSerif-6d" transform="translate(202.587891 0)"/>
      <use xlink:href="#DejaVuSerif-5d" transform="translate(297.412109 0)"/>
     </g>
    </g>
   </g>
   <g id="matplotlib.axis_2">
    <g id="ytick_1">
     <g id="line2d_9">
      <defs>
       <path id="ma0cec415ed" d="M 0 0 
L -3.5 0 
" style="stroke: #000000; stroke-width: 0.8"/>
      </defs>
      <g>
       <use xlink:href="#ma0cec415ed" x="90" y="580.462352" style="stroke: #000000; stroke-width: 0.8"/>
      </g>
     </g>
     <g id="text_10">
      <!-- −300000 -->
      <g transform="translate(36.445312 584.261571) scale(0.1 -0.1)">
       <use xlink:href="#DejaVuSerif-2212"/>
       <use xlink:href="#DejaVuSerif-33" transform="translate(83.789062 0)"/>
       <use xlink:href="#DejaVuSerif-30" transform="translate(147.412109 0)"/>
       <use xlink:href="#DejaVuSerif-30" transform="translate(211.035156 0)"/>
       <use xlink:href="#DejaVuSerif-30" transform="translate(274.658203 0)"/>
       <use xlink:href="#DejaVuSerif-30" transform="translate(338.28125 0)"/>
       <use xlink:href="#DejaVuSerif-30" transform="translate(401.904297 0)"/>
      </g>
     </g>
    </g>
    <g id="ytick_2">
     <g id="line2d_10">
      <g>
       <use xlink:href="#ma0cec415ed" x="90" y="509.381204" style="stroke: #000000; stroke-width: 0.8"/>
      </g>
     </g>
     <g id="text_11">
      <!-- −200000 -->
      <g transform="translate(36.445312 513.180423) scale(0.1 -0.1)">
       <use xlink:href="#DejaVuSerif-2212"/>
       <use xlink:href="#DejaVuSerif-32" transform="translate(83.789062 0)"/>
       <use xlink:href="#DejaVuSerif-30" transform="translate(147.412109 0)"/>
       <use xlink:href="#DejaVuSerif-30" transform="translate(211.035156 0)"/>
       <use xlink:href="#DejaVuSerif-30" transform="translate(274.658203 0)"/>
       <use xlink:href="#DejaVuSerif-30" transform="translate(338.28125 0)"/>
       <use xlink:href="#DejaVuSerif-30" transform="translate(401.904297 0)"/>
      </g>
     </g>
    </g>
    <g id="ytick_3">
     <g id="line2d_11">
      <g>
       <use xlink:href="#ma0cec415ed" x="90" y="438.300056" style="stroke: #000000; stroke-width: 0.8"/>
      </g>
     </g>
     <g id="text_12">
      <!-- −100000 -->
      <g transform="translate(36.445312 442.099275) scale(0.1 -0.1)">
       <use xlink:href="#DejaVuSerif-2212"/>
       <use xlink:href="#DejaVuSerif-31" transform="translate(83.789062 0)"/>
       <use xlink:href="#DejaVuSerif-30" transform="translate(147.412109 0)"/>
       <use xlink:href="#DejaVuSerif-30" transform="translate(211.035156 0)"/>
       <use xlink:href="#DejaVuSerif-30" transform="translate(274.658203 0)"/>
       <use xlink:href="#DejaVuSerif-30" transform="translate(338.28125 0)"/>
       <use xlink:href="#DejaVuSerif-30" transform="translate(401.904297 0)"/>
      </g>
     </g>
    </g>
    <g id="ytick_4">
     <g id="line2d_12">
      <g>
       <use xlink:href="#ma0cec415ed" x="90" y="367.218909" style="stroke: #000000; stroke-width: 0.8"/>
      </g>
     </g>
     <g id="text_13">
      <!-- 0 -->
      <g transform="translate(76.6375 371.018127) scale(0.1 -0.1)">
       <use xlink:href="#DejaVuSerif-30"/>
      </g>
     </g>
    </g>
    <g id="ytick_5">
     <g id="line2d_13">
      <g>
       <use xlink:href="#ma0cec415ed" x="90" y="296.137761" style="stroke: #000000; stroke-width: 0.8"/>
      </g>
     </g>
     <g id="text_14">
      <!-- 100000 -->
      <g transform="translate(44.825 299.936979) scale(0.1 -0.1)">
       <use xlink:href="#DejaVuSerif-31"/>
       <use xlink:href="#DejaVuSerif-30" transform="translate(63.623047 0)"/>
       <use xlink:href="#DejaVuSerif-30" transform="translate(127.246094 0)"/>
       <use xlink:href="#DejaVuSerif-30" transform="translate(190.869141 0)"/>
       <use xlink:href="#DejaVuSerif-30" transform="translate(254.492188 0)"/>
       <use xlink:href="#DejaVuSerif-30" transform="translate(318.115234 0)"/>
      </g>
     </g>
    </g>
    <g id="ytick_6">
     <g id="line2d_14">
      <g>
       <use xlink:href="#ma0cec415ed" x="90" y="225.056613" style="stroke: #000000; stroke-width: 0.8"/>
      </g>
     </g>
     <g id="text_15">
      <!-- 200000 -->
      <g transform="translate(44.825 228.855832) scale(0.1 -0.1)">
       <use xlink:href="#DejaVuSerif-32"/>
       <use xlink:href="#DejaVuSerif-30" transform="translate(63.623047 0)"/>
       <use xlink:href="#DejaVuSerif-30" transform="translate(127.246094 0)"/>
       <use xlink:href="#DejaVuSerif-30" transform="translate(190.869141 0)"/>
       <use xlink:href="#DejaVuSerif-30" transform="translate(254.492188 0)"/>
       <use xlink:href="#DejaVuSerif-30" transform="translate(318.115234 0)"/>
      </g>
     </g>
    </g>
    <g id="ytick_7">
     <g id="line2d_15">
      <g>
       <use xlink:href="#ma0cec415ed" x="90" y="153.975465" style="stroke: #000000; stroke-width: 0.8"/>
      </g>
     </g>
     <g id="text_16">
      <!-- 300000 -->
      <g transform="translate(44.825 157.774684) scale(0.1 -0.1)">
       <use xlink:href="#DejaVuSerif-33"/>
       <use xlink:href="#DejaVuSerif-30" transform="translate(63.623047 0)"/>
       <use xlink:href="#DejaVuSerif-30" transform="translate(127.246094 0)"/>
       <use xlink:href="#DejaVuSerif-30" transform="translate(190.869141 0)"/>
       <use xlink:href="#DejaVuSerif-30" transform="translate(254.492188 0)"/>
       <use xlink:href="#DejaVuSerif-30" transform="translate(318.115234 0)"/>
      </g>
     </g>
    </g>
    <g id="text_17">
     <!-- Y [km] -->
     <g transform="translate(29.117812 390.1) rotate(-90) scale(0.16 -0.16)">
      <defs>
       <path id="DejaVuSerif-59" d="M 1209 0 
L 1209 331 
L 1806 331 
L 1806 2009 
L 366 4331 
L -72 4331 
L -72 4666 
L 1663 4666 
L 1663 4331 
L 1119 4331 
L 2284 2444 
L 3450 4331 
L 2925 4331 
L 2925 4666 
L 4281 4666 
L 4281 4331 
L 3841 4331 
L 2438 2069 
L 2438 331 
L 3034 331 
L 3034 0 
L 1209 0 
z
" transform="scale(0.015625)"/>
      </defs>
      <use xlink:href="#DejaVuSerif-59"/>
      <use xlink:href="#DejaVuSerif-20" transform="translate(66.015625 0)"/>
      <use xlink:href="#DejaVuSerif-5b" transform="translate(97.802734 0)"/>
      <use xlink:href="#DejaVuSerif-6b" transform="translate(136.816406 0)"/>
      <use xlink:href="#DejaVuSerif-6d" transform="translate(197.412109 0)"/>
      <use xlink:href="#DejaVuSerif-5d" transform="translate(292.236328 0)"/>
     </g>
    </g>
   </g>
   <g id="line2d_16">
    <path d="M 585.251486 367.218909 
L 585.143037 376.516054 
L 584.885944 381.737022 
L 584.472879 385.77044 
L 583.972797 388.758888 
L 583.298405 391.520218 
L 582.434328 394.043878 
L 581.370599 396.320775 
L 580.438299 397.861255 
L 579.389489 399.254253 
L 578.224037 400.49585 
L 576.942514 401.581948 
L 575.545995 402.508258 
L 574.035961 403.270315 
L 572.414155 403.863492 
L 570.682451 404.283027 
L 568.84277 404.524038 
L 566.897001 404.581552 
L 564.846886 404.45053 
L 562.693909 404.12587 
L 560.439273 403.602434 
L 558.083777 402.875055 
L 554.786618 401.579012 
L 551.309529 399.898892 
L 547.649204 397.822407 
L 543.799456 395.337316 
L 539.750773 392.43148 
L 535.489686 389.092943 
L 530.998118 385.310096 
L 525.023193 379.940075 
L 518.591197 373.839759 
L 508.665549 364.047165 
L 490.208657 345.722036 
L 482.361852 338.223765 
L 473.750512 330.345822 
L 466.718258 324.233849 
L 459.133506 317.998089 
L 453.742113 313.801857 
L 448.063367 309.600178 
L 442.081406 305.419541 
L 435.781825 301.290681 
L 429.152588 297.248797 
L 422.18508 293.333587 
L 414.875368 289.589006 
L 407.22556 286.062668 
L 399.245173 282.804807 
L 390.952377 279.866756 
L 386.697104 278.533492 
L 382.374912 277.298841 
L 377.990822 276.168534 
L 373.550461 275.147907 
L 369.060033 274.24182 
L 364.526263 273.454573 
L 359.956345 272.78983 
L 355.357862 272.250547 
L 350.738706 271.838924 
L 346.10698 271.556351 
L 341.470903 271.4034 
L 336.838699 271.379793 
L 332.218501 271.48444 
L 327.618245 271.715442 
L 323.045584 272.070146 
L 318.507798 272.545188 
L 314.011724 273.136586 
L 309.563701 273.839789 
L 300.834392 275.561135 
L 292.359175 277.664847 
L 284.167846 280.102962 
L 276.281014 282.826305 
L 268.710968 285.786521 
L 261.46281 288.93752 
L 254.535732 292.236537 
L 247.924312 295.644687 
L 241.61965 299.127264 
L 235.610409 302.653716 
L 227.121834 307.968593 
L 219.221497 313.249078 
L 211.861265 318.437236 
L 202.807406 325.136304 
L 192.568935 333.058827 
L 179.944789 343.160037 
L 160.681863 358.606536 
L 152.109658 365.167689 
L 145.604457 369.879194 
L 139.807164 373.810477 
L 134.671935 377.026851 
L 130.167485 379.597421 
L 126.273341 381.593592 
L 122.485398 383.29367 
L 119.141009 384.550875 
L 116.254488 385.397042 
L 115.363636 385.630707 
L 115.54464 385.6689 
L 118.985167 386.039737 
L 122.378985 386.68682 
L 126.294089 387.690404 
L 130.374074 388.966811 
L 135.146953 390.701734 
L 140.643506 392.963022 
L 146.904595 395.814748 
L 153.984388 399.315277 
L 161.954494 403.514249 
L 172.505399 409.343079 
L 207.390177 428.868639 
L 217.062998 433.941728 
L 224.884022 437.844325 
L 233.233856 441.782181 
L 242.152051 445.698108 
L 248.432073 448.26161 
L 254.991646 450.75816 
L 261.839231 453.158605 
L 268.980935 455.429999 
L 276.419593 457.535601 
L 284.153726 459.435052 
L 292.17638 461.084878 
L 300.473952 462.439355 
L 309.025037 463.45179 
L 317.799561 464.076339 
L 322.258708 464.229591 
L 326.75828 464.270201 
L 331.291973 464.193705 
L 335.852966 463.996178 
L 340.43398 463.674275 
L 345.027341 463.22534 
L 349.62506 462.647442 
L 354.218915 461.939452 
L 358.800554 461.101066 
L 363.361599 460.132831 
L 367.893749 459.036156 
L 372.388894 457.813287 
L 376.839215 456.467287 
L 381.237277 455.001975 
L 385.576118 453.421871 
L 389.849326 451.732111 
L 394.051082 449.938381 
L 398.176225 448.046804 
L 402.220258 446.063846 
L 410.050451 441.85086 
L 417.519291 437.354699 
L 424.614612 432.63067 
L 431.333276 427.731981 
L 437.679648 422.708215 
L 443.664011 417.60437 
L 449.301048 412.460363 
L 454.608453 407.310949 
L 459.605771 402.185887 
L 464.313481 397.110283 
L 470.877207 389.6343 
L 476.903849 382.371062 
L 482.457289 375.360577 
L 489.225691 366.453369 
L 498.253566 354.111308 
L 515.585412 330.245593 
L 520.873079 323.360049 
L 525.80053 317.292545 
L 530.408495 312.008075 
L 533.882343 308.31914 
L 537.175512 305.087454 
L 540.291342 302.292673 
L 543.229865 299.914149 
L 545.988508 297.931007 
L 548.562531 296.322165 
L 550.945501 295.066366 
L 553.12965 294.142169 
L 555.106151 293.527962 
L 556.865379 293.201889 
L 558.397074 293.141915 
L 559.690534 293.325713 
L 560.734768 293.730651 
L 561.347599 294.165735 
L 561.809099 294.702542 
L 562.114448 295.331154 
L 562.258759 296.041531 
L 562.23718 296.823469 
L 561.941848 297.959524 
L 561.33115 299.179485 
L 560.393183 300.457845 
L 559.115829 301.768504 
L 557.486516 303.084733 
L 555.492182 304.37915 
L 553.118853 305.623744 
L 550.35153 306.789913 
L 547.173812 307.848568 
L 543.56746 308.77029 
L 539.511937 309.525535 
L 534.983937 310.084947 
L 529.956604 310.419762 
L 524.398766 310.50232 
L 518.273797 310.306776 
L 511.53826 309.81009 
L 504.140025 308.99341 
L 496.016047 307.844138 
L 487.089244 306.359002 
L 474.654824 304.048615 
L 444.546491 298.287934 
L 433.824883 296.476916 
L 426.155044 295.335079 
L 418.028574 294.299745 
L 409.410992 293.432598 
L 400.269054 292.813058 
L 390.574616 292.542797 
L 385.514332 292.577707 
L 380.311125 292.750609 
L 374.966453 293.082536 
L 369.484091 293.5966 
L 363.870771 294.317888 
L 358.136901 295.273216 
L 352.297352 296.490613 
L 346.372246 297.998554 
L 340.38764 299.824815 
L 334.37599 301.994954 
L 328.376198 304.530444 
L 322.433053 307.446553 
L 316.595922 310.750244 
L 310.916639 314.438381 
L 305.446694 318.496648 
L 300.234073 322.899502 
L 295.320177 327.611271 
L 290.737337 332.588333 
L 286.507308 337.782022 
L 282.640911 343.141762 
L 279.138734 348.617957 
L 275.992571 354.164313 
L 273.187334 359.739398 
L 270.703007 365.307482 
L 268.516488 370.838746 
L 266.603112 376.309054 
L 264.937871 381.699446 
L 263.496263 386.995487 
L 262.25491 392.186585 
L 261.19189 397.265325 
L 260.286943 402.226867 
L 258.878877 411.788824 
L 257.902572 420.867377 
L 257.254425 429.47303 
L 256.851612 437.624812 
L 256.567321 449.052513 
L 256.54018 462.924461 
L 256.796719 503.78813 
L 256.544235 512.291999 
L 256.093281 519.965095 
L 255.441461 526.873297 
L 254.596072 533.071619 
L 253.57121 538.606363 
L 252.385784 543.517039 
L 251.062161 547.837635 
L 249.625187 551.597989 
L 248.101489 554.824581 
L 246.519039 557.541254 
L 244.906704 559.769881 
L 243.294035 561.530753 
L 241.711056 562.843073 
L 240.561572 563.543963 
L 239.458781 564.010284 
L 238.415647 564.249397 
L 237.44518 564.268501 
L 236.560436 564.074679 
L 235.774525 563.674985 
L 235.100564 563.076388 
L 234.551762 562.285795 
L 234.141352 561.310027 
L 233.882655 560.155878 
L 233.789066 558.830024 
L 233.874104 557.339013 
L 234.151425 555.68926 
L 234.634854 553.886956 
L 235.338407 551.938092 
L 236.27639 549.848272 
L 237.46338 547.62274 
L 238.914328 545.266202 
L 240.644623 542.782713 
L 242.670146 540.175516 
L 245.007401 537.446872 
L 247.673555 534.597776 
L 250.686586 531.627707 
L 255.276352 527.474874 
L 260.564222 523.089752 
L 266.601711 518.449524 
L 273.444581 513.517595 
L 281.153027 508.23843 
L 292.103784 501.023047 
L 315.879546 485.465386 
L 325.047498 479.175886 
L 331.508614 474.54727 
L 338.238867 469.496778 
L 345.218226 463.947491 
L 352.411062 457.808165 
L 356.07035 454.484557 
L 359.758653 450.972355 
L 363.463302 447.25608 
L 367.168684 443.319681 
L 370.855736 439.146882 
L 374.501423 434.7217 
L 378.078232 430.029185 
L 381.553765 425.056423 
L 384.890533 419.79384 
L 388.046101 414.236805 
L 390.973773 408.38745 
L 393.623966 402.256552 
L 395.946438 395.86519 
L 397.89331 389.245774 
L 399.422704 382.442033 
L 400.502471 375.507633 
L 401.113339 368.503352 
L 401.250847 361.493141 
L 400.925568 354.539705 
L 400.161643 347.7004 
L 398.993972 341.024113 
L 397.464733 334.549476 
L 395.619868 328.304445 
L 393.506014 322.306923 
L 391.168185 316.566082 
L 388.648195 311.083995 
L 385.983804 305.857279 
L 383.208346 300.878605 
L 380.35077 296.137969 
L 377.435872 291.623698 
L 374.484683 287.323239 
L 371.51489 283.223711 
L 365.576096 275.576599 
L 359.709832 268.585215 
L 353.977224 262.162201 
L 348.418688 256.231338 
L 340.461045 248.117547 
L 330.625158 238.490416 
L 306.518077 215.204653 
L 300.177381 208.745069 
L 294.607292 202.76775 
L 289.75905 197.21343 
L 285.58502 192.040629 
L 282.039273 187.220895 
L 279.077722 182.735695 
L 276.658063 178.573823 
L 274.739597 174.729612 
L 273.283047 171.201678 
L 272.250311 167.991828 
L 271.604297 165.104248 
L 271.308712 162.544915 
L 271.327938 160.321158 
L 271.527826 158.878549 
L 271.870388 157.633149 
L 272.341082 156.588915 
L 272.925453 155.749967 
L 273.609104 155.120476 
L 274.377703 154.70474 
L 275.21696 154.507124 
L 276.112616 154.532058 
L 277.050461 154.784086 
L 278.016293 155.2678 
L 278.995945 155.987907 
L 279.975279 156.949294 
L 280.940187 158.157008 
L 281.876607 159.616311 
L 282.770529 161.332739 
L 283.608022 163.31222 
L 284.37525 165.561091 
L 285.058502 168.086304 
L 285.815522 171.89633 
L 286.367809 176.231487 
L 286.684981 181.115518 
L 286.738176 186.576469 
L 286.500704 192.648004 
L 285.949028 199.370886 
L 285.064206 206.795082 
L 283.834074 214.98225 
L 282.256546 224.009131 
L 279.818191 236.62212 
L 274.437522 263.841652 
L 272.550424 274.492407 
L 271.346862 282.114527 
L 270.239536 290.193018 
L 269.28858 298.762788 
L 268.571592 307.857949 
L 268.188167 317.508157 
L 268.159911 322.547998 
L 268.264875 327.732407 
L 268.523833 333.060439 
L 268.959674 338.528939 
L 269.597341 344.131916 
L 270.463584 349.859821 
L 271.586537 355.698764 
L 272.994978 361.629708 
L 274.717253 367.627737 
L 276.779802 373.661534 
L 279.20534 379.693236 
L 282.01074 385.678863 
L 285.204878 391.569504 
L 288.786735 397.313298 
L 292.744167 402.858162 
L 297.053624 408.154949 
L 301.681084 413.160613 
L 306.58408 417.840848 
L 311.714519 422.17177 
L 317.021841 426.140493 
L 322.456002 429.744581 
L 327.969907 432.990696 
L 333.521117 435.892742 
L 339.072795 438.4699 
L 344.594022 440.74473 
L 350.059623 442.741613 
L 355.449699 444.485467 
L 360.748995 446.000826 
L 365.946212 447.311217 
L 371.033344 448.438746 
L 376.005058 449.403903 
L 385.59117 450.9205 
L 394.697084 451.991093 
L 403.331775 452.721095 
L 411.51334 453.194866 
L 422.986016 453.56799 
L 433.572 453.683043 
L 449.458298 453.610944 
L 470.994915 453.491925 
L 482.413512 453.668052 
L 490.572375 454.006364 
L 497.945562 454.532064 
L 504.595466 455.243368 
L 510.574626 456.13036 
L 515.927698 457.177428 
L 520.693118 458.364996 
L 524.904304 459.670745 
L 528.590686 461.070416 
L 531.778598 462.53848 
L 534.491851 464.048538 
L 536.752382 465.573702 
L 538.580582 467.086773 
L 539.995733 468.560399 
L 541.016254 469.967219 
L 541.659931 471.27993 
L 541.944059 472.471293 
L 541.931405 473.268899 
L 541.733105 473.971621 
L 541.356146 474.5681 
L 540.807434 475.047026 
L 540.093824 475.397113 
L 539.222109 475.607098 
L 538.198965 475.665704 
L 536.610628 475.488885 
L 534.780116 474.996132 
L 532.722151 474.160507 
L 530.450741 472.954821 
L 527.978914 471.351524 
L 525.318493 469.322598 
L 522.479576 466.839395 
L 519.470176 463.872477 
L 516.295471 460.391422 
L 512.957091 456.364726 
L 509.452072 451.759537 
L 505.77152 446.541583 
L 501.89889 440.67514 
L 497.807782 434.123078 
L 492.325381 424.910792 
L 482.406509 407.635995 
L 473.617389 392.500828 
L 468.606594 384.213901 
L 463.06418 375.456359 
L 459.017769 369.368496 
L 454.644478 363.096109 
L 449.900035 356.659269 
L 444.735891 350.086481 
L 439.100002 343.416975 
L 432.938413 336.703315 
L 429.643753 333.35068 
L 426.198056 330.014147 
L 422.595523 326.7052 
L 418.831082 323.436582 
L 414.90057 320.222282 
L 410.801054 317.077503 
L 406.531075 314.018536 
L 402.090963 311.062612 
L 397.483116 308.227632 
L 392.712261 305.53185 
L 387.785649 302.993453 
L 382.713175 300.630083 
L 377.507395 298.458311 
L 372.18342 296.49308 
L 366.758662 294.747182 
L 361.25246 293.230781 
L 355.685586 291.951033 
L 350.079667 290.91188 
L 344.456573 290.113933 
L 338.837797 289.554553 
L 333.243894 289.228073 
L 327.693992 289.126146 
L 322.205427 289.238154 
L 316.793481 289.55167 
L 311.471247 290.052966 
L 306.249604 290.727464 
L 301.137265 291.560141 
L 296.140917 292.535933 
L 291.265378 293.639994 
L 286.51381 294.857944 
L 281.887926 296.176062 
L 273.014082 299.06179 
L 264.636358 302.203775 
L 256.736233 305.52266 
L 249.288585 308.952511 
L 242.264931 312.439462 
L 235.635653 315.94006 
L 226.367477 321.142737 
L 217.828031 326.212105 
L 207.432651 332.662626 
L 191.511085 342.88085 
L 176.129731 352.698703 
L 167.745598 357.815381 
L 160.165349 362.177477 
L 153.3055 365.824722 
L 148.294339 368.259111 
L 143.68082 370.291782 
L 139.446606 371.949691 
L 135.577656 373.260445 
L 132.063353 374.252037 
L 128.895766 374.952686 
L 126.069064 375.39073 
L 123.579159 375.594558 
L 121.423184 375.592575 
L 119.599301 375.413181 
L 118.106449 375.084755 
L 116.944075 374.635658 
L 116.112114 374.09423 
L 115.610746 373.488796 
L 115.451923 373.009747 
L 115.479577 372.522559 
L 115.694001 372.039174 
L 116.2711 371.421209 
L 117.181967 370.85953 
L 118.427937 370.38244 
L 120.010623 370.018248 
L 121.932175 369.79526 
L 124.195296 369.741774 
L 126.803568 369.886067 
L 129.761618 370.256362 
L 133.07552 370.880793 
L 136.753075 371.787335 
L 140.804462 373.003704 
L 145.242725 374.557207 
L 150.084527 376.474512 
L 155.351103 378.781309 
L 161.069457 381.5018 
L 168.905512 385.517327 
L 177.5883 390.248358 
L 189.290813 396.89833 
L 212.670303 410.268803 
L 223.735434 416.297302 
L 232.827411 420.985301 
L 239.312589 424.150511 
L 246.168048 427.313794 
L 253.421476 430.437808 
L 261.100289 433.476153 
L 269.229967 436.371798 
L 277.831629 439.055549 
L 282.314024 440.292717 
L 286.918529 441.444912 
L 291.644809 442.499707 
L 296.491386 443.443904 
L 301.455447 444.263617 
L 306.532628 444.944443 
L 311.716809 445.471649 
L 316.999938 445.830449 
L 322.371884 446.006323 
L 327.820338 445.985403 
L 333.330809 445.754947 
L 338.886707 445.303772 
L 344.469537 444.622751 
L 350.059217 443.705264 
L 355.634512 442.54758 
L 361.173566 441.149147 
L 366.6545 439.512717 
L 372.056036 437.644364 
L 377.358114 435.553298 
L 382.542431 433.251575 
L 387.592882 430.753645 
L 392.495887 428.075839 
L 397.24055 425.235814 
L 401.818716 422.252 
L 406.224884 419.143067 
L 410.456037 415.927489 
L 414.511397 412.623151 
L 418.39213 409.247056 
L 422.101052 405.815129 
L 425.642324 402.342062 
L 429.021159 398.841261 
L 432.243565 395.324821 
L 438.245762 388.28703 
L 443.704881 381.300819 
L 448.678128 374.421179 
L 453.220818 367.688834 
L 457.38453 361.133051 
L 461.21625 354.774124 
L 466.43203 345.632672 
L 471.116222 336.987612 
L 478.004246 323.696712 
L 492.476989 295.380086 
L 497.223582 286.684774 
L 500.80101 280.521996 
L 504.21227 275.021795 
L 507.473372 270.146721 
L 510.592524 265.861254 
L 513.571958 262.131689 
L 516.409181 258.925944 
L 519.098103 256.213285 
L 521.629831 253.964195 
L 523.99329 252.150083 
L 526.175713 250.743173 
L 528.163093 249.716267 
L 529.940399 249.042632 
L 531.491848 248.695868 
L 532.801155 248.649811 
L 533.851611 248.878435 
L 534.459328 249.214557 
L 534.904591 249.679648 
L 535.180005 250.262764 
L 535.278162 250.952946 
L 535.191552 251.739233 
L 534.912587 252.610638 
L 534.228162 253.885916 
L 533.169564 255.266898 
L 531.717753 256.72752 
L 529.853007 258.241828 
L 527.554692 259.784052 
L 524.80105 261.328759 
L 521.568774 262.851072 
L 517.832638 264.326897 
L 513.564939 265.733343 
L 508.734863 267.04923 
L 503.307689 268.255779 
L 497.243793 269.33761 
L 490.497459 270.284062 
L 483.015464 271.09113 
L 474.735196 271.764195 
L 463.148143 272.447349 
L 441.316536 273.398565 
L 425.252328 274.205649 
L 414.577535 274.946513 
L 406.9883 275.621858 
L 398.998573 276.499811 
L 390.591762 277.643056 
L 381.756312 279.129101 
L 372.489801 281.053038 
L 367.698111 282.214386 
L 362.805151 283.530061 
L 357.81642 285.017807 
L 352.739692 286.69659 
L 347.585484 288.58644 
L 342.367559 290.7081 
L 337.103438 293.082569 
L 331.814871 295.73036 
L 326.528192 298.670593 
L 321.274482 301.919806 
L 316.089399 305.490593 
L 311.012585 309.390091 
L 306.086543 313.618529 
L 301.354974 318.168018 
L 296.860646 323.021855 
L 292.642986 328.154511 
L 288.735731 333.532464 
L 285.164932 339.11583 
L 281.947656 344.860569 
L 279.091532 350.720971 
L 276.595141 356.652072 
L 274.449093 362.611689 
L 272.637546 368.561905 
L 271.139915 374.469945 
L 269.932518 380.308515 
L 268.990056 386.055692 
L 268.286772 391.694536 
L 267.797374 397.212518 
L 267.49766 402.600878 
L 267.36492 407.854002 
L 267.378152 412.968808 
L 267.518172 417.944237 
L 268.110735 427.480157 
L 269.023768 436.47822 
L 270.162616 444.96537 
L 271.452763 452.973269 
L 273.54777 464.158323 
L 275.709868 474.445637 
L 279.208308 489.852585 
L 284.515844 513.091664 
L 286.731417 523.960246 
L 288.102298 531.764902 
L 289.122486 538.853424 
L 289.806825 545.280957 
L 290.175804 551.092239 
L 290.253782 556.323914 
L 290.067778 561.00621 
L 289.646663 565.164384 
L 289.020596 568.819741 
L 288.220621 571.990602 
L 287.997155 572.709521 
L 287.997155 572.709521 
" clip-path="url(#pc9e627564b)" style="fill: none; stroke: #000000; stroke-width: 1.5; stroke-linecap: square"/>
   </g>
   <g id="line2d_17">
    <path d="M 585.251478 367.218909 
L 585.35439 371.806242 
L 585.726745 382.176188 
L 585.57623 385.637089 
L 585.178953 388.824186 
L 584.682229 391.132156 
L 584.011512 393.185246 
L 583.172888 394.954756 
L 582.191613 396.423953 
L 581.075305 397.597461 
L 579.814481 398.50687 
L 578.39528 399.186888 
L 576.80124 399.662352 
L 575.014349 399.942703 
L 573.041181 400.028037 
L 570.904326 399.886555 
L 568.614136 399.472818 
L 566.159282 398.789645 
L 563.535366 397.85324 
L 560.033509 396.340883 
L 556.276581 394.428603 
L 553.067934 392.570147 
L 548.76066 389.779684 
L 544.073414 386.441776 
L 538.988335 382.534905 
L 532.377033 377.123518 
L 526.424587 371.982382 
L 520.033448 366.154763 
L 511.694863 358.244707 
L 490.377149 337.76802 
L 482.52929 330.649493 
L 476.167161 325.136956 
L 469.38482 319.484636 
L 462.122482 313.687191 
L 454.324791 307.772123 
L 448.795799 303.786164 
L 442.971021 299.793853 
L 436.82554 295.827247 
L 430.354373 291.928835 
L 423.572087 288.150478 
L 416.498192 284.546241 
L 409.15025 281.164434 
L 401.539875 278.045137 
L 393.67459 275.240414 
L 385.573536 272.78666 
L 377.256764 270.696585 
L 368.723965 268.982707 
L 364.381973 268.280892 
L 359.99432 267.691729 
L 355.568338 267.219506 
L 351.115211 266.866577 
L 346.646041 266.634098 
L 342.170422 266.520756 
L 337.697064 266.523777 
L 333.234773 266.640395 
L 328.791737 266.869809 
L 324.375726 267.214942 
L 319.995485 267.678035 
L 315.65941 268.25818 
L 311.372975 268.951243 
L 307.141942 269.753416 
L 302.972949 270.660434 
L 298.871981 271.66812 
L 290.868871 273.975081 
L 283.107493 276.621304 
L 275.606649 279.524586 
L 268.399715 282.632598 
L 261.501845 285.913387 
L 254.905875 289.3358 
L 248.610696 292.875769 
L 242.605905 296.517045 
L 236.875398 300.236905 
L 228.754132 305.861556 
L 221.124127 311.477444 
L 213.910512 317.058903 
L 207.117386 322.573228 
L 200.81019 327.999785 
L 194.983968 333.338862 
L 187.857083 340.247814 
L 182.994877 345.232086 
L 178.582026 350.024598 
L 173.351642 356.047101 
L 167.663073 362.906693 
L 159.797611 372.844466 
L 141.873622 395.646342 
L 138.601646 400.175566 
L 136.896098 402.864358 
L 135.592359 405.34592 
L 134.665594 407.634838 
L 134.096079 409.747476 
L 133.853114 411.707138 
L 133.885878 413.533216 
L 134.178222 415.22134 
L 134.578009 416.396062 
L 135.135374 417.492017 
L 135.841654 418.507616 
L 137.005497 419.730212 
L 138.416413 420.791115 
L 140.077357 421.693068 
L 142.003767 422.467491 
L 144.842837 423.334559 
L 152.139584 425.364754 
L 156.552346 426.964562 
L 162.475705 429.390029 
L 175.445848 435.00886 
L 195.8289 443.952912 
L 223.900956 456.604507 
L 233.407804 460.5478 
L 243.727932 464.613598 
L 252.010251 467.668765 
L 257.801238 469.646931 
L 263.812326 471.531171 
L 270.039263 473.281211 
L 276.472329 474.866776 
L 283.109187 476.278281 
L 289.939007 477.509195 
L 296.955022 478.538017 
L 304.153246 479.358749 
L 311.534282 479.982208 
L 319.075306 480.393668 
L 326.75723 480.554034 
L 334.535221 480.418024 
L 342.346576 479.93776 
L 350.174988 479.092572 
L 357.961829 477.871887 
L 365.674556 476.300371 
L 373.326373 474.441099 
L 380.904357 472.320349 
L 388.371306 469.930157 
L 395.700942 467.266057 
L 402.853082 464.341945 
L 409.791397 461.166884 
L 416.499846 457.7539 
L 422.958729 454.127612 
L 429.143045 450.305162 
L 435.028941 446.32228 
L 440.61848 442.18533 
L 445.93425 437.905578 
L 451.004057 433.533538 
L 455.847693 429.121981 
L 462.736523 422.484507 
L 469.206718 415.884039 
L 475.220127 409.333467 
L 478.950743 404.989842 
L 484.124907 398.550365 
L 488.845617 392.255199 
L 493.198726 386.109343 
L 498.611311 378.098559 
L 506.015846 366.721265 
L 511.506975 357.894337 
L 518.327234 346.438736 
L 528.144184 329.89931 
L 533.034379 322.075502 
L 536.874715 316.35656 
L 539.869231 312.256538 
L 542.675626 308.728864 
L 545.295588 305.771827 
L 547.688646 303.378714 
L 550.145499 301.230847 
L 552.069954 299.850562 
L 553.257032 299.27641 
L 553.910068 299.163002 
L 554.239084 299.290104 
L 554.242105 299.519119 
L 553.912289 299.952891 
L 553.206364 300.460633 
L 552.134749 300.981708 
L 550.292126 301.586103 
L 547.880831 302.122049 
L 544.845489 302.543466 
L 541.168883 302.807333 
L 536.914943 302.871344 
L 532.15646 302.701372 
L 526.890946 302.271569 
L 520.96721 301.520092 
L 512.79491 300.209405 
L 504.921007 298.748938 
L 495.950289 296.836683 
L 479.060575 293.124936 
L 461.504897 289.668093 
L 431.225806 283.770468 
L 424.351875 282.676563 
L 417.132546 281.683043 
L 409.520822 280.805724 
L 401.479417 280.098355 
L 392.993589 279.63098 
L 384.07487 279.482226 
L 379.461318 279.561348 
L 374.752933 279.766184 
L 369.956011 280.112016 
L 365.073194 280.609867 
L 360.107092 281.270011 
L 355.062665 282.104004 
L 349.950158 283.127184 
L 344.787036 284.35962 
L 339.594717 285.813824 
L 334.389927 287.495748 
L 329.186338 289.414428 
L 324.006333 291.575578 
L 318.87112 293.979904 
L 313.798344 296.624833 
L 308.806773 299.508595 
L 303.918293 302.629619 
L 299.158332 305.984343 
L 294.551996 309.569876 
L 290.116888 313.380709 
L 285.864742 317.403502 
L 281.815704 321.61265 
L 277.99341 325.974725 
L 274.410453 330.458132 
L 271.069662 335.037152 
L 267.966931 339.692945 
L 265.099395 344.410747 
L 262.468504 349.170254 
L 260.06936 353.943718 
L 257.884858 358.702043 
L 255.892115 363.425142 
L 254.074648 368.103219 
L 252.424777 372.728709 
L 250.936471 377.293651 
L 249.599634 381.79088 
L 247.327859 390.569707 
L 245.51379 399.029019 
L 244.088346 407.12472 
L 242.97948 414.862392 
L 242.133904 422.269453 
L 241.216823 432.817662 
L 240.341304 446.009418 
L 239.745799 458.306095 
L 239.199163 474.865643 
L 238.133334 512.151381 
L 237.684779 516.972826 
L 237.05681 521.509003 
L 236.269687 525.742663 
L 235.081254 530.887572 
L 233.833858 535.420383 
L 232.559195 539.315741 
L 231.245804 542.623158 
L 229.926694 545.403197 
L 228.621233 547.650361 
L 227.337063 549.34749 
L 226.404667 550.267314 
L 225.51703 550.899358 
L 224.703795 551.258785 
L 223.988386 551.35601 
L 223.389316 551.190269 
L 222.917826 550.778798 
L 222.576947 550.144876 
L 222.371923 549.306563 
L 222.316602 547.90933 
L 222.543506 546.244398 
L 223.093963 544.345055 
L 224.002935 542.234811 
L 225.291237 539.923896 
L 226.997351 537.415453 
L 229.146934 534.700365 
L 232.421153 530.99195 
L 236.380407 526.914302 
L 240.118398 523.384079 
L 243.315994 520.602441 
L 246.907036 517.744323 
L 250.935782 514.835994 
L 255.44537 511.867301 
L 262.254855 507.738708 
L 272.173074 502.039655 
L 283.729364 495.634421 
L 299.811129 486.811085 
L 308.702515 481.621728 
L 318.209099 475.699947 
L 328.448703 468.99504 
L 335.639464 463.967314 
L 343.068839 458.339864 
L 346.849985 455.253571 
L 350.662387 451.965413 
L 354.49779 448.467709 
L 358.347476 444.751576 
L 362.195231 440.799803 
L 366.016984 436.588606 
L 369.787018 432.0945 
L 373.478704 427.30056 
L 377.060685 422.195984 
L 380.495693 416.775813 
L 383.738554 411.037337 
L 386.734974 404.977639 
L 389.430121 398.604148 
L 391.765373 391.935015 
L 393.679805 385.009706 
L 395.124268 377.891677 
L 396.061329 370.65219 
L 396.479191 363.367006 
L 396.38658 356.100313 
L 395.791653 348.913029 
L 394.719589 341.880559 
L 393.216122 335.0681 
L 391.336523 328.513999 
L 389.145916 322.236209 
L 386.705198 316.232718 
L 384.061218 310.489461 
L 381.249958 304.997093 
L 378.301973 299.753409 
L 375.247627 294.757509 
L 372.116583 290.008422 
L 368.935841 285.501889 
L 365.72858 281.229467 
L 362.514653 277.179458 
L 356.123445 269.694507 
L 349.862414 262.954226 
L 343.798163 256.850288 
L 337.968931 251.286067 
L 329.708347 243.802333 
L 322.009061 237.169385 
L 308.28461 225.703829 
L 292.951526 212.859032 
L 286.646923 207.235358 
L 281.295623 202.101001 
L 276.716048 197.409922 
L 272.790725 193.073972 
L 269.458868 189.010941 
L 266.673404 185.225303 
L 264.372629 181.7268 
L 262.522559 178.576406 
L 261.147622 175.810949 
L 260.240893 173.436639 
L 259.746457 171.445279 
L 259.597453 169.811278 
L 259.725999 168.545856 
L 259.966164 167.87003 
L 260.307026 167.456138 
L 260.733824 167.314886 
L 261.235029 167.448608 
L 261.799747 167.85106 
L 262.623922 168.781202 
L 263.504889 170.158288 
L 264.391732 172.009507 
L 265.241413 174.333817 
L 266.271601 177.888029 
L 267.258113 182.168469 
L 267.949699 186.173403 
L 268.558653 190.74642 
L 269.009508 195.886242 
L 269.219192 201.605687 
L 269.16974 208.01483 
L 268.814418 215.235075 
L 268.161687 223.28557 
L 265.56506 249.935914 
L 264.135257 261.739116 
L 261.459846 282.178762 
L 260.677998 289.774748 
L 260.076307 297.782101 
L 259.706096 306.236548 
L 259.630511 315.18366 
L 259.734762 319.851292 
L 259.954219 324.652532 
L 260.300362 329.591173 
L 260.784386 334.666444 
L 261.429503 339.868921 
L 262.266622 345.184154 
L 263.318812 350.60128 
L 264.601744 356.110944 
L 266.130122 361.699815 
L 267.920506 367.341627 
L 269.993932 373.002557 
L 272.37906 378.655347 
L 275.099274 384.269052 
L 278.163777 389.808617 
L 281.577338 395.247863 
L 285.340701 400.562231 
L 289.447915 405.712521 
L 293.877264 410.64126 
L 298.584657 415.285258 
L 303.525802 419.597424 
L 308.674457 423.561797 
L 313.99462 427.183054 
L 319.435135 430.472078 
L 324.952749 433.441271 
L 330.516914 436.09784 
L 336.101359 438.442668 
L 341.672364 440.479793 
L 347.199833 442.228073 
L 352.662487 443.717078 
L 358.041057 444.973627 
L 363.316915 446.020719 
L 368.472905 446.879323 
L 373.498026 447.567217 
L 378.389111 448.100297 
L 387.78401 448.768782 
L 396.675831 449.009214 
L 405.073024 448.949995 
L 416.811615 448.532854 
L 431.069272 447.687988 
L 447.011785 446.460461 
L 463.827974 445.121309 
L 473.847372 444.5486 
L 480.743599 444.403245 
L 492.962826 444.487493 
L 503.576252 444.704823 
L 509.986061 445.034651 
L 515.930544 445.583047 
L 521.419997 446.371704 
L 525.252892 447.118472 
L 529.953688 448.290773 
L 534.143222 449.606551 
L 537.829846 450.985059 
L 541.843776 452.723921 
L 545.298609 454.443257 
L 549.827411 456.980421 
L 552.778767 458.826221 
L 554.17891 459.918832 
L 554.82797 460.655855 
L 555.067624 461.27144 
L 554.997809 461.634898 
L 554.728745 461.889546 
L 554.257499 462.023412 
L 553.294105 462.005708 
L 551.541599 461.667029 
L 549.23144 460.953085 
L 546.413072 459.843897 
L 542.390923 457.991645 
L 538.552053 455.971513 
L 534.335252 453.479702 
L 530.74912 451.095307 
L 527.980009 449.031161 
L 525.178957 446.683067 
L 522.348427 444.019407 
L 519.482713 441.032443 
L 516.591077 437.734028 
L 513.682869 434.139771 
L 510.758691 430.244269 
L 506.810866 424.556789 
L 502.765394 418.310766 
L 497.453333 409.677758 
L 478.877252 378.957682 
L 473.847517 371.271421 
L 468.368049 363.311291 
L 462.374986 355.045321 
L 455.820816 346.456706 
L 451.071673 340.543889 
L 445.946345 334.507156 
L 440.393597 328.416782 
L 434.35788 322.352488 
L 431.151426 319.359661 
L 427.818281 316.412609 
L 424.356973 313.524526 
L 420.766998 310.704781 
L 417.050453 307.961427 
L 413.210061 305.299438 
L 409.248237 302.718959 
L 405.167218 300.221834 
L 400.969293 297.81351 
L 396.659682 295.502451 
L 392.245981 293.298124 
L 387.7352 291.21066 
L 383.133828 289.251108 
L 378.447573 287.428926 
L 373.679286 285.751 
L 368.83376 284.222867 
L 363.919707 282.851084 
L 358.95015 281.645159 
L 353.944029 280.613388 
L 348.920493 279.759204 
L 343.897016 279.082172 
L 338.887509 278.574764 
L 333.900765 278.225434 
L 328.946925 278.026406 
L 324.035834 277.974839 
L 319.173551 278.070976 
L 314.368829 278.314379 
L 309.633511 278.701744 
L 304.979937 279.227217 
L 300.418534 279.884379 
L 295.955799 280.665288 
L 291.593094 281.559978 
L 283.155617 283.648836 
L 275.108948 286.043827 
L 267.469307 288.629459 
L 260.245408 291.317398 
L 253.403153 294.059681 
L 243.752499 298.206911 
L 234.703191 302.373182 
L 226.181461 306.556641 
L 218.161675 310.746786 
L 208.151973 316.278548 
L 186.294153 328.741448 
L 161.717169 342.954659 
L 154.91568 346.518907 
L 148.570422 349.63255 
L 142.680149 352.286014 
L 137.286112 354.442864 
L 129.848536 357.064973 
L 124.198984 359.187651 
L 118.17228 361.432053 
L 116.347183 362.13989 
L 116.583105 362.321474 
L 123.444169 366.301378 
L 140.154392 376.633155 
L 145.058946 379.954036 
L 152.744018 385.480524 
L 161.54754 391.786808 
L 168.647692 396.55532 
L 188.913249 409.655528 
L 197.033126 414.727543 
L 205.895568 419.953818 
L 215.496999 425.343224 
L 225.932555 430.955752 
L 234.414358 435.282651 
L 243.542676 439.626853 
L 250.019546 442.471492 
L 256.807918 445.232251 
L 263.907364 447.870505 
L 271.340364 450.350088 
L 279.122717 452.643704 
L 287.260953 454.717097 
L 295.735264 456.517227 
L 304.52632 457.967877 
L 309.032823 458.53737 
L 313.604787 458.988558 
L 318.234722 459.31241 
L 322.914808 459.50158 
L 327.645382 459.549827 
L 332.428086 459.453073 
L 337.253963 459.207004 
L 342.108147 458.812027 
L 346.97504 458.27302 
L 351.842689 457.594523 
L 356.702744 456.778034 
L 361.546893 455.819305 
L 366.366281 454.711122 
L 371.148666 453.448976 
L 375.878003 452.035833 
L 380.538022 450.477812 
L 385.115143 448.779656 
L 389.603409 446.944673 
L 393.998693 444.974882 
L 398.293449 442.877271 
L 402.481989 440.664926 
L 406.56118 438.349119 
L 410.526353 435.940557 
L 414.371555 433.453949 
L 418.093686 430.900292 
L 421.691408 428.283951 
L 425.165466 425.609345 
L 431.756065 420.112579 
L 437.914414 414.464487 
L 443.656621 408.735305 
L 448.995882 402.987839 
L 453.950027 397.278201 
L 458.555407 391.643993 
L 462.839313 386.08999 
L 466.817314 380.622417 
L 472.256132 372.638333 
L 480.321055 360.173156 
L 487.4099 348.780106 
L 493.664574 338.298025 
L 500.193811 326.745558 
L 506.125577 316.464148 
L 512.261724 306.298789 
L 515.504035 301.338763 
L 518.656228 296.992267 
L 521.675333 293.243931 
L 524.524799 290.073795 
L 527.190908 287.446435 
L 529.659557 285.34581 
L 532.384497 283.38517 
L 535.357266 281.553886 
L 538.02061 280.025564 
L 537.936868 279.997381 
L 537.041178 280.081568 
L 534.313861 280.378948 
L 530.977057 280.463618 
L 524.269818 280.358412 
L 518.872071 280.071639 
L 513.721808 279.540096 
L 506.580319 278.523491 
L 469.624353 272.963541 
L 445.247051 269.775085 
L 433.704505 268.498956 
L 424.400716 267.662953 
L 414.523663 267.028676 
L 407.585193 266.776449 
L 400.339248 266.698715 
L 392.770061 266.820952 
L 384.874764 267.18471 
L 376.679638 267.865301 
L 368.22329 268.933351 
L 359.516109 270.416881 
L 350.569071 272.350488 
L 346.024254 273.513709 
L 341.446041 274.82605 
L 336.850569 276.294092 
L 332.255506 277.919951 
L 327.669797 279.707781 
L 323.098649 281.664095 
L 318.55101 283.792909 
L 314.036841 286.097437 
L 309.567625 288.580496 
L 305.153805 291.241364 
L 300.807643 294.077285 
L 296.544595 297.08389 
L 292.381134 300.25708 
L 288.335161 303.593468 
L 284.419501 307.089905 
L 280.638728 310.739939 
L 276.998884 314.529164 
L 273.512826 318.436505 
L 270.193403 322.44165 
L 267.046996 326.528614 
L 264.071839 330.684809 
L 261.265367 334.899632 
L 258.630416 339.16359 
L 256.171331 343.466754 
L 253.887977 347.792259 
L 251.770275 352.118321 
L 249.804614 356.42726 
L 246.283277 364.959801 
L 243.261317 373.33414 
L 240.696931 381.510262 
L 238.556189 389.452445 
L 236.800829 397.120662 
L 235.359615 404.499641 
L 234.201792 411.608741 
L 233.30407 418.479156 
L 232.32034 428.42096 
L 231.36913 441.119768 
L 230.722436 453.103983 
L 230.285054 466.795822 
L 229.440687 501.225642 
L 228.992354 508.005162 
L 228.494453 512.741821 
L 227.615535 518.608659 
L 226.595431 523.933781 
L 226.595431 523.933781 
" clip-path="url(#pc9e627564b)" style="fill: none; stroke-dasharray: 5.55,2.4; stroke-dashoffset: 0; stroke: #ff0000; stroke-width: 1.5"/>
   </g>
   <g id="patch_5">
    <path d="M 90 640.8 
L 90 86.4 
" style="fill: none; stroke: #000000; stroke-width: 0.8; stroke-linejoin: miter; stroke-linecap: square"/>
   </g>
   <g id="patch_6">
    <path d="M 648 640.8 
L 648 86.4 
" style="fill: none; stroke: #000000; stroke-width: 0.8; stroke-linejoin: miter; stroke-linecap: square"/>
   </g>
   <g id="patch_7">
    <path d="M 90 640.8 
L 648 640.8 
" style="fill: none; stroke: #000000; stroke-width: 0.8; stroke-linejoin: miter; stroke-linecap: square"/>
   </g>
   <g id="patch_8">
    <path d="M 90 86.4 
L 648 86.4 
" style="fill: none; stroke: #000000; stroke-width: 0.8; stroke-linejoin: miter; stroke-linecap: square"/>
   </g>
   <g id="text_18">
    <!-- Rotating Frame CR3BP Orbit -->
    <g transform="translate(235.4175 80.4) scale(0.18 -0.18)">
     <defs>
      <path id="DejaVuSerif-52" d="M 3066 2316 
Q 3284 2256 3442 2114 
Q 3600 1972 3725 1716 
L 4403 331 
L 4972 331 
L 4972 0 
L 3872 0 
L 3144 1484 
Q 2934 1916 2759 2042 
Q 2584 2169 2278 2169 
L 1581 2169 
L 1581 331 
L 2241 331 
L 2241 0 
L 353 0 
L 353 331 
L 947 331 
L 947 4331 
L 353 4331 
L 353 4666 
L 2719 4666 
Q 3400 4666 3770 4341 
Q 4141 4016 4141 3419 
Q 4141 2938 3870 2661 
Q 3600 2384 3066 2316 
z
M 1581 2503 
L 2503 2503 
Q 2975 2503 3200 2726 
Q 3425 2950 3425 3419 
Q 3425 3888 3200 4109 
Q 2975 4331 2503 4331 
L 1581 4331 
L 1581 2503 
z
" transform="scale(0.015625)"/>
      <path id="DejaVuSerif-6f" d="M 1925 219 
Q 2388 219 2623 584 
Q 2859 950 2859 1663 
Q 2859 2375 2623 2739 
Q 2388 3103 1925 3103 
Q 1463 3103 1227 2739 
Q 991 2375 991 1663 
Q 991 950 1228 584 
Q 1466 219 1925 219 
z
M 1925 -91 
Q 1200 -91 759 389 
Q 319 869 319 1663 
Q 319 2456 758 2934 
Q 1197 3413 1925 3413 
Q 2653 3413 3092 2934 
Q 3531 2456 3531 1663 
Q 3531 869 3092 389 
Q 2653 -91 1925 -91 
z
" transform="scale(0.015625)"/>
      <path id="DejaVuSerif-74" d="M 691 2988 
L 184 2988 
L 184 3322 
L 691 3322 
L 691 4353 
L 1269 4353 
L 1269 3322 
L 2350 3322 
L 2350 2988 
L 1269 2988 
L 1269 878 
Q 1269 456 1350 337 
Q 1431 219 1650 219 
Q 1875 219 1978 351 
Q 2081 484 2088 781 
L 2522 781 
Q 2497 328 2275 118 
Q 2053 -91 1600 -91 
Q 1103 -91 897 129 
Q 691 350 691 878 
L 691 2988 
z
" transform="scale(0.015625)"/>
      <path id="DejaVuSerif-61" d="M 2547 1044 
L 2547 1747 
L 1806 1747 
Q 1378 1747 1168 1562 
Q 959 1378 959 997 
Q 959 650 1171 447 
Q 1384 244 1747 244 
Q 2106 244 2326 466 
Q 2547 688 2547 1044 
z
M 3122 2075 
L 3122 331 
L 3634 331 
L 3634 0 
L 2547 0 
L 2547 359 
Q 2356 128 2106 18 
Q 1856 -91 1522 -91 
Q 969 -91 644 203 
Q 319 497 319 997 
Q 319 1513 691 1797 
Q 1063 2081 1741 2081 
L 2547 2081 
L 2547 2309 
Q 2547 2688 2317 2895 
Q 2088 3103 1672 3103 
Q 1328 3103 1125 2947 
Q 922 2791 872 2484 
L 575 2484 
L 575 3156 
Q 875 3284 1158 3348 
Q 1441 3413 1709 3413 
Q 2400 3413 2761 3070 
Q 3122 2728 3122 2075 
z
" transform="scale(0.015625)"/>
      <path id="DejaVuSerif-69" d="M 622 4353 
Q 622 4497 726 4603 
Q 831 4709 978 4709 
Q 1122 4709 1226 4603 
Q 1331 4497 1331 4353 
Q 1331 4206 1228 4103 
Q 1125 4000 978 4000 
Q 831 4000 726 4103 
Q 622 4206 622 4353 
z
M 1356 331 
L 1900 331 
L 1900 0 
L 231 0 
L 231 331 
L 781 331 
L 781 2988 
L 231 2988 
L 231 3322 
L 1356 3322 
L 1356 331 
z
" transform="scale(0.015625)"/>
      <path id="DejaVuSerif-6e" d="M 263 0 
L 263 331 
L 781 331 
L 781 2988 
L 231 2988 
L 231 3322 
L 1356 3322 
L 1356 2731 
Q 1516 3069 1770 3241 
Q 2025 3413 2363 3413 
Q 2913 3413 3172 3097 
Q 3431 2781 3431 2113 
L 3431 331 
L 3944 331 
L 3944 0 
L 2356 0 
L 2356 331 
L 2853 331 
L 2853 1931 
Q 2853 2541 2703 2767 
Q 2553 2994 2175 2994 
Q 1775 2994 1565 2701 
Q 1356 2409 1356 1850 
L 1356 331 
L 1856 331 
L 1856 0 
L 263 0 
z
" transform="scale(0.015625)"/>
      <path id="DejaVuSerif-67" d="M 3359 2988 
L 3359 72 
Q 3359 -644 2965 -1033 
Q 2572 -1422 1844 -1422 
Q 1516 -1422 1216 -1362 
Q 916 -1303 641 -1184 
L 641 -488 
L 941 -488 
Q 997 -813 1206 -963 
Q 1416 -1113 1806 -1113 
Q 2313 -1113 2548 -827 
Q 2784 -541 2784 72 
L 2784 519 
Q 2616 206 2355 57 
Q 2094 -91 1709 -91 
Q 1097 -91 708 395 
Q 319 881 319 1663 
Q 319 2444 706 2928 
Q 1094 3413 1709 3413 
Q 2094 3413 2355 3264 
Q 2616 3116 2784 2803 
L 2784 3322 
L 3909 3322 
L 3909 2988 
L 3359 2988 
z
M 2784 1825 
Q 2784 2422 2554 2737 
Q 2325 3053 1888 3053 
Q 1444 3053 1217 2703 
Q 991 2353 991 1663 
Q 991 975 1217 622 
Q 1444 269 1888 269 
Q 2325 269 2554 583 
Q 2784 897 2784 1497 
L 2784 1825 
z
" transform="scale(0.015625)"/>
      <path id="DejaVuSerif-46" d="M 353 0 
L 353 331 
L 947 331 
L 947 4331 
L 353 4331 
L 353 4666 
L 4172 4666 
L 4172 3628 
L 3788 3628 
L 3788 4281 
L 1581 4281 
L 1581 2719 
L 3175 2719 
L 3175 3303 
L 3559 3303 
L 3559 1753 
L 3175 1753 
L 3175 2338 
L 1581 2338 
L 1581 331 
L 2328 331 
L 2328 0 
L 353 0 
z
" transform="scale(0.015625)"/>
      <path id="DejaVuSerif-72" d="M 3059 3328 
L 3059 2497 
L 2728 2497 
Q 2713 2744 2591 2866 
Q 2469 2988 2234 2988 
Q 1809 2988 1582 2694 
Q 1356 2400 1356 1850 
L 1356 331 
L 2022 331 
L 2022 0 
L 263 0 
L 263 331 
L 781 331 
L 781 2994 
L 231 2994 
L 231 3322 
L 1356 3322 
L 1356 2731 
Q 1525 3078 1790 3245 
Q 2056 3413 2438 3413 
Q 2578 3413 2733 3391 
Q 2888 3369 3059 3328 
z
" transform="scale(0.015625)"/>
      <path id="DejaVuSerif-65" d="M 3469 1600 
L 991 1600 
L 991 1575 
Q 991 903 1244 561 
Q 1497 219 1991 219 
Q 2369 219 2611 417 
Q 2853 616 2950 1006 
L 3413 1006 
Q 3275 459 2904 184 
Q 2534 -91 1931 -91 
Q 1203 -91 761 389 
Q 319 869 319 1663 
Q 319 2450 753 2931 
Q 1188 3413 1894 3413 
Q 2647 3413 3050 2948 
Q 3453 2484 3469 1600 
z
M 2791 1931 
Q 2772 2513 2545 2808 
Q 2319 3103 1894 3103 
Q 1497 3103 1269 2806 
Q 1041 2509 991 1931 
L 2791 1931 
z
" transform="scale(0.015625)"/>
      <path id="DejaVuSerif-43" d="M 4513 1234 
Q 4306 581 3820 245 
Q 3334 -91 2591 -91 
Q 2134 -91 1743 65 
Q 1353 222 1050 525 
Q 700 875 529 1320 
Q 359 1766 359 2328 
Q 359 3416 987 4083 
Q 1616 4750 2644 4750 
Q 3025 4750 3456 4650 
Q 3888 4550 4384 4347 
L 4384 3272 
L 4031 3272 
Q 3916 3859 3567 4137 
Q 3219 4416 2591 4416 
Q 1844 4416 1459 3886 
Q 1075 3356 1075 2328 
Q 1075 1303 1459 773 
Q 1844 244 2591 244 
Q 3113 244 3450 492 
Q 3788 741 3938 1234 
L 4513 1234 
z
" transform="scale(0.015625)"/>
      <path id="DejaVuSerif-42" d="M 1581 331 
L 2516 331 
Q 3078 331 3337 575 
Q 3597 819 3597 1350 
Q 3597 1878 3339 2120 
Q 3081 2363 2516 2363 
L 1581 2363 
L 1581 331 
z
M 1581 2694 
L 2375 2694 
Q 2888 2694 3123 2891 
Q 3359 3088 3359 3513 
Q 3359 3941 3123 4136 
Q 2888 4331 2375 4331 
L 1581 4331 
L 1581 2694 
z
M 353 0 
L 353 331 
L 947 331 
L 947 4331 
L 353 4331 
L 353 4666 
L 2656 4666 
Q 3363 4666 3720 4377 
Q 4078 4088 4078 3513 
Q 4078 3097 3829 2850 
Q 3581 2603 3103 2547 
Q 3697 2472 4005 2167 
Q 4313 1863 4313 1350 
Q 4313 656 3875 328 
Q 3438 0 2509 0 
L 353 0 
z
" transform="scale(0.015625)"/>
      <path id="DejaVuSerif-50" d="M 1581 2375 
L 2406 2375 
Q 2872 2375 3115 2626 
Q 3359 2878 3359 3353 
Q 3359 3831 3115 4081 
Q 2872 4331 2406 4331 
L 1581 4331 
L 1581 2375 
z
M 353 0 
L 353 331 
L 947 331 
L 947 4331 
L 353 4331 
L 353 4666 
L 2559 4666 
Q 3259 4666 3668 4311 
Q 4078 3956 4078 3353 
Q 4078 2753 3668 2397 
Q 3259 2041 2559 2041 
L 1581 2041 
L 1581 331 
L 2303 331 
L 2303 0 
L 353 0 
z
" transform="scale(0.015625)"/>
      <path id="DejaVuSerif-4f" d="M 2625 244 
Q 3391 244 3781 770 
Q 4172 1297 4172 2328 
Q 4172 3363 3781 3889 
Q 3391 4416 2625 4416 
Q 1856 4416 1465 3889 
Q 1075 3363 1075 2328 
Q 1075 1297 1465 770 
Q 1856 244 2625 244 
z
M 2625 -91 
Q 2150 -91 1751 65 
Q 1353 222 1050 525 
Q 700 875 529 1319 
Q 359 1763 359 2328 
Q 359 2894 529 3339 
Q 700 3784 1050 4134 
Q 1356 4441 1750 4595 
Q 2144 4750 2625 4750 
Q 3641 4750 4266 4084 
Q 4891 3419 4891 2328 
Q 4891 1769 4719 1320 
Q 4547 872 4197 525 
Q 3891 219 3497 64 
Q 3103 -91 2625 -91 
z
" transform="scale(0.015625)"/>
      <path id="DejaVuSerif-62" d="M 738 331 
L 738 4531 
L 184 4531 
L 184 4863 
L 1313 4863 
L 1313 2803 
Q 1481 3116 1742 3264 
Q 2003 3413 2388 3413 
Q 3000 3413 3387 2928 
Q 3775 2444 3775 1663 
Q 3775 881 3387 395 
Q 3000 -91 2388 -91 
Q 2003 -91 1742 57 
Q 1481 206 1313 519 
L 1313 0 
L 184 0 
L 184 331 
L 738 331 
z
M 1313 1497 
Q 1313 897 1542 583 
Q 1772 269 2209 269 
Q 2650 269 2876 622 
Q 3103 975 3103 1663 
Q 3103 2353 2876 2703 
Q 2650 3053 2209 3053 
Q 1772 3053 1542 2737 
Q 1313 2422 1313 1825 
L 1313 1497 
z
" transform="scale(0.015625)"/>
     </defs>
     <use xlink:href="#DejaVuSerif-52"/>
     <use xlink:href="#DejaVuSerif-6f" transform="translate(75.292969 0)"/>
     <use xlink:href="#DejaVuSerif-74" transform="translate(135.498047 0)"/>
     <use xlink:href="#DejaVuSerif-61" transform="translate(175.683594 0)"/>
     <use xlink:href="#DejaVuSerif-74" transform="translate(235.302734 0)"/>
     <use xlink:href="#DejaVuSerif-69" transform="translate(275.488281 0)"/>
     <use xlink:href="#DejaVuSerif-6e" transform="translate(307.470703 0)"/>
     <use xlink:href="#DejaVuSerif-67" transform="translate(371.875 0)"/>
     <use xlink:href="#DejaVuSerif-20" transform="translate(435.888672 0)"/>
     <use xlink:href="#DejaVuSerif-46" transform="translate(467.675781 0)"/>
     <use xlink:href="#DejaVuSerif-72" transform="translate(537.060547 0)"/>
     <use xlink:href="#DejaVuSerif-61" transform="translate(584.863281 0)"/>
     <use xlink:href="#DejaVuSerif-6d" transform="translate(644.482422 0)"/>
     <use xlink:href="#DejaVuSerif-65" transform="translate(739.306641 0)"/>
     <use xlink:href="#DejaVuSerif-20" transform="translate(798.486328 0)"/>
     <use xlink:href="#DejaVuSerif-43" transform="translate(830.273438 0)"/>
     <use xlink:href="#DejaVuSerif-52" transform="translate(906.787109 0)"/>
     <use xlink:href="#DejaVuSerif-33" transform="translate(982.080078 0)"/>
     <use xlink:href="#DejaVuSerif-42" transform="translate(1045.703125 0)"/>
     <use xlink:href="#DejaVuSerif-50" transform="translate(1119.189453 0)"/>
     <use xlink:href="#DejaVuSerif-20" transform="translate(1186.474609 0)"/>
     <use xlink:href="#DejaVuSerif-4f" transform="translate(1218.261719 0)"/>
     <use xlink:href="#DejaVuSerif-72" transform="translate(1300.244141 0)"/>
     <use xlink:href="#DejaVuSerif-62" transform="translate(1348.046875 0)"/>
     <use xlink:href="#DejaVuSerif-69" transform="translate(1412.060547 0)"/>
     <use xlink:href="#DejaVuSerif-74" transform="translate(1444.042969 0)"/>
    </g>
   </g>
   <g id="legend_1">
    <g id="patch_9">
     <path d="M 463.337812 179.7975 
L 638.2 179.7975 
Q 641 179.7975 641 176.9975 
L 641 96.2 
Q 641 93.4 638.2 93.4 
L 463.337812 93.4 
Q 460.537812 93.4 460.537812 96.2 
L 460.537812 176.9975 
Q 460.537812 179.7975 463.337812 179.7975 
z
" style="fill: #ffffff; opacity: 0.8; stroke: #cccccc; stroke-linejoin: miter"/>
    </g>
    <g id="line2d_18">
     <path d="M 466.137812 104.737812 
L 480.137812 104.737812 
L 494.137812 104.737812 
" style="fill: none; stroke: #000000; stroke-width: 1.5; stroke-linecap: square"/>
    </g>
    <g id="text_19">
     <!-- Exact Solution -->
     <g transform="translate(505.337812 109.637812) scale(0.14 -0.14)">
      <defs>
       <path id="DejaVuSerif-45" d="M 353 0 
L 353 331 
L 947 331 
L 947 4331 
L 353 4331 
L 353 4666 
L 4109 4666 
L 4109 3628 
L 3725 3628 
L 3725 4281 
L 1581 4281 
L 1581 2719 
L 3109 2719 
L 3109 3303 
L 3494 3303 
L 3494 1753 
L 3109 1753 
L 3109 2338 
L 1581 2338 
L 1581 384 
L 3775 384 
L 3775 1038 
L 4159 1038 
L 4159 0 
L 353 0 
z
" transform="scale(0.015625)"/>
       <path id="DejaVuSerif-78" d="M 1863 2028 
L 2559 2988 
L 2113 2988 
L 2113 3322 
L 3391 3322 
L 3391 2988 
L 2950 2988 
L 2059 1759 
L 3097 331 
L 3531 331 
L 3531 0 
L 1997 0 
L 1997 331 
L 2419 331 
L 1697 1325 
L 972 331 
L 1403 331 
L 1403 0 
L 141 0 
L 141 331 
L 581 331 
L 1497 1594 
L 488 2988 
L 78 2988 
L 78 3322 
L 1563 3322 
L 1563 2988 
L 1166 2988 
L 1863 2028 
z
" transform="scale(0.015625)"/>
       <path id="DejaVuSerif-63" d="M 3291 997 
Q 3169 466 2822 187 
Q 2475 -91 1925 -91 
Q 1200 -91 759 389 
Q 319 869 319 1663 
Q 319 2459 759 2936 
Q 1200 3413 1925 3413 
Q 2241 3413 2553 3339 
Q 2866 3266 3181 3116 
L 3181 2266 
L 2847 2266 
Q 2781 2703 2561 2903 
Q 2341 3103 1931 3103 
Q 1466 3103 1228 2742 
Q 991 2381 991 1663 
Q 991 944 1227 581 
Q 1463 219 1931 219 
Q 2303 219 2525 412 
Q 2747 606 2828 997 
L 3291 997 
z
" transform="scale(0.015625)"/>
       <path id="DejaVuSerif-53" d="M 594 225 
L 594 1288 
L 953 1284 
Q 969 753 1261 498 
Q 1553 244 2150 244 
Q 2706 244 2998 464 
Q 3291 684 3291 1106 
Q 3291 1444 3114 1625 
Q 2938 1806 2369 1978 
L 1753 2163 
Q 1084 2366 811 2669 
Q 538 2972 538 3500 
Q 538 4094 959 4422 
Q 1381 4750 2144 4750 
Q 2469 4750 2856 4679 
Q 3244 4609 3681 4475 
L 3681 3481 
L 3328 3481 
Q 3275 3975 2998 4195 
Q 2722 4416 2156 4416 
Q 1663 4416 1405 4214 
Q 1147 4013 1147 3628 
Q 1147 3294 1340 3103 
Q 1534 2913 2163 2725 
L 2741 2553 
Q 3375 2363 3645 2067 
Q 3916 1772 3916 1275 
Q 3916 597 3481 253 
Q 3047 -91 2188 -91 
Q 1803 -91 1404 -12 
Q 1006 66 594 225 
z
" transform="scale(0.015625)"/>
       <path id="DejaVuSerif-6c" d="M 1313 331 
L 1856 331 
L 1856 0 
L 184 0 
L 184 331 
L 738 331 
L 738 4531 
L 184 4531 
L 184 4863 
L 1313 4863 
L 1313 331 
z
" transform="scale(0.015625)"/>
       <path id="DejaVuSerif-75" d="M 2266 3322 
L 3341 3322 
L 3341 331 
L 3884 331 
L 3884 0 
L 2766 0 
L 2766 588 
Q 2606 256 2353 82 
Q 2100 -91 1766 -91 
Q 1213 -91 952 223 
Q 691 538 691 1209 
L 691 2988 
L 172 2988 
L 172 3322 
L 1269 3322 
L 1269 1388 
Q 1269 781 1417 556 
Q 1566 331 1947 331 
Q 2347 331 2556 625 
Q 2766 919 2766 1478 
L 2766 2988 
L 2266 2988 
L 2266 3322 
z
" transform="scale(0.015625)"/>
      </defs>
      <use xlink:href="#DejaVuSerif-45"/>
      <use xlink:href="#DejaVuSerif-78" transform="translate(72.998047 0)"/>
      <use xlink:href="#DejaVuSerif-61" transform="translate(129.394531 0)"/>
      <use xlink:href="#DejaVuSerif-63" transform="translate(189.013672 0)"/>
      <use xlink:href="#DejaVuSerif-74" transform="translate(245.019531 0)"/>
      <use xlink:href="#DejaVuSerif-20" transform="translate(285.205078 0)"/>
      <use xlink:href="#DejaVuSerif-53" transform="translate(316.992188 0)"/>
      <use xlink:href="#DejaVuSerif-6f" transform="translate(385.498047 0)"/>
      <use xlink:href="#DejaVuSerif-6c" transform="translate(445.703125 0)"/>
      <use xlink:href="#DejaVuSerif-75" transform="translate(477.685547 0)"/>
      <use xlink:href="#DejaVuSerif-74" transform="translate(542.089844 0)"/>
      <use xlink:href="#DejaVuSerif-69" transform="translate(582.275391 0)"/>
      <use xlink:href="#DejaVuSerif-6f" transform="translate(614.257812 0)"/>
      <use xlink:href="#DejaVuSerif-6e" transform="translate(674.462891 0)"/>
     </g>
    </g>
    <g id="line2d_19">
     <path d="M 466.137812 125.287187 
L 480.137812 125.287187 
L 494.137812 125.287187 
" style="fill: none; stroke-dasharray: 5.55,2.4; stroke-dashoffset: 0; stroke: #ff0000; stroke-width: 1.5"/>
    </g>
    <g id="text_20">
     <!-- Koopman Solution -->
     <g transform="translate(505.337812 130.187187) scale(0.14 -0.14)">
      <defs>
       <path id="DejaVuSerif-4b" d="M 353 0 
L 353 331 
L 947 331 
L 947 4331 
L 353 4331 
L 353 4666 
L 2175 4666 
L 2175 4331 
L 1581 4331 
L 1581 2566 
L 3591 4331 
L 3084 4331 
L 3084 4666 
L 4634 4666 
L 4634 4331 
L 4109 4331 
L 2106 2572 
L 4347 331 
L 4878 331 
L 4878 0 
L 3794 0 
L 1581 2216 
L 1581 331 
L 2175 331 
L 2175 0 
L 353 0 
z
" transform="scale(0.015625)"/>
       <path id="DejaVuSerif-70" d="M 1313 1825 
L 1313 1497 
Q 1313 897 1542 583 
Q 1772 269 2209 269 
Q 2650 269 2876 622 
Q 3103 975 3103 1663 
Q 3103 2353 2876 2703 
Q 2650 3053 2209 3053 
Q 1772 3053 1542 2737 
Q 1313 2422 1313 1825 
z
M 738 2988 
L 184 2988 
L 184 3322 
L 1313 3322 
L 1313 2803 
Q 1481 3116 1742 3264 
Q 2003 3413 2388 3413 
Q 3000 3413 3387 2928 
Q 3775 2444 3775 1663 
Q 3775 881 3387 395 
Q 3000 -91 2388 -91 
Q 2003 -91 1742 57 
Q 1481 206 1313 519 
L 1313 -997 
L 1856 -997 
L 1856 -1331 
L 184 -1331 
L 184 -997 
L 738 -997 
L 738 2988 
z
" transform="scale(0.015625)"/>
      </defs>
      <use xlink:href="#DejaVuSerif-4b"/>
      <use xlink:href="#DejaVuSerif-6f" transform="translate(72.082031 0)"/>
      <use xlink:href="#DejaVuSerif-6f" transform="translate(132.287109 0)"/>
      <use xlink:href="#DejaVuSerif-70" transform="translate(192.492188 0)"/>
      <use xlink:href="#DejaVuSerif-6d" transform="translate(256.505859 0)"/>
      <use xlink:href="#DejaVuSerif-61" transform="translate(351.330078 0)"/>
      <use xlink:href="#DejaVuSerif-6e" transform="translate(410.949219 0)"/>
      <use xlink:href="#DejaVuSerif-20" transform="translate(475.353516 0)"/>
      <use xlink:href="#DejaVuSerif-53" transform="translate(507.140625 0)"/>
      <use xlink:href="#DejaVuSerif-6f" transform="translate(575.646484 0)"/>
      <use xlink:href="#DejaVuSerif-6c" transform="translate(635.851562 0)"/>
      <use xlink:href="#DejaVuSerif-75" transform="translate(667.833984 0)"/>
      <use xlink:href="#DejaVuSerif-74" transform="translate(732.238281 0)"/>
      <use xlink:href="#DejaVuSerif-69" transform="translate(772.423828 0)"/>
      <use xlink:href="#DejaVuSerif-6f" transform="translate(804.40625 0)"/>
      <use xlink:href="#DejaVuSerif-6e" transform="translate(864.611328 0)"/>
     </g>
    </g>
    <g id="patch_10">
     <path d="M 466.137812 150.736562 
L 494.137812 150.736562 
L 494.137812 140.936562 
L 466.137812 140.936562 
z
" style="fill: #0000ff; stroke: #0000ff; stroke-linejoin: miter"/>
    </g>
    <g id="text_21">
     <!-- Earth -->
     <g transform="translate(505.337812 150.736562) scale(0.14 -0.14)">
      <defs>
       <path id="DejaVuSerif-68" d="M 263 0 
L 263 331 
L 781 331 
L 781 4531 
L 231 4531 
L 231 4863 
L 1356 4863 
L 1356 2731 
Q 1516 3069 1770 3241 
Q 2025 3413 2363 3413 
Q 2913 3413 3172 3097 
Q 3431 2781 3431 2113 
L 3431 331 
L 3944 331 
L 3944 0 
L 2356 0 
L 2356 331 
L 2853 331 
L 2853 1931 
Q 2853 2541 2704 2764 
Q 2556 2988 2175 2988 
Q 1775 2988 1565 2697 
Q 1356 2406 1356 1850 
L 1356 331 
L 1856 331 
L 1856 0 
L 263 0 
z
" transform="scale(0.015625)"/>
      </defs>
      <use xlink:href="#DejaVuSerif-45"/>
      <use xlink:href="#DejaVuSerif-61" transform="translate(72.998047 0)"/>
      <use xlink:href="#DejaVuSerif-72" transform="translate(132.617188 0)"/>
      <use xlink:href="#DejaVuSerif-74" transform="translate(180.419922 0)"/>
      <use xlink:href="#DejaVuSerif-68" transform="translate(220.605469 0)"/>
     </g>
    </g>
    <g id="patch_11">
     <path d="M 466.137812 171.285937 
L 494.137812 171.285937 
L 494.137812 161.485937 
L 466.137812 161.485937 
z
" style="fill: #808080; stroke: #808080; stroke-linejoin: miter"/>
    </g>
    <g id="text_22">
     <!-- Moon -->
     <g transform="translate(505.337812 171.285937) scale(0.14 -0.14)">
      <defs>
       <path id="DejaVuSerif-4d" d="M 353 0 
L 353 331 
L 947 331 
L 947 4331 
L 319 4331 
L 319 4666 
L 1678 4666 
L 3316 1344 
L 4953 4666 
L 6228 4666 
L 6228 4331 
L 5606 4331 
L 5606 331 
L 6203 331 
L 6203 0 
L 4378 0 
L 4378 331 
L 4972 331 
L 4972 3938 
L 3372 684 
L 2931 684 
L 1331 3938 
L 1331 331 
L 1925 331 
L 1925 0 
L 353 0 
z
" transform="scale(0.015625)"/>
      </defs>
      <use xlink:href="#DejaVuSerif-4d"/>
      <use xlink:href="#DejaVuSerif-6f" transform="translate(102.392578 0)"/>
      <use xlink:href="#DejaVuSerif-6f" transform="translate(162.597656 0)"/>
      <use xlink:href="#DejaVuSerif-6e" transform="translate(222.802734 0)"/>
     </g>
    </g>
   </g>
  </g>
 </g>
 <defs>
  <clipPath id="pc9e627564b">
   <rect x="90" y="86.4" width="558" height="554.4"/>
  </clipPath>
 </defs>
</svg>
