<?xml version="1.0" encoding="utf-8" standalone="no"?>
<!DOCTYPE svg PUBLIC "-//W3C//DTD SVG 1.1//EN"
  "http://www.w3.org/Graphics/SVG/1.1/DTD/svg11.dtd">
<svg xmlns:xlink="http://www.w3.org/1999/xlink" width="720pt" height="576pt" viewBox="0 0 720 576" xmlns="http://www.w3.org/2000/svg" version="1.1">
 <metadata>
  <rdf:RDF xmlns:dc="http://purl.org/dc/elements/1.1/" xmlns:cc="http://creativecommons.org/ns#" xmlns:rdf="http://www.w3.org/1999/02/22-rdf-syntax-ns#">
   <cc:Work>
    <dc:type rdf:resource="http://purl.org/dc/dcmitype/StillImage"/>
    <dc:date>2025-02-19T11:48:48.064657</dc:date>
    <dc:format>image/svg+xml</dc:format>
    <dc:creator>
     <cc:Agent>
      <dc:title>Matplotlib v3.10.0, https://matplotlib.org/</dc:title>
     </cc:Agent>
    </dc:creator>
   </cc:Work>
  </rdf:RDF>
 </metadata>
 <defs>
  <style type="text/css">*{stroke-linejoin: round; stroke-linecap: butt}</style>
 </defs>
 <g id="figure_1">
  <g id="patch_1">
   <path d="M 0 576 
L 720 576 
L 720 0 
L 0 0 
z
" style="fill: #ffffff"/>
  </g>
  <g id="axes_1">
   <g id="patch_2">
    <path d="M 52.75 528.92 
L 682.125 528.92 
L 682.125 33.96 
L 52.75 33.96 
z
" style="fill: #ffffff"/>
   </g>
   <g id="matplotlib.axis_1">
    <g id="xtick_1">
     <g id="line2d_1">
      <defs>
       <path id="m154b1e1852" d="M 0 0 
L 0 3.5 
" style="stroke: #000000; stroke-width: 0.8"/>
      </defs>
      <g>
       <use xlink:href="#m154b1e1852" x="81.357955" y="528.92" style="stroke: #000000; stroke-width: 0.8"/>
      </g>
     </g>
     <g id="text_1">
      <!-- 0 -->
      <g transform="translate(78.176705 543.518438) scale(0.1 -0.1)">
       <defs>
        <path id="DejaVuSerif-30" d="M 2034 219 
Q 2513 219 2750 744 
Q 2988 1269 2988 2328 
Q 2988 3391 2750 3916 
Q 2513 4441 2034 4441 
Q 1556 4441 1318 3916 
Q 1081 3391 1081 2328 
Q 1081 1269 1318 744 
Q 1556 219 2034 219 
z
M 2034 -91 
Q 1275 -91 848 546 
Q 422 1184 422 2328 
Q 422 3475 848 4112 
Q 1275 4750 2034 4750 
Q 2797 4750 3222 4112 
Q 3647 3475 3647 2328 
Q 3647 1184 3222 546 
Q 2797 -91 2034 -91 
z
" transform="scale(0.015625)"/>
       </defs>
       <use xlink:href="#DejaVuSerif-30"/>
      </g>
     </g>
    </g>
    <g id="xtick_2">
     <g id="line2d_2">
      <g>
       <use xlink:href="#m154b1e1852" x="208.502666" y="528.92" style="stroke: #000000; stroke-width: 0.8"/>
      </g>
     </g>
     <g id="text_2">
      <!-- 20 -->
      <g transform="translate(202.140166 543.518438) scale(0.1 -0.1)">
       <defs>
        <path id="DejaVuSerif-32" d="M 819 3553 
L 469 3553 
L 469 4384 
Q 803 4563 1142 4656 
Q 1481 4750 1806 4750 
Q 2534 4750 2956 4397 
Q 3378 4044 3378 3438 
Q 3378 2753 2422 1800 
Q 2347 1728 2309 1691 
L 1131 513 
L 3078 513 
L 3078 1088 
L 3444 1088 
L 3444 0 
L 434 0 
L 434 341 
L 1850 1753 
Q 2319 2222 2519 2614 
Q 2719 3006 2719 3438 
Q 2719 3909 2473 4175 
Q 2228 4441 1797 4441 
Q 1350 4441 1106 4219 
Q 863 3997 819 3553 
z
" transform="scale(0.015625)"/>
       </defs>
       <use xlink:href="#DejaVuSerif-32"/>
       <use xlink:href="#DejaVuSerif-30" transform="translate(63.623047 0)"/>
      </g>
     </g>
    </g>
    <g id="xtick_3">
     <g id="line2d_3">
      <g>
       <use xlink:href="#m154b1e1852" x="335.647378" y="528.92" style="stroke: #000000; stroke-width: 0.8"/>
      </g>
     </g>
     <g id="text_3">
      <!-- 40 -->
      <g transform="translate(329.284878 543.518438) scale(0.1 -0.1)">
       <defs>
        <path id="DejaVuSerif-34" d="M 2234 1581 
L 2234 4063 
L 641 1581 
L 2234 1581 
z
M 3609 0 
L 1484 0 
L 1484 331 
L 2234 331 
L 2234 1247 
L 197 1247 
L 197 1588 
L 2241 4750 
L 2859 4750 
L 2859 1581 
L 3750 1581 
L 3750 1247 
L 2859 1247 
L 2859 331 
L 3609 331 
L 3609 0 
z
" transform="scale(0.015625)"/>
       </defs>
       <use xlink:href="#DejaVuSerif-34"/>
       <use xlink:href="#DejaVuSerif-30" transform="translate(63.623047 0)"/>
      </g>
     </g>
    </g>
    <g id="xtick_4">
     <g id="line2d_4">
      <g>
       <use xlink:href="#m154b1e1852" x="462.79209" y="528.92" style="stroke: #000000; stroke-width: 0.8"/>
      </g>
     </g>
     <g id="text_4">
      <!-- 60 -->
      <g transform="translate(456.42959 543.518438) scale(0.1 -0.1)">
       <defs>
        <path id="DejaVuSerif-36" d="M 2094 219 
Q 2534 219 2771 542 
Q 3009 866 3009 1472 
Q 3009 2078 2771 2401 
Q 2534 2725 2094 2725 
Q 1647 2725 1412 2412 
Q 1178 2100 1178 1509 
Q 1178 888 1415 553 
Q 1653 219 2094 219 
z
M 1075 2569 
Q 1288 2803 1556 2918 
Q 1825 3034 2163 3034 
Q 2859 3034 3264 2615 
Q 3669 2197 3669 1472 
Q 3669 763 3233 336 
Q 2797 -91 2069 -91 
Q 1278 -91 853 498 
Q 428 1088 428 2181 
Q 428 3406 931 4078 
Q 1434 4750 2350 4750 
Q 2597 4750 2869 4703 
Q 3141 4656 3425 4563 
L 3425 3794 
L 3072 3794 
Q 3034 4109 2831 4275 
Q 2628 4441 2284 4441 
Q 1678 4441 1381 3981 
Q 1084 3522 1075 2569 
z
" transform="scale(0.015625)"/>
       </defs>
       <use xlink:href="#DejaVuSerif-36"/>
       <use xlink:href="#DejaVuSerif-30" transform="translate(63.623047 0)"/>
      </g>
     </g>
    </g>
    <g id="xtick_5">
     <g id="line2d_5">
      <g>
       <use xlink:href="#m154b1e1852" x="589.936801" y="528.92" style="stroke: #000000; stroke-width: 0.8"/>
      </g>
     </g>
     <g id="text_5">
      <!-- 80 -->
      <g transform="translate(583.574301 543.518438) scale(0.1 -0.1)">
       <defs>
        <path id="DejaVuSerif-38" d="M 2981 1275 
Q 2981 1775 2732 2051 
Q 2484 2328 2034 2328 
Q 1584 2328 1336 2051 
Q 1088 1775 1088 1275 
Q 1088 772 1336 495 
Q 1584 219 2034 219 
Q 2484 219 2732 495 
Q 2981 772 2981 1275 
z
M 2853 3541 
Q 2853 3966 2637 4203 
Q 2422 4441 2034 4441 
Q 1650 4441 1433 4203 
Q 1216 3966 1216 3541 
Q 1216 3113 1433 2875 
Q 1650 2638 2034 2638 
Q 2422 2638 2637 2875 
Q 2853 3113 2853 3541 
z
M 2516 2484 
Q 3047 2413 3344 2092 
Q 3641 1772 3641 1275 
Q 3641 619 3225 264 
Q 2809 -91 2034 -91 
Q 1263 -91 845 264 
Q 428 619 428 1275 
Q 428 1772 725 2092 
Q 1022 2413 1556 2484 
Q 1084 2569 832 2842 
Q 581 3116 581 3541 
Q 581 4103 968 4426 
Q 1356 4750 2034 4750 
Q 2713 4750 3100 4426 
Q 3488 4103 3488 3541 
Q 3488 3116 3236 2842 
Q 2984 2569 2516 2484 
z
" transform="scale(0.015625)"/>
       </defs>
       <use xlink:href="#DejaVuSerif-38"/>
       <use xlink:href="#DejaVuSerif-30" transform="translate(63.623047 0)"/>
      </g>
     </g>
    </g>
    <g id="text_6">
     <!-- Time [ND] -->
     <g transform="translate(325.0225 561.755625) scale(0.16 -0.16)">
      <defs>
       <path id="DejaVuSerif-54" d="M 1222 0 
L 1222 331 
L 1819 331 
L 1819 4294 
L 447 4294 
L 447 3566 
L 63 3566 
L 63 4666 
L 4206 4666 
L 4206 3566 
L 3822 3566 
L 3822 4294 
L 2450 4294 
L 2450 331 
L 3047 331 
L 3047 0 
L 1222 0 
z
" transform="scale(0.015625)"/>
       <path id="DejaVuSerif-69" d="M 622 4353 
Q 622 4497 726 4603 
Q 831 4709 978 4709 
Q 1122 4709 1226 4603 
Q 1331 4497 1331 4353 
Q 1331 4206 1228 4103 
Q 1125 4000 978 4000 
Q 831 4000 726 4103 
Q 622 4206 622 4353 
z
M 1356 331 
L 1900 331 
L 1900 0 
L 231 0 
L 231 331 
L 781 331 
L 781 2988 
L 231 2988 
L 231 3322 
L 1356 3322 
L 1356 331 
z
" transform="scale(0.015625)"/>
       <path id="DejaVuSerif-6d" d="M 3316 2675 
Q 3481 3041 3739 3227 
Q 3997 3413 4341 3413 
Q 4863 3413 5119 3089 
Q 5375 2766 5375 2113 
L 5375 331 
L 5894 331 
L 5894 0 
L 4300 0 
L 4300 331 
L 4800 331 
L 4800 2047 
Q 4800 2556 4650 2772 
Q 4500 2988 4153 2988 
Q 3769 2988 3567 2697 
Q 3366 2406 3366 1850 
L 3366 331 
L 3866 331 
L 3866 0 
L 2291 0 
L 2291 331 
L 2791 331 
L 2791 2069 
Q 2791 2566 2641 2777 
Q 2491 2988 2144 2988 
Q 1759 2988 1557 2697 
Q 1356 2406 1356 1850 
L 1356 331 
L 1856 331 
L 1856 0 
L 263 0 
L 263 331 
L 781 331 
L 781 2994 
L 231 2994 
L 231 3322 
L 1356 3322 
L 1356 2731 
Q 1516 3063 1762 3238 
Q 2009 3413 2322 3413 
Q 2709 3413 2968 3220 
Q 3228 3028 3316 2675 
z
" transform="scale(0.015625)"/>
       <path id="DejaVuSerif-65" d="M 3469 1600 
L 991 1600 
L 991 1575 
Q 991 903 1244 561 
Q 1497 219 1991 219 
Q 2369 219 2611 417 
Q 2853 616 2950 1006 
L 3413 1006 
Q 3275 459 2904 184 
Q 2534 -91 1931 -91 
Q 1203 -91 761 389 
Q 319 869 319 1663 
Q 319 2450 753 2931 
Q 1188 3413 1894 3413 
Q 2647 3413 3050 2948 
Q 3453 2484 3469 1600 
z
M 2791 1931 
Q 2772 2513 2545 2808 
Q 2319 3103 1894 3103 
Q 1497 3103 1269 2806 
Q 1041 2509 991 1931 
L 2791 1931 
z
" transform="scale(0.015625)"/>
       <path id="DejaVuSerif-20" transform="scale(0.015625)"/>
       <path id="DejaVuSerif-5b" d="M 550 4863 
L 2003 4863 
L 2003 4531 
L 1147 4531 
L 1147 -513 
L 2003 -513 
L 2003 -844 
L 550 -844 
L 550 4863 
z
" transform="scale(0.015625)"/>
       <path id="DejaVuSerif-4e" d="M 313 0 
L 313 331 
L 941 331 
L 941 4331 
L 313 4331 
L 313 4666 
L 1509 4666 
L 4306 984 
L 4306 4331 
L 3681 4331 
L 3681 4666 
L 5319 4666 
L 5319 4331 
L 4691 4331 
L 4691 -91 
L 4313 -91 
L 1325 3841 
L 1325 331 
L 1953 331 
L 1953 0 
L 313 0 
z
" transform="scale(0.015625)"/>
       <path id="DejaVuSerif-44" d="M 1581 331 
L 2163 331 
Q 3072 331 3558 850 
Q 4044 1369 4044 2338 
Q 4044 3306 3559 3818 
Q 3075 4331 2163 4331 
L 1581 4331 
L 1581 331 
z
M 353 0 
L 353 331 
L 947 331 
L 947 4331 
L 353 4331 
L 353 4666 
L 2209 4666 
Q 3416 4666 4089 4050 
Q 4763 3434 4763 2338 
Q 4763 1238 4088 619 
Q 3413 0 2209 0 
L 353 0 
z
" transform="scale(0.015625)"/>
       <path id="DejaVuSerif-5d" d="M 1947 4863 
L 1947 -844 
L 494 -844 
L 494 -513 
L 1350 -513 
L 1350 4531 
L 494 4531 
L 494 4863 
L 1947 4863 
z
" transform="scale(0.015625)"/>
      </defs>
      <use xlink:href="#DejaVuSerif-54"/>
      <use xlink:href="#DejaVuSerif-69" transform="translate(66.699219 0)"/>
      <use xlink:href="#DejaVuSerif-6d" transform="translate(98.681641 0)"/>
      <use xlink:href="#DejaVuSerif-65" transform="translate(193.505859 0)"/>
      <use xlink:href="#DejaVuSerif-20" transform="translate(252.685547 0)"/>
      <use xlink:href="#DejaVuSerif-5b" transform="translate(284.472656 0)"/>
      <use xlink:href="#DejaVuSerif-4e" transform="translate(323.486328 0)"/>
      <use xlink:href="#DejaVuSerif-44" transform="translate(410.986328 0)"/>
      <use xlink:href="#DejaVuSerif-5d" transform="translate(491.162109 0)"/>
     </g>
    </g>
   </g>
   <g id="matplotlib.axis_2">
    <g id="ytick_1">
     <g id="line2d_6">
      <defs>
       <path id="m71ac12470d" d="M 0 0 
L -3.5 0 
" style="stroke: #000000; stroke-width: 0.8"/>
      </defs>
      <g>
       <use xlink:href="#m71ac12470d" x="52.75" y="454.768681" style="stroke: #000000; stroke-width: 0.8"/>
      </g>
     </g>
     <g id="text_7">
      <!-- −100000 -->
      <g transform="translate(-0.804688 458.5679) scale(0.1 -0.1)">
       <defs>
        <path id="DejaVuSerif-2212" d="M 678 2259 
L 4684 2259 
L 4684 1753 
L 678 1753 
L 678 2259 
z
" transform="scale(0.015625)"/>
        <path id="DejaVuSerif-31" d="M 909 0 
L 909 331 
L 1722 331 
L 1722 4213 
L 781 3603 
L 781 4013 
L 1919 4750 
L 2350 4750 
L 2350 331 
L 3163 331 
L 3163 0 
L 909 0 
z
" transform="scale(0.015625)"/>
       </defs>
       <use xlink:href="#DejaVuSerif-2212"/>
       <use xlink:href="#DejaVuSerif-31" transform="translate(83.789062 0)"/>
       <use xlink:href="#DejaVuSerif-30" transform="translate(147.412109 0)"/>
       <use xlink:href="#DejaVuSerif-30" transform="translate(211.035156 0)"/>
       <use xlink:href="#DejaVuSerif-30" transform="translate(274.658203 0)"/>
       <use xlink:href="#DejaVuSerif-30" transform="translate(338.28125 0)"/>
       <use xlink:href="#DejaVuSerif-30" transform="translate(401.904297 0)"/>
      </g>
     </g>
    </g>
    <g id="ytick_2">
     <g id="line2d_7">
      <g>
       <use xlink:href="#m71ac12470d" x="52.75" y="371.058899" style="stroke: #000000; stroke-width: 0.8"/>
      </g>
     </g>
     <g id="text_8">
      <!-- −50000 -->
      <g transform="translate(5.557812 374.858118) scale(0.1 -0.1)">
       <defs>
        <path id="DejaVuSerif-35" d="M 3219 4666 
L 3219 4153 
L 1081 4153 
L 1081 2816 
Q 1244 2928 1461 2984 
Q 1678 3041 1947 3041 
Q 2703 3041 3140 2622 
Q 3578 2203 3578 1478 
Q 3578 738 3136 323 
Q 2694 -91 1894 -91 
Q 1572 -91 1234 -12 
Q 897 66 544 225 
L 544 1131 
L 897 1131 
Q 925 688 1179 453 
Q 1434 219 1894 219 
Q 2388 219 2653 544 
Q 2919 869 2919 1478 
Q 2919 2084 2655 2407 
Q 2391 2731 1894 2731 
Q 1613 2731 1398 2631 
Q 1184 2531 1019 2322 
L 750 2322 
L 750 4666 
L 3219 4666 
z
" transform="scale(0.015625)"/>
       </defs>
       <use xlink:href="#DejaVuSerif-2212"/>
       <use xlink:href="#DejaVuSerif-35" transform="translate(83.789062 0)"/>
       <use xlink:href="#DejaVuSerif-30" transform="translate(147.412109 0)"/>
       <use xlink:href="#DejaVuSerif-30" transform="translate(211.035156 0)"/>
       <use xlink:href="#DejaVuSerif-30" transform="translate(274.658203 0)"/>
       <use xlink:href="#DejaVuSerif-30" transform="translate(338.28125 0)"/>
      </g>
     </g>
    </g>
    <g id="ytick_3">
     <g id="line2d_8">
      <g>
       <use xlink:href="#m71ac12470d" x="52.75" y="287.349117" style="stroke: #000000; stroke-width: 0.8"/>
      </g>
     </g>
     <g id="text_9">
      <!-- 0 -->
      <g transform="translate(39.3875 291.148336) scale(0.1 -0.1)">
       <use xlink:href="#DejaVuSerif-30"/>
      </g>
     </g>
    </g>
    <g id="ytick_4">
     <g id="line2d_9">
      <g>
       <use xlink:href="#m71ac12470d" x="52.75" y="203.639335" style="stroke: #000000; stroke-width: 0.8"/>
      </g>
     </g>
     <g id="text_10">
      <!-- 50000 -->
      <g transform="translate(13.9375 207.438553) scale(0.1 -0.1)">
       <use xlink:href="#DejaVuSerif-35"/>
       <use xlink:href="#DejaVuSerif-30" transform="translate(63.623047 0)"/>
       <use xlink:href="#DejaVuSerif-30" transform="translate(127.246094 0)"/>
       <use xlink:href="#DejaVuSerif-30" transform="translate(190.869141 0)"/>
       <use xlink:href="#DejaVuSerif-30" transform="translate(254.492188 0)"/>
      </g>
     </g>
    </g>
    <g id="ytick_5">
     <g id="line2d_10">
      <g>
       <use xlink:href="#m71ac12470d" x="52.75" y="119.929552" style="stroke: #000000; stroke-width: 0.8"/>
      </g>
     </g>
     <g id="text_11">
      <!-- 100000 -->
      <g transform="translate(7.575 123.728771) scale(0.1 -0.1)">
       <use xlink:href="#DejaVuSerif-31"/>
       <use xlink:href="#DejaVuSerif-30" transform="translate(63.623047 0)"/>
       <use xlink:href="#DejaVuSerif-30" transform="translate(127.246094 0)"/>
       <use xlink:href="#DejaVuSerif-30" transform="translate(190.869141 0)"/>
       <use xlink:href="#DejaVuSerif-30" transform="translate(254.492188 0)"/>
       <use xlink:href="#DejaVuSerif-30" transform="translate(318.115234 0)"/>
      </g>
     </g>
    </g>
    <g id="ytick_6">
     <g id="line2d_11">
      <g>
       <use xlink:href="#m71ac12470d" x="52.75" y="36.21977" style="stroke: #000000; stroke-width: 0.8"/>
      </g>
     </g>
     <g id="text_12">
      <!-- 150000 -->
      <g transform="translate(7.575 40.018989) scale(0.1 -0.1)">
       <use xlink:href="#DejaVuSerif-31"/>
       <use xlink:href="#DejaVuSerif-35" transform="translate(63.623047 0)"/>
       <use xlink:href="#DejaVuSerif-30" transform="translate(127.246094 0)"/>
       <use xlink:href="#DejaVuSerif-30" transform="translate(190.869141 0)"/>
       <use xlink:href="#DejaVuSerif-30" transform="translate(254.492188 0)"/>
       <use xlink:href="#DejaVuSerif-30" transform="translate(318.115234 0)"/>
      </g>
     </g>
    </g>
    <g id="text_13">
     <!-- Error in Position [km] -->
     <g transform="translate(-8.132188 369.8675) rotate(-90) scale(0.16 -0.16)">
      <defs>
       <path id="DejaVuSerif-45" d="M 353 0 
L 353 331 
L 947 331 
L 947 4331 
L 353 4331 
L 353 4666 
L 4109 4666 
L 4109 3628 
L 3725 3628 
L 3725 4281 
L 1581 4281 
L 1581 2719 
L 3109 2719 
L 3109 3303 
L 3494 3303 
L 3494 1753 
L 3109 1753 
L 3109 2338 
L 1581 2338 
L 1581 384 
L 3775 384 
L 3775 1038 
L 4159 1038 
L 4159 0 
L 353 0 
z
" transform="scale(0.015625)"/>
       <path id="DejaVuSerif-72" d="M 3059 3328 
L 3059 2497 
L 2728 2497 
Q 2713 2744 2591 2866 
Q 2469 2988 2234 2988 
Q 1809 2988 1582 2694 
Q 1356 2400 1356 1850 
L 1356 331 
L 2022 331 
L 2022 0 
L 263 0 
L 263 331 
L 781 331 
L 781 2994 
L 231 2994 
L 231 3322 
L 1356 3322 
L 1356 2731 
Q 1525 3078 1790 3245 
Q 2056 3413 2438 3413 
Q 2578 3413 2733 3391 
Q 2888 3369 3059 3328 
z
" transform="scale(0.015625)"/>
       <path id="DejaVuSerif-6f" d="M 1925 219 
Q 2388 219 2623 584 
Q 2859 950 2859 1663 
Q 2859 2375 2623 2739 
Q 2388 3103 1925 3103 
Q 1463 3103 1227 2739 
Q 991 2375 991 1663 
Q 991 950 1228 584 
Q 1466 219 1925 219 
z
M 1925 -91 
Q 1200 -91 759 389 
Q 319 869 319 1663 
Q 319 2456 758 2934 
Q 1197 3413 1925 3413 
Q 2653 3413 3092 2934 
Q 3531 2456 3531 1663 
Q 3531 869 3092 389 
Q 2653 -91 1925 -91 
z
" transform="scale(0.015625)"/>
       <path id="DejaVuSerif-6e" d="M 263 0 
L 263 331 
L 781 331 
L 781 2988 
L 231 2988 
L 231 3322 
L 1356 3322 
L 1356 2731 
Q 1516 3069 1770 3241 
Q 2025 3413 2363 3413 
Q 2913 3413 3172 3097 
Q 3431 2781 3431 2113 
L 3431 331 
L 3944 331 
L 3944 0 
L 2356 0 
L 2356 331 
L 2853 331 
L 2853 1931 
Q 2853 2541 2703 2767 
Q 2553 2994 2175 2994 
Q 1775 2994 1565 2701 
Q 1356 2409 1356 1850 
L 1356 331 
L 1856 331 
L 1856 0 
L 263 0 
z
" transform="scale(0.015625)"/>
       <path id="DejaVuSerif-50" d="M 1581 2375 
L 2406 2375 
Q 2872 2375 3115 2626 
Q 3359 2878 3359 3353 
Q 3359 3831 3115 4081 
Q 2872 4331 2406 4331 
L 1581 4331 
L 1581 2375 
z
M 353 0 
L 353 331 
L 947 331 
L 947 4331 
L 353 4331 
L 353 4666 
L 2559 4666 
Q 3259 4666 3668 4311 
Q 4078 3956 4078 3353 
Q 4078 2753 3668 2397 
Q 3259 2041 2559 2041 
L 1581 2041 
L 1581 331 
L 2303 331 
L 2303 0 
L 353 0 
z
" transform="scale(0.015625)"/>
       <path id="DejaVuSerif-73" d="M 359 184 
L 359 959 
L 691 959 
Q 703 588 923 403 
Q 1144 219 1575 219 
Q 1963 219 2166 364 
Q 2369 509 2369 788 
Q 2369 1006 2220 1140 
Q 2072 1275 1594 1428 
L 1178 1569 
Q 750 1706 558 1912 
Q 366 2119 366 2438 
Q 366 2894 700 3153 
Q 1034 3413 1625 3413 
Q 1888 3413 2178 3344 
Q 2469 3275 2778 3144 
L 2778 2419 
L 2447 2419 
Q 2434 2741 2221 2922 
Q 2009 3103 1644 3103 
Q 1281 3103 1095 2975 
Q 909 2847 909 2591 
Q 909 2381 1050 2254 
Q 1191 2128 1613 1997 
L 2069 1856 
Q 2541 1709 2748 1489 
Q 2956 1269 2956 922 
Q 2956 450 2595 179 
Q 2234 -91 1600 -91 
Q 1278 -91 972 -22 
Q 666 47 359 184 
z
" transform="scale(0.015625)"/>
       <path id="DejaVuSerif-74" d="M 691 2988 
L 184 2988 
L 184 3322 
L 691 3322 
L 691 4353 
L 1269 4353 
L 1269 3322 
L 2350 3322 
L 2350 2988 
L 1269 2988 
L 1269 878 
Q 1269 456 1350 337 
Q 1431 219 1650 219 
Q 1875 219 1978 351 
Q 2081 484 2088 781 
L 2522 781 
Q 2497 328 2275 118 
Q 2053 -91 1600 -91 
Q 1103 -91 897 129 
Q 691 350 691 878 
L 691 2988 
z
" transform="scale(0.015625)"/>
       <path id="DejaVuSerif-6b" d="M 1831 0 
L 219 0 
L 219 331 
L 738 331 
L 738 4531 
L 184 4531 
L 184 4863 
L 1313 4863 
L 1313 1697 
L 2713 2988 
L 2234 2988 
L 2234 3322 
L 3738 3322 
L 3738 2988 
L 3169 2988 
L 2181 2075 
L 3444 331 
L 3922 331 
L 3922 0 
L 2284 0 
L 2284 331 
L 2759 331 
L 1766 1697 
L 1313 1275 
L 1313 331 
L 1831 331 
L 1831 0 
z
" transform="scale(0.015625)"/>
      </defs>
      <use xlink:href="#DejaVuSerif-45"/>
      <use xlink:href="#DejaVuSerif-72" transform="translate(72.998047 0)"/>
      <use xlink:href="#DejaVuSerif-72" transform="translate(120.800781 0)"/>
      <use xlink:href="#DejaVuSerif-6f" transform="translate(168.603516 0)"/>
      <use xlink:href="#DejaVuSerif-72" transform="translate(228.808594 0)"/>
      <use xlink:href="#DejaVuSerif-20" transform="translate(276.611328 0)"/>
      <use xlink:href="#DejaVuSerif-69" transform="translate(308.398438 0)"/>
      <use xlink:href="#DejaVuSerif-6e" transform="translate(340.380859 0)"/>
      <use xlink:href="#DejaVuSerif-20" transform="translate(404.785156 0)"/>
      <use xlink:href="#DejaVuSerif-50" transform="translate(436.572266 0)"/>
      <use xlink:href="#DejaVuSerif-6f" transform="translate(499.857422 0)"/>
      <use xlink:href="#DejaVuSerif-73" transform="translate(560.0625 0)"/>
      <use xlink:href="#DejaVuSerif-69" transform="translate(611.380859 0)"/>
      <use xlink:href="#DejaVuSerif-74" transform="translate(643.363281 0)"/>
      <use xlink:href="#DejaVuSerif-69" transform="translate(683.548828 0)"/>
      <use xlink:href="#DejaVuSerif-6f" transform="translate(715.53125 0)"/>
      <use xlink:href="#DejaVuSerif-6e" transform="translate(775.736328 0)"/>
      <use xlink:href="#DejaVuSerif-20" transform="translate(840.140625 0)"/>
      <use xlink:href="#DejaVuSerif-5b" transform="translate(871.927734 0)"/>
      <use xlink:href="#DejaVuSerif-6b" transform="translate(910.941406 0)"/>
      <use xlink:href="#DejaVuSerif-6d" transform="translate(971.537109 0)"/>
      <use xlink:href="#DejaVuSerif-5d" transform="translate(1066.361328 0)"/>
     </g>
    </g>
   </g>
   <g id="line2d_12">
    <path d="M 81.357955 287.349098 
L 82.216623 287.460763 
L 83.361513 287.889042 
L 85.365072 288.984763 
L 90.803302 292.287744 
L 92.806861 293.789975 
L 94.237974 295.121603 
L 95.95531 297.052603 
L 98.531314 300.372819 
L 103.110876 306.603617 
L 107.117994 312.603387 
L 113.987337 323.659917 
L 115.704673 326.772598 
L 117.135787 329.833855 
L 118.5669 333.497714 
L 119.711791 336.985169 
L 120.856681 341.141847 
L 122.287794 347.358623 
L 123.718908 354.830539 
L 125.150021 363.640635 
L 126.294912 371.936973 
L 127.726025 383.946544 
L 132.305587 424.927584 
L 133.164255 430.55161 
L 134.022923 434.623081 
L 134.595369 436.312059 
L 134.881591 436.802176 
L 135.167814 437.040812 
L 135.454037 437.024644 
L 135.740259 436.750955 
L 136.312705 435.472719 
L 136.88515 433.344258 
L 137.743818 428.859156 
L 138.888709 421.219584 
L 141.17849 403.791904 
L 143.182048 388.733381 
L 144.899384 377.554403 
L 146.61672 367.878767 
L 148.620279 357.770262 
L 149.76517 353.06128 
L 150.91006 349.125666 
L 152.054951 345.943249 
L 152.913619 344.197536 
L 153.772287 342.986887 
L 154.630955 342.196536 
L 155.489623 341.692569 
L 158.351849 340.308438 
L 159.782963 339.172098 
L 161.214076 337.733714 
L 164.362525 334.134412 
L 166.079861 332.335607 
L 167.224752 331.486106 
L 168.369642 330.965491 
L 169.514533 330.713349 
L 170.659423 330.680692 
L 173.52165 330.980747 
L 178.959881 331.368277 
L 181.249662 331.152143 
L 183.25322 331.033567 
L 184.684334 331.168098 
L 188.119006 331.61182 
L 191.553677 331.793607 
L 192.412345 332.134348 
L 193.557236 332.883073 
L 196.991908 335.51597 
L 199.854134 337.069025 
L 202.143916 338.113915 
L 203.288806 338.36493 
L 204.147474 338.322871 
L 204.71992 338.115408 
L 205.292365 337.722286 
L 205.86481 337.110905 
L 206.437256 336.248603 
L 207.295924 334.454588 
L 208.154592 332.087294 
L 209.013259 329.114284 
L 209.871927 325.456459 
L 211.016818 319.484147 
L 214.737713 298.36466 
L 215.882603 293.635066 
L 217.027494 289.992106 
L 218.172384 287.118846 
L 219.031052 285.458988 
L 219.88972 284.294466 
L 220.462166 283.795777 
L 221.034611 283.526292 
L 221.893279 283.395141 
L 223.324392 283.280844 
L 224.18306 282.99033 
L 230.766181 279.793882 
L 232.483517 278.508655 
L 234.487076 276.681879 
L 238.780416 272.609248 
L 240.497752 271.379238 
L 241.928865 270.619843 
L 243.359978 270.138426 
L 245.077314 269.84033 
L 251.660435 268.883674 
L 252.805326 268.467251 
L 254.236439 267.664851 
L 255.953775 266.398835 
L 258.816002 263.950001 
L 260.81956 261.971529 
L 263.681787 259.070564 
L 264.826678 258.251714 
L 265.971568 257.723718 
L 268.547572 256.925359 
L 269.978685 256.372621 
L 271.123576 255.711326 
L 272.554689 254.586501 
L 273.985803 253.124147 
L 277.99292 248.783084 
L 278.851588 248.211266 
L 279.424033 248.011843 
L 280.282701 247.990128 
L 281.427592 248.261488 
L 282.28626 248.680712 
L 282.858705 249.20647 
L 283.43115 250.083831 
L 284.003596 251.458759 
L 284.576041 253.381897 
L 285.148486 255.905778 
L 286.007154 260.966355 
L 288.010713 273.96595 
L 288.583158 275.872546 
L 288.869381 276.298841 
L 289.155603 276.402716 
L 289.441826 276.212456 
L 289.728049 275.754041 
L 290.300494 274.150762 
L 291.159162 270.736944 
L 294.307611 256.874746 
L 295.452502 253.353655 
L 296.597392 250.677184 
L 297.742283 248.458577 
L 298.600951 247.199082 
L 299.459619 246.308734 
L 300.318287 245.768628 
L 300.890732 245.609335 
L 301.7494 245.662808 
L 302.608068 246.024263 
L 303.466736 246.639724 
L 304.897849 248.014081 
L 306.328963 249.290498 
L 307.473853 249.932492 
L 310.908525 251.339763 
L 314.343197 253.376519 
L 317.205424 255.038918 
L 319.495205 256.372507 
L 321.212541 257.627316 
L 328.081885 263.213881 
L 331.802779 266.148584 
L 332.94767 266.731263 
L 334.378783 267.171432 
L 337.24101 267.827487 
L 338.3859 268.41106 
L 339.530791 269.297966 
L 340.389459 270.203501 
L 341.53435 271.739889 
L 342.965463 274.025344 
L 344.969021 277.311263 
L 346.113912 279.091387 
L 348.976139 284.02533 
L 349.548584 284.636483 
L 350.121029 284.940276 
L 350.693475 284.857007 
L 350.979697 284.635826 
L 351.552143 283.713307 
L 352.124588 282.010448 
L 352.697033 279.431968 
L 353.841924 272.731987 
L 354.986814 266.352125 
L 355.845482 262.98035 
L 356.70415 260.463192 
L 357.562818 258.599664 
L 358.421486 257.278405 
L 359.280154 256.434913 
L 360.138822 255.987381 
L 361.283713 255.739141 
L 362.714826 255.742422 
L 363.859717 255.668766 
L 365.863275 255.379995 
L 366.721943 255.576446 
L 367.866834 256.154481 
L 370.442838 257.479062 
L 372.446396 258.220116 
L 373.87751 258.497085 
L 376.167291 258.901733 
L 381.033076 260.117588 
L 382.464189 260.055749 
L 383.895303 259.731151 
L 385.326416 259.163674 
L 386.757529 258.369638 
L 387.90242 257.533633 
L 389.619756 255.92663 
L 395.344209 250.060918 
L 397.061545 247.914567 
L 398.778881 245.389095 
L 401.068662 241.923302 
L 401.92733 241.05298 
L 405.648225 238.393554 
L 405.934447 238.366023 
L 406.22067 238.454802 
L 406.506893 238.681345 
L 407.079338 239.610224 
L 407.651783 241.26094 
L 408.224229 243.764385 
L 408.796674 247.342687 
L 409.369119 252.215529 
L 409.941565 258.682631 
L 410.51401 267.160227 
L 411.372678 284.162519 
L 412.231346 307.189605 
L 413.090014 336.519747 
L 415.093572 417.729374 
L 416.238463 458.069518 
L 416.810908 473.033252 
L 417.383354 483.472806 
L 417.955799 489.071229 
L 418.242022 490.133229 
L 418.528244 490.149927 
L 418.814467 489.22224 
L 419.10069 487.461049 
L 419.673135 481.939474 
L 420.531803 470.449697 
L 423.680252 424.366042 
L 425.111365 407.420436 
L 426.542479 393.182046 
L 428.259815 378.39984 
L 429.690928 367.837026 
L 431.122041 358.977417 
L 432.553154 351.70037 
L 433.984268 345.71285 
L 435.415381 340.754068 
L 437.41894 334.732732 
L 439.136276 330.268699 
L 440.567389 327.229749 
L 441.712279 325.283915 
L 442.85717 323.780773 
L 444.002061 322.660019 
L 445.719397 321.36878 
L 448.009178 319.649274 
L 451.157627 316.913764 
L 452.58874 315.466951 
L 454.019854 313.709974 
L 455.73719 311.257413 
L 457.740748 307.985671 
L 459.744307 304.257614 
L 464.323869 295.442037 
L 465.754983 293.326814 
L 467.186096 291.625739 
L 468.330987 290.627447 
L 469.475877 289.929958 
L 470.620768 289.476147 
L 473.769217 288.431337 
L 474.627885 287.773014 
L 475.486553 286.800775 
L 476.631444 285.123413 
L 478.635002 281.718102 
L 480.352338 278.933981 
L 483.214565 274.557182 
L 483.78701 274.109758 
L 484.073233 274.036005 
L 484.359455 274.079573 
L 484.645678 274.249285 
L 485.218123 275.013937 
L 485.790569 276.392543 
L 486.649237 279.459563 
L 487.794127 284.61888 
L 489.797686 294.173879 
L 490.942576 298.396605 
L 491.801244 300.933281 
L 492.659912 302.89733 
L 493.804803 304.994112 
L 494.663471 306.173452 
L 495.235916 306.699068 
L 495.808362 306.982477 
L 496.380807 307.053103 
L 497.239475 306.863055 
L 498.098143 306.358225 
L 498.956811 305.597621 
L 502.391483 302.128644 
L 503.250151 301.676137 
L 504.681264 301.250564 
L 506.112377 300.768279 
L 507.257268 300.083577 
L 508.402158 299.139877 
L 509.833272 297.65106 
L 514.412834 292.504537 
L 515.557725 291.722058 
L 516.702616 291.229412 
L 519.851065 290.317456 
L 522.999514 289.584726 
L 526.147963 288.94453 
L 527.292854 288.496301 
L 528.437744 287.802854 
L 529.582635 286.842447 
L 531.299971 285.060383 
L 536.165756 279.593538 
L 537.596869 277.398876 
L 539.314205 274.263638 
L 540.745319 271.251373 
L 542.176432 267.73996 
L 543.893768 262.948781 
L 545.611104 257.493961 
L 547.042217 252.193125 
L 548.759553 244.797045 
L 550.190666 237.820584 
L 551.335557 231.245972 
L 552.480448 223.295179 
L 553.625338 213.689722 
L 554.770229 202.345499 
L 556.201342 185.795845 
L 559.636014 143.482208 
L 560.208459 138.908648 
L 560.780905 135.883235 
L 561.067127 135.010905 
L 561.35335 134.604773 
L 561.639573 134.694371 
L 561.925795 135.277814 
L 562.212018 136.333039 
L 562.784463 139.743624 
L 563.356909 144.724087 
L 564.215577 154.589614 
L 565.64669 174.39865 
L 567.936471 206.083514 
L 569.367584 222.672693 
L 570.512475 233.754614 
L 571.657366 242.906064 
L 572.802256 250.229109 
L 573.947147 256.125982 
L 575.092037 261.079837 
L 576.236928 265.190192 
L 577.381819 268.496946 
L 578.526709 271.010496 
L 580.244045 274.122398 
L 581.388936 275.869361 
L 582.820049 277.580486 
L 584.537385 279.596333 
L 587.685834 283.856653 
L 591.979174 289.658746 
L 593.69651 291.46342 
L 595.127623 292.698859 
L 596.558737 293.626889 
L 597.703627 294.113716 
L 599.134741 294.44153 
L 600.852077 294.580553 
L 601.996967 294.468782 
L 603.428081 294.054565 
L 604.859194 293.651148 
L 605.717862 293.608238 
L 606.57653 293.803372 
L 607.435198 294.241503 
L 608.293866 294.909841 
L 609.438756 296.122448 
L 610.86987 298.049916 
L 612.300983 300.357275 
L 613.445874 302.558246 
L 614.590764 305.181868 
L 615.735655 308.421372 
L 617.166768 313.440902 
L 618.884104 320.137575 
L 620.315217 326.484403 
L 621.460108 332.399445 
L 622.604999 339.581303 
L 623.749889 348.184658 
L 625.467225 363.037818 
L 626.898338 375.375172 
L 627.470784 379.160661 
L 628.043229 381.415609 
L 628.329452 381.776811 
L 628.615674 381.538585 
L 628.901897 380.649676 
L 629.18812 379.051693 
L 629.760565 373.562099 
L 630.33301 365.010199 
L 631.191678 347.185525 
L 632.622792 309.727637 
L 634.62635 257.077385 
L 635.771241 232.060358 
L 636.916131 211.172967 
L 638.061022 194.305466 
L 639.205913 181.063954 
L 640.064581 173.220812 
L 641.209471 164.980726 
L 642.354362 158.431239 
L 643.21303 154.543573 
L 644.071698 151.498905 
L 644.930366 149.155919 
L 645.789034 147.387368 
L 646.647702 146.097249 
L 647.50637 145.201048 
L 648.365038 144.621031 
L 649.509928 144.169537 
L 651.79971 143.406593 
L 653.517045 142.727791 
L 653.517045 142.727791 
" clip-path="url(#p6f03b02954)" style="fill: none; stroke: #ff0000; stroke-width: 1.5; stroke-linecap: square"/>
   </g>
   <g id="line2d_13">
    <path d="M 81.357955 287.349117 
L 82.216623 287.438081 
L 83.07529 287.759691 
L 84.220181 288.441583 
L 86.22374 289.977503 
L 88.227298 291.434322 
L 91.089525 293.105252 
L 93.093083 294.395153 
L 97.672646 297.619434 
L 98.817537 298.024641 
L 99.676205 298.139671 
L 100.534873 298.079871 
L 101.679763 297.753571 
L 103.110876 297.075726 
L 104.255767 296.291679 
L 105.400658 295.221173 
L 106.545548 293.809736 
L 107.690439 292.049825 
L 109.121552 289.404801 
L 110.838888 285.731614 
L 112.556224 281.561828 
L 114.27356 276.870708 
L 115.990896 271.52498 
L 119.711791 258.848731 
L 122.86024 248.240299 
L 124.291353 244.145921 
L 125.436244 241.456689 
L 126.294912 240.021798 
L 126.867357 239.489525 
L 127.15358 239.388264 
L 127.439802 239.409662 
L 127.726025 239.561366 
L 128.29847 240.29749 
L 128.870916 241.681168 
L 129.443361 243.772577 
L 130.015806 246.616616 
L 130.874474 252.317302 
L 131.733142 259.658888 
L 132.878033 271.705633 
L 134.309146 289.349634 
L 137.171373 325.746949 
L 138.316263 337.422221 
L 139.174931 344.291152 
L 140.033599 349.418657 
L 140.606044 351.868083 
L 141.17849 353.656807 
L 141.750935 354.902512 
L 142.32338 355.642388 
L 142.895826 355.919615 
L 143.468271 355.760729 
L 144.040716 355.19323 
L 144.613162 354.226013 
L 145.47183 352.1971 
L 146.61672 348.726408 
L 147.761611 344.474982 
L 149.192724 338.259338 
L 150.91006 329.657275 
L 166.366084 248.913484 
L 168.942088 237.387472 
L 171.231869 228.065557 
L 173.52165 219.674174 
L 175.238986 214.197788 
L 176.670099 210.322422 
L 177.81499 207.766874 
L 178.959881 205.782169 
L 179.818548 204.697327 
L 180.677216 203.956126 
L 181.535884 203.527834 
L 182.394552 203.383862 
L 183.25322 203.49638 
L 186.687892 204.401727 
L 188.691451 204.72706 
L 189.836341 205.14997 
L 191.267455 205.973591 
L 192.412345 206.865259 
L 194.129681 208.553196 
L 196.13324 210.888527 
L 197.564353 212.776466 
L 198.709244 214.620636 
L 200.140357 217.412789 
L 202.430138 222.573538 
L 203.575029 225.630109 
L 204.71992 229.465496 
L 206.151033 235.345323 
L 208.440814 245.060783 
L 209.585705 248.859053 
L 210.444373 251.152555 
L 211.303041 252.851664 
L 211.875486 253.524411 
L 212.161709 253.661421 
L 212.447931 253.648423 
L 212.734154 253.485231 
L 213.306599 252.743938 
L 213.879045 251.524992 
L 214.737713 248.968681 
L 215.882603 244.6724 
L 218.74483 233.481578 
L 220.175943 229.116488 
L 221.607056 225.522318 
L 222.465724 223.843755 
L 223.324392 222.648095 
L 224.18306 221.863249 
L 225.041728 221.418194 
L 225.614174 221.34413 
L 226.186619 221.485487 
L 227.045287 222.051264 
L 228.190177 223.204515 
L 229.048845 224.305476 
L 229.907513 225.708595 
L 231.052404 228.008367 
L 232.76974 232.080933 
L 236.490635 241.608228 
L 241.070197 254.170088 
L 244.504869 263.420455 
L 246.79465 268.941141 
L 248.511986 272.542103 
L 249.943099 275.069956 
L 251.660435 277.631014 
L 254.522662 281.378459 
L 256.239998 283.84651 
L 257.957334 286.735298 
L 259.960892 290.515282 
L 262.250674 295.311974 
L 265.685346 303.11053 
L 269.978685 312.800996 
L 273.413357 319.654368 
L 274.272025 320.898549 
L 275.130693 321.709992 
L 275.989361 322.183939 
L 278.279142 322.981218 
L 279.13781 323.051466 
L 279.710256 322.860236 
L 280.568924 322.193571 
L 281.427592 321.204927 
L 282.28626 319.856484 
L 283.144928 318.122821 
L 284.289818 315.171512 
L 285.148486 313.054238 
L 285.720931 312.08669 
L 286.007154 311.869014 
L 286.293377 311.890186 
L 286.579599 312.199122 
L 286.865822 312.83784 
L 287.438267 315.162649 
L 288.010713 318.744784 
L 289.441826 330.121497 
L 290.586717 338.385567 
L 291.445385 342.865058 
L 292.304053 346.07507 
L 292.876498 347.578285 
L 293.448943 348.647319 
L 294.307611 349.717191 
L 294.880057 350.178162 
L 295.452502 350.432065 
L 296.024947 350.477594 
L 296.597392 350.291317 
L 297.169838 349.845497 
L 298.028506 348.71327 
L 299.459619 346.203952 
L 302.035623 341.729161 
L 304.039182 338.709195 
L 306.04274 335.687179 
L 307.760076 332.455248 
L 310.622303 326.973985 
L 312.339639 324.313514 
L 314.343197 321.592384 
L 315.77431 320.01402 
L 316.919201 319.04664 
L 318.350314 318.159364 
L 319.781428 317.575016 
L 321.212541 317.305165 
L 323.502322 317.179991 
L 325.219658 316.99242 
L 326.650771 316.601741 
L 328.081885 315.964796 
L 329.799221 314.920153 
L 337.24101 309.728534 
L 338.3859 308.396674 
L 340.961904 305.143795 
L 343.251686 302.588519 
L 344.396576 301.404421 
L 345.255244 300.846955 
L 346.686357 300.426453 
L 347.258803 300.372829 
L 347.831248 300.556928 
L 348.403693 301.110728 
L 348.976139 302.001105 
L 349.548584 303.203022 
L 350.121029 304.828351 
L 350.979697 307.973571 
L 352.983256 315.944301 
L 353.555701 316.979431 
L 353.841924 317.165584 
L 354.128146 317.102353 
L 354.414369 316.814564 
L 354.986814 315.782019 
L 359.280154 306.560844 
L 363.573494 296.104877 
L 365.29083 292.873828 
L 370.729061 283.563101 
L 373.018842 280.314295 
L 375.0224 277.411442 
L 376.739736 274.52479 
L 379.601963 269.120901 
L 381.319299 265.536701 
L 382.750412 262.085913 
L 384.467748 257.364388 
L 387.043752 249.560074 
L 389.619756 240.99122 
L 393.054428 228.841152 
L 395.344209 219.815147 
L 397.347768 211.171362 
L 398.778881 203.985802 
L 400.496217 194.149354 
L 401.92733 185.070307 
L 403.358443 174.543876 
L 404.789557 162.082166 
L 406.22067 147.16286 
L 407.651783 129.786909 
L 409.082897 109.396562 
L 411.945123 65.769007 
L 412.517568 60.09492 
L 413.090014 56.869302 
L 413.376236 56.458182 
L 413.662459 57.051772 
L 413.948682 58.765688 
L 414.234904 61.639274 
L 414.80735 70.792677 
L 415.379795 84.230118 
L 416.238463 111.640702 
L 417.669576 168.984552 
L 419.10069 224.138078 
L 419.959358 250.007808 
L 420.818025 269.456553 
L 421.676693 283.375295 
L 422.535361 293.100396 
L 423.394029 299.816105 
L 424.252697 304.313638 
L 424.825143 306.36501 
L 425.397588 307.819937 
L 425.970033 308.734589 
L 426.542479 309.152936 
L 427.114924 309.199948 
L 427.973592 308.93479 
L 431.980709 307.268216 
L 433.698045 306.218374 
L 437.991385 303.294541 
L 439.136276 302.960804 
L 440.281166 302.893725 
L 441.426057 303.09371 
L 442.284725 303.447459 
L 443.429615 304.220211 
L 444.574506 305.289965 
L 446.005619 306.96057 
L 448.009178 309.686522 
L 450.585182 313.548548 
L 453.161186 317.940894 
L 457.454526 325.282428 
L 459.171861 327.778005 
L 460.889197 329.877204 
L 462.606533 331.572744 
L 464.896315 333.791208 
L 470.048322 339.377796 
L 471.193213 340.205939 
L 474.627885 342.301809 
L 475.772776 343.225032 
L 476.631444 343.595162 
L 477.203889 343.606546 
L 477.776334 343.395424 
L 478.635002 342.721639 
L 479.49367 341.711023 
L 480.638561 340.013962 
L 481.497229 338.388412 
L 482.355897 336.109444 
L 483.214565 332.829046 
L 484.359455 327.049782 
L 486.076791 318.442198 
L 486.935459 315.368355 
L 487.507905 314.053012 
L 488.08035 313.332554 
L 488.366572 313.210144 
L 488.652795 313.263965 
L 488.939018 313.492668 
L 489.511463 314.389941 
L 490.370131 316.397224 
L 493.804803 325.666648 
L 496.094584 332.296422 
L 496.953252 334.24211 
L 497.81192 335.679929 
L 498.670588 336.673431 
L 499.815479 337.603993 
L 500.960369 338.243769 
L 501.819037 338.501636 
L 502.677705 338.515732 
L 505.539932 338.070901 
L 506.684823 337.572703 
L 507.829713 336.778219 
L 509.260826 335.435415 
L 512.409276 331.960325 
L 513.554166 330.488438 
L 514.699057 328.678025 
L 516.702616 324.949368 
L 520.709733 317.433018 
L 523.285737 313.188526 
L 525.575518 309.358634 
L 527.579076 305.529074 
L 530.15508 300.035429 
L 533.589752 292.1716 
L 535.879534 287.139984 
L 537.310647 284.600437 
L 539.314205 281.637459 
L 541.317764 278.929112 
L 542.462655 277.705731 
L 543.321323 277.082149 
L 543.893768 276.868522 
L 544.466213 276.850602 
L 545.038659 277.041714 
L 545.611104 277.435944 
L 546.469772 278.350909 
L 548.187108 280.732002 
L 549.904444 283.359454 
L 551.049334 285.493985 
L 552.76667 288.734085 
L 553.339116 289.480142 
L 553.911561 289.90741 
L 554.197784 289.969247 
L 554.484006 289.914419 
L 554.770229 289.729784 
L 555.342674 288.917447 
L 555.915119 287.415572 
L 556.487565 285.067665 
L 557.06001 281.699019 
L 557.632455 277.118116 
L 558.204901 271.123818 
L 559.063569 259.201983 
L 559.922237 243.881124 
L 561.35335 213.217487 
L 563.643131 164.002697 
L 564.788022 144.869017 
L 565.64669 134.176258 
L 566.505358 126.593783 
L 567.077803 123.024236 
L 567.650248 120.508792 
L 568.222694 118.97333 
L 568.795139 118.308738 
L 569.081362 118.254525 
L 569.367584 118.359617 
L 569.94003 118.981231 
L 570.512475 120.039631 
L 571.371143 122.263596 
L 572.229811 125.189882 
L 573.660924 131.055232 
L 576.523151 143.747989 
L 578.526709 153.750563 
L 582.533827 174.400676 
L 584.537385 183.5797 
L 586.254721 190.559542 
L 587.972057 196.647201 
L 589.40317 201.040325 
L 591.120506 205.553239 
L 601.996967 232.524401 
L 603.714303 237.73092 
L 607.435198 249.955602 
L 609.438756 257.176702 
L 616.021877 281.866767 
L 619.742772 294.980377 
L 621.173885 301.159846 
L 622.318776 307.060754 
L 623.463666 314.329178 
L 624.322334 321.158286 
L 625.181002 329.86153 
L 626.03967 341.151448 
L 626.898338 355.767606 
L 627.757006 374.589608 
L 628.901897 405.668086 
L 630.905456 462.784982 
L 631.764124 481.574872 
L 632.622792 494.787073 
L 633.195237 500.570452 
L 633.767682 504.26555 
L 634.340127 506.115265 
L 634.62635 506.421818 
L 634.912573 506.374757 
L 635.198795 506.034563 
L 635.771241 504.659918 
L 636.343686 502.543753 
L 637.202354 498.386267 
L 638.91969 488.383473 
L 640.923249 475.641046 
L 642.926807 461.111734 
L 644.930366 447.016495 
L 646.647702 436.375434 
L 648.365038 427.094831 
L 651.227264 413.083177 
L 653.517045 402.232083 
L 653.517045 402.232083 
" clip-path="url(#p6f03b02954)" style="fill: none; stroke: #00bfff; stroke-width: 1.5; stroke-linecap: square"/>
   </g>
   <g id="line2d_14">
    <path d="M 81.357955 287.349117 
L 653.517045 287.349117 
L 653.517045 287.349117 
" clip-path="url(#p6f03b02954)" style="fill: none; stroke: #ffa500; stroke-width: 1.5; stroke-linecap: square"/>
   </g>
   <g id="line2d_15">
    <path d="M 81.357955 287.349098 
L 82.216623 287.459695 
L 83.361513 287.873818 
L 85.937517 289.178501 
L 91.948193 292.340329 
L 93.665529 293.538098 
L 95.096642 294.794087 
L 96.813978 296.592962 
L 99.103759 299.341756 
L 101.679763 302.744736 
L 103.969544 306.199478 
L 106.259326 309.99958 
L 108.83533 314.767699 
L 112.842447 322.221727 
L 122.001572 338.0748 
L 123.146462 339.570944 
L 124.00513 340.346166 
L 124.577576 340.624373 
L 125.150021 340.701542 
L 125.722466 340.566805 
L 126.294912 340.213027 
L 126.867357 339.60179 
L 127.439802 338.690569 
L 128.012248 337.449384 
L 128.870916 334.883671 
L 129.729584 331.322163 
L 130.588252 326.656839 
L 131.733142 318.793855 
L 132.878033 309.28023 
L 134.595369 292.720924 
L 137.171373 267.900795 
L 138.602486 256.541189 
L 140.033599 247.06637 
L 141.17849 240.857203 
L 142.037158 237.249011 
L 142.895826 234.388964 
L 143.754494 232.151097 
L 144.613162 230.407237 
L 145.47183 229.158318 
L 146.044275 228.63952 
L 146.61672 228.375489 
L 147.189166 228.366624 
L 147.761611 228.581734 
L 148.906502 229.369397 
L 150.91006 230.98203 
L 152.341173 232.166107 
L 153.199841 232.612227 
L 154.344732 232.920545 
L 156.920736 233.379149 
L 157.779404 233.840785 
L 158.638072 234.568359 
L 159.782963 235.887362 
L 160.927853 237.565641 
L 162.645189 240.56094 
L 166.652306 247.880436 
L 167.797197 249.474013 
L 169.22831 251.055728 
L 170.659423 252.270057 
L 173.52165 254.211354 
L 176.383877 255.994589 
L 182.394552 259.404963 
L 184.111888 260.071763 
L 185.829224 260.774117 
L 186.974115 261.483721 
L 188.119006 262.421877 
L 189.550119 263.897376 
L 193.271013 267.972663 
L 194.988349 269.788303 
L 195.847017 270.976696 
L 196.991908 273.015438 
L 198.423021 276.134415 
L 199.854134 279.76736 
L 201.285248 284.020585 
L 202.716361 289.12257 
L 205.578588 300.703738 
L 208.727037 314.178591 
L 210.15815 320.05966 
L 211.016818 322.743402 
L 211.875486 324.547473 
L 212.734154 325.708896 
L 213.306599 326.154663 
L 213.879045 326.272939 
L 214.45149 326.043336 
L 215.023935 325.450053 
L 215.596381 324.479567 
L 216.455049 322.381381 
L 217.313717 319.543438 
L 218.458607 314.740539 
L 221.607056 300.491357 
L 226.186619 282.334662 
L 227.33151 278.694598 
L 228.762623 274.911 
L 230.193736 271.661013 
L 231.624849 268.974339 
L 233.055963 266.781543 
L 234.487076 264.966723 
L 235.918189 263.528083 
L 237.06308 262.65577 
L 238.20797 262.050547 
L 239.352861 261.722997 
L 240.497752 261.667297 
L 241.642642 261.858681 
L 242.787533 262.277809 
L 244.218646 263.067271 
L 248.225763 265.440623 
L 250.515545 266.451097 
L 251.660435 266.769293 
L 252.805326 266.857235 
L 253.950217 266.724292 
L 255.667553 266.277795 
L 260.81956 264.586422 
L 262.823119 263.887818 
L 263.96801 263.738215 
L 264.826678 263.838156 
L 265.971568 264.265386 
L 267.402681 265.119104 
L 271.696021 268.187799 
L 275.416916 271.155965 
L 276.561806 272.378924 
L 277.420474 273.722363 
L 278.279142 275.665337 
L 279.13781 278.213887 
L 280.282701 282.454769 
L 281.427592 287.641043 
L 282.572482 293.839208 
L 284.289818 304.877493 
L 285.720931 313.955649 
L 286.579599 317.872861 
L 287.152045 319.337265 
L 287.438267 319.650093 
L 287.72449 319.652382 
L 288.010713 319.324768 
L 288.296935 318.67037 
L 288.869381 316.520879 
L 289.728049 311.737757 
L 293.735166 286.367235 
L 295.166279 279.764502 
L 296.31117 275.504475 
L 297.169838 273.186381 
L 298.028506 271.601231 
L 298.887174 270.515116 
L 300.032064 269.48488 
L 301.7494 268.351532 
L 304.039182 267.121188 
L 304.897849 266.822465 
L 305.470295 266.762594 
L 306.04274 266.869672 
L 306.615185 267.160231 
L 307.473853 267.885635 
L 308.904967 269.55031 
L 310.908525 271.84767 
L 313.198307 273.987523 
L 315.201865 275.611846 
L 316.632978 276.485057 
L 318.064092 277.099296 
L 319.208982 277.386829 
L 320.353873 277.449158 
L 321.784986 277.253902 
L 326.364549 276.385885 
L 328.081885 276.375945 
L 330.371666 276.61919 
L 332.375225 276.985435 
L 337.813455 278.407438 
L 339.530791 278.961068 
L 340.389459 279.002159 
L 341.248127 278.777901 
L 344.110353 277.656073 
L 344.969021 277.134167 
L 345.827689 276.338847 
L 347.831248 274.227367 
L 348.689916 272.849609 
L 350.407252 269.986923 
L 350.693475 269.693859 
L 350.979697 269.570546 
L 351.26592 269.656333 
L 351.552143 270.002086 
L 351.838365 270.653949 
L 352.410811 273.01257 
L 352.983256 276.74874 
L 355.273037 294.149122 
L 356.131705 298.770661 
L 356.990373 302.194666 
L 357.562818 303.807231 
L 358.135264 304.939761 
L 358.707709 305.650144 
L 359.280154 306.035529 
L 359.8526 306.148013 
L 360.425045 306.016739 
L 361.283713 305.47985 
L 362.428604 304.43577 
L 364.432162 302.563923 
L 366.149498 300.973543 
L 367.294389 299.584968 
L 369.011725 297.071869 
L 371.015283 294.196713 
L 375.881068 287.552605 
L 377.598404 284.464044 
L 380.460631 278.79277 
L 382.177967 274.99738 
L 384.181525 269.94773 
L 387.329975 261.237164 
L 392.481982 246.09698 
L 395.344209 237.068353 
L 398.492658 226.776844 
L 402.213553 213.311347 
L 404.503334 204.767048 
L 405.934447 200.352431 
L 407.079338 197.43392 
L 407.938006 195.727465 
L 408.510451 194.923188 
L 409.082897 194.47085 
L 409.369119 194.437959 
L 409.655342 194.564422 
L 409.941565 194.856456 
L 410.227787 195.335354 
L 410.800233 197.02482 
L 411.372678 199.998854 
L 411.945123 204.436369 
L 412.517568 210.537352 
L 413.090014 218.655452 
L 413.948682 234.972003 
L 414.80735 255.710034 
L 416.524686 305.260367 
L 417.669576 335.994036 
L 418.528244 353.660262 
L 419.10069 362.184755 
L 419.673135 368.192063 
L 420.24558 372.026804 
L 420.818025 374.085693 
L 421.104248 374.586016 
L 421.390471 374.801328 
L 421.676693 374.768685 
L 421.962916 374.518032 
L 422.535361 373.484201 
L 423.107807 371.912343 
L 424.252697 367.848178 
L 427.687369 354.171537 
L 431.122041 339.954865 
L 432.553154 335.062158 
L 433.984268 330.935728 
L 435.701604 326.82243 
L 439.136276 319.40329 
L 440.853611 316.225102 
L 442.284725 313.994397 
L 444.002061 311.75226 
L 447.436733 307.440388 
L 449.726514 304.046496 
L 452.016295 300.269233 
L 453.733631 296.969355 
L 456.023412 292.054658 
L 460.602975 281.553889 
L 462.892756 276.63873 
L 464.323869 274.041609 
L 465.754983 271.889048 
L 466.899873 270.540566 
L 467.758541 269.838788 
L 468.617209 269.437129 
L 469.475877 269.329018 
L 470.334545 269.524211 
L 471.193213 270.01498 
L 472.051881 270.761584 
L 473.769217 272.676249 
L 476.058998 275.42217 
L 476.917666 276.792895 
L 477.776334 278.525383 
L 478.635002 280.656024 
L 479.49367 283.314475 
L 480.638561 287.780461 
L 482.355897 295.734987 
L 484.359455 304.798392 
L 485.504346 309.24638 
L 486.363014 311.789559 
L 486.935459 312.887325 
L 487.507905 313.420918 
L 487.794127 313.460685 
L 488.08035 313.352273 
L 488.652795 312.770821 
L 489.22524 311.828709 
L 489.797686 310.543782 
L 490.656354 307.948264 
L 491.801244 303.446259 
L 494.091026 294.244165 
L 495.235916 290.445959 
L 496.380807 287.408802 
L 497.525698 284.971066 
L 498.384365 283.519155 
L 499.243033 282.428403 
L 500.101701 281.659575 
L 504.108819 278.623505 
L 505.253709 277.808139 
L 506.112377 277.402125 
L 506.971045 277.248471 
L 507.829713 277.327215 
L 508.688381 277.621522 
L 509.833272 278.305579 
L 511.264385 279.501136 
L 514.699057 282.524149 
L 515.843948 283.114615 
L 517.275061 283.559909 
L 524.71685 285.404931 
L 526.434186 285.873554 
L 527.579076 286.377187 
L 528.723967 287.132058 
L 530.15508 288.41989 
L 533.30353 291.77218 
L 535.593311 294.343115 
L 536.738201 295.973508 
L 538.169315 298.426398 
L 539.600428 301.294899 
L 541.031541 304.617544 
L 542.462655 308.507269 
L 544.466213 314.626425 
L 546.469772 321.372882 
L 548.759553 329.949912 
L 555.056452 353.614955 
L 555.915119 355.767248 
L 556.487565 356.6492 
L 556.773787 356.88348 
L 557.06001 356.95353 
L 557.346233 356.835345 
L 557.632455 356.508934 
L 558.204901 355.173384 
L 558.777346 352.827441 
L 559.349791 349.386461 
L 559.922237 344.763319 
L 560.780905 335.583291 
L 561.925795 319.774999 
L 564.788022 277.142069 
L 566.219135 259.653929 
L 567.364026 248.406316 
L 568.508916 239.39532 
L 569.367584 234.077243 
L 570.226252 229.8554 
L 571.08492 226.569541 
L 571.943588 224.050585 
L 572.802256 222.08588 
L 573.660924 220.704769 
L 574.23337 220.152449 
L 574.805815 219.834569 
L 575.37826 219.714296 
L 575.950705 219.773956 
L 576.809373 220.134207 
L 577.954264 220.948842 
L 578.812932 221.815278 
L 579.6716 223.023195 
L 581.102713 225.586766 
L 583.392495 230.124403 
L 584.823608 233.489057 
L 589.116948 244.607595 
L 591.406729 250.208486 
L 593.69651 255.183027 
L 595.700069 259.108948 
L 597.417405 262.04587 
L 599.134741 264.55157 
L 601.424522 267.482763 
L 604.000526 270.322808 
L 605.431639 272.085863 
L 606.57653 273.862072 
L 607.72142 276.047861 
L 608.866311 278.664148 
L 610.297424 282.4669 
L 612.300983 288.463895 
L 614.018319 294.138192 
L 615.449432 299.536645 
L 617.452991 308.156133 
L 619.456549 317.357105 
L 621.460108 327.642445 
L 623.749889 341.038042 
L 625.181002 348.730125 
L 626.03967 352.100843 
L 626.612116 353.328771 
L 626.898338 353.545843 
L 627.184561 353.463416 
L 627.470784 353.051109 
L 627.757006 352.272887 
L 628.329452 349.464645 
L 628.901897 344.878294 
L 629.474342 338.591586 
L 630.33301 326.54136 
L 634.053905 268.89558 
L 635.198795 256.102349 
L 636.057463 248.526118 
L 636.916131 242.606845 
L 637.774799 237.948563 
L 638.633467 234.172244 
L 639.778358 230.253173 
L 640.637026 228.0369 
L 641.209471 227.062718 
L 641.781917 226.543562 
L 642.354362 226.424049 
L 642.926807 226.600815 
L 643.785475 227.210652 
L 644.644143 228.094775 
L 645.789034 229.604826 
L 647.50637 232.328246 
L 648.937483 234.966971 
L 650.082374 237.500505 
L 651.227264 240.616748 
L 652.658377 245.268107 
L 653.517045 248.24298 
L 653.517045 248.24298 
" clip-path="url(#p6f03b02954)" style="fill: none; stroke: #ffc0cb; stroke-width: 1.5; stroke-linecap: square"/>
   </g>
   <g id="patch_3">
    <path d="M 52.75 528.92 
L 52.75 33.96 
" style="fill: none; stroke: #000000; stroke-width: 0.8; stroke-linejoin: miter; stroke-linecap: square"/>
   </g>
   <g id="patch_4">
    <path d="M 682.125 528.92 
L 682.125 33.96 
" style="fill: none; stroke: #000000; stroke-width: 0.8; stroke-linejoin: miter; stroke-linecap: square"/>
   </g>
   <g id="patch_5">
    <path d="M 52.75 528.92 
L 682.125 528.92 
" style="fill: none; stroke: #000000; stroke-width: 0.8; stroke-linejoin: miter; stroke-linecap: square"/>
   </g>
   <g id="patch_6">
    <path d="M 52.75 33.96 
L 682.125 33.96 
" style="fill: none; stroke: #000000; stroke-width: 0.8; stroke-linejoin: miter; stroke-linecap: square"/>
   </g>
   <g id="legend_1">
    <g id="patch_7">
     <path d="M 524.401562 100.6725 
L 675.125 100.6725 
Q 677.125 100.6725 677.125 98.6725 
L 677.125 40.96 
Q 677.125 38.96 675.125 38.96 
L 524.401562 38.96 
Q 522.401562 38.96 522.401562 40.96 
L 522.401562 98.6725 
Q 522.401562 100.6725 524.401562 100.6725 
z
" style="fill: #ffffff; opacity: 0.8; stroke: #cccccc; stroke-linejoin: miter"/>
    </g>
    <g id="line2d_16">
     <path d="M 526.401562 47.058438 
L 536.401562 47.058438 
L 546.401562 47.058438 
" style="fill: none; stroke: #ff0000; stroke-width: 1.5; stroke-linecap: square"/>
    </g>
    <g id="text_14">
     <!-- Error in X -->
     <g transform="translate(554.401562 50.558438) scale(0.1 -0.1)">
      <defs>
       <path id="DejaVuSerif-58" d="M 2119 1997 
L 978 331 
L 1581 331 
L 1581 0 
L 38 0 
L 38 331 
L 575 331 
L 1919 2291 
L 556 4331 
L 56 4331 
L 56 4666 
L 1906 4666 
L 1906 4331 
L 1356 4331 
L 2356 2828 
L 3384 4331 
L 2784 4331 
L 2784 4666 
L 4313 4666 
L 4313 4331 
L 3788 4331 
L 2553 2534 
L 4025 331 
L 4525 331 
L 4525 0 
L 2675 0 
L 2675 331 
L 3231 331 
L 2119 1997 
z
" transform="scale(0.015625)"/>
      </defs>
      <use xlink:href="#DejaVuSerif-45"/>
      <use xlink:href="#DejaVuSerif-72" transform="translate(72.998047 0)"/>
      <use xlink:href="#DejaVuSerif-72" transform="translate(120.800781 0)"/>
      <use xlink:href="#DejaVuSerif-6f" transform="translate(168.603516 0)"/>
      <use xlink:href="#DejaVuSerif-72" transform="translate(228.808594 0)"/>
      <use xlink:href="#DejaVuSerif-20" transform="translate(276.611328 0)"/>
      <use xlink:href="#DejaVuSerif-69" transform="translate(308.398438 0)"/>
      <use xlink:href="#DejaVuSerif-6e" transform="translate(340.380859 0)"/>
      <use xlink:href="#DejaVuSerif-20" transform="translate(404.785156 0)"/>
      <use xlink:href="#DejaVuSerif-58" transform="translate(436.572266 0)"/>
     </g>
    </g>
    <g id="line2d_17">
     <path d="M 526.401562 61.736563 
L 536.401562 61.736563 
L 546.401562 61.736563 
" style="fill: none; stroke: #00bfff; stroke-width: 1.5; stroke-linecap: square"/>
    </g>
    <g id="text_15">
     <!-- Error in Y -->
     <g transform="translate(554.401562 65.236563) scale(0.1 -0.1)">
      <defs>
       <path id="DejaVuSerif-59" d="M 1209 0 
L 1209 331 
L 1806 331 
L 1806 2009 
L 366 4331 
L -72 4331 
L -72 4666 
L 1663 4666 
L 1663 4331 
L 1119 4331 
L 2284 2444 
L 3450 4331 
L 2925 4331 
L 2925 4666 
L 4281 4666 
L 4281 4331 
L 3841 4331 
L 2438 2069 
L 2438 331 
L 3034 331 
L 3034 0 
L 1209 0 
z
" transform="scale(0.015625)"/>
      </defs>
      <use xlink:href="#DejaVuSerif-45"/>
      <use xlink:href="#DejaVuSerif-72" transform="translate(72.998047 0)"/>
      <use xlink:href="#DejaVuSerif-72" transform="translate(120.800781 0)"/>
      <use xlink:href="#DejaVuSerif-6f" transform="translate(168.603516 0)"/>
      <use xlink:href="#DejaVuSerif-72" transform="translate(228.808594 0)"/>
      <use xlink:href="#DejaVuSerif-20" transform="translate(276.611328 0)"/>
      <use xlink:href="#DejaVuSerif-69" transform="translate(308.398438 0)"/>
      <use xlink:href="#DejaVuSerif-6e" transform="translate(340.380859 0)"/>
      <use xlink:href="#DejaVuSerif-20" transform="translate(404.785156 0)"/>
      <use xlink:href="#DejaVuSerif-59" transform="translate(436.572266 0)"/>
     </g>
    </g>
    <g id="line2d_18">
     <path d="M 526.401562 76.414688 
L 536.401562 76.414688 
L 546.401562 76.414688 
" style="fill: none; stroke: #ffa500; stroke-width: 1.5; stroke-linecap: square"/>
    </g>
    <g id="text_16">
     <!-- Error in Z -->
     <g transform="translate(554.401562 79.914688) scale(0.1 -0.1)">
      <defs>
       <path id="DejaVuSerif-5a" d="M 288 0 
L 288 225 
L 3194 4281 
L 781 4281 
L 781 3584 
L 397 3584 
L 397 4666 
L 4084 4666 
L 4084 4441 
L 1178 384 
L 3816 384 
L 3816 1038 
L 4197 1038 
L 4197 0 
L 288 0 
z
" transform="scale(0.015625)"/>
      </defs>
      <use xlink:href="#DejaVuSerif-45"/>
      <use xlink:href="#DejaVuSerif-72" transform="translate(72.998047 0)"/>
      <use xlink:href="#DejaVuSerif-72" transform="translate(120.800781 0)"/>
      <use xlink:href="#DejaVuSerif-6f" transform="translate(168.603516 0)"/>
      <use xlink:href="#DejaVuSerif-72" transform="translate(228.808594 0)"/>
      <use xlink:href="#DejaVuSerif-20" transform="translate(276.611328 0)"/>
      <use xlink:href="#DejaVuSerif-69" transform="translate(308.398438 0)"/>
      <use xlink:href="#DejaVuSerif-6e" transform="translate(340.380859 0)"/>
      <use xlink:href="#DejaVuSerif-20" transform="translate(404.785156 0)"/>
      <use xlink:href="#DejaVuSerif-5a" transform="translate(436.572266 0)"/>
     </g>
    </g>
    <g id="line2d_19">
     <path d="M 526.401562 91.092813 
L 536.401562 91.092813 
L 546.401562 91.092813 
" style="fill: none; stroke: #ffc0cb; stroke-width: 1.5; stroke-linecap: square"/>
    </g>
    <g id="text_17">
     <!-- Absolute Position Error -->
     <g transform="translate(554.401562 94.592813) scale(0.1 -0.1)">
      <defs>
       <path id="DejaVuSerif-41" d="M 1281 1691 
L 2994 1691 
L 2138 3909 
L 1281 1691 
z
M -38 0 
L -38 331 
L 372 331 
L 2034 4666 
L 2559 4666 
L 4225 331 
L 4684 331 
L 4684 0 
L 2988 0 
L 2988 331 
L 3506 331 
L 3116 1356 
L 1153 1356 
L 763 331 
L 1275 331 
L 1275 0 
L -38 0 
z
" transform="scale(0.015625)"/>
       <path id="DejaVuSerif-62" d="M 738 331 
L 738 4531 
L 184 4531 
L 184 4863 
L 1313 4863 
L 1313 2803 
Q 1481 3116 1742 3264 
Q 2003 3413 2388 3413 
Q 3000 3413 3387 2928 
Q 3775 2444 3775 1663 
Q 3775 881 3387 395 
Q 3000 -91 2388 -91 
Q 2003 -91 1742 57 
Q 1481 206 1313 519 
L 1313 0 
L 184 0 
L 184 331 
L 738 331 
z
M 1313 1497 
Q 1313 897 1542 583 
Q 1772 269 2209 269 
Q 2650 269 2876 622 
Q 3103 975 3103 1663 
Q 3103 2353 2876 2703 
Q 2650 3053 2209 3053 
Q 1772 3053 1542 2737 
Q 1313 2422 1313 1825 
L 1313 1497 
z
" transform="scale(0.015625)"/>
       <path id="DejaVuSerif-6c" d="M 1313 331 
L 1856 331 
L 1856 0 
L 184 0 
L 184 331 
L 738 331 
L 738 4531 
L 184 4531 
L 184 4863 
L 1313 4863 
L 1313 331 
z
" transform="scale(0.015625)"/>
       <path id="DejaVuSerif-75" d="M 2266 3322 
L 3341 3322 
L 3341 331 
L 3884 331 
L 3884 0 
L 2766 0 
L 2766 588 
Q 2606 256 2353 82 
Q 2100 -91 1766 -91 
Q 1213 -91 952 223 
Q 691 538 691 1209 
L 691 2988 
L 172 2988 
L 172 3322 
L 1269 3322 
L 1269 1388 
Q 1269 781 1417 556 
Q 1566 331 1947 331 
Q 2347 331 2556 625 
Q 2766 919 2766 1478 
L 2766 2988 
L 2266 2988 
L 2266 3322 
z
" transform="scale(0.015625)"/>
      </defs>
      <use xlink:href="#DejaVuSerif-41"/>
      <use xlink:href="#DejaVuSerif-62" transform="translate(72.216797 0)"/>
      <use xlink:href="#DejaVuSerif-73" transform="translate(136.230469 0)"/>
      <use xlink:href="#DejaVuSerif-6f" transform="translate(187.548828 0)"/>
      <use xlink:href="#DejaVuSerif-6c" transform="translate(247.753906 0)"/>
      <use xlink:href="#DejaVuSerif-75" transform="translate(279.736328 0)"/>
      <use xlink:href="#DejaVuSerif-74" transform="translate(344.140625 0)"/>
      <use xlink:href="#DejaVuSerif-65" transform="translate(384.326172 0)"/>
      <use xlink:href="#DejaVuSerif-20" transform="translate(443.505859 0)"/>
      <use xlink:href="#DejaVuSerif-50" transform="translate(475.292969 0)"/>
      <use xlink:href="#DejaVuSerif-6f" transform="translate(538.578125 0)"/>
      <use xlink:href="#DejaVuSerif-73" transform="translate(598.783203 0)"/>
      <use xlink:href="#DejaVuSerif-69" transform="translate(650.101562 0)"/>
      <use xlink:href="#DejaVuSerif-74" transform="translate(682.083984 0)"/>
      <use xlink:href="#DejaVuSerif-69" transform="translate(722.269531 0)"/>
      <use xlink:href="#DejaVuSerif-6f" transform="translate(754.251953 0)"/>
      <use xlink:href="#DejaVuSerif-6e" transform="translate(814.457031 0)"/>
      <use xlink:href="#DejaVuSerif-20" transform="translate(878.861328 0)"/>
      <use xlink:href="#DejaVuSerif-45" transform="translate(910.648438 0)"/>
      <use xlink:href="#DejaVuSerif-72" transform="translate(983.646484 0)"/>
      <use xlink:href="#DejaVuSerif-72" transform="translate(1031.449219 0)"/>
      <use xlink:href="#DejaVuSerif-6f" transform="translate(1079.251953 0)"/>
      <use xlink:href="#DejaVuSerif-72" transform="translate(1139.457031 0)"/>
     </g>
    </g>
   </g>
  </g>
  <g id="text_18">
   <!-- Error in Position States - CR3BP -->
   <g transform="translate(211.999219 25.197187) scale(0.18 -0.18)">
    <defs>
     <path id="DejaVuSerif-53" d="M 594 225 
L 594 1288 
L 953 1284 
Q 969 753 1261 498 
Q 1553 244 2150 244 
Q 2706 244 2998 464 
Q 3291 684 3291 1106 
Q 3291 1444 3114 1625 
Q 2938 1806 2369 1978 
L 1753 2163 
Q 1084 2366 811 2669 
Q 538 2972 538 3500 
Q 538 4094 959 4422 
Q 1381 4750 2144 4750 
Q 2469 4750 2856 4679 
Q 3244 4609 3681 4475 
L 3681 3481 
L 3328 3481 
Q 3275 3975 2998 4195 
Q 2722 4416 2156 4416 
Q 1663 4416 1405 4214 
Q 1147 4013 1147 3628 
Q 1147 3294 1340 3103 
Q 1534 2913 2163 2725 
L 2741 2553 
Q 3375 2363 3645 2067 
Q 3916 1772 3916 1275 
Q 3916 597 3481 253 
Q 3047 -91 2188 -91 
Q 1803 -91 1404 -12 
Q 1006 66 594 225 
z
" transform="scale(0.015625)"/>
     <path id="DejaVuSerif-61" d="M 2547 1044 
L 2547 1747 
L 1806 1747 
Q 1378 1747 1168 1562 
Q 959 1378 959 997 
Q 959 650 1171 447 
Q 1384 244 1747 244 
Q 2106 244 2326 466 
Q 2547 688 2547 1044 
z
M 3122 2075 
L 3122 331 
L 3634 331 
L 3634 0 
L 2547 0 
L 2547 359 
Q 2356 128 2106 18 
Q 1856 -91 1522 -91 
Q 969 -91 644 203 
Q 319 497 319 997 
Q 319 1513 691 1797 
Q 1063 2081 1741 2081 
L 2547 2081 
L 2547 2309 
Q 2547 2688 2317 2895 
Q 2088 3103 1672 3103 
Q 1328 3103 1125 2947 
Q 922 2791 872 2484 
L 575 2484 
L 575 3156 
Q 875 3284 1158 3348 
Q 1441 3413 1709 3413 
Q 2400 3413 2761 3070 
Q 3122 2728 3122 2075 
z
" transform="scale(0.015625)"/>
     <path id="DejaVuSerif-2d" d="M 281 1959 
L 1881 1959 
L 1881 1472 
L 281 1472 
L 281 1959 
z
" transform="scale(0.015625)"/>
     <path id="DejaVuSerif-43" d="M 4513 1234 
Q 4306 581 3820 245 
Q 3334 -91 2591 -91 
Q 2134 -91 1743 65 
Q 1353 222 1050 525 
Q 700 875 529 1320 
Q 359 1766 359 2328 
Q 359 3416 987 4083 
Q 1616 4750 2644 4750 
Q 3025 4750 3456 4650 
Q 3888 4550 4384 4347 
L 4384 3272 
L 4031 3272 
Q 3916 3859 3567 4137 
Q 3219 4416 2591 4416 
Q 1844 4416 1459 3886 
Q 1075 3356 1075 2328 
Q 1075 1303 1459 773 
Q 1844 244 2591 244 
Q 3113 244 3450 492 
Q 3788 741 3938 1234 
L 4513 1234 
z
" transform="scale(0.015625)"/>
     <path id="DejaVuSerif-52" d="M 3066 2316 
Q 3284 2256 3442 2114 
Q 3600 1972 3725 1716 
L 4403 331 
L 4972 331 
L 4972 0 
L 3872 0 
L 3144 1484 
Q 2934 1916 2759 2042 
Q 2584 2169 2278 2169 
L 1581 2169 
L 1581 331 
L 2241 331 
L 2241 0 
L 353 0 
L 353 331 
L 947 331 
L 947 4331 
L 353 4331 
L 353 4666 
L 2719 4666 
Q 3400 4666 3770 4341 
Q 4141 4016 4141 3419 
Q 4141 2938 3870 2661 
Q 3600 2384 3066 2316 
z
M 1581 2503 
L 2503 2503 
Q 2975 2503 3200 2726 
Q 3425 2950 3425 3419 
Q 3425 3888 3200 4109 
Q 2975 4331 2503 4331 
L 1581 4331 
L 1581 2503 
z
" transform="scale(0.015625)"/>
     <path id="DejaVuSerif-33" d="M 622 4469 
Q 988 4606 1323 4678 
Q 1659 4750 1953 4750 
Q 2638 4750 3022 4454 
Q 3406 4159 3406 3634 
Q 3406 3213 3140 2930 
Q 2875 2647 2388 2547 
Q 2963 2466 3280 2130 
Q 3597 1794 3597 1259 
Q 3597 606 3158 257 
Q 2719 -91 1894 -91 
Q 1528 -91 1179 -12 
Q 831 66 488 225 
L 488 1131 
L 838 1131 
Q 869 681 1141 450 
Q 1413 219 1906 219 
Q 2384 219 2661 495 
Q 2938 772 2938 1253 
Q 2938 1803 2653 2086 
Q 2369 2369 1819 2369 
L 1522 2369 
L 1522 2688 
L 1678 2688 
Q 2225 2688 2498 2914 
Q 2772 3141 2772 3597 
Q 2772 4006 2547 4223 
Q 2322 4441 1900 4441 
Q 1478 4441 1245 4241 
Q 1013 4041 972 3647 
L 622 3647 
L 622 4469 
z
" transform="scale(0.015625)"/>
     <path id="DejaVuSerif-42" d="M 1581 331 
L 2516 331 
Q 3078 331 3337 575 
Q 3597 819 3597 1350 
Q 3597 1878 3339 2120 
Q 3081 2363 2516 2363 
L 1581 2363 
L 1581 331 
z
M 1581 2694 
L 2375 2694 
Q 2888 2694 3123 2891 
Q 3359 3088 3359 3513 
Q 3359 3941 3123 4136 
Q 2888 4331 2375 4331 
L 1581 4331 
L 1581 2694 
z
M 353 0 
L 353 331 
L 947 331 
L 947 4331 
L 353 4331 
L 353 4666 
L 2656 4666 
Q 3363 4666 3720 4377 
Q 4078 4088 4078 3513 
Q 4078 3097 3829 2850 
Q 3581 2603 3103 2547 
Q 3697 2472 4005 2167 
Q 4313 1863 4313 1350 
Q 4313 656 3875 328 
Q 3438 0 2509 0 
L 353 0 
z
" transform="scale(0.015625)"/>
    </defs>
    <use xlink:href="#DejaVuSerif-45"/>
    <use xlink:href="#DejaVuSerif-72" transform="translate(72.998047 0)"/>
    <use xlink:href="#DejaVuSerif-72" transform="translate(120.800781 0)"/>
    <use xlink:href="#DejaVuSerif-6f" transform="translate(168.603516 0)"/>
    <use xlink:href="#DejaVuSerif-72" transform="translate(228.808594 0)"/>
    <use xlink:href="#DejaVuSerif-20" transform="translate(276.611328 0)"/>
    <use xlink:href="#DejaVuSerif-69" transform="translate(308.398438 0)"/>
    <use xlink:href="#DejaVuSerif-6e" transform="translate(340.380859 0)"/>
    <use xlink:href="#DejaVuSerif-20" transform="translate(404.785156 0)"/>
    <use xlink:href="#DejaVuSerif-50" transform="translate(436.572266 0)"/>
    <use xlink:href="#DejaVuSerif-6f" transform="translate(499.857422 0)"/>
    <use xlink:href="#DejaVuSerif-73" transform="translate(560.0625 0)"/>
    <use xlink:href="#DejaVuSerif-69" transform="translate(611.380859 0)"/>
    <use xlink:href="#DejaVuSerif-74" transform="translate(643.363281 0)"/>
    <use xlink:href="#DejaVuSerif-69" transform="translate(683.548828 0)"/>
    <use xlink:href="#DejaVuSerif-6f" transform="translate(715.53125 0)"/>
    <use xlink:href="#DejaVuSerif-6e" transform="translate(775.736328 0)"/>
    <use xlink:href="#DejaVuSerif-20" transform="translate(840.140625 0)"/>
    <use xlink:href="#DejaVuSerif-53" transform="translate(871.927734 0)"/>
    <use xlink:href="#DejaVuSerif-74" transform="translate(940.433594 0)"/>
    <use xlink:href="#DejaVuSerif-61" transform="translate(980.619141 0)"/>
    <use xlink:href="#DejaVuSerif-74" transform="translate(1040.238281 0)"/>
    <use xlink:href="#DejaVuSerif-65" transform="translate(1080.423828 0)"/>
    <use xlink:href="#DejaVuSerif-73" transform="translate(1139.603516 0)"/>
    <use xlink:href="#DejaVuSerif-20" transform="translate(1190.921875 0)"/>
    <use xlink:href="#DejaVuSerif-2d" transform="translate(1222.708984 0)"/>
    <use xlink:href="#DejaVuSerif-20" transform="translate(1256.498047 0)"/>
    <use xlink:href="#DejaVuSerif-43" transform="translate(1288.285156 0)"/>
    <use xlink:href="#DejaVuSerif-52" transform="translate(1364.798828 0)"/>
    <use xlink:href="#DejaVuSerif-33" transform="translate(1440.091797 0)"/>
    <use xlink:href="#DejaVuSerif-42" transform="translate(1503.714844 0)"/>
    <use xlink:href="#DejaVuSerif-50" transform="translate(1577.201172 0)"/>
   </g>
  </g>
 </g>
 <defs>
  <clipPath id="p6f03b02954">
   <rect x="52.75" y="33.96" width="629.375" height="494.96"/>
  </clipPath>
 </defs>
</svg>
