<?xml version="1.0" encoding="utf-8" standalone="no"?>
<!DOCTYPE svg PUBLIC "-//W3C//DTD SVG 1.1//EN"
  "http://www.w3.org/Graphics/SVG/1.1/DTD/svg11.dtd">
<svg xmlns:xlink="http://www.w3.org/1999/xlink" width="720pt" height="360pt" viewBox="0 0 720 360" xmlns="http://www.w3.org/2000/svg" version="1.1">
 <metadata>
  <rdf:RDF xmlns:dc="http://purl.org/dc/elements/1.1/" xmlns:cc="http://creativecommons.org/ns#" xmlns:rdf="http://www.w3.org/1999/02/22-rdf-syntax-ns#">
   <cc:Work>
    <dc:type rdf:resource="http://purl.org/dc/dcmitype/StillImage"/>
    <dc:date>2025-02-19T11:50:34.938702</dc:date>
    <dc:format>image/svg+xml</dc:format>
    <dc:creator>
     <cc:Agent>
      <dc:title>Matplotlib v3.10.0, https://matplotlib.org/</dc:title>
     </cc:Agent>
    </dc:creator>
   </cc:Work>
  </rdf:RDF>
 </metadata>
 <defs>
  <style type="text/css">*{stroke-linejoin: round; stroke-linecap: butt}</style>
 </defs>
 <g id="figure_1">
  <g id="patch_1">
   <path d="M 0 360 
L 720 360 
L 720 0 
L 0 0 
z
" style="fill: #ffffff"/>
  </g>
  <g id="axes_1">
   <g id="patch_2">
    <path d="M 90 320.4 
L 648 320.4 
L 648 43.2 
L 90 43.2 
z
" style="fill: #ffffff"/>
   </g>
   <g id="matplotlib.axis_1">
    <g id="xtick_1">
     <g id="line2d_1">
      <defs>
       <path id="m1efbe902b3" d="M 0 0 
L 0 3.5 
" style="stroke: #000000; stroke-width: 0.8"/>
      </defs>
      <g>
       <use xlink:href="#m1efbe902b3" x="115.363636" y="320.4" style="stroke: #000000; stroke-width: 0.8"/>
      </g>
     </g>
     <g id="text_1">
      <!-- 0 -->
      <g transform="translate(112.182386 334.998438) scale(0.1 -0.1)">
       <defs>
        <path id="DejaVuSerif-30" d="M 2034 219 
Q 2513 219 2750 744 
Q 2988 1269 2988 2328 
Q 2988 3391 2750 3916 
Q 2513 4441 2034 4441 
Q 1556 4441 1318 3916 
Q 1081 3391 1081 2328 
Q 1081 1269 1318 744 
Q 1556 219 2034 219 
z
M 2034 -91 
Q 1275 -91 848 546 
Q 422 1184 422 2328 
Q 422 3475 848 4112 
Q 1275 4750 2034 4750 
Q 2797 4750 3222 4112 
Q 3647 3475 3647 2328 
Q 3647 1184 3222 546 
Q 2797 -91 2034 -91 
z
" transform="scale(0.015625)"/>
       </defs>
       <use xlink:href="#DejaVuSerif-30"/>
      </g>
     </g>
    </g>
    <g id="xtick_2">
     <g id="line2d_2">
      <g>
       <use xlink:href="#m1efbe902b3" x="228.089355" y="320.4" style="stroke: #000000; stroke-width: 0.8"/>
      </g>
     </g>
     <g id="text_2">
      <!-- 20 -->
      <g transform="translate(221.726855 334.998438) scale(0.1 -0.1)">
       <defs>
        <path id="DejaVuSerif-32" d="M 819 3553 
L 469 3553 
L 469 4384 
Q 803 4563 1142 4656 
Q 1481 4750 1806 4750 
Q 2534 4750 2956 4397 
Q 3378 4044 3378 3438 
Q 3378 2753 2422 1800 
Q 2347 1728 2309 1691 
L 1131 513 
L 3078 513 
L 3078 1088 
L 3444 1088 
L 3444 0 
L 434 0 
L 434 341 
L 1850 1753 
Q 2319 2222 2519 2614 
Q 2719 3006 2719 3438 
Q 2719 3909 2473 4175 
Q 2228 4441 1797 4441 
Q 1350 4441 1106 4219 
Q 863 3997 819 3553 
z
" transform="scale(0.015625)"/>
       </defs>
       <use xlink:href="#DejaVuSerif-32"/>
       <use xlink:href="#DejaVuSerif-30" transform="translate(63.623047 0)"/>
      </g>
     </g>
    </g>
    <g id="xtick_3">
     <g id="line2d_3">
      <g>
       <use xlink:href="#m1efbe902b3" x="340.815074" y="320.4" style="stroke: #000000; stroke-width: 0.8"/>
      </g>
     </g>
     <g id="text_3">
      <!-- 40 -->
      <g transform="translate(334.452574 334.998438) scale(0.1 -0.1)">
       <defs>
        <path id="DejaVuSerif-34" d="M 2234 1581 
L 2234 4063 
L 641 1581 
L 2234 1581 
z
M 3609 0 
L 1484 0 
L 1484 331 
L 2234 331 
L 2234 1247 
L 197 1247 
L 197 1588 
L 2241 4750 
L 2859 4750 
L 2859 1581 
L 3750 1581 
L 3750 1247 
L 2859 1247 
L 2859 331 
L 3609 331 
L 3609 0 
z
" transform="scale(0.015625)"/>
       </defs>
       <use xlink:href="#DejaVuSerif-34"/>
       <use xlink:href="#DejaVuSerif-30" transform="translate(63.623047 0)"/>
      </g>
     </g>
    </g>
    <g id="xtick_4">
     <g id="line2d_4">
      <g>
       <use xlink:href="#m1efbe902b3" x="453.540792" y="320.4" style="stroke: #000000; stroke-width: 0.8"/>
      </g>
     </g>
     <g id="text_4">
      <!-- 60 -->
      <g transform="translate(447.178292 334.998438) scale(0.1 -0.1)">
       <defs>
        <path id="DejaVuSerif-36" d="M 2094 219 
Q 2534 219 2771 542 
Q 3009 866 3009 1472 
Q 3009 2078 2771 2401 
Q 2534 2725 2094 2725 
Q 1647 2725 1412 2412 
Q 1178 2100 1178 1509 
Q 1178 888 1415 553 
Q 1653 219 2094 219 
z
M 1075 2569 
Q 1288 2803 1556 2918 
Q 1825 3034 2163 3034 
Q 2859 3034 3264 2615 
Q 3669 2197 3669 1472 
Q 3669 763 3233 336 
Q 2797 -91 2069 -91 
Q 1278 -91 853 498 
Q 428 1088 428 2181 
Q 428 3406 931 4078 
Q 1434 4750 2350 4750 
Q 2597 4750 2869 4703 
Q 3141 4656 3425 4563 
L 3425 3794 
L 3072 3794 
Q 3034 4109 2831 4275 
Q 2628 4441 2284 4441 
Q 1678 4441 1381 3981 
Q 1084 3522 1075 2569 
z
" transform="scale(0.015625)"/>
       </defs>
       <use xlink:href="#DejaVuSerif-36"/>
       <use xlink:href="#DejaVuSerif-30" transform="translate(63.623047 0)"/>
      </g>
     </g>
    </g>
    <g id="xtick_5">
     <g id="line2d_5">
      <g>
       <use xlink:href="#m1efbe902b3" x="566.266511" y="320.4" style="stroke: #000000; stroke-width: 0.8"/>
      </g>
     </g>
     <g id="text_5">
      <!-- 80 -->
      <g transform="translate(559.904011 334.998438) scale(0.1 -0.1)">
       <defs>
        <path id="DejaVuSerif-38" d="M 2981 1275 
Q 2981 1775 2732 2051 
Q 2484 2328 2034 2328 
Q 1584 2328 1336 2051 
Q 1088 1775 1088 1275 
Q 1088 772 1336 495 
Q 1584 219 2034 219 
Q 2484 219 2732 495 
Q 2981 772 2981 1275 
z
M 2853 3541 
Q 2853 3966 2637 4203 
Q 2422 4441 2034 4441 
Q 1650 4441 1433 4203 
Q 1216 3966 1216 3541 
Q 1216 3113 1433 2875 
Q 1650 2638 2034 2638 
Q 2422 2638 2637 2875 
Q 2853 3113 2853 3541 
z
M 2516 2484 
Q 3047 2413 3344 2092 
Q 3641 1772 3641 1275 
Q 3641 619 3225 264 
Q 2809 -91 2034 -91 
Q 1263 -91 845 264 
Q 428 619 428 1275 
Q 428 1772 725 2092 
Q 1022 2413 1556 2484 
Q 1084 2569 832 2842 
Q 581 3116 581 3541 
Q 581 4103 968 4426 
Q 1356 4750 2034 4750 
Q 2713 4750 3100 4426 
Q 3488 4103 3488 3541 
Q 3488 3116 3236 2842 
Q 2984 2569 2516 2484 
z
" transform="scale(0.015625)"/>
       </defs>
       <use xlink:href="#DejaVuSerif-38"/>
       <use xlink:href="#DejaVuSerif-30" transform="translate(63.623047 0)"/>
      </g>
     </g>
    </g>
    <g id="text_6">
     <!-- T [hrs] -->
     <g transform="translate(341.7975 353.235625) scale(0.16 -0.16)">
      <defs>
       <path id="DejaVuSerif-54" d="M 1222 0 
L 1222 331 
L 1819 331 
L 1819 4294 
L 447 4294 
L 447 3566 
L 63 3566 
L 63 4666 
L 4206 4666 
L 4206 3566 
L 3822 3566 
L 3822 4294 
L 2450 4294 
L 2450 331 
L 3047 331 
L 3047 0 
L 1222 0 
z
" transform="scale(0.015625)"/>
       <path id="DejaVuSerif-20" transform="scale(0.015625)"/>
       <path id="DejaVuSerif-5b" d="M 550 4863 
L 2003 4863 
L 2003 4531 
L 1147 4531 
L 1147 -513 
L 2003 -513 
L 2003 -844 
L 550 -844 
L 550 4863 
z
" transform="scale(0.015625)"/>
       <path id="DejaVuSerif-68" d="M 263 0 
L 263 331 
L 781 331 
L 781 4531 
L 231 4531 
L 231 4863 
L 1356 4863 
L 1356 2731 
Q 1516 3069 1770 3241 
Q 2025 3413 2363 3413 
Q 2913 3413 3172 3097 
Q 3431 2781 3431 2113 
L 3431 331 
L 3944 331 
L 3944 0 
L 2356 0 
L 2356 331 
L 2853 331 
L 2853 1931 
Q 2853 2541 2704 2764 
Q 2556 2988 2175 2988 
Q 1775 2988 1565 2697 
Q 1356 2406 1356 1850 
L 1356 331 
L 1856 331 
L 1856 0 
L 263 0 
z
" transform="scale(0.015625)"/>
       <path id="DejaVuSerif-72" d="M 3059 3328 
L 3059 2497 
L 2728 2497 
Q 2713 2744 2591 2866 
Q 2469 2988 2234 2988 
Q 1809 2988 1582 2694 
Q 1356 2400 1356 1850 
L 1356 331 
L 2022 331 
L 2022 0 
L 263 0 
L 263 331 
L 781 331 
L 781 2994 
L 231 2994 
L 231 3322 
L 1356 3322 
L 1356 2731 
Q 1525 3078 1790 3245 
Q 2056 3413 2438 3413 
Q 2578 3413 2733 3391 
Q 2888 3369 3059 3328 
z
" transform="scale(0.015625)"/>
       <path id="DejaVuSerif-73" d="M 359 184 
L 359 959 
L 691 959 
Q 703 588 923 403 
Q 1144 219 1575 219 
Q 1963 219 2166 364 
Q 2369 509 2369 788 
Q 2369 1006 2220 1140 
Q 2072 1275 1594 1428 
L 1178 1569 
Q 750 1706 558 1912 
Q 366 2119 366 2438 
Q 366 2894 700 3153 
Q 1034 3413 1625 3413 
Q 1888 3413 2178 3344 
Q 2469 3275 2778 3144 
L 2778 2419 
L 2447 2419 
Q 2434 2741 2221 2922 
Q 2009 3103 1644 3103 
Q 1281 3103 1095 2975 
Q 909 2847 909 2591 
Q 909 2381 1050 2254 
Q 1191 2128 1613 1997 
L 2069 1856 
Q 2541 1709 2748 1489 
Q 2956 1269 2956 922 
Q 2956 450 2595 179 
Q 2234 -91 1600 -91 
Q 1278 -91 972 -22 
Q 666 47 359 184 
z
" transform="scale(0.015625)"/>
       <path id="DejaVuSerif-5d" d="M 1947 4863 
L 1947 -844 
L 494 -844 
L 494 -513 
L 1350 -513 
L 1350 4531 
L 494 4531 
L 494 4863 
L 1947 4863 
z
" transform="scale(0.015625)"/>
      </defs>
      <use xlink:href="#DejaVuSerif-54"/>
      <use xlink:href="#DejaVuSerif-20" transform="translate(66.699219 0)"/>
      <use xlink:href="#DejaVuSerif-5b" transform="translate(98.486328 0)"/>
      <use xlink:href="#DejaVuSerif-68" transform="translate(137.5 0)"/>
      <use xlink:href="#DejaVuSerif-72" transform="translate(201.904297 0)"/>
      <use xlink:href="#DejaVuSerif-73" transform="translate(249.707031 0)"/>
      <use xlink:href="#DejaVuSerif-5d" transform="translate(301.025391 0)"/>
     </g>
    </g>
   </g>
   <g id="matplotlib.axis_2">
    <g id="ytick_1">
     <g id="line2d_6">
      <defs>
       <path id="mebaa71ef16" d="M 0 0 
L -3.5 0 
" style="stroke: #000000; stroke-width: 0.8"/>
      </defs>
      <g>
       <use xlink:href="#mebaa71ef16" x="90" y="314.384474" style="stroke: #000000; stroke-width: 0.8"/>
      </g>
     </g>
     <g id="text_7">
      <!-- 2.7 -->
      <g transform="translate(67.096875 318.183692) scale(0.1 -0.1)">
       <defs>
        <path id="DejaVuSerif-2e" d="M 603 325 
Q 603 500 722 622 
Q 841 744 1019 744 
Q 1191 744 1312 622 
Q 1434 500 1434 325 
Q 1434 153 1312 31 
Q 1191 -91 1019 -91 
Q 841 -91 722 29 
Q 603 150 603 325 
z
" transform="scale(0.015625)"/>
        <path id="DejaVuSerif-37" d="M 3609 4347 
L 1784 0 
L 1319 0 
L 3059 4153 
L 903 4153 
L 903 3578 
L 538 3578 
L 538 4666 
L 3609 4666 
L 3609 4347 
z
" transform="scale(0.015625)"/>
       </defs>
       <use xlink:href="#DejaVuSerif-32"/>
       <use xlink:href="#DejaVuSerif-2e" transform="translate(63.623047 0)"/>
       <use xlink:href="#DejaVuSerif-37" transform="translate(95.410156 0)"/>
      </g>
     </g>
    </g>
    <g id="ytick_2">
     <g id="line2d_7">
      <g>
       <use xlink:href="#mebaa71ef16" x="90" y="282.527762" style="stroke: #000000; stroke-width: 0.8"/>
      </g>
     </g>
     <g id="text_8">
      <!-- 2.8 -->
      <g transform="translate(67.096875 286.32698) scale(0.1 -0.1)">
       <use xlink:href="#DejaVuSerif-32"/>
       <use xlink:href="#DejaVuSerif-2e" transform="translate(63.623047 0)"/>
       <use xlink:href="#DejaVuSerif-38" transform="translate(95.410156 0)"/>
      </g>
     </g>
    </g>
    <g id="ytick_3">
     <g id="line2d_8">
      <g>
       <use xlink:href="#mebaa71ef16" x="90" y="250.67105" style="stroke: #000000; stroke-width: 0.8"/>
      </g>
     </g>
     <g id="text_9">
      <!-- 2.9 -->
      <g transform="translate(67.096875 254.470269) scale(0.1 -0.1)">
       <defs>
        <path id="DejaVuSerif-39" d="M 2994 2091 
Q 2784 1856 2512 1740 
Q 2241 1625 1900 1625 
Q 1206 1625 804 2044 
Q 403 2463 403 3188 
Q 403 3897 839 4323 
Q 1275 4750 2003 4750 
Q 2794 4750 3217 4161 
Q 3641 3572 3641 2478 
Q 3641 1253 3137 581 
Q 2634 -91 1722 -91 
Q 1475 -91 1203 -44 
Q 931 3 647 97 
L 647 872 
L 997 872 
Q 1038 556 1241 387 
Q 1444 219 1784 219 
Q 2391 219 2687 676 
Q 2984 1134 2994 2091 
z
M 1978 4441 
Q 1534 4441 1298 4117 
Q 1063 3794 1063 3188 
Q 1063 2581 1298 2256 
Q 1534 1931 1978 1931 
Q 2422 1931 2658 2245 
Q 2894 2559 2894 3150 
Q 2894 3772 2656 4106 
Q 2419 4441 1978 4441 
z
" transform="scale(0.015625)"/>
       </defs>
       <use xlink:href="#DejaVuSerif-32"/>
       <use xlink:href="#DejaVuSerif-2e" transform="translate(63.623047 0)"/>
       <use xlink:href="#DejaVuSerif-39" transform="translate(95.410156 0)"/>
      </g>
     </g>
    </g>
    <g id="ytick_4">
     <g id="line2d_9">
      <g>
       <use xlink:href="#mebaa71ef16" x="90" y="218.814338" style="stroke: #000000; stroke-width: 0.8"/>
      </g>
     </g>
     <g id="text_10">
      <!-- 3.0 -->
      <g transform="translate(67.096875 222.613557) scale(0.1 -0.1)">
       <defs>
        <path id="DejaVuSerif-33" d="M 622 4469 
Q 988 4606 1323 4678 
Q 1659 4750 1953 4750 
Q 2638 4750 3022 4454 
Q 3406 4159 3406 3634 
Q 3406 3213 3140 2930 
Q 2875 2647 2388 2547 
Q 2963 2466 3280 2130 
Q 3597 1794 3597 1259 
Q 3597 606 3158 257 
Q 2719 -91 1894 -91 
Q 1528 -91 1179 -12 
Q 831 66 488 225 
L 488 1131 
L 838 1131 
Q 869 681 1141 450 
Q 1413 219 1906 219 
Q 2384 219 2661 495 
Q 2938 772 2938 1253 
Q 2938 1803 2653 2086 
Q 2369 2369 1819 2369 
L 1522 2369 
L 1522 2688 
L 1678 2688 
Q 2225 2688 2498 2914 
Q 2772 3141 2772 3597 
Q 2772 4006 2547 4223 
Q 2322 4441 1900 4441 
Q 1478 4441 1245 4241 
Q 1013 4041 972 3647 
L 622 3647 
L 622 4469 
z
" transform="scale(0.015625)"/>
       </defs>
       <use xlink:href="#DejaVuSerif-33"/>
       <use xlink:href="#DejaVuSerif-2e" transform="translate(63.623047 0)"/>
       <use xlink:href="#DejaVuSerif-30" transform="translate(95.410156 0)"/>
      </g>
     </g>
    </g>
    <g id="ytick_5">
     <g id="line2d_10">
      <g>
       <use xlink:href="#mebaa71ef16" x="90" y="186.957626" style="stroke: #000000; stroke-width: 0.8"/>
      </g>
     </g>
     <g id="text_11">
      <!-- 3.1 -->
      <g transform="translate(67.096875 190.756845) scale(0.1 -0.1)">
       <defs>
        <path id="DejaVuSerif-31" d="M 909 0 
L 909 331 
L 1722 331 
L 1722 4213 
L 781 3603 
L 781 4013 
L 1919 4750 
L 2350 4750 
L 2350 331 
L 3163 331 
L 3163 0 
L 909 0 
z
" transform="scale(0.015625)"/>
       </defs>
       <use xlink:href="#DejaVuSerif-33"/>
       <use xlink:href="#DejaVuSerif-2e" transform="translate(63.623047 0)"/>
       <use xlink:href="#DejaVuSerif-31" transform="translate(95.410156 0)"/>
      </g>
     </g>
    </g>
    <g id="ytick_6">
     <g id="line2d_11">
      <g>
       <use xlink:href="#mebaa71ef16" x="90" y="155.100914" style="stroke: #000000; stroke-width: 0.8"/>
      </g>
     </g>
     <g id="text_12">
      <!-- 3.2 -->
      <g transform="translate(67.096875 158.900133) scale(0.1 -0.1)">
       <use xlink:href="#DejaVuSerif-33"/>
       <use xlink:href="#DejaVuSerif-2e" transform="translate(63.623047 0)"/>
       <use xlink:href="#DejaVuSerif-32" transform="translate(95.410156 0)"/>
      </g>
     </g>
    </g>
    <g id="ytick_7">
     <g id="line2d_12">
      <g>
       <use xlink:href="#mebaa71ef16" x="90" y="123.244202" style="stroke: #000000; stroke-width: 0.8"/>
      </g>
     </g>
     <g id="text_13">
      <!-- 3.3 -->
      <g transform="translate(67.096875 127.043421) scale(0.1 -0.1)">
       <use xlink:href="#DejaVuSerif-33"/>
       <use xlink:href="#DejaVuSerif-2e" transform="translate(63.623047 0)"/>
       <use xlink:href="#DejaVuSerif-33" transform="translate(95.410156 0)"/>
      </g>
     </g>
    </g>
    <g id="ytick_8">
     <g id="line2d_13">
      <g>
       <use xlink:href="#mebaa71ef16" x="90" y="91.38749" style="stroke: #000000; stroke-width: 0.8"/>
      </g>
     </g>
     <g id="text_14">
      <!-- 3.4 -->
      <g transform="translate(67.096875 95.186709) scale(0.1 -0.1)">
       <use xlink:href="#DejaVuSerif-33"/>
       <use xlink:href="#DejaVuSerif-2e" transform="translate(63.623047 0)"/>
       <use xlink:href="#DejaVuSerif-34" transform="translate(95.410156 0)"/>
      </g>
     </g>
    </g>
    <g id="ytick_9">
     <g id="line2d_14">
      <g>
       <use xlink:href="#mebaa71ef16" x="90" y="59.530778" style="stroke: #000000; stroke-width: 0.8"/>
      </g>
     </g>
     <g id="text_15">
      <!-- 3.5 -->
      <g transform="translate(67.096875 63.329997) scale(0.1 -0.1)">
       <defs>
        <path id="DejaVuSerif-35" d="M 3219 4666 
L 3219 4153 
L 1081 4153 
L 1081 2816 
Q 1244 2928 1461 2984 
Q 1678 3041 1947 3041 
Q 2703 3041 3140 2622 
Q 3578 2203 3578 1478 
Q 3578 738 3136 323 
Q 2694 -91 1894 -91 
Q 1572 -91 1234 -12 
Q 897 66 544 225 
L 544 1131 
L 897 1131 
Q 925 688 1179 453 
Q 1434 219 1894 219 
Q 2388 219 2653 544 
Q 2919 869 2919 1478 
Q 2919 2084 2655 2407 
Q 2391 2731 1894 2731 
Q 1613 2731 1398 2631 
Q 1184 2531 1019 2322 
L 750 2322 
L 750 4666 
L 3219 4666 
z
" transform="scale(0.015625)"/>
       </defs>
       <use xlink:href="#DejaVuSerif-33"/>
       <use xlink:href="#DejaVuSerif-2e" transform="translate(63.623047 0)"/>
       <use xlink:href="#DejaVuSerif-35" transform="translate(95.410156 0)"/>
      </g>
     </g>
    </g>
    <g id="text_16">
     <!-- Jacobi Constant [ND] -->
     <g transform="translate(59.769375 268.0425) rotate(-90) scale(0.16 -0.16)">
      <defs>
       <path id="DejaVuSerif-4a" d="M -538 -1119 
L -538 -384 
L -181 -384 
Q -172 -694 -34 -845 
Q 103 -997 378 -997 
Q 750 -997 897 -762 
Q 1044 -528 1044 153 
L 1044 4331 
L 319 4331 
L 319 4666 
L 2272 4666 
L 2272 4331 
L 1678 4331 
L 1678 128 
Q 1678 -644 1368 -987 
Q 1059 -1331 372 -1331 
Q 150 -1331 -79 -1278 
Q -309 -1225 -538 -1119 
z
" transform="scale(0.015625)"/>
       <path id="DejaVuSerif-61" d="M 2547 1044 
L 2547 1747 
L 1806 1747 
Q 1378 1747 1168 1562 
Q 959 1378 959 997 
Q 959 650 1171 447 
Q 1384 244 1747 244 
Q 2106 244 2326 466 
Q 2547 688 2547 1044 
z
M 3122 2075 
L 3122 331 
L 3634 331 
L 3634 0 
L 2547 0 
L 2547 359 
Q 2356 128 2106 18 
Q 1856 -91 1522 -91 
Q 969 -91 644 203 
Q 319 497 319 997 
Q 319 1513 691 1797 
Q 1063 2081 1741 2081 
L 2547 2081 
L 2547 2309 
Q 2547 2688 2317 2895 
Q 2088 3103 1672 3103 
Q 1328 3103 1125 2947 
Q 922 2791 872 2484 
L 575 2484 
L 575 3156 
Q 875 3284 1158 3348 
Q 1441 3413 1709 3413 
Q 2400 3413 2761 3070 
Q 3122 2728 3122 2075 
z
" transform="scale(0.015625)"/>
       <path id="DejaVuSerif-63" d="M 3291 997 
Q 3169 466 2822 187 
Q 2475 -91 1925 -91 
Q 1200 -91 759 389 
Q 319 869 319 1663 
Q 319 2459 759 2936 
Q 1200 3413 1925 3413 
Q 2241 3413 2553 3339 
Q 2866 3266 3181 3116 
L 3181 2266 
L 2847 2266 
Q 2781 2703 2561 2903 
Q 2341 3103 1931 3103 
Q 1466 3103 1228 2742 
Q 991 2381 991 1663 
Q 991 944 1227 581 
Q 1463 219 1931 219 
Q 2303 219 2525 412 
Q 2747 606 2828 997 
L 3291 997 
z
" transform="scale(0.015625)"/>
       <path id="DejaVuSerif-6f" d="M 1925 219 
Q 2388 219 2623 584 
Q 2859 950 2859 1663 
Q 2859 2375 2623 2739 
Q 2388 3103 1925 3103 
Q 1463 3103 1227 2739 
Q 991 2375 991 1663 
Q 991 950 1228 584 
Q 1466 219 1925 219 
z
M 1925 -91 
Q 1200 -91 759 389 
Q 319 869 319 1663 
Q 319 2456 758 2934 
Q 1197 3413 1925 3413 
Q 2653 3413 3092 2934 
Q 3531 2456 3531 1663 
Q 3531 869 3092 389 
Q 2653 -91 1925 -91 
z
" transform="scale(0.015625)"/>
       <path id="DejaVuSerif-62" d="M 738 331 
L 738 4531 
L 184 4531 
L 184 4863 
L 1313 4863 
L 1313 2803 
Q 1481 3116 1742 3264 
Q 2003 3413 2388 3413 
Q 3000 3413 3387 2928 
Q 3775 2444 3775 1663 
Q 3775 881 3387 395 
Q 3000 -91 2388 -91 
Q 2003 -91 1742 57 
Q 1481 206 1313 519 
L 1313 0 
L 184 0 
L 184 331 
L 738 331 
z
M 1313 1497 
Q 1313 897 1542 583 
Q 1772 269 2209 269 
Q 2650 269 2876 622 
Q 3103 975 3103 1663 
Q 3103 2353 2876 2703 
Q 2650 3053 2209 3053 
Q 1772 3053 1542 2737 
Q 1313 2422 1313 1825 
L 1313 1497 
z
" transform="scale(0.015625)"/>
       <path id="DejaVuSerif-69" d="M 622 4353 
Q 622 4497 726 4603 
Q 831 4709 978 4709 
Q 1122 4709 1226 4603 
Q 1331 4497 1331 4353 
Q 1331 4206 1228 4103 
Q 1125 4000 978 4000 
Q 831 4000 726 4103 
Q 622 4206 622 4353 
z
M 1356 331 
L 1900 331 
L 1900 0 
L 231 0 
L 231 331 
L 781 331 
L 781 2988 
L 231 2988 
L 231 3322 
L 1356 3322 
L 1356 331 
z
" transform="scale(0.015625)"/>
       <path id="DejaVuSerif-43" d="M 4513 1234 
Q 4306 581 3820 245 
Q 3334 -91 2591 -91 
Q 2134 -91 1743 65 
Q 1353 222 1050 525 
Q 700 875 529 1320 
Q 359 1766 359 2328 
Q 359 3416 987 4083 
Q 1616 4750 2644 4750 
Q 3025 4750 3456 4650 
Q 3888 4550 4384 4347 
L 4384 3272 
L 4031 3272 
Q 3916 3859 3567 4137 
Q 3219 4416 2591 4416 
Q 1844 4416 1459 3886 
Q 1075 3356 1075 2328 
Q 1075 1303 1459 773 
Q 1844 244 2591 244 
Q 3113 244 3450 492 
Q 3788 741 3938 1234 
L 4513 1234 
z
" transform="scale(0.015625)"/>
       <path id="DejaVuSerif-6e" d="M 263 0 
L 263 331 
L 781 331 
L 781 2988 
L 231 2988 
L 231 3322 
L 1356 3322 
L 1356 2731 
Q 1516 3069 1770 3241 
Q 2025 3413 2363 3413 
Q 2913 3413 3172 3097 
Q 3431 2781 3431 2113 
L 3431 331 
L 3944 331 
L 3944 0 
L 2356 0 
L 2356 331 
L 2853 331 
L 2853 1931 
Q 2853 2541 2703 2767 
Q 2553 2994 2175 2994 
Q 1775 2994 1565 2701 
Q 1356 2409 1356 1850 
L 1356 331 
L 1856 331 
L 1856 0 
L 263 0 
z
" transform="scale(0.015625)"/>
       <path id="DejaVuSerif-74" d="M 691 2988 
L 184 2988 
L 184 3322 
L 691 3322 
L 691 4353 
L 1269 4353 
L 1269 3322 
L 2350 3322 
L 2350 2988 
L 1269 2988 
L 1269 878 
Q 1269 456 1350 337 
Q 1431 219 1650 219 
Q 1875 219 1978 351 
Q 2081 484 2088 781 
L 2522 781 
Q 2497 328 2275 118 
Q 2053 -91 1600 -91 
Q 1103 -91 897 129 
Q 691 350 691 878 
L 691 2988 
z
" transform="scale(0.015625)"/>
       <path id="DejaVuSerif-4e" d="M 313 0 
L 313 331 
L 941 331 
L 941 4331 
L 313 4331 
L 313 4666 
L 1509 4666 
L 4306 984 
L 4306 4331 
L 3681 4331 
L 3681 4666 
L 5319 4666 
L 5319 4331 
L 4691 4331 
L 4691 -91 
L 4313 -91 
L 1325 3841 
L 1325 331 
L 1953 331 
L 1953 0 
L 313 0 
z
" transform="scale(0.015625)"/>
       <path id="DejaVuSerif-44" d="M 1581 331 
L 2163 331 
Q 3072 331 3558 850 
Q 4044 1369 4044 2338 
Q 4044 3306 3559 3818 
Q 3075 4331 2163 4331 
L 1581 4331 
L 1581 331 
z
M 353 0 
L 353 331 
L 947 331 
L 947 4331 
L 353 4331 
L 353 4666 
L 2209 4666 
Q 3416 4666 4089 4050 
Q 4763 3434 4763 2338 
Q 4763 1238 4088 619 
Q 3413 0 2209 0 
L 353 0 
z
" transform="scale(0.015625)"/>
      </defs>
      <use xlink:href="#DejaVuSerif-4a"/>
      <use xlink:href="#DejaVuSerif-61" transform="translate(40.087891 0)"/>
      <use xlink:href="#DejaVuSerif-63" transform="translate(99.707031 0)"/>
      <use xlink:href="#DejaVuSerif-6f" transform="translate(155.712891 0)"/>
      <use xlink:href="#DejaVuSerif-62" transform="translate(215.917969 0)"/>
      <use xlink:href="#DejaVuSerif-69" transform="translate(279.931641 0)"/>
      <use xlink:href="#DejaVuSerif-20" transform="translate(311.914062 0)"/>
      <use xlink:href="#DejaVuSerif-43" transform="translate(343.701172 0)"/>
      <use xlink:href="#DejaVuSerif-6f" transform="translate(420.214844 0)"/>
      <use xlink:href="#DejaVuSerif-6e" transform="translate(480.419922 0)"/>
      <use xlink:href="#DejaVuSerif-73" transform="translate(544.824219 0)"/>
      <use xlink:href="#DejaVuSerif-74" transform="translate(596.142578 0)"/>
      <use xlink:href="#DejaVuSerif-61" transform="translate(636.328125 0)"/>
      <use xlink:href="#DejaVuSerif-6e" transform="translate(695.947266 0)"/>
      <use xlink:href="#DejaVuSerif-74" transform="translate(760.351562 0)"/>
      <use xlink:href="#DejaVuSerif-20" transform="translate(800.537109 0)"/>
      <use xlink:href="#DejaVuSerif-5b" transform="translate(832.324219 0)"/>
      <use xlink:href="#DejaVuSerif-4e" transform="translate(871.337891 0)"/>
      <use xlink:href="#DejaVuSerif-44" transform="translate(958.837891 0)"/>
      <use xlink:href="#DejaVuSerif-5d" transform="translate(1039.013672 0)"/>
     </g>
    </g>
   </g>
   <g id="line2d_15">
    <path d="M 115.363636 187.39243 
L 622.636364 187.391805 
L 622.636364 187.391805 
" clip-path="url(#pc5266c96be)" style="fill: none; stroke: #000000; stroke-width: 1.5; stroke-linecap: square"/>
   </g>
   <g id="line2d_16">
    <path d="M 115.363636 187.392407 
L 116.378689 183.885537 
L 117.139979 181.938651 
L 117.901269 180.590421 
L 118.662559 179.673753 
L 119.170085 179.320802 
L 119.677612 179.197228 
L 120.185138 179.284953 
L 120.946428 179.704438 
L 121.961481 180.234737 
L 122.72277 180.415883 
L 123.737823 180.414212 
L 125.00664 180.141543 
L 127.290509 179.529519 
L 128.051799 179.637599 
L 129.066852 180.044172 
L 130.081905 180.664779 
L 132.365774 182.341502 
L 133.380827 182.736986 
L 134.649643 183.216093 
L 136.172222 183.844371 
L 136.933512 183.9065 
L 138.963618 183.731126 
L 139.724908 183.867764 
L 140.486198 184.366847 
L 141.501251 185.322783 
L 143.277593 187.39423 
L 143.78512 187.542185 
L 144.292646 187.409952 
L 145.053936 186.917705 
L 145.815226 186.235805 
L 146.322752 185.771281 
L 146.830279 185.734596 
L 147.591569 185.974302 
L 148.860385 185.728292 
L 149.367911 185.114445 
L 150.382964 183.432785 
L 150.636727 183.381289 
L 150.890491 183.587272 
L 151.398017 184.52141 
L 152.666833 185.723279 
L 153.17436 186.556476 
L 153.428123 186.589667 
L 153.681886 186.184993 
L 154.443176 183.89617 
L 154.950703 181.761758 
L 155.204466 181.167735 
L 155.458229 181.018641 
L 155.711992 181.594815 
L 155.965756 182.689364 
L 156.473282 184.031365 
L 156.727045 185.11923 
L 157.234572 188.94662 
L 157.742098 194.397414 
L 158.757151 207.63765 
L 159.010915 209.275638 
L 159.264678 209.682514 
L 159.518441 209.053781 
L 159.772204 207.547495 
L 160.279731 202.635734 
L 161.294784 192.770211 
L 161.80231 188.773904 
L 162.056073 186.995025 
L 162.309837 186.823828 
L 162.5636 188.78036 
L 164.086179 212.575462 
L 164.339943 213.214069 
L 164.593706 213.343036 
L 164.847469 212.582374 
L 165.354996 209.271612 
L 165.608759 207.082135 
L 166.623812 192.504378 
L 167.131338 182.946158 
L 167.385102 181.602486 
L 167.638865 182.392466 
L 168.146391 185.501043 
L 168.400155 184.285198 
L 169.668971 174.657178 
L 170.684024 171.60116 
L 170.937787 172.096066 
L 171.445314 173.796638 
L 171.95284 174.04918 
L 172.206603 174.596948 
L 172.460367 175.663015 
L 172.71413 177.279584 
L 174.236709 192.91209 
L 174.490473 193.925978 
L 174.744236 194.193102 
L 175.251762 193.265648 
L 175.505525 192.970725 
L 175.759289 192.958877 
L 176.013052 193.115111 
L 176.266815 193.520013 
L 176.520578 193.459555 
L 177.028105 192.505517 
L 177.535631 190.584228 
L 178.043158 187.201159 
L 180.58079 164.997866 
L 180.834554 164.489897 
L 181.088317 164.421995 
L 181.34208 164.605648 
L 181.595843 164.945914 
L 182.10337 166.224192 
L 183.118423 170.101786 
L 184.133476 173.463739 
L 185.148529 176.550897 
L 186.417345 180.557762 
L 187.178635 182.062757 
L 187.432398 182.270639 
L 187.686161 182.284614 
L 188.193688 181.978146 
L 189.208741 180.917472 
L 189.716267 180.091111 
L 191.238847 176.955799 
L 192.507663 175.214212 
L 193.776479 173.867426 
L 194.791532 173.124916 
L 198.344218 171.107926 
L 199.613034 170.050898 
L 200.628087 168.941538 
L 202.150666 166.867204 
L 203.673246 164.773275 
L 205.195825 163.229848 
L 205.957115 162.694308 
L 207.987221 161.550314 
L 209.002274 160.4765 
L 209.763564 159.291492 
L 211.539906 155.899385 
L 212.047433 155.501471 
L 212.301196 155.566638 
L 212.554959 155.827459 
L 213.062486 156.792813 
L 214.838829 160.692508 
L 215.092592 161.004824 
L 215.346355 161.070371 
L 215.853881 160.599771 
L 216.361408 159.665405 
L 217.883987 156.445331 
L 218.391514 156.046733 
L 218.89904 156.116001 
L 219.152804 156.252336 
L 219.66033 156.931957 
L 220.167857 157.859335 
L 220.675383 159.554439 
L 220.929146 160.804082 
L 221.436673 165.227318 
L 222.197963 171.66572 
L 222.959252 176.357295 
L 223.466779 179.730261 
L 223.974305 181.980121 
L 224.228069 182.522117 
L 224.735595 182.394972 
L 224.989358 182.666578 
L 225.243122 183.174395 
L 225.750648 183.303894 
L 226.511938 184.448192 
L 226.765701 185.808877 
L 228.542044 203.168692 
L 228.795807 203.325457 
L 229.303333 199.084356 
L 229.557097 199.049342 
L 229.81086 199.270667 
L 230.064623 197.322338 
L 230.825913 187.595428 
L 231.079676 187.0529 
L 231.333439 187.403876 
L 232.094729 189.906429 
L 232.348492 190.28695 
L 232.856019 193.346689 
L 233.109782 193.794276 
L 233.363545 193.758427 
L 233.871072 192.412476 
L 234.378598 192.442021 
L 234.632362 192.162745 
L 235.393651 189.340584 
L 236.154941 181.091631 
L 236.408704 179.866748 
L 236.662468 179.986904 
L 237.423757 181.304981 
L 237.931284 180.584573 
L 238.185047 180.597789 
L 238.43881 181.043477 
L 238.946337 183.187459 
L 239.2001 183.483597 
L 239.453863 182.86656 
L 239.707627 182.634602 
L 240.215153 183.138774 
L 240.468916 182.703567 
L 240.976443 180.608574 
L 242.499022 171.856816 
L 242.752785 171.68729 
L 243.006549 172.675506 
L 244.275365 180.926207 
L 244.529128 181.537775 
L 244.782891 181.735327 
L 245.036655 181.506938 
L 245.797944 180.164025 
L 246.051708 180.21309 
L 246.559234 181.104619 
L 247.066761 182.091239 
L 248.081814 183.405138 
L 248.335577 183.466964 
L 248.58934 183.395113 
L 248.843103 183.201814 
L 249.35063 182.235245 
L 250.873209 178.290053 
L 251.634499 177.337687 
L 252.649552 176.446463 
L 253.410842 176.13878 
L 254.679658 175.964317 
L 255.440948 176.013914 
L 258.232343 176.5272 
L 258.993633 176.528871 
L 260.008686 176.181921 
L 260.769976 175.726587 
L 262.546319 174.477247 
L 263.561372 173.967835 
L 264.576425 173.687723 
L 266.606531 173.370394 
L 268.12911 173.436093 
L 270.159216 173.490854 
L 272.189322 173.454321 
L 273.204375 173.744383 
L 274.980718 174.478158 
L 275.488244 174.36461 
L 275.995771 174.006874 
L 276.503297 173.424928 
L 277.010824 172.555577 
L 277.772113 170.727405 
L 278.533403 168.852294 
L 279.294693 167.682325 
L 279.802219 167.389908 
L 280.563509 167.294892 
L 281.071036 167.329602 
L 281.578562 167.693338 
L 282.086088 168.433265 
L 282.847378 170.26083 
L 284.369958 175.21444 
L 285.131247 178.11073 
L 285.385011 178.812757 
L 285.638774 179.021778 
L 285.892537 179.048513 
L 286.1463 178.893798 
L 286.400064 178.473706 
L 286.90759 176.840883 
L 287.415117 175.185578 
L 288.43017 174.435549 
L 288.683933 174.058674 
L 288.937696 173.2134 
L 289.698986 168.28774 
L 290.206512 163.915697 
L 291.475329 150.624801 
L 291.729092 151.041399 
L 291.982855 152.675058 
L 292.490382 159.186222 
L 293.759198 182.021363 
L 294.012961 185.298326 
L 294.266724 187.115181 
L 294.520488 187.762447 
L 294.774251 187.836273 
L 295.281777 193.21157 
L 295.789304 200.960454 
L 296.043067 202.614392 
L 296.29683 199.51341 
L 296.550593 199.435255 
L 296.804357 199.72076 
L 297.05812 196.933082 
L 297.565646 194.862166 
L 298.580699 202.25339 
L 299.088226 220.594129 
L 299.341989 221.860026 
L 299.849516 208.229015 
L 300.103279 201.311961 
L 300.357042 199.185448 
L 300.610805 198.103735 
L 300.864569 193.789036 
L 301.879622 164.940977 
L 302.640911 151.748135 
L 303.148438 148.410563 
L 303.402201 146.032799 
L 303.655964 142.55555 
L 304.163491 134.29414 
L 304.417254 132.886744 
L 304.671017 132.61248 
L 304.924781 132.880516 
L 305.432307 136.329738 
L 305.939834 143.896564 
L 307.716176 178.494745 
L 307.96994 180.582902 
L 308.223703 181.654969 
L 308.477466 181.844546 
L 309.238756 180.964866 
L 309.746282 180.649512 
L 310.000045 180.333019 
L 310.507572 179.148694 
L 311.015098 177.681447 
L 312.030151 175.288494 
L 312.791441 174.384509 
L 313.045204 174.232073 
L 313.298968 174.421422 
L 313.552731 174.995014 
L 314.060257 177.025295 
L 315.582837 184.837219 
L 316.090363 186.321024 
L 316.59789 187.051305 
L 316.851653 187.182779 
L 317.105416 187.154601 
L 317.35918 186.972543 
L 317.866706 186.107522 
L 319.135522 183.210397 
L 319.643049 182.514977 
L 320.404339 181.922625 
L 321.165628 181.402352 
L 323.703261 179.125605 
L 324.718314 178.690854 
L 326.240893 178.22876 
L 327.255946 178.137465 
L 328.778526 178.347397 
L 329.793579 178.453351 
L 330.554868 178.321346 
L 331.569921 177.858113 
L 332.838738 177.047246 
L 336.898949 173.93153 
L 338.929055 170.784141 
L 340.959161 167.236257 
L 342.227978 164.787402 
L 342.481741 164.596989 
L 342.989267 164.6696 
L 343.243031 164.8411 
L 343.750557 165.779871 
L 344.00432 166.524052 
L 344.511847 169.470318 
L 345.5269 176.936279 
L 346.034426 178.232026 
L 346.28819 178.522088 
L 346.795716 178.536822 
L 347.303243 178.039563 
L 347.557006 177.846948 
L 347.810769 177.251785 
L 348.064532 176.0247 
L 349.079585 168.388833 
L 349.333348 168.74467 
L 349.840875 170.235234 
L 350.094638 170.162168 
L 351.109691 162.29214 
L 351.363454 161.01128 
L 351.870981 156.431963 
L 352.124744 152.233547 
L 352.886034 128.315553 
L 353.901087 92.033206 
L 354.662377 58.772166 
L 354.91614 55.8 
L 355.931193 78.398549 
L 356.184956 91.827983 
L 356.946246 170.608919 
L 357.961299 229.73218 
L 358.722589 293.836546 
L 358.976352 304.545063 
L 359.230115 307.8 
L 359.483878 306.576332 
L 359.991405 295.579044 
L 360.498931 280.463545 
L 361.260221 253.476698 
L 362.529037 219.041283 
L 363.036564 210.434518 
L 363.797853 201.423307 
L 364.559143 195.942892 
L 364.812906 195.855774 
L 365.827959 198.483421 
L 366.081723 198.63692 
L 366.335486 198.272881 
L 366.589249 197.522624 
L 366.843012 196.311033 
L 367.604302 190.072461 
L 368.619355 180.77772 
L 369.126882 178.165416 
L 369.888171 176.069967 
L 370.141935 175.712232 
L 370.395698 175.661192 
L 370.903224 175.873478 
L 371.410751 176.388663 
L 372.172041 177.043296 
L 373.187094 177.559772 
L 373.69462 177.934521 
L 373.948383 177.963458 
L 374.45591 177.653193 
L 374.963436 176.968559 
L 376.486016 174.614949 
L 377.247305 173.759118 
L 377.754832 173.444827 
L 378.516122 173.299378 
L 380.292464 173.141473 
L 382.576334 172.553754 
L 383.591387 172.654771 
L 387.144072 173.023975 
L 388.159125 172.9342 
L 389.174178 172.591807 
L 391.204284 171.472725 
L 391.71181 171.364797 
L 392.219337 171.472193 
L 392.4731 171.386519 
L 392.726863 171.15008 
L 393.23439 170.21298 
L 394.503206 167.689312 
L 394.756969 167.392718 
L 395.010733 167.587612 
L 395.772022 169.200156 
L 396.533312 171.41728 
L 397.040839 172.397065 
L 397.294602 172.46884 
L 397.548365 172.090445 
L 397.802128 171.34672 
L 398.309655 168.507167 
L 398.817181 166.213862 
L 399.070945 166.181355 
L 399.578471 167.145342 
L 400.085998 167.419757 
L 400.339761 167.660602 
L 400.593524 168.227282 
L 401.101051 171.459433 
L 401.608577 176.930431 
L 402.877393 191.893494 
L 403.131156 192.574406 
L 403.38492 192.86857 
L 403.638683 192.852164 
L 403.892446 192.568862 
L 404.146209 193.015765 
L 404.399973 194.758187 
L 404.653736 197.556347 
L 405.415026 212.350795 
L 406.430079 243.090978 
L 407.445132 256.626972 
L 407.698895 251.86856 
L 407.952658 244.6101 
L 408.206421 242.560071 
L 408.713948 235.56509 
L 408.967711 241.668999 
L 409.475238 262.711741 
L 409.729001 256.594997 
L 410.236527 205.232088 
L 410.997817 178.27342 
L 411.25158 173.22654 
L 411.505344 173.303936 
L 411.759107 171.661922 
L 412.266633 161.228808 
L 412.77416 154.954918 
L 413.027923 149.086994 
L 413.789213 125.077858 
L 414.042976 122.118148 
L 414.296739 120.70346 
L 415.058029 114.809712 
L 415.311792 114.7709 
L 415.565556 115.146712 
L 415.819319 114.666314 
L 416.073082 115.545842 
L 416.326845 117.843703 
L 417.595661 134.223125 
L 420.133294 161.641077 
L 420.64082 164.9687 
L 420.894584 165.961777 
L 421.40211 166.493519 
L 421.655873 166.27751 
L 422.417163 165.08597 
L 422.670926 165.673917 
L 423.685979 169.738658 
L 424.954796 177.281483 
L 426.223612 184.765065 
L 427.492428 190.392448 
L 428.253718 193.310232 
L 428.761244 194.517646 
L 429.268771 195.036325 
L 429.776297 195.139012 
L 430.283824 194.82738 
L 431.045113 194.311208 
L 431.55264 194.208596 
L 432.31393 194.421339 
L 434.851562 195.485887 
L 435.612852 195.485203 
L 436.374142 195.298892 
L 437.135431 194.796315 
L 438.658011 193.331803 
L 439.673064 192.503239 
L 440.434354 192.179378 
L 441.449407 192.035297 
L 442.46446 192.095603 
L 443.225749 192.353993 
L 443.987039 192.888773 
L 445.002092 194.020235 
L 449.316067 199.121648 
L 450.077357 199.651947 
L 450.584883 199.85717 
L 451.09241 199.850031 
L 451.599936 199.579413 
L 452.361226 198.772192 
L 453.122516 197.441659 
L 453.883806 195.54156 
L 454.898859 192.838113 
L 456.167675 190.286495 
L 456.675201 188.641443 
L 457.436491 185.222829 
L 458.705307 178.711665 
L 459.72036 173.554502 
L 461.24294 165.486923 
L 461.750466 164.384627 
L 462.004229 164.438857 
L 462.257993 164.996575 
L 462.511756 166.200343 
L 463.019282 170.405291 
L 464.541862 185.752976 
L 464.795625 185.923413 
L 465.049388 185.461623 
L 465.303152 184.341327 
L 465.810678 180.484468 
L 467.079494 167.77886 
L 467.587021 165.580724 
L 468.094547 163.331776 
L 468.348311 163.155566 
L 468.602074 164.762945 
L 469.1096 173.533236 
L 469.87089 185.779028 
L 470.63218 195.300259 
L 470.885943 194.922472 
L 471.393469 189.915012 
L 472.154759 180.4531 
L 472.408522 179.563926 
L 472.662286 180.064907 
L 472.916049 181.261232 
L 473.169812 181.506406 
L 473.423575 181.243915 
L 473.677339 180.702983 
L 473.931102 180.453024 
L 474.184865 181.619347 
L 474.692392 192.5659 
L 475.199918 203.339205 
L 475.453681 203.938696 
L 475.707445 202.277619 
L 476.214971 196.601702 
L 476.468734 196.242524 
L 476.722498 194.643651 
L 476.976261 194.398857 
L 477.230024 195.202205 
L 477.483787 194.778315 
L 477.737551 192.409362 
L 478.245077 182.138026 
L 478.752604 172.545172 
L 479.26013 169.608627 
L 479.767657 162.029953 
L 480.275183 150.83648 
L 480.78271 138.792948 
L 481.290236 134.18287 
L 481.543999 133.388409 
L 481.797763 133.793311 
L 482.051526 135.971092 
L 485.096685 181.935005 
L 485.857974 187.876755 
L 486.365501 190.018231 
L 486.619264 190.370574 
L 486.873027 190.178946 
L 487.634317 188.672052 
L 488.64937 185.250096 
L 489.156897 182.941677 
L 489.664423 179.991765 
L 490.17195 178.469529 
L 490.425713 178.101616 
L 490.679476 178.096603 
L 490.933239 178.539709 
L 491.440766 180.376464 
L 493.724635 190.852567 
L 494.232162 192.529063 
L 494.993451 194.279916 
L 495.500978 195.049616 
L 495.754741 195.271473 
L 496.008504 195.332615 
L 496.516031 195.139012 
L 497.27732 194.909408 
L 497.784847 194.730161 
L 498.292373 194.273763 
L 498.7999 193.483783 
L 501.591296 188.001849 
L 502.352585 187.374255 
L 504.890218 185.816245 
L 506.159034 185.355138 
L 507.174087 185.1607 
L 508.442903 185.159941 
L 513.010642 185.510081 
L 513.771931 185.927591 
L 514.533221 186.7099 
L 515.802037 188.518249 
L 516.81709 190.050739 
L 517.324617 190.435209 
L 517.57838 190.468704 
L 517.832143 190.382422 
L 518.33967 189.893061 
L 519.354723 188.725446 
L 519.862249 188.492121 
L 520.369776 188.547794 
L 520.877302 188.926948 
L 521.892355 190.29052 
L 522.399882 190.660332 
L 522.653645 190.679472 
L 523.668698 190.323863 
L 524.176224 190.24024 
L 524.683751 189.783083 
L 525.191277 188.771625 
L 525.952567 186.409584 
L 526.713857 183.24017 
L 527.475147 180.204584 
L 527.72891 179.567647 
L 527.982673 179.238698 
L 528.236436 179.216216 
L 528.4902 179.328398 
L 528.743963 179.807885 
L 529.251489 181.939259 
L 530.266542 187.313417 
L 530.520306 187.701761 
L 530.774069 187.405091 
L 531.281595 185.093634 
L 531.789122 181.829507 
L 532.804175 174.724092 
L 533.311701 172.568261 
L 533.565465 172.01024 
L 533.819228 171.845651 
L 534.072991 172.138371 
L 534.834281 173.897655 
L 535.849334 177.923128 
L 536.103097 177.737121 
L 536.610623 175.840667 
L 536.864387 173.939277 
L 537.11815 173.007114 
L 537.371913 173.532172 
L 538.133203 177.382043 
L 538.640729 182.310817 
L 538.894493 182.616374 
L 539.402019 184.893348 
L 539.655782 186.544552 
L 539.909546 186.897274 
L 540.163309 186.751977 
L 540.670835 184.542524 
L 541.685888 201.815297 
L 541.939652 201.417079 
L 542.193415 201.390496 
L 542.447178 202.307164 
L 542.700941 204.548517 
L 543.208468 210.175217 
L 543.462231 209.385237 
L 543.969758 202.050977 
L 544.223521 201.300113 
L 544.477284 201.08813 
L 544.731047 199.91459 
L 545.492337 193.720147 
L 546.253627 179.714235 
L 546.761153 174.944506 
L 547.014917 176.04627 
L 547.26868 177.73226 
L 547.522443 178.049057 
L 548.02997 176.151692 
L 548.283733 174.477171 
L 549.298786 164.142035 
L 549.552549 163.005712 
L 549.806312 162.478679 
L 550.060075 162.265709 
L 550.313839 161.827844 
L 550.821365 159.640037 
L 551.582655 156.021213 
L 552.597708 152.763466 
L 552.851471 152.683184 
L 553.358998 153.880649 
L 554.374051 157.582869 
L 555.13534 161.004597 
L 556.404157 167.359679 
L 556.911683 169.801394 
L 557.165446 170.582108 
L 557.41921 170.966655 
L 557.672973 170.922526 
L 558.180499 169.795926 
L 558.941789 167.917093 
L 559.449316 166.877306 
L 559.703079 166.624688 
L 560.210605 166.60327 
L 561.733185 167.127189 
L 562.240711 166.980221 
L 564.017054 165.916889 
L 565.793397 165.206431 
L 567.823503 164.155251 
L 573.406294 163.308686 
L 575.182637 163.603305 
L 575.943927 163.930888 
L 576.705216 164.572533 
L 578.227796 166.172241 
L 578.735322 166.362121 
L 579.242849 166.215457 
L 579.750375 165.718198 
L 580.511665 164.387057 
L 582.034244 161.721662 
L 582.795534 160.774917 
L 583.303061 160.519489 
L 584.06435 160.569466 
L 584.571877 160.779246 
L 585.079403 161.197971 
L 585.840693 161.93919 
L 586.34822 161.813261 
L 587.363273 161.125892 
L 587.617036 161.054497 
L 587.870799 160.862414 
L 588.124562 160.251529 
L 588.632089 158.17355 
L 589.647142 153.285942 
L 589.900905 153.175431 
L 590.408431 155.739961 
L 592.438537 168.91974 
L 592.946064 172.587857 
L 593.707354 176.042017 
L 593.961117 175.808463 
L 594.468643 173.685292 
L 595.483696 168.923917 
L 595.73746 168.512256 
L 595.991223 169.02387 
L 596.498749 171.003719 
L 597.006276 175.120335 
L 597.513802 180.139568 
L 598.021329 182.180331 
L 598.275092 181.330197 
L 598.782619 178.837822 
L 599.036382 179.403059 
L 599.290145 180.807721 
L 599.543908 182.966514 
L 600.051435 184.416519 
L 600.305198 183.98868 
L 600.558961 179.164644 
L 600.812725 171.79332 
L 601.320251 165.386286 
L 601.574014 163.857138 
L 601.827778 163.863746 
L 602.081541 164.533569 
L 602.589067 168.65535 
L 602.842831 169.676984 
L 603.096594 170.212296 
L 603.350357 169.91988 
L 603.60412 173.157423 
L 604.111647 183.159281 
L 604.36541 181.421492 
L 604.872936 173.398876 
L 605.1267 172.636922 
L 605.380463 172.602972 
L 605.634226 173.190463 
L 605.887989 172.836905 
L 606.141753 169.532979 
L 606.649279 159.52345 
L 607.664332 150.274736 
L 608.171859 147.37275 
L 608.679385 141.817673 
L 609.186912 134.551923 
L 609.440675 132.294316 
L 609.694438 131.118422 
L 609.948201 130.925807 
L 610.201965 131.807613 
L 610.455728 134.16335 
L 610.709491 137.596851 
L 611.217018 149.166516 
L 612.485834 182.698402 
L 612.99336 190.533264 
L 613.247124 192.53962 
L 613.500887 193.329296 
L 613.75465 193.153998 
L 615.023466 189.186325 
L 615.530993 187.401673 
L 616.038519 185.627123 
L 617.053572 180.448087 
L 617.561099 179.156973 
L 618.068625 178.703994 
L 618.322388 178.622573 
L 618.576152 178.691841 
L 618.829915 178.937243 
L 619.337441 180.085262 
L 619.844968 181.935537 
L 620.860021 186.107142 
L 621.367547 187.425978 
L 621.875074 188.142209 
L 622.128837 188.325633 
L 622.3826 188.310367 
L 622.636364 188.103701 
L 622.636364 188.103701 
" clip-path="url(#pc5266c96be)" style="fill: none; stroke-dasharray: 5.55,2.4; stroke-dashoffset: 0; stroke: #ff0000; stroke-width: 1.5"/>
   </g>
   <g id="patch_3">
    <path d="M 90 320.4 
L 90 43.2 
" style="fill: none; stroke: #000000; stroke-width: 0.8; stroke-linejoin: miter; stroke-linecap: square"/>
   </g>
   <g id="patch_4">
    <path d="M 648 320.4 
L 648 43.2 
" style="fill: none; stroke: #000000; stroke-width: 0.8; stroke-linejoin: miter; stroke-linecap: square"/>
   </g>
   <g id="patch_5">
    <path d="M 90 320.4 
L 648 320.4 
" style="fill: none; stroke: #000000; stroke-width: 0.8; stroke-linejoin: miter; stroke-linecap: square"/>
   </g>
   <g id="patch_6">
    <path d="M 90 43.2 
L 648 43.2 
" style="fill: none; stroke: #000000; stroke-width: 0.8; stroke-linejoin: miter; stroke-linecap: square"/>
   </g>
   <g id="text_17">
    <!-- Jacobi Constant for Koopman and Exact Solution -->
    <g transform="translate(146.254219 37.2) scale(0.18 -0.18)">
     <defs>
      <path id="DejaVuSerif-66" d="M 2753 4078 
L 2450 4078 
Q 2447 4313 2317 4434 
Q 2188 4556 1941 4556 
Q 1619 4556 1487 4379 
Q 1356 4203 1356 3750 
L 1356 3322 
L 2284 3322 
L 2284 2988 
L 1356 2988 
L 1356 331 
L 2094 331 
L 2094 0 
L 231 0 
L 231 331 
L 781 331 
L 781 2988 
L 231 2988 
L 231 3322 
L 781 3322 
L 781 3738 
Q 781 4294 1070 4578 
Q 1359 4863 1919 4863 
Q 2128 4863 2337 4825 
Q 2547 4788 2753 4709 
L 2753 4078 
z
" transform="scale(0.015625)"/>
      <path id="DejaVuSerif-4b" d="M 353 0 
L 353 331 
L 947 331 
L 947 4331 
L 353 4331 
L 353 4666 
L 2175 4666 
L 2175 4331 
L 1581 4331 
L 1581 2566 
L 3591 4331 
L 3084 4331 
L 3084 4666 
L 4634 4666 
L 4634 4331 
L 4109 4331 
L 2106 2572 
L 4347 331 
L 4878 331 
L 4878 0 
L 3794 0 
L 1581 2216 
L 1581 331 
L 2175 331 
L 2175 0 
L 353 0 
z
" transform="scale(0.015625)"/>
      <path id="DejaVuSerif-70" d="M 1313 1825 
L 1313 1497 
Q 1313 897 1542 583 
Q 1772 269 2209 269 
Q 2650 269 2876 622 
Q 3103 975 3103 1663 
Q 3103 2353 2876 2703 
Q 2650 3053 2209 3053 
Q 1772 3053 1542 2737 
Q 1313 2422 1313 1825 
z
M 738 2988 
L 184 2988 
L 184 3322 
L 1313 3322 
L 1313 2803 
Q 1481 3116 1742 3264 
Q 2003 3413 2388 3413 
Q 3000 3413 3387 2928 
Q 3775 2444 3775 1663 
Q 3775 881 3387 395 
Q 3000 -91 2388 -91 
Q 2003 -91 1742 57 
Q 1481 206 1313 519 
L 1313 -997 
L 1856 -997 
L 1856 -1331 
L 184 -1331 
L 184 -997 
L 738 -997 
L 738 2988 
z
" transform="scale(0.015625)"/>
      <path id="DejaVuSerif-6d" d="M 3316 2675 
Q 3481 3041 3739 3227 
Q 3997 3413 4341 3413 
Q 4863 3413 5119 3089 
Q 5375 2766 5375 2113 
L 5375 331 
L 5894 331 
L 5894 0 
L 4300 0 
L 4300 331 
L 4800 331 
L 4800 2047 
Q 4800 2556 4650 2772 
Q 4500 2988 4153 2988 
Q 3769 2988 3567 2697 
Q 3366 2406 3366 1850 
L 3366 331 
L 3866 331 
L 3866 0 
L 2291 0 
L 2291 331 
L 2791 331 
L 2791 2069 
Q 2791 2566 2641 2777 
Q 2491 2988 2144 2988 
Q 1759 2988 1557 2697 
Q 1356 2406 1356 1850 
L 1356 331 
L 1856 331 
L 1856 0 
L 263 0 
L 263 331 
L 781 331 
L 781 2994 
L 231 2994 
L 231 3322 
L 1356 3322 
L 1356 2731 
Q 1516 3063 1762 3238 
Q 2009 3413 2322 3413 
Q 2709 3413 2968 3220 
Q 3228 3028 3316 2675 
z
" transform="scale(0.015625)"/>
      <path id="DejaVuSerif-64" d="M 3359 331 
L 3909 331 
L 3909 0 
L 2784 0 
L 2784 519 
Q 2616 206 2355 57 
Q 2094 -91 1709 -91 
Q 1097 -91 708 395 
Q 319 881 319 1663 
Q 319 2444 706 2928 
Q 1094 3413 1709 3413 
Q 2094 3413 2355 3264 
Q 2616 3116 2784 2803 
L 2784 4531 
L 2241 4531 
L 2241 4863 
L 3359 4863 
L 3359 331 
z
M 2784 1497 
L 2784 1825 
Q 2784 2422 2554 2737 
Q 2325 3053 1888 3053 
Q 1444 3053 1217 2703 
Q 991 2353 991 1663 
Q 991 975 1217 622 
Q 1444 269 1888 269 
Q 2325 269 2554 583 
Q 2784 897 2784 1497 
z
" transform="scale(0.015625)"/>
      <path id="DejaVuSerif-45" d="M 353 0 
L 353 331 
L 947 331 
L 947 4331 
L 353 4331 
L 353 4666 
L 4109 4666 
L 4109 3628 
L 3725 3628 
L 3725 4281 
L 1581 4281 
L 1581 2719 
L 3109 2719 
L 3109 3303 
L 3494 3303 
L 3494 1753 
L 3109 1753 
L 3109 2338 
L 1581 2338 
L 1581 384 
L 3775 384 
L 3775 1038 
L 4159 1038 
L 4159 0 
L 353 0 
z
" transform="scale(0.015625)"/>
      <path id="DejaVuSerif-78" d="M 1863 2028 
L 2559 2988 
L 2113 2988 
L 2113 3322 
L 3391 3322 
L 3391 2988 
L 2950 2988 
L 2059 1759 
L 3097 331 
L 3531 331 
L 3531 0 
L 1997 0 
L 1997 331 
L 2419 331 
L 1697 1325 
L 972 331 
L 1403 331 
L 1403 0 
L 141 0 
L 141 331 
L 581 331 
L 1497 1594 
L 488 2988 
L 78 2988 
L 78 3322 
L 1563 3322 
L 1563 2988 
L 1166 2988 
L 1863 2028 
z
" transform="scale(0.015625)"/>
      <path id="DejaVuSerif-53" d="M 594 225 
L 594 1288 
L 953 1284 
Q 969 753 1261 498 
Q 1553 244 2150 244 
Q 2706 244 2998 464 
Q 3291 684 3291 1106 
Q 3291 1444 3114 1625 
Q 2938 1806 2369 1978 
L 1753 2163 
Q 1084 2366 811 2669 
Q 538 2972 538 3500 
Q 538 4094 959 4422 
Q 1381 4750 2144 4750 
Q 2469 4750 2856 4679 
Q 3244 4609 3681 4475 
L 3681 3481 
L 3328 3481 
Q 3275 3975 2998 4195 
Q 2722 4416 2156 4416 
Q 1663 4416 1405 4214 
Q 1147 4013 1147 3628 
Q 1147 3294 1340 3103 
Q 1534 2913 2163 2725 
L 2741 2553 
Q 3375 2363 3645 2067 
Q 3916 1772 3916 1275 
Q 3916 597 3481 253 
Q 3047 -91 2188 -91 
Q 1803 -91 1404 -12 
Q 1006 66 594 225 
z
" transform="scale(0.015625)"/>
      <path id="DejaVuSerif-6c" d="M 1313 331 
L 1856 331 
L 1856 0 
L 184 0 
L 184 331 
L 738 331 
L 738 4531 
L 184 4531 
L 184 4863 
L 1313 4863 
L 1313 331 
z
" transform="scale(0.015625)"/>
      <path id="DejaVuSerif-75" d="M 2266 3322 
L 3341 3322 
L 3341 331 
L 3884 331 
L 3884 0 
L 2766 0 
L 2766 588 
Q 2606 256 2353 82 
Q 2100 -91 1766 -91 
Q 1213 -91 952 223 
Q 691 538 691 1209 
L 691 2988 
L 172 2988 
L 172 3322 
L 1269 3322 
L 1269 1388 
Q 1269 781 1417 556 
Q 1566 331 1947 331 
Q 2347 331 2556 625 
Q 2766 919 2766 1478 
L 2766 2988 
L 2266 2988 
L 2266 3322 
z
" transform="scale(0.015625)"/>
     </defs>
     <use xlink:href="#DejaVuSerif-4a"/>
     <use xlink:href="#DejaVuSerif-61" transform="translate(40.087891 0)"/>
     <use xlink:href="#DejaVuSerif-63" transform="translate(99.707031 0)"/>
     <use xlink:href="#DejaVuSerif-6f" transform="translate(155.712891 0)"/>
     <use xlink:href="#DejaVuSerif-62" transform="translate(215.917969 0)"/>
     <use xlink:href="#DejaVuSerif-69" transform="translate(279.931641 0)"/>
     <use xlink:href="#DejaVuSerif-20" transform="translate(311.914062 0)"/>
     <use xlink:href="#DejaVuSerif-43" transform="translate(343.701172 0)"/>
     <use xlink:href="#DejaVuSerif-6f" transform="translate(420.214844 0)"/>
     <use xlink:href="#DejaVuSerif-6e" transform="translate(480.419922 0)"/>
     <use xlink:href="#DejaVuSerif-73" transform="translate(544.824219 0)"/>
     <use xlink:href="#DejaVuSerif-74" transform="translate(596.142578 0)"/>
     <use xlink:href="#DejaVuSerif-61" transform="translate(636.328125 0)"/>
     <use xlink:href="#DejaVuSerif-6e" transform="translate(695.947266 0)"/>
     <use xlink:href="#DejaVuSerif-74" transform="translate(760.351562 0)"/>
     <use xlink:href="#DejaVuSerif-20" transform="translate(800.537109 0)"/>
     <use xlink:href="#DejaVuSerif-66" transform="translate(832.324219 0)"/>
     <use xlink:href="#DejaVuSerif-6f" transform="translate(869.335938 0)"/>
     <use xlink:href="#DejaVuSerif-72" transform="translate(929.541016 0)"/>
     <use xlink:href="#DejaVuSerif-20" transform="translate(977.34375 0)"/>
     <use xlink:href="#DejaVuSerif-4b" transform="translate(1009.130859 0)"/>
     <use xlink:href="#DejaVuSerif-6f" transform="translate(1081.212891 0)"/>
     <use xlink:href="#DejaVuSerif-6f" transform="translate(1141.417969 0)"/>
     <use xlink:href="#DejaVuSerif-70" transform="translate(1201.623047 0)"/>
     <use xlink:href="#DejaVuSerif-6d" transform="translate(1265.636719 0)"/>
     <use xlink:href="#DejaVuSerif-61" transform="translate(1360.460938 0)"/>
     <use xlink:href="#DejaVuSerif-6e" transform="translate(1420.080078 0)"/>
     <use xlink:href="#DejaVuSerif-20" transform="translate(1484.484375 0)"/>
     <use xlink:href="#DejaVuSerif-61" transform="translate(1516.271484 0)"/>
     <use xlink:href="#DejaVuSerif-6e" transform="translate(1575.890625 0)"/>
     <use xlink:href="#DejaVuSerif-64" transform="translate(1640.294922 0)"/>
     <use xlink:href="#DejaVuSerif-20" transform="translate(1704.308594 0)"/>
     <use xlink:href="#DejaVuSerif-45" transform="translate(1736.095703 0)"/>
     <use xlink:href="#DejaVuSerif-78" transform="translate(1809.09375 0)"/>
     <use xlink:href="#DejaVuSerif-61" transform="translate(1865.490234 0)"/>
     <use xlink:href="#DejaVuSerif-63" transform="translate(1925.109375 0)"/>
     <use xlink:href="#DejaVuSerif-74" transform="translate(1981.115234 0)"/>
     <use xlink:href="#DejaVuSerif-20" transform="translate(2021.300781 0)"/>
     <use xlink:href="#DejaVuSerif-53" transform="translate(2053.087891 0)"/>
     <use xlink:href="#DejaVuSerif-6f" transform="translate(2121.59375 0)"/>
     <use xlink:href="#DejaVuSerif-6c" transform="translate(2181.798828 0)"/>
     <use xlink:href="#DejaVuSerif-75" transform="translate(2213.78125 0)"/>
     <use xlink:href="#DejaVuSerif-74" transform="translate(2278.185547 0)"/>
     <use xlink:href="#DejaVuSerif-69" transform="translate(2318.371094 0)"/>
     <use xlink:href="#DejaVuSerif-6f" transform="translate(2350.353516 0)"/>
     <use xlink:href="#DejaVuSerif-6e" transform="translate(2410.558594 0)"/>
    </g>
   </g>
   <g id="legend_1">
    <g id="patch_7">
     <path d="M 463.337812 95.49875 
L 638.2 95.49875 
Q 641 95.49875 641 92.69875 
L 641 53 
Q 641 50.2 638.2 50.2 
L 463.337812 50.2 
Q 460.537812 50.2 460.537812 53 
L 460.537812 92.69875 
Q 460.537812 95.49875 463.337812 95.49875 
z
" style="fill: #ffffff; opacity: 0.8; stroke: #cccccc; stroke-linejoin: miter"/>
    </g>
    <g id="line2d_17">
     <path d="M 466.137812 61.537812 
L 480.137812 61.537812 
L 494.137812 61.537812 
" style="fill: none; stroke: #000000; stroke-width: 1.5; stroke-linecap: square"/>
    </g>
    <g id="text_18">
     <!-- Exact Solution -->
     <g transform="translate(505.337812 66.437812) scale(0.14 -0.14)">
      <use xlink:href="#DejaVuSerif-45"/>
      <use xlink:href="#DejaVuSerif-78" transform="translate(72.998047 0)"/>
      <use xlink:href="#DejaVuSerif-61" transform="translate(129.394531 0)"/>
      <use xlink:href="#DejaVuSerif-63" transform="translate(189.013672 0)"/>
      <use xlink:href="#DejaVuSerif-74" transform="translate(245.019531 0)"/>
      <use xlink:href="#DejaVuSerif-20" transform="translate(285.205078 0)"/>
      <use xlink:href="#DejaVuSerif-53" transform="translate(316.992188 0)"/>
      <use xlink:href="#DejaVuSerif-6f" transform="translate(385.498047 0)"/>
      <use xlink:href="#DejaVuSerif-6c" transform="translate(445.703125 0)"/>
      <use xlink:href="#DejaVuSerif-75" transform="translate(477.685547 0)"/>
      <use xlink:href="#DejaVuSerif-74" transform="translate(542.089844 0)"/>
      <use xlink:href="#DejaVuSerif-69" transform="translate(582.275391 0)"/>
      <use xlink:href="#DejaVuSerif-6f" transform="translate(614.257812 0)"/>
      <use xlink:href="#DejaVuSerif-6e" transform="translate(674.462891 0)"/>
     </g>
    </g>
    <g id="line2d_18">
     <path d="M 466.137812 82.087187 
L 480.137812 82.087187 
L 494.137812 82.087187 
" style="fill: none; stroke-dasharray: 5.55,2.4; stroke-dashoffset: 0; stroke: #ff0000; stroke-width: 1.5"/>
    </g>
    <g id="text_19">
     <!-- Koopman Solution -->
     <g transform="translate(505.337812 86.987187) scale(0.14 -0.14)">
      <use xlink:href="#DejaVuSerif-4b"/>
      <use xlink:href="#DejaVuSerif-6f" transform="translate(72.082031 0)"/>
      <use xlink:href="#DejaVuSerif-6f" transform="translate(132.287109 0)"/>
      <use xlink:href="#DejaVuSerif-70" transform="translate(192.492188 0)"/>
      <use xlink:href="#DejaVuSerif-6d" transform="translate(256.505859 0)"/>
      <use xlink:href="#DejaVuSerif-61" transform="translate(351.330078 0)"/>
      <use xlink:href="#DejaVuSerif-6e" transform="translate(410.949219 0)"/>
      <use xlink:href="#DejaVuSerif-20" transform="translate(475.353516 0)"/>
      <use xlink:href="#DejaVuSerif-53" transform="translate(507.140625 0)"/>
      <use xlink:href="#DejaVuSerif-6f" transform="translate(575.646484 0)"/>
      <use xlink:href="#DejaVuSerif-6c" transform="translate(635.851562 0)"/>
      <use xlink:href="#DejaVuSerif-75" transform="translate(667.833984 0)"/>
      <use xlink:href="#DejaVuSerif-74" transform="translate(732.238281 0)"/>
      <use xlink:href="#DejaVuSerif-69" transform="translate(772.423828 0)"/>
      <use xlink:href="#DejaVuSerif-6f" transform="translate(804.40625 0)"/>
      <use xlink:href="#DejaVuSerif-6e" transform="translate(864.611328 0)"/>
     </g>
    </g>
   </g>
  </g>
 </g>
 <defs>
  <clipPath id="pc5266c96be">
   <rect x="90" y="43.2" width="558" height="277.2"/>
  </clipPath>
 </defs>
</svg>
