<?xml version="1.0" encoding="utf-8" standalone="no"?>
<!DOCTYPE svg PUBLIC "-//W3C//DTD SVG 1.1//EN"
  "http://www.w3.org/Graphics/SVG/1.1/DTD/svg11.dtd">
<svg xmlns:xlink="http://www.w3.org/1999/xlink" width="720pt" height="576pt" viewBox="0 0 720 576" xmlns="http://www.w3.org/2000/svg" version="1.1">
 <metadata>
  <rdf:RDF xmlns:dc="http://purl.org/dc/elements/1.1/" xmlns:cc="http://creativecommons.org/ns#" xmlns:rdf="http://www.w3.org/1999/02/22-rdf-syntax-ns#">
   <cc:Work>
    <dc:type rdf:resource="http://purl.org/dc/dcmitype/StillImage"/>
    <dc:date>2025-02-19T11:25:16.791128</dc:date>
    <dc:format>image/svg+xml</dc:format>
    <dc:creator>
     <cc:Agent>
      <dc:title>Matplotlib v3.10.0, https://matplotlib.org/</dc:title>
     </cc:Agent>
    </dc:creator>
   </cc:Work>
  </rdf:RDF>
 </metadata>
 <defs>
  <style type="text/css">*{stroke-linejoin: round; stroke-linecap: butt}</style>
 </defs>
 <g id="figure_1">
  <g id="patch_1">
   <path d="M 0 576 
L 720 576 
L 720 0 
L 0 0 
z
" style="fill: #ffffff"/>
  </g>
  <g id="axes_1">
   <g id="patch_2">
    <path d="M 52.75 255.92 
L 682.125 255.92 
L 682.125 33.96 
L 52.75 33.96 
z
" style="fill: #ffffff"/>
   </g>
   <g id="matplotlib.axis_1">
    <g id="xtick_1">
     <g id="line2d_1">
      <defs>
       <path id="m7662ea9d71" d="M 0 0 
L 0 3.5 
" style="stroke: #000000; stroke-width: 0.8"/>
      </defs>
      <g>
       <use xlink:href="#m7662ea9d71" x="81.357955" y="255.92" style="stroke: #000000; stroke-width: 0.8"/>
      </g>
     </g>
     <g id="text_1">
      <!-- 0 -->
      <g transform="translate(78.176705 270.518437) scale(0.1 -0.1)">
       <defs>
        <path id="DejaVuSerif-30" d="M 2034 219 
Q 2513 219 2750 744 
Q 2988 1269 2988 2328 
Q 2988 3391 2750 3916 
Q 2513 4441 2034 4441 
Q 1556 4441 1318 3916 
Q 1081 3391 1081 2328 
Q 1081 1269 1318 744 
Q 1556 219 2034 219 
z
M 2034 -91 
Q 1275 -91 848 546 
Q 422 1184 422 2328 
Q 422 3475 848 4112 
Q 1275 4750 2034 4750 
Q 2797 4750 3222 4112 
Q 3647 3475 3647 2328 
Q 3647 1184 3222 546 
Q 2797 -91 2034 -91 
z
" transform="scale(0.015625)"/>
       </defs>
       <use xlink:href="#DejaVuSerif-30"/>
      </g>
     </g>
    </g>
    <g id="xtick_2">
     <g id="line2d_2">
      <g>
       <use xlink:href="#m7662ea9d71" x="138.645473" y="255.92" style="stroke: #000000; stroke-width: 0.8"/>
      </g>
     </g>
     <g id="text_2">
      <!-- 0.1 -->
      <g transform="translate(130.693911 270.518437) scale(0.1 -0.1)">
       <defs>
        <path id="DejaVuSerif-2e" d="M 603 325 
Q 603 500 722 622 
Q 841 744 1019 744 
Q 1191 744 1312 622 
Q 1434 500 1434 325 
Q 1434 153 1312 31 
Q 1191 -91 1019 -91 
Q 841 -91 722 29 
Q 603 150 603 325 
z
" transform="scale(0.015625)"/>
        <path id="DejaVuSerif-31" d="M 909 0 
L 909 331 
L 1722 331 
L 1722 4213 
L 781 3603 
L 781 4013 
L 1919 4750 
L 2350 4750 
L 2350 331 
L 3163 331 
L 3163 0 
L 909 0 
z
" transform="scale(0.015625)"/>
       </defs>
       <use xlink:href="#DejaVuSerif-30"/>
       <use xlink:href="#DejaVuSerif-2e" transform="translate(63.623047 0)"/>
       <use xlink:href="#DejaVuSerif-31" transform="translate(95.410156 0)"/>
      </g>
     </g>
    </g>
    <g id="xtick_3">
     <g id="line2d_3">
      <g>
       <use xlink:href="#m7662ea9d71" x="195.932992" y="255.92" style="stroke: #000000; stroke-width: 0.8"/>
      </g>
     </g>
     <g id="text_3">
      <!-- 0.2 -->
      <g transform="translate(187.981429 270.518437) scale(0.1 -0.1)">
       <defs>
        <path id="DejaVuSerif-32" d="M 819 3553 
L 469 3553 
L 469 4384 
Q 803 4563 1142 4656 
Q 1481 4750 1806 4750 
Q 2534 4750 2956 4397 
Q 3378 4044 3378 3438 
Q 3378 2753 2422 1800 
Q 2347 1728 2309 1691 
L 1131 513 
L 3078 513 
L 3078 1088 
L 3444 1088 
L 3444 0 
L 434 0 
L 434 341 
L 1850 1753 
Q 2319 2222 2519 2614 
Q 2719 3006 2719 3438 
Q 2719 3909 2473 4175 
Q 2228 4441 1797 4441 
Q 1350 4441 1106 4219 
Q 863 3997 819 3553 
z
" transform="scale(0.015625)"/>
       </defs>
       <use xlink:href="#DejaVuSerif-30"/>
       <use xlink:href="#DejaVuSerif-2e" transform="translate(63.623047 0)"/>
       <use xlink:href="#DejaVuSerif-32" transform="translate(95.410156 0)"/>
      </g>
     </g>
    </g>
    <g id="xtick_4">
     <g id="line2d_4">
      <g>
       <use xlink:href="#m7662ea9d71" x="253.22051" y="255.92" style="stroke: #000000; stroke-width: 0.8"/>
      </g>
     </g>
     <g id="text_4">
      <!-- 0.3 -->
      <g transform="translate(245.268948 270.518437) scale(0.1 -0.1)">
       <defs>
        <path id="DejaVuSerif-33" d="M 622 4469 
Q 988 4606 1323 4678 
Q 1659 4750 1953 4750 
Q 2638 4750 3022 4454 
Q 3406 4159 3406 3634 
Q 3406 3213 3140 2930 
Q 2875 2647 2388 2547 
Q 2963 2466 3280 2130 
Q 3597 1794 3597 1259 
Q 3597 606 3158 257 
Q 2719 -91 1894 -91 
Q 1528 -91 1179 -12 
Q 831 66 488 225 
L 488 1131 
L 838 1131 
Q 869 681 1141 450 
Q 1413 219 1906 219 
Q 2384 219 2661 495 
Q 2938 772 2938 1253 
Q 2938 1803 2653 2086 
Q 2369 2369 1819 2369 
L 1522 2369 
L 1522 2688 
L 1678 2688 
Q 2225 2688 2498 2914 
Q 2772 3141 2772 3597 
Q 2772 4006 2547 4223 
Q 2322 4441 1900 4441 
Q 1478 4441 1245 4241 
Q 1013 4041 972 3647 
L 622 3647 
L 622 4469 
z
" transform="scale(0.015625)"/>
       </defs>
       <use xlink:href="#DejaVuSerif-30"/>
       <use xlink:href="#DejaVuSerif-2e" transform="translate(63.623047 0)"/>
       <use xlink:href="#DejaVuSerif-33" transform="translate(95.410156 0)"/>
      </g>
     </g>
    </g>
    <g id="xtick_5">
     <g id="line2d_5">
      <g>
       <use xlink:href="#m7662ea9d71" x="310.508029" y="255.92" style="stroke: #000000; stroke-width: 0.8"/>
      </g>
     </g>
     <g id="text_5">
      <!-- 0.4 -->
      <g transform="translate(302.556466 270.518437) scale(0.1 -0.1)">
       <defs>
        <path id="DejaVuSerif-34" d="M 2234 1581 
L 2234 4063 
L 641 1581 
L 2234 1581 
z
M 3609 0 
L 1484 0 
L 1484 331 
L 2234 331 
L 2234 1247 
L 197 1247 
L 197 1588 
L 2241 4750 
L 2859 4750 
L 2859 1581 
L 3750 1581 
L 3750 1247 
L 2859 1247 
L 2859 331 
L 3609 331 
L 3609 0 
z
" transform="scale(0.015625)"/>
       </defs>
       <use xlink:href="#DejaVuSerif-30"/>
       <use xlink:href="#DejaVuSerif-2e" transform="translate(63.623047 0)"/>
       <use xlink:href="#DejaVuSerif-34" transform="translate(95.410156 0)"/>
      </g>
     </g>
    </g>
    <g id="xtick_6">
     <g id="line2d_6">
      <g>
       <use xlink:href="#m7662ea9d71" x="367.795547" y="255.92" style="stroke: #000000; stroke-width: 0.8"/>
      </g>
     </g>
     <g id="text_6">
      <!-- 0.5 -->
      <g transform="translate(359.843984 270.518437) scale(0.1 -0.1)">
       <defs>
        <path id="DejaVuSerif-35" d="M 3219 4666 
L 3219 4153 
L 1081 4153 
L 1081 2816 
Q 1244 2928 1461 2984 
Q 1678 3041 1947 3041 
Q 2703 3041 3140 2622 
Q 3578 2203 3578 1478 
Q 3578 738 3136 323 
Q 2694 -91 1894 -91 
Q 1572 -91 1234 -12 
Q 897 66 544 225 
L 544 1131 
L 897 1131 
Q 925 688 1179 453 
Q 1434 219 1894 219 
Q 2388 219 2653 544 
Q 2919 869 2919 1478 
Q 2919 2084 2655 2407 
Q 2391 2731 1894 2731 
Q 1613 2731 1398 2631 
Q 1184 2531 1019 2322 
L 750 2322 
L 750 4666 
L 3219 4666 
z
" transform="scale(0.015625)"/>
       </defs>
       <use xlink:href="#DejaVuSerif-30"/>
       <use xlink:href="#DejaVuSerif-2e" transform="translate(63.623047 0)"/>
       <use xlink:href="#DejaVuSerif-35" transform="translate(95.410156 0)"/>
      </g>
     </g>
    </g>
    <g id="xtick_7">
     <g id="line2d_7">
      <g>
       <use xlink:href="#m7662ea9d71" x="425.083065" y="255.92" style="stroke: #000000; stroke-width: 0.8"/>
      </g>
     </g>
     <g id="text_7">
      <!-- 0.6 -->
      <g transform="translate(417.131503 270.518437) scale(0.1 -0.1)">
       <defs>
        <path id="DejaVuSerif-36" d="M 2094 219 
Q 2534 219 2771 542 
Q 3009 866 3009 1472 
Q 3009 2078 2771 2401 
Q 2534 2725 2094 2725 
Q 1647 2725 1412 2412 
Q 1178 2100 1178 1509 
Q 1178 888 1415 553 
Q 1653 219 2094 219 
z
M 1075 2569 
Q 1288 2803 1556 2918 
Q 1825 3034 2163 3034 
Q 2859 3034 3264 2615 
Q 3669 2197 3669 1472 
Q 3669 763 3233 336 
Q 2797 -91 2069 -91 
Q 1278 -91 853 498 
Q 428 1088 428 2181 
Q 428 3406 931 4078 
Q 1434 4750 2350 4750 
Q 2597 4750 2869 4703 
Q 3141 4656 3425 4563 
L 3425 3794 
L 3072 3794 
Q 3034 4109 2831 4275 
Q 2628 4441 2284 4441 
Q 1678 4441 1381 3981 
Q 1084 3522 1075 2569 
z
" transform="scale(0.015625)"/>
       </defs>
       <use xlink:href="#DejaVuSerif-30"/>
       <use xlink:href="#DejaVuSerif-2e" transform="translate(63.623047 0)"/>
       <use xlink:href="#DejaVuSerif-36" transform="translate(95.410156 0)"/>
      </g>
     </g>
    </g>
    <g id="xtick_8">
     <g id="line2d_8">
      <g>
       <use xlink:href="#m7662ea9d71" x="482.370584" y="255.92" style="stroke: #000000; stroke-width: 0.8"/>
      </g>
     </g>
     <g id="text_8">
      <!-- 0.7 -->
      <g transform="translate(474.419021 270.518437) scale(0.1 -0.1)">
       <defs>
        <path id="DejaVuSerif-37" d="M 3609 4347 
L 1784 0 
L 1319 0 
L 3059 4153 
L 903 4153 
L 903 3578 
L 538 3578 
L 538 4666 
L 3609 4666 
L 3609 4347 
z
" transform="scale(0.015625)"/>
       </defs>
       <use xlink:href="#DejaVuSerif-30"/>
       <use xlink:href="#DejaVuSerif-2e" transform="translate(63.623047 0)"/>
       <use xlink:href="#DejaVuSerif-37" transform="translate(95.410156 0)"/>
      </g>
     </g>
    </g>
    <g id="xtick_9">
     <g id="line2d_9">
      <g>
       <use xlink:href="#m7662ea9d71" x="539.658102" y="255.92" style="stroke: #000000; stroke-width: 0.8"/>
      </g>
     </g>
     <g id="text_9">
      <!-- 0.8 -->
      <g transform="translate(531.70654 270.518437) scale(0.1 -0.1)">
       <defs>
        <path id="DejaVuSerif-38" d="M 2981 1275 
Q 2981 1775 2732 2051 
Q 2484 2328 2034 2328 
Q 1584 2328 1336 2051 
Q 1088 1775 1088 1275 
Q 1088 772 1336 495 
Q 1584 219 2034 219 
Q 2484 219 2732 495 
Q 2981 772 2981 1275 
z
M 2853 3541 
Q 2853 3966 2637 4203 
Q 2422 4441 2034 4441 
Q 1650 4441 1433 4203 
Q 1216 3966 1216 3541 
Q 1216 3113 1433 2875 
Q 1650 2638 2034 2638 
Q 2422 2638 2637 2875 
Q 2853 3113 2853 3541 
z
M 2516 2484 
Q 3047 2413 3344 2092 
Q 3641 1772 3641 1275 
Q 3641 619 3225 264 
Q 2809 -91 2034 -91 
Q 1263 -91 845 264 
Q 428 619 428 1275 
Q 428 1772 725 2092 
Q 1022 2413 1556 2484 
Q 1084 2569 832 2842 
Q 581 3116 581 3541 
Q 581 4103 968 4426 
Q 1356 4750 2034 4750 
Q 2713 4750 3100 4426 
Q 3488 4103 3488 3541 
Q 3488 3116 3236 2842 
Q 2984 2569 2516 2484 
z
" transform="scale(0.015625)"/>
       </defs>
       <use xlink:href="#DejaVuSerif-30"/>
       <use xlink:href="#DejaVuSerif-2e" transform="translate(63.623047 0)"/>
       <use xlink:href="#DejaVuSerif-38" transform="translate(95.410156 0)"/>
      </g>
     </g>
    </g>
    <g id="xtick_10">
     <g id="line2d_10">
      <g>
       <use xlink:href="#m7662ea9d71" x="596.945621" y="255.92" style="stroke: #000000; stroke-width: 0.8"/>
      </g>
     </g>
     <g id="text_10">
      <!-- 0.9 -->
      <g transform="translate(588.994058 270.518437) scale(0.1 -0.1)">
       <defs>
        <path id="DejaVuSerif-39" d="M 2994 2091 
Q 2784 1856 2512 1740 
Q 2241 1625 1900 1625 
Q 1206 1625 804 2044 
Q 403 2463 403 3188 
Q 403 3897 839 4323 
Q 1275 4750 2003 4750 
Q 2794 4750 3217 4161 
Q 3641 3572 3641 2478 
Q 3641 1253 3137 581 
Q 2634 -91 1722 -91 
Q 1475 -91 1203 -44 
Q 931 3 647 97 
L 647 872 
L 997 872 
Q 1038 556 1241 387 
Q 1444 219 1784 219 
Q 2391 219 2687 676 
Q 2984 1134 2994 2091 
z
M 1978 4441 
Q 1534 4441 1298 4117 
Q 1063 3794 1063 3188 
Q 1063 2581 1298 2256 
Q 1534 1931 1978 1931 
Q 2422 1931 2658 2245 
Q 2894 2559 2894 3150 
Q 2894 3772 2656 4106 
Q 2419 4441 1978 4441 
z
" transform="scale(0.015625)"/>
       </defs>
       <use xlink:href="#DejaVuSerif-30"/>
       <use xlink:href="#DejaVuSerif-2e" transform="translate(63.623047 0)"/>
       <use xlink:href="#DejaVuSerif-39" transform="translate(95.410156 0)"/>
      </g>
     </g>
    </g>
    <g id="xtick_11">
     <g id="line2d_11">
      <g>
       <use xlink:href="#m7662ea9d71" x="654.233139" y="255.92" style="stroke: #000000; stroke-width: 0.8"/>
      </g>
     </g>
     <g id="text_11">
      <!-- 1.0 -->
      <g transform="translate(646.281577 270.518437) scale(0.1 -0.1)">
       <use xlink:href="#DejaVuSerif-31"/>
       <use xlink:href="#DejaVuSerif-2e" transform="translate(63.623047 0)"/>
       <use xlink:href="#DejaVuSerif-30" transform="translate(95.410156 0)"/>
      </g>
     </g>
    </g>
   </g>
   <g id="matplotlib.axis_2">
    <g id="ytick_1">
     <g id="line2d_12">
      <defs>
       <path id="md8e70a1d1c" d="M 0 0 
L -3.5 0 
" style="stroke: #000000; stroke-width: 0.8"/>
      </defs>
      <g>
       <use xlink:href="#md8e70a1d1c" x="52.75" y="223.110055" style="stroke: #000000; stroke-width: 0.8"/>
      </g>
     </g>
     <g id="text_12">
      <!-- −1.5 -->
      <g transform="translate(21.467187 226.909273) scale(0.1 -0.1)">
       <defs>
        <path id="DejaVuSerif-2212" d="M 678 2259 
L 4684 2259 
L 4684 1753 
L 678 1753 
L 678 2259 
z
" transform="scale(0.015625)"/>
       </defs>
       <use xlink:href="#DejaVuSerif-2212"/>
       <use xlink:href="#DejaVuSerif-31" transform="translate(83.789062 0)"/>
       <use xlink:href="#DejaVuSerif-2e" transform="translate(147.412109 0)"/>
       <use xlink:href="#DejaVuSerif-35" transform="translate(179.199219 0)"/>
      </g>
     </g>
    </g>
    <g id="ytick_2">
     <g id="line2d_13">
      <g>
       <use xlink:href="#md8e70a1d1c" x="52.75" y="184.526049" style="stroke: #000000; stroke-width: 0.8"/>
      </g>
     </g>
     <g id="text_13">
      <!-- −1.0 -->
      <g transform="translate(21.467187 188.325268) scale(0.1 -0.1)">
       <use xlink:href="#DejaVuSerif-2212"/>
       <use xlink:href="#DejaVuSerif-31" transform="translate(83.789062 0)"/>
       <use xlink:href="#DejaVuSerif-2e" transform="translate(147.412109 0)"/>
       <use xlink:href="#DejaVuSerif-30" transform="translate(179.199219 0)"/>
      </g>
     </g>
    </g>
    <g id="ytick_3">
     <g id="line2d_14">
      <g>
       <use xlink:href="#md8e70a1d1c" x="52.75" y="145.942044" style="stroke: #000000; stroke-width: 0.8"/>
      </g>
     </g>
     <g id="text_14">
      <!-- −0.5 -->
      <g transform="translate(21.467187 149.741263) scale(0.1 -0.1)">
       <use xlink:href="#DejaVuSerif-2212"/>
       <use xlink:href="#DejaVuSerif-30" transform="translate(83.789062 0)"/>
       <use xlink:href="#DejaVuSerif-2e" transform="translate(147.412109 0)"/>
       <use xlink:href="#DejaVuSerif-35" transform="translate(179.199219 0)"/>
      </g>
     </g>
    </g>
    <g id="ytick_4">
     <g id="line2d_15">
      <g>
       <use xlink:href="#md8e70a1d1c" x="52.75" y="107.358039" style="stroke: #000000; stroke-width: 0.8"/>
      </g>
     </g>
     <g id="text_15">
      <!-- 0.0 -->
      <g transform="translate(29.846875 111.157258) scale(0.1 -0.1)">
       <use xlink:href="#DejaVuSerif-30"/>
       <use xlink:href="#DejaVuSerif-2e" transform="translate(63.623047 0)"/>
       <use xlink:href="#DejaVuSerif-30" transform="translate(95.410156 0)"/>
      </g>
     </g>
    </g>
    <g id="ytick_5">
     <g id="line2d_16">
      <g>
       <use xlink:href="#md8e70a1d1c" x="52.75" y="68.774034" style="stroke: #000000; stroke-width: 0.8"/>
      </g>
     </g>
     <g id="text_16">
      <!-- 0.5 -->
      <g transform="translate(29.846875 72.573253) scale(0.1 -0.1)">
       <use xlink:href="#DejaVuSerif-30"/>
       <use xlink:href="#DejaVuSerif-2e" transform="translate(63.623047 0)"/>
       <use xlink:href="#DejaVuSerif-35" transform="translate(95.410156 0)"/>
      </g>
     </g>
    </g>
    <g id="text_17">
     <!-- Error in X [km] -->
     <g transform="translate(14.139687 206.7775) rotate(-90) scale(0.16 -0.16)">
      <defs>
       <path id="DejaVuSerif-45" d="M 353 0 
L 353 331 
L 947 331 
L 947 4331 
L 353 4331 
L 353 4666 
L 4109 4666 
L 4109 3628 
L 3725 3628 
L 3725 4281 
L 1581 4281 
L 1581 2719 
L 3109 2719 
L 3109 3303 
L 3494 3303 
L 3494 1753 
L 3109 1753 
L 3109 2338 
L 1581 2338 
L 1581 384 
L 3775 384 
L 3775 1038 
L 4159 1038 
L 4159 0 
L 353 0 
z
" transform="scale(0.015625)"/>
       <path id="DejaVuSerif-72" d="M 3059 3328 
L 3059 2497 
L 2728 2497 
Q 2713 2744 2591 2866 
Q 2469 2988 2234 2988 
Q 1809 2988 1582 2694 
Q 1356 2400 1356 1850 
L 1356 331 
L 2022 331 
L 2022 0 
L 263 0 
L 263 331 
L 781 331 
L 781 2994 
L 231 2994 
L 231 3322 
L 1356 3322 
L 1356 2731 
Q 1525 3078 1790 3245 
Q 2056 3413 2438 3413 
Q 2578 3413 2733 3391 
Q 2888 3369 3059 3328 
z
" transform="scale(0.015625)"/>
       <path id="DejaVuSerif-6f" d="M 1925 219 
Q 2388 219 2623 584 
Q 2859 950 2859 1663 
Q 2859 2375 2623 2739 
Q 2388 3103 1925 3103 
Q 1463 3103 1227 2739 
Q 991 2375 991 1663 
Q 991 950 1228 584 
Q 1466 219 1925 219 
z
M 1925 -91 
Q 1200 -91 759 389 
Q 319 869 319 1663 
Q 319 2456 758 2934 
Q 1197 3413 1925 3413 
Q 2653 3413 3092 2934 
Q 3531 2456 3531 1663 
Q 3531 869 3092 389 
Q 2653 -91 1925 -91 
z
" transform="scale(0.015625)"/>
       <path id="DejaVuSerif-20" transform="scale(0.015625)"/>
       <path id="DejaVuSerif-69" d="M 622 4353 
Q 622 4497 726 4603 
Q 831 4709 978 4709 
Q 1122 4709 1226 4603 
Q 1331 4497 1331 4353 
Q 1331 4206 1228 4103 
Q 1125 4000 978 4000 
Q 831 4000 726 4103 
Q 622 4206 622 4353 
z
M 1356 331 
L 1900 331 
L 1900 0 
L 231 0 
L 231 331 
L 781 331 
L 781 2988 
L 231 2988 
L 231 3322 
L 1356 3322 
L 1356 331 
z
" transform="scale(0.015625)"/>
       <path id="DejaVuSerif-6e" d="M 263 0 
L 263 331 
L 781 331 
L 781 2988 
L 231 2988 
L 231 3322 
L 1356 3322 
L 1356 2731 
Q 1516 3069 1770 3241 
Q 2025 3413 2363 3413 
Q 2913 3413 3172 3097 
Q 3431 2781 3431 2113 
L 3431 331 
L 3944 331 
L 3944 0 
L 2356 0 
L 2356 331 
L 2853 331 
L 2853 1931 
Q 2853 2541 2703 2767 
Q 2553 2994 2175 2994 
Q 1775 2994 1565 2701 
Q 1356 2409 1356 1850 
L 1356 331 
L 1856 331 
L 1856 0 
L 263 0 
z
" transform="scale(0.015625)"/>
       <path id="DejaVuSerif-58" d="M 2119 1997 
L 978 331 
L 1581 331 
L 1581 0 
L 38 0 
L 38 331 
L 575 331 
L 1919 2291 
L 556 4331 
L 56 4331 
L 56 4666 
L 1906 4666 
L 1906 4331 
L 1356 4331 
L 2356 2828 
L 3384 4331 
L 2784 4331 
L 2784 4666 
L 4313 4666 
L 4313 4331 
L 3788 4331 
L 2553 2534 
L 4025 331 
L 4525 331 
L 4525 0 
L 2675 0 
L 2675 331 
L 3231 331 
L 2119 1997 
z
" transform="scale(0.015625)"/>
       <path id="DejaVuSerif-5b" d="M 550 4863 
L 2003 4863 
L 2003 4531 
L 1147 4531 
L 1147 -513 
L 2003 -513 
L 2003 -844 
L 550 -844 
L 550 4863 
z
" transform="scale(0.015625)"/>
       <path id="DejaVuSerif-6b" d="M 1831 0 
L 219 0 
L 219 331 
L 738 331 
L 738 4531 
L 184 4531 
L 184 4863 
L 1313 4863 
L 1313 1697 
L 2713 2988 
L 2234 2988 
L 2234 3322 
L 3738 3322 
L 3738 2988 
L 3169 2988 
L 2181 2075 
L 3444 331 
L 3922 331 
L 3922 0 
L 2284 0 
L 2284 331 
L 2759 331 
L 1766 1697 
L 1313 1275 
L 1313 331 
L 1831 331 
L 1831 0 
z
" transform="scale(0.015625)"/>
       <path id="DejaVuSerif-6d" d="M 3316 2675 
Q 3481 3041 3739 3227 
Q 3997 3413 4341 3413 
Q 4863 3413 5119 3089 
Q 5375 2766 5375 2113 
L 5375 331 
L 5894 331 
L 5894 0 
L 4300 0 
L 4300 331 
L 4800 331 
L 4800 2047 
Q 4800 2556 4650 2772 
Q 4500 2988 4153 2988 
Q 3769 2988 3567 2697 
Q 3366 2406 3366 1850 
L 3366 331 
L 3866 331 
L 3866 0 
L 2291 0 
L 2291 331 
L 2791 331 
L 2791 2069 
Q 2791 2566 2641 2777 
Q 2491 2988 2144 2988 
Q 1759 2988 1557 2697 
Q 1356 2406 1356 1850 
L 1356 331 
L 1856 331 
L 1856 0 
L 263 0 
L 263 331 
L 781 331 
L 781 2994 
L 231 2994 
L 231 3322 
L 1356 3322 
L 1356 2731 
Q 1516 3063 1762 3238 
Q 2009 3413 2322 3413 
Q 2709 3413 2968 3220 
Q 3228 3028 3316 2675 
z
" transform="scale(0.015625)"/>
       <path id="DejaVuSerif-5d" d="M 1947 4863 
L 1947 -844 
L 494 -844 
L 494 -513 
L 1350 -513 
L 1350 4531 
L 494 4531 
L 494 4863 
L 1947 4863 
z
" transform="scale(0.015625)"/>
      </defs>
      <use xlink:href="#DejaVuSerif-45"/>
      <use xlink:href="#DejaVuSerif-72" transform="translate(72.998047 0)"/>
      <use xlink:href="#DejaVuSerif-72" transform="translate(120.800781 0)"/>
      <use xlink:href="#DejaVuSerif-6f" transform="translate(168.603516 0)"/>
      <use xlink:href="#DejaVuSerif-72" transform="translate(228.808594 0)"/>
      <use xlink:href="#DejaVuSerif-20" transform="translate(276.611328 0)"/>
      <use xlink:href="#DejaVuSerif-69" transform="translate(308.398438 0)"/>
      <use xlink:href="#DejaVuSerif-6e" transform="translate(340.380859 0)"/>
      <use xlink:href="#DejaVuSerif-20" transform="translate(404.785156 0)"/>
      <use xlink:href="#DejaVuSerif-58" transform="translate(436.572266 0)"/>
      <use xlink:href="#DejaVuSerif-20" transform="translate(507.763672 0)"/>
      <use xlink:href="#DejaVuSerif-5b" transform="translate(539.550781 0)"/>
      <use xlink:href="#DejaVuSerif-6b" transform="translate(578.564453 0)"/>
      <use xlink:href="#DejaVuSerif-6d" transform="translate(639.160156 0)"/>
      <use xlink:href="#DejaVuSerif-5d" transform="translate(733.984375 0)"/>
     </g>
    </g>
   </g>
   <g id="line2d_17">
    <path d="M 81.357955 107.358039 
L 84.938424 107.433399 
L 87.086706 107.621797 
L 89.951082 107.847875 
L 93.531552 108.111633 
L 95.679834 108.413071 
L 98.54421 108.789868 
L 110.001714 109.468102 
L 126.471875 111.276727 
L 129.336251 111.804243 
L 135.781097 113.047673 
L 137.213285 113.34911 
L 141.509849 114.366462 
L 144.374225 114.856298 
L 160.844386 117.531556 
L 179.46283 121.337205 
L 201.661743 125.340672 
L 218.847999 127.730978 
L 226.725033 128.493992 
L 233.885973 128.967343 
L 241.763006 129.240521 
L 249.64004 129.25936 
L 262.529732 128.665905 
L 270.406766 127.968831 
L 281.148175 126.461643 
L 293.321773 124.46462 
L 301.914901 122.542955 
L 317.668968 118.28515 
L 333.423036 113.198392 
L 344.88054 108.865227 
L 358.486325 103.024875 
L 360.634607 102.007523 
L 369.227735 98.051155 
L 372.092111 96.732366 
L 380.685239 92.54992 
L 387.130084 89.271787 
L 390.710554 87.500841 
L 392.858836 86.370451 
L 400.73587 82.338723 
L 405.032434 80.190981 
L 410.761186 77.289645 
L 416.489938 74.463668 
L 420.070408 72.692722 
L 425.799159 69.866745 
L 432.244005 66.588612 
L 435.824475 64.779987 
L 442.269321 61.501853 
L 452.294637 56.848411 
L 461.603859 53.287681 
L 465.900422 51.818173 
L 470.91308 50.216786 
L 477.357926 48.44584 
L 487.383242 46.185058 
L 494.544182 45.035828 
L 500.989027 44.371723 
L 506.717779 44.089126 
L 511.730437 44.064987 
L 516.743095 44.251619 
L 521.755753 44.682581 
L 526.768411 45.318426 
L 532.497163 46.307517 
L 537.509821 47.409648 
L 543.238572 48.916836 
L 549.683418 51.064579 
L 556.128264 53.551438 
L 561.857016 56.075978 
L 566.869674 58.562837 
L 569.73405 60.088865 
L 574.746708 62.745283 
L 579.043271 65.081424 
L 582.623741 67.229167 
L 586.204211 69.414589 
L 594.081245 74.501347 
L 601.242185 79.475067 
L 604.106561 81.622809 
L 609.119219 85.390779 
L 611.983595 87.68924 
L 618.42844 92.889037 
L 628.453756 101.442328 
L 643.49173 115.007017 
L 653.517045 124.46462 
L 653.517045 124.46462 
" clip-path="url(#pf65298b807)" style="fill: none; stroke: #ff0000; stroke-width: 1.5; stroke-linecap: square"/>
   </g>
   <g id="line2d_18">
    <path d="M 81.357955 107.358039 
L 87.086706 107.28268 
L 92.099364 106.830524 
L 94.247646 106.755164 
L 95.679834 106.679805 
L 97.828116 106.604445 
L 99.260304 106.378367 
L 104.989056 105.700133 
L 110.001714 104.569742 
L 111.433902 104.192945 
L 116.44656 103.213273 
L 117.878748 102.987195 
L 122.175311 102.007523 
L 125.039687 101.17857 
L 126.471875 100.801773 
L 131.484533 99.143866 
L 133.632815 98.314913 
L 136.497191 97.335241 
L 137.929379 96.807725 
L 142.942037 95.149819 
L 146.522507 93.717991 
L 148.670789 92.964397 
L 152.967353 91.268811 
L 156.547823 89.836982 
L 159.412198 88.744271 
L 165.857044 86.257411 
L 178.746736 80.944575 
L 185.191582 78.457715 
L 194.500804 74.633226 
L 198.797367 72.93764 
L 210.970965 68.246518 
L 226.008939 63.218634 
L 233.169879 61.143896 
L 241.046912 59.184552 
L 246.775664 58.091841 
L 251.072228 57.394767 
L 258.233168 56.490454 
L 260.38145 56.415095 
L 263.96192 56.302056 
L 271.838954 56.377415 
L 275.419423 56.678853 
L 284.012551 57.206369 
L 288.309115 57.733884 
L 291.173491 58.2614 
L 298.334431 59.881627 
L 306.211465 62.443846 
L 306.927559 62.820643 
L 308.359747 63.348158 
L 310.508029 64.32783 
L 312.65631 65.382862 
L 317.668968 67.568284 
L 326.262096 72.165206 
L 331.274754 75.40566 
L 334.855224 77.967879 
L 338.435694 80.30402 
L 340.583976 81.811208 
L 342.016164 82.79088 
L 347.744916 87.086365 
L 356.338043 94.396225 
L 358.486325 96.28021 
L 362.782889 99.972819 
L 373.524299 110.297055 
L 382.833521 119.943057 
L 384.981803 122.128479 
L 393.57493 131.322324 
L 400.019776 138.707543 
L 402.168058 140.892966 
L 405.748528 144.811654 
L 408.612904 147.976748 
L 411.47728 151.141842 
L 427.947441 170.057048 
L 432.244005 174.729329 
L 436.540569 179.55233 
L 440.837133 184.224612 
L 445.133697 188.859214 
L 463.75214 207.322263 
L 468.048704 211.052553 
L 473.061362 215.385718 
L 476.641832 218.475452 
L 479.506208 220.755074 
L 486.667148 225.917192 
L 494.544182 230.97569 
L 498.840746 233.40603 
L 504.569497 236.297947 
L 508.866061 238.170157 
L 513.162625 239.750349 
L 517.459189 241.045588 
L 521.039659 241.883961 
L 524.620129 242.505676 
L 528.916693 242.986092 
L 532.497163 243.193331 
L 535.361539 243.193331 
L 539.658102 242.891893 
L 544.67076 242.138299 
L 549.683418 240.970229 
L 554.696076 239.274643 
L 557.560452 238.106572 
L 560.424828 236.787783 
L 569.017956 232.153181 
L 571.882332 230.269196 
L 577.611083 225.936031 
L 584.772023 219.794242 
L 587.636399 216.930585 
L 596.229527 206.832427 
L 607.687031 192.212707 
L 610.551407 188.1433 
L 616.280158 179.55233 
L 626.305474 163.57614 
L 636.33079 146.544919 
L 642.059542 136.069965 
L 647.788294 125.444292 
L 649.936576 121.450244 
L 653.517045 114.517181 
L 653.517045 114.517181 
" clip-path="url(#pf65298b807)" style="fill: none; stroke: #00bfff; stroke-width: 1.5; stroke-linecap: square"/>
   </g>
   <g id="line2d_19">
    <path d="M 81.357955 107.358039 
L 84.938424 107.433399 
L 86.370612 107.508758 
L 87.8028 107.433399 
L 88.518894 107.358039 
L 89.951082 107.433399 
L 92.099364 107.28268 
L 101.408586 107.358039 
L 102.840774 107.433399 
L 107.137338 107.056602 
L 110.001714 106.981242 
L 118.594842 106.152289 
L 121.459217 106.378367 
L 122.891405 106.453727 
L 125.039687 106.604445 
L 128.620157 106.529086 
L 135.065003 105.775492 
L 136.497191 105.549414 
L 137.929379 105.323336 
L 139.361567 105.097258 
L 141.509849 104.79582 
L 144.374225 104.192945 
L 145.806413 104.117586 
L 151.535165 103.59007 
L 152.967353 103.665429 
L 154.399541 103.59007 
L 155.831729 103.514711 
L 160.844386 102.911836 
L 167.289232 101.630726 
L 168.72142 101.404648 
L 173.734078 100.274257 
L 178.746736 98.804749 
L 183.0433 97.787397 
L 195.216898 95.112139 
L 197.365179 94.659983 
L 208.106589 92.286162 
L 215.267529 90.694195 
L 227.441127 88.240305 
L 238.89863 86.163212 
L 243.195194 85.390779 
L 246.05957 84.900943 
L 250.356134 84.298067 
L 256.80098 83.695192 
L 259.665356 83.469114 
L 263.96192 83.092317 
L 270.406766 82.677841 
L 272.555048 82.489442 
L 278.999893 82.564802 
L 281.148175 82.71552 
L 286.876927 82.79088 
L 291.173491 83.167677 
L 292.605679 83.243036 
L 296.186149 83.695192 
L 299.766619 84.373427 
L 308.359747 85.353099 
L 309.075841 85.503818 
L 310.508029 85.579177 
L 322.681626 88.216755 
L 325.546002 89.045709 
L 326.97819 89.422506 
L 330.55866 90.552896 
L 331.990848 90.778975 
L 339.151788 93.115115 
L 341.30007 93.944069 
L 344.164446 94.923741 
L 354.189761 99.219226 
L 355.621949 99.972819 
L 357.054137 100.500335 
L 359.202419 101.480007 
L 360.634607 102.158242 
L 362.066795 102.836476 
L 364.215077 103.891508 
L 365.647265 104.569742 
L 372.092111 107.885555 
L 373.524299 108.563789 
L 377.820863 110.89993 
L 379.969145 112.18104 
L 382.117427 113.236071 
L 383.549615 113.914306 
L 389.278366 117.00404 
L 393.57493 119.641619 
L 396.439306 121.224166 
L 404.31634 126.273245 
L 406.464622 127.780433 
L 410.761186 130.116573 
L 413.625562 131.849839 
L 415.773844 133.055589 
L 423.650878 137.95395 
L 424.366971 138.330746 
L 425.799159 139.310418 
L 435.108381 145.26381 
L 437.256663 146.770998 
L 445.133697 151.820076 
L 447.998073 153.85478 
L 449.430261 154.834452 
L 451.578543 156.341639 
L 457.307295 160.034249 
L 458.739483 161.013921 
L 464.468234 164.555812 
L 470.91308 167.833946 
L 481.65449 173.033743 
L 483.802772 174.088775 
L 486.667148 175.407564 
L 489.531524 176.650994 
L 494.544182 178.648017 
L 499.55684 180.513162 
L 505.285591 182.208748 
L 509.582155 183.325009 
L 514.594813 184.370621 
L 519.607471 185.194864 
L 526.052317 185.957878 
L 533.929351 186.296995 
L 537.509821 186.183956 
L 539.658102 186.108597 
L 543.238572 185.844839 
L 546.819042 185.392682 
L 551.8317 184.45069 
L 553.263888 184.186932 
L 561.857016 181.813112 
L 564.005298 181.059518 
L 573.31452 177.06547 
L 579.759365 173.598939 
L 586.920305 169.152735 
L 589.784681 167.570188 
L 602.674373 159.506734 
L 603.390467 159.129937 
L 606.254843 157.095233 
L 608.403125 155.663405 
L 612.699689 152.57367 
L 614.131876 151.593998 
L 626.305474 142.550872 
L 633.466414 136.446762 
L 637.762978 132.226636 
L 643.49173 126.348604 
L 645.640012 124.163182 
L 649.936576 119.792338 
L 651.368764 118.360509 
L 653.517045 115.949009 
L 653.517045 115.949009 
" clip-path="url(#pf65298b807)" style="fill: none; stroke: #ffa500; stroke-width: 1.5; stroke-linecap: square"/>
   </g>
   <g id="line2d_20">
    <path d="M 81.357955 107.358039 
L 83.506236 107.810196 
L 86.370612 107.810196 
L 87.086706 107.659477 
L 89.234988 107.659477 
L 89.951082 107.508758 
L 91.38327 107.508758 
L 92.099364 107.358039 
L 92.815458 107.508758 
L 94.247646 107.508758 
L 95.679834 107.20732 
L 96.395928 107.20732 
L 105.70515 105.247976 
L 106.421244 104.946539 
L 111.433902 103.891508 
L 113.582184 102.987195 
L 115.014372 102.685757 
L 115.730466 102.685757 
L 117.878748 102.233601 
L 119.310936 102.233601 
L 126.471875 100.726413 
L 127.904063 100.123538 
L 129.336251 99.822101 
L 130.052345 99.822101 
L 130.768439 99.671382 
L 133.632815 99.671382 
L 134.348909 99.520663 
L 135.781097 99.520663 
L 136.497191 99.369944 
L 137.213285 99.369944 
L 138.645473 99.068507 
L 139.361567 99.068507 
L 142.942037 98.314913 
L 146.522507 96.807725 
L 147.954695 95.903413 
L 148.670789 95.752694 
L 157.263917 92.135443 
L 157.980011 91.683287 
L 158.696105 91.38185 
L 159.412198 90.929693 
L 160.128292 90.628256 
L 160.844386 90.176099 
L 161.56048 89.874662 
L 162.276574 89.422506 
L 164.424856 88.593552 
L 166.573138 87.839959 
L 170.153608 86.257411 
L 179.46283 81.434411 
L 185.191582 78.947551 
L 186.62377 78.269317 
L 189.488146 77.289645 
L 192.352522 76.159254 
L 195.932992 74.915824 
L 198.081273 74.011511 
L 214.551435 67.832042 
L 220.280187 65.684299 
L 228.873315 62.745283 
L 237.466442 60.032345 
L 238.89863 59.655549 
L 246.05957 58.2614 
L 248.923946 57.771564 
L 251.072228 57.319408 
L 254.652698 56.791892 
L 264.678014 56.716533 
L 269.690672 56.264376 
L 273.271141 56.189017 
L 280.432081 55.510782 
L 281.864269 55.435423 
L 283.296457 55.360064 
L 286.160833 55.360064 
L 294.037867 57.01797 
L 294.753961 57.319408 
L 296.186149 57.620845 
L 296.902243 57.922283 
L 298.334431 58.22372 
L 299.766619 58.826595 
L 301.914901 59.278752 
L 302.630995 59.580189 
L 303.347089 59.730908 
L 304.063183 60.032345 
L 307.643653 60.785939 
L 312.65631 62.896002 
L 314.088498 63.800315 
L 316.23678 64.704627 
L 316.952874 65.156784 
L 317.668968 65.458221 
L 321.249438 67.719003 
L 322.681626 68.321878 
L 324.113814 69.22619 
L 324.829908 69.829066 
L 326.97819 71.185534 
L 327.694284 71.486972 
L 328.410378 72.089847 
L 329.126472 72.542003 
L 329.842566 73.144878 
L 331.990848 74.501347 
L 333.423036 75.707098 
L 334.855224 76.61141 
L 335.571318 77.214285 
L 337.7196 78.570754 
L 338.435694 78.872192 
L 340.583976 80.228661 
L 341.30007 80.831536 
L 342.732258 81.735848 
L 343.448352 82.338723 
L 344.164446 82.79088 
L 344.88054 83.393755 
L 345.596634 83.845911 
L 347.744916 85.654536 
L 348.46101 86.106693 
L 349.893197 87.312443 
L 350.609291 87.764599 
L 352.041479 88.970349 
L 352.757573 89.422506 
L 354.905855 91.231131 
L 355.621949 91.683287 
L 359.202419 94.697663 
L 361.350701 96.807725 
L 362.066795 97.4106 
L 363.498983 98.767069 
L 364.215077 99.369944 
L 365.647265 100.726413 
L 370.659923 104.946539 
L 374.240393 108.563789 
L 374.956487 109.166664 
L 381.401333 116.099728 
L 383.549615 118.661947 
L 386.41399 121.827041 
L 387.846178 123.484948 
L 389.278366 125.142854 
L 390.710554 126.800761 
L 392.858836 129.212261 
L 397.1554 134.487418 
L 399.303682 136.898918 
L 402.168058 140.36545 
L 413.625562 152.57367 
L 415.05775 154.231577 
L 433.676193 173.975736 
L 435.108381 175.633642 
L 455.875107 197.337145 
L 458.739483 200.200801 
L 462.319952 203.818052 
L 479.506208 219.94496 
L 482.370584 222.243422 
L 490.963712 228.498251 
L 503.137309 236.109548 
L 507.433873 238.36091 
L 511.014343 240.013601 
L 514.594813 241.441225 
L 518.891377 242.929573 
L 523.904035 244.399081 
L 526.052317 244.813557 
L 531.781069 245.642511 
L 533.929351 245.793229 
L 536.077633 245.830909 
L 538.225914 245.75555 
L 539.658102 245.642511 
L 541.09029 245.567151 
L 546.819042 244.888917 
L 551.115606 243.909245 
L 553.979982 243.080292 
L 555.41217 242.703495 
L 558.276546 241.723823 
L 559.708734 241.196307 
L 561.857016 240.442713 
L 564.005298 239.463041 
L 569.73405 236.373306 
L 571.166238 235.544353 
L 571.882332 235.167556 
L 573.31452 233.961806 
L 574.030614 233.50965 
L 574.746708 232.906775 
L 575.462802 232.454618 
L 576.178895 231.851743 
L 576.894989 231.399587 
L 579.043271 229.590962 
L 579.759365 228.837368 
L 580.475459 228.385211 
L 583.339835 225.973711 
L 596.945621 211.504709 
L 604.106561 202.310864 
L 608.403125 196.131395 
L 609.835313 194.172051 
L 619.144534 180.305924 
L 620.576722 178.045142 
L 629.885944 164.179015 
L 631.318132 161.918234 
L 637.046884 153.327264 
L 644.207824 141.119044 
L 645.640012 138.556825 
L 648.504388 133.583105 
L 652.800951 125.59501 
L 653.517045 124.38926 
L 653.517045 124.38926 
" clip-path="url(#pf65298b807)" style="fill: none; stroke: #ffc0cb; stroke-width: 1.5; stroke-linecap: square"/>
   </g>
   <g id="line2d_21">
    <path d="M 81.357955 107.358039 
L 82.074049 107.358039 
L 82.790143 107.659477 
L 84.22233 107.659477 
L 84.938424 107.960914 
L 87.086706 107.960914 
L 89.234988 107.056602 
L 93.531552 107.056602 
L 94.96374 106.453727 
L 96.395928 106.453727 
L 97.112022 106.152289 
L 97.828116 106.152289 
L 99.260304 105.549414 
L 101.408586 105.549414 
L 104.272962 104.343664 
L 104.989056 104.343664 
L 105.70515 104.042226 
L 106.421244 104.042226 
L 107.137338 103.740789 
L 108.569526 103.740789 
L 109.28562 103.439351 
L 110.717808 103.439351 
L 111.433902 103.137914 
L 113.582184 103.137914 
L 115.730466 102.233601 
L 117.162654 102.233601 
L 118.594842 101.630726 
L 119.310936 101.630726 
L 120.02703 101.329288 
L 120.743124 101.329288 
L 121.459217 101.027851 
L 122.175311 101.027851 
L 127.904063 102.233601 
L 129.336251 102.233601 
L 130.052345 102.38432 
L 130.768439 102.38432 
L 132.200627 102.685757 
L 134.348909 102.685757 
L 135.781097 102.987195 
L 138.645473 102.987195 
L 139.361567 103.137914 
L 140.077661 103.137914 
L 141.509849 103.439351 
L 142.942037 103.439351 
L 145.090319 103.891508 
L 150.819071 103.891508 
L 152.251259 104.192945 
L 152.967353 104.192945 
L 153.683447 104.343664 
L 155.831729 104.343664 
L 156.547823 104.494383 
L 157.980011 104.494383 
L 158.696105 104.645101 
L 161.56048 104.042226 
L 162.276574 104.042226 
L 162.992668 103.891508 
L 165.14095 103.891508 
L 165.857044 103.740789 
L 166.573138 103.740789 
L 167.289232 103.891508 
L 168.72142 103.891508 
L 169.437514 104.042226 
L 173.734078 104.042226 
L 174.450172 104.192945 
L 175.88236 104.192945 
L 177.314548 103.891508 
L 185.191582 103.816148 
L 190.920334 103.288632 
L 192.352522 103.213273 
L 204.526119 101.969843 
L 208.822683 101.894484 
L 213.835341 101.706085 
L 217.415811 101.630726 
L 229.589409 101.09379 
L 238.89863 100.651054 
L 247.491758 99.822101 
L 248.923946 99.822101 
L 250.356134 99.596023 
L 257.517074 99.520663 
L 263.96192 98.917788 
L 270.406766 98.917788 
L 271.12286 99.068507 
L 276.135517 99.068507 
L 276.851611 99.219226 
L 277.567705 99.219226 
L 278.283799 99.369944 
L 278.999893 99.369944 
L 279.715987 99.520663 
L 284.012551 99.520663 
L 284.728645 99.671382 
L 285.444739 99.671382 
L 286.160833 99.822101 
L 286.876927 99.822101 
L 288.309115 100.123538 
L 291.889585 100.123538 
L 293.321773 100.424976 
L 294.753961 100.424976 
L 296.186149 100.726413 
L 296.902243 100.726413 
L 297.618337 100.877132 
L 299.050525 100.877132 
L 300.482713 101.17857 
L 301.914901 101.17857 
L 304.779277 101.781445 
L 305.495371 101.781445 
L 306.211465 101.932164 
L 306.927559 101.932164 
L 310.508029 102.685757 
L 313.372404 102.685757 
L 314.088498 102.836476 
L 314.804592 102.836476 
L 315.520686 102.987195 
L 316.23678 102.987195 
L 316.952874 103.137914 
L 318.385062 103.137914 
L 319.81725 103.439351 
L 320.533344 103.439351 
L 324.113814 104.192945 
L 325.546002 104.192945 
L 326.262096 104.343664 
L 335.571318 104.343664 
L 336.287412 104.645101 
L 337.003506 104.343664 
L 338.435694 104.343664 
L 339.151788 104.645101 
L 339.867882 104.343664 
L 340.583976 104.343664 
L 341.30007 104.645101 
L 342.016164 104.343664 
L 342.732258 104.343664 
L 343.448352 104.645101 
L 346.312728 104.645101 
L 347.028822 104.946539 
L 347.744916 104.946539 
L 348.46101 105.247976 
L 349.177103 105.247976 
L 349.893197 104.946539 
L 351.325385 104.946539 
L 352.041479 105.247976 
L 354.905855 105.247976 
L 356.338043 105.850852 
L 357.054137 105.850852 
L 357.770231 105.549414 
L 360.634607 105.549414 
L 362.782889 106.453727 
L 367.795547 106.453727 
L 368.511641 106.152289 
L 372.808205 106.152289 
L 373.524299 106.453727 
L 374.956487 106.453727 
L 375.672581 106.755164 
L 377.820863 106.755164 
L 378.536957 107.056602 
L 379.253051 106.755164 
L 379.969145 107.056602 
L 380.685239 107.056602 
L 381.401333 107.358039 
L 385.697897 107.358039 
L 386.41399 107.659477 
L 387.130084 107.659477 
L 388.562272 108.262352 
L 389.278366 108.262352 
L 389.99446 108.563789 
L 391.426648 108.563789 
L 392.142742 108.865227 
L 392.858836 108.865227 
L 393.57493 109.166664 
L 397.1554 109.166664 
L 397.871494 109.468102 
L 400.019776 109.468102 
L 400.73587 109.76954 
L 403.600246 109.76954 
L 404.31634 110.070977 
L 405.032434 110.070977 
L 406.464622 110.673852 
L 407.89681 110.673852 
L 408.612904 110.97529 
L 409.328998 110.97529 
L 410.761186 111.276727 
L 411.47728 111.276727 
L 412.193374 111.427446 
L 412.909468 111.427446 
L 413.625562 111.578165 
L 415.773844 111.578165 
L 416.489938 111.427446 
L 419.354314 111.427446 
L 420.070408 111.578165 
L 420.786502 111.427446 
L 423.650878 111.427446 
L 424.366971 111.578165 
L 425.083065 111.578165 
L 425.799159 111.427446 
L 426.515253 111.427446 
L 427.231347 111.276727 
L 430.095723 111.276727 
L 430.811817 111.126008 
L 431.527911 111.276727 
L 432.244005 111.578165 
L 434.392287 112.030321 
L 435.824475 112.633196 
L 436.540569 112.783915 
L 437.256663 113.085352 
L 437.972757 113.085352 
L 438.688851 113.236071 
L 439.404945 113.236071 
L 441.553227 113.688228 
L 442.269321 113.688228 
L 443.701509 113.989665 
L 444.417603 114.291103 
L 445.849791 114.59254 
L 446.565885 114.59254 
L 447.281979 114.743259 
L 447.998073 115.044696 
L 450.146355 115.496853 
L 450.862449 115.79829 
L 452.294637 116.099728 
L 453.010731 116.401165 
L 453.726825 116.551884 
L 455.159013 117.154759 
L 455.875107 117.305478 
L 456.591201 117.606916 
L 458.023389 117.908353 
L 459.455577 118.511228 
L 463.75214 119.415541 
L 465.184328 120.018416 
L 468.048704 120.621291 
L 469.480892 120.69665 
L 472.345268 120.922729 
L 473.777456 120.922729 
L 482.370584 122.806713 
L 483.802772 123.18351 
L 486.667148 123.861745 
L 488.81543 124.46462 
L 493.111994 125.255893 
L 513.162625 128.312658 
L 537.509821 131.096245 
L 539.658102 131.473042 
L 544.67076 132.075917 
L 546.102948 132.301996 
L 548.967324 132.528074 
L 552.547794 132.603433 
L 553.979982 132.678793 
L 554.696076 132.528074 
L 556.128264 132.528074 
L 556.844358 132.377355 
L 557.560452 132.377355 
L 560.424828 131.77448 
L 563.289204 131.77448 
L 564.005298 131.623761 
L 564.721392 131.322324 
L 566.15358 131.322324 
L 569.017956 130.719449 
L 569.73405 130.719449 
L 572.598426 130.116573 
L 573.31452 130.116573 
L 574.030614 129.965855 
L 576.178895 129.965855 
L 576.894989 130.116573 
L 578.327177 130.116573 
L 579.043271 129.965855 
L 579.759365 129.965855 
L 581.191553 130.267292 
L 582.623741 130.267292 
L 583.339835 130.418011 
L 584.772023 130.418011 
L 585.488117 130.56873 
L 586.204211 130.418011 
L 587.636399 130.418011 
L 589.068587 130.116573 
L 589.784681 130.116573 
L 591.216869 129.815136 
L 591.932963 129.815136 
L 596.229527 128.910823 
L 596.945621 128.609386 
L 597.661715 128.458667 
L 600.526091 127.252917 
L 601.242185 127.102198 
L 604.106561 125.896448 
L 604.822655 125.745729 
L 605.538749 125.444292 
L 606.254843 125.293573 
L 609.119219 124.087823 
L 610.551407 123.786385 
L 611.983595 123.18351 
L 612.699689 123.032791 
L 613.415783 122.731354 
L 614.131876 122.731354 
L 624.157192 118.511228 
L 625.58938 117.305478 
L 626.305474 117.305478 
L 627.021568 117.00404 
L 627.737662 116.401165 
L 628.453756 116.099728 
L 629.885944 114.893978 
L 632.75032 113.688228 
L 633.466414 113.085352 
L 634.182508 112.783915 
L 634.898602 112.18104 
L 637.762978 110.97529 
L 638.479072 110.372415 
L 639.195166 110.070977 
L 640.627354 108.865227 
L 641.343448 108.563789 
L 643.49173 106.755164 
L 644.923918 106.152289 
L 645.640012 105.549414 
L 647.0722 104.946539 
L 649.220482 103.137914 
L 653.517045 101.329288 
L 653.517045 101.329288 
" clip-path="url(#pf65298b807)" style="fill: none; stroke: #c0c0c0; stroke-width: 1.5; stroke-linecap: square"/>
   </g>
   <g id="patch_3">
    <path d="M 52.75 255.92 
L 52.75 33.96 
" style="fill: none; stroke: #000000; stroke-width: 0.8; stroke-linejoin: miter; stroke-linecap: square"/>
   </g>
   <g id="patch_4">
    <path d="M 682.125 255.92 
L 682.125 33.96 
" style="fill: none; stroke: #000000; stroke-width: 0.8; stroke-linejoin: miter; stroke-linecap: square"/>
   </g>
   <g id="patch_5">
    <path d="M 52.75 255.92 
L 682.125 255.92 
" style="fill: none; stroke: #000000; stroke-width: 0.8; stroke-linejoin: miter; stroke-linecap: square"/>
   </g>
   <g id="patch_6">
    <path d="M 52.75 33.96 
L 682.125 33.96 
" style="fill: none; stroke: #000000; stroke-width: 0.8; stroke-linejoin: miter; stroke-linecap: square"/>
   </g>
   <g id="legend_1">
    <g id="patch_7">
     <path d="M 59.75 250.92 
L 203.571875 250.92 
Q 205.571875 250.92 205.571875 248.92 
L 205.571875 176.529375 
Q 205.571875 174.529375 203.571875 174.529375 
L 59.75 174.529375 
Q 57.75 174.529375 57.75 176.529375 
L 57.75 248.92 
Q 57.75 250.92 59.75 250.92 
z
" style="fill: #ffffff; opacity: 0.8; stroke: #cccccc; stroke-linejoin: miter"/>
    </g>
    <g id="line2d_22">
     <path d="M 61.75 182.627812 
L 71.75 182.627812 
L 81.75 182.627812 
" style="fill: none; stroke: #ff0000; stroke-width: 1.5; stroke-linecap: square"/>
    </g>
    <g id="text_18">
     <!-- e = 0, alt = 300 km -->
     <g transform="translate(89.75 186.127812) scale(0.1 -0.1)">
      <defs>
       <path id="DejaVuSerif-65" d="M 3469 1600 
L 991 1600 
L 991 1575 
Q 991 903 1244 561 
Q 1497 219 1991 219 
Q 2369 219 2611 417 
Q 2853 616 2950 1006 
L 3413 1006 
Q 3275 459 2904 184 
Q 2534 -91 1931 -91 
Q 1203 -91 761 389 
Q 319 869 319 1663 
Q 319 2450 753 2931 
Q 1188 3413 1894 3413 
Q 2647 3413 3050 2948 
Q 3453 2484 3469 1600 
z
M 2791 1931 
Q 2772 2513 2545 2808 
Q 2319 3103 1894 3103 
Q 1497 3103 1269 2806 
Q 1041 2509 991 1931 
L 2791 1931 
z
" transform="scale(0.015625)"/>
       <path id="DejaVuSerif-3d" d="M 678 2894 
L 4684 2894 
L 4684 2394 
L 678 2394 
L 678 2894 
z
M 678 1619 
L 4684 1619 
L 4684 1119 
L 678 1119 
L 678 1619 
z
" transform="scale(0.015625)"/>
       <path id="DejaVuSerif-2c" d="M 231 -622 
Q 525 -406 662 -114 
Q 800 178 800 594 
L 800 709 
L 1416 709 
Q 1391 175 1164 -208 
Q 938 -591 481 -872 
L 231 -622 
z
" transform="scale(0.015625)"/>
       <path id="DejaVuSerif-61" d="M 2547 1044 
L 2547 1747 
L 1806 1747 
Q 1378 1747 1168 1562 
Q 959 1378 959 997 
Q 959 650 1171 447 
Q 1384 244 1747 244 
Q 2106 244 2326 466 
Q 2547 688 2547 1044 
z
M 3122 2075 
L 3122 331 
L 3634 331 
L 3634 0 
L 2547 0 
L 2547 359 
Q 2356 128 2106 18 
Q 1856 -91 1522 -91 
Q 969 -91 644 203 
Q 319 497 319 997 
Q 319 1513 691 1797 
Q 1063 2081 1741 2081 
L 2547 2081 
L 2547 2309 
Q 2547 2688 2317 2895 
Q 2088 3103 1672 3103 
Q 1328 3103 1125 2947 
Q 922 2791 872 2484 
L 575 2484 
L 575 3156 
Q 875 3284 1158 3348 
Q 1441 3413 1709 3413 
Q 2400 3413 2761 3070 
Q 3122 2728 3122 2075 
z
" transform="scale(0.015625)"/>
       <path id="DejaVuSerif-6c" d="M 1313 331 
L 1856 331 
L 1856 0 
L 184 0 
L 184 331 
L 738 331 
L 738 4531 
L 184 4531 
L 184 4863 
L 1313 4863 
L 1313 331 
z
" transform="scale(0.015625)"/>
       <path id="DejaVuSerif-74" d="M 691 2988 
L 184 2988 
L 184 3322 
L 691 3322 
L 691 4353 
L 1269 4353 
L 1269 3322 
L 2350 3322 
L 2350 2988 
L 1269 2988 
L 1269 878 
Q 1269 456 1350 337 
Q 1431 219 1650 219 
Q 1875 219 1978 351 
Q 2081 484 2088 781 
L 2522 781 
Q 2497 328 2275 118 
Q 2053 -91 1600 -91 
Q 1103 -91 897 129 
Q 691 350 691 878 
L 691 2988 
z
" transform="scale(0.015625)"/>
      </defs>
      <use xlink:href="#DejaVuSerif-65"/>
      <use xlink:href="#DejaVuSerif-20" transform="translate(59.179688 0)"/>
      <use xlink:href="#DejaVuSerif-3d" transform="translate(90.966797 0)"/>
      <use xlink:href="#DejaVuSerif-20" transform="translate(174.755859 0)"/>
      <use xlink:href="#DejaVuSerif-30" transform="translate(206.542969 0)"/>
      <use xlink:href="#DejaVuSerif-2c" transform="translate(270.166016 0)"/>
      <use xlink:href="#DejaVuSerif-20" transform="translate(301.953125 0)"/>
      <use xlink:href="#DejaVuSerif-61" transform="translate(333.740234 0)"/>
      <use xlink:href="#DejaVuSerif-6c" transform="translate(393.359375 0)"/>
      <use xlink:href="#DejaVuSerif-74" transform="translate(425.341797 0)"/>
      <use xlink:href="#DejaVuSerif-20" transform="translate(465.527344 0)"/>
      <use xlink:href="#DejaVuSerif-3d" transform="translate(497.314453 0)"/>
      <use xlink:href="#DejaVuSerif-20" transform="translate(581.103516 0)"/>
      <use xlink:href="#DejaVuSerif-33" transform="translate(612.890625 0)"/>
      <use xlink:href="#DejaVuSerif-30" transform="translate(676.513672 0)"/>
      <use xlink:href="#DejaVuSerif-30" transform="translate(740.136719 0)"/>
      <use xlink:href="#DejaVuSerif-20" transform="translate(803.759766 0)"/>
      <use xlink:href="#DejaVuSerif-6b" transform="translate(835.546875 0)"/>
      <use xlink:href="#DejaVuSerif-6d" transform="translate(896.142578 0)"/>
     </g>
    </g>
    <g id="line2d_23">
     <path d="M 61.75 197.305937 
L 71.75 197.305937 
L 81.75 197.305937 
" style="fill: none; stroke: #00bfff; stroke-width: 1.5; stroke-linecap: square"/>
    </g>
    <g id="text_19">
     <!-- e = 0, alt = 5000 km -->
     <g transform="translate(89.75 200.805937) scale(0.1 -0.1)">
      <use xlink:href="#DejaVuSerif-65"/>
      <use xlink:href="#DejaVuSerif-20" transform="translate(59.179688 0)"/>
      <use xlink:href="#DejaVuSerif-3d" transform="translate(90.966797 0)"/>
      <use xlink:href="#DejaVuSerif-20" transform="translate(174.755859 0)"/>
      <use xlink:href="#DejaVuSerif-30" transform="translate(206.542969 0)"/>
      <use xlink:href="#DejaVuSerif-2c" transform="translate(270.166016 0)"/>
      <use xlink:href="#DejaVuSerif-20" transform="translate(301.953125 0)"/>
      <use xlink:href="#DejaVuSerif-61" transform="translate(333.740234 0)"/>
      <use xlink:href="#DejaVuSerif-6c" transform="translate(393.359375 0)"/>
      <use xlink:href="#DejaVuSerif-74" transform="translate(425.341797 0)"/>
      <use xlink:href="#DejaVuSerif-20" transform="translate(465.527344 0)"/>
      <use xlink:href="#DejaVuSerif-3d" transform="translate(497.314453 0)"/>
      <use xlink:href="#DejaVuSerif-20" transform="translate(581.103516 0)"/>
      <use xlink:href="#DejaVuSerif-35" transform="translate(612.890625 0)"/>
      <use xlink:href="#DejaVuSerif-30" transform="translate(676.513672 0)"/>
      <use xlink:href="#DejaVuSerif-30" transform="translate(740.136719 0)"/>
      <use xlink:href="#DejaVuSerif-30" transform="translate(803.759766 0)"/>
      <use xlink:href="#DejaVuSerif-20" transform="translate(867.382812 0)"/>
      <use xlink:href="#DejaVuSerif-6b" transform="translate(899.169922 0)"/>
      <use xlink:href="#DejaVuSerif-6d" transform="translate(959.765625 0)"/>
     </g>
    </g>
    <g id="line2d_24">
     <path d="M 61.75 211.984062 
L 71.75 211.984062 
L 81.75 211.984062 
" style="fill: none; stroke: #ffa500; stroke-width: 1.5; stroke-linecap: square"/>
    </g>
    <g id="text_20">
     <!-- e = 0, alt = 10000 km -->
     <g transform="translate(89.75 215.484062) scale(0.1 -0.1)">
      <use xlink:href="#DejaVuSerif-65"/>
      <use xlink:href="#DejaVuSerif-20" transform="translate(59.179688 0)"/>
      <use xlink:href="#DejaVuSerif-3d" transform="translate(90.966797 0)"/>
      <use xlink:href="#DejaVuSerif-20" transform="translate(174.755859 0)"/>
      <use xlink:href="#DejaVuSerif-30" transform="translate(206.542969 0)"/>
      <use xlink:href="#DejaVuSerif-2c" transform="translate(270.166016 0)"/>
      <use xlink:href="#DejaVuSerif-20" transform="translate(301.953125 0)"/>
      <use xlink:href="#DejaVuSerif-61" transform="translate(333.740234 0)"/>
      <use xlink:href="#DejaVuSerif-6c" transform="translate(393.359375 0)"/>
      <use xlink:href="#DejaVuSerif-74" transform="translate(425.341797 0)"/>
      <use xlink:href="#DejaVuSerif-20" transform="translate(465.527344 0)"/>
      <use xlink:href="#DejaVuSerif-3d" transform="translate(497.314453 0)"/>
      <use xlink:href="#DejaVuSerif-20" transform="translate(581.103516 0)"/>
      <use xlink:href="#DejaVuSerif-31" transform="translate(612.890625 0)"/>
      <use xlink:href="#DejaVuSerif-30" transform="translate(676.513672 0)"/>
      <use xlink:href="#DejaVuSerif-30" transform="translate(740.136719 0)"/>
      <use xlink:href="#DejaVuSerif-30" transform="translate(803.759766 0)"/>
      <use xlink:href="#DejaVuSerif-30" transform="translate(867.382812 0)"/>
      <use xlink:href="#DejaVuSerif-20" transform="translate(931.005859 0)"/>
      <use xlink:href="#DejaVuSerif-6b" transform="translate(962.792969 0)"/>
      <use xlink:href="#DejaVuSerif-6d" transform="translate(1023.388672 0)"/>
     </g>
    </g>
    <g id="line2d_25">
     <path d="M 61.75 226.662187 
L 71.75 226.662187 
L 81.75 226.662187 
" style="fill: none; stroke: #ffc0cb; stroke-width: 1.5; stroke-linecap: square"/>
    </g>
    <g id="text_21">
     <!-- e = 0, alt = 20000 km -->
     <g transform="translate(89.75 230.162187) scale(0.1 -0.1)">
      <use xlink:href="#DejaVuSerif-65"/>
      <use xlink:href="#DejaVuSerif-20" transform="translate(59.179688 0)"/>
      <use xlink:href="#DejaVuSerif-3d" transform="translate(90.966797 0)"/>
      <use xlink:href="#DejaVuSerif-20" transform="translate(174.755859 0)"/>
      <use xlink:href="#DejaVuSerif-30" transform="translate(206.542969 0)"/>
      <use xlink:href="#DejaVuSerif-2c" transform="translate(270.166016 0)"/>
      <use xlink:href="#DejaVuSerif-20" transform="translate(301.953125 0)"/>
      <use xlink:href="#DejaVuSerif-61" transform="translate(333.740234 0)"/>
      <use xlink:href="#DejaVuSerif-6c" transform="translate(393.359375 0)"/>
      <use xlink:href="#DejaVuSerif-74" transform="translate(425.341797 0)"/>
      <use xlink:href="#DejaVuSerif-20" transform="translate(465.527344 0)"/>
      <use xlink:href="#DejaVuSerif-3d" transform="translate(497.314453 0)"/>
      <use xlink:href="#DejaVuSerif-20" transform="translate(581.103516 0)"/>
      <use xlink:href="#DejaVuSerif-32" transform="translate(612.890625 0)"/>
      <use xlink:href="#DejaVuSerif-30" transform="translate(676.513672 0)"/>
      <use xlink:href="#DejaVuSerif-30" transform="translate(740.136719 0)"/>
      <use xlink:href="#DejaVuSerif-30" transform="translate(803.759766 0)"/>
      <use xlink:href="#DejaVuSerif-30" transform="translate(867.382812 0)"/>
      <use xlink:href="#DejaVuSerif-20" transform="translate(931.005859 0)"/>
      <use xlink:href="#DejaVuSerif-6b" transform="translate(962.792969 0)"/>
      <use xlink:href="#DejaVuSerif-6d" transform="translate(1023.388672 0)"/>
     </g>
    </g>
    <g id="line2d_26">
     <path d="M 61.75 241.340312 
L 71.75 241.340312 
L 81.75 241.340312 
" style="fill: none; stroke: #c0c0c0; stroke-width: 1.5; stroke-linecap: square"/>
    </g>
    <g id="text_22">
     <!-- e = 0, alt = 30000 km -->
     <g transform="translate(89.75 244.840312) scale(0.1 -0.1)">
      <use xlink:href="#DejaVuSerif-65"/>
      <use xlink:href="#DejaVuSerif-20" transform="translate(59.179688 0)"/>
      <use xlink:href="#DejaVuSerif-3d" transform="translate(90.966797 0)"/>
      <use xlink:href="#DejaVuSerif-20" transform="translate(174.755859 0)"/>
      <use xlink:href="#DejaVuSerif-30" transform="translate(206.542969 0)"/>
      <use xlink:href="#DejaVuSerif-2c" transform="translate(270.166016 0)"/>
      <use xlink:href="#DejaVuSerif-20" transform="translate(301.953125 0)"/>
      <use xlink:href="#DejaVuSerif-61" transform="translate(333.740234 0)"/>
      <use xlink:href="#DejaVuSerif-6c" transform="translate(393.359375 0)"/>
      <use xlink:href="#DejaVuSerif-74" transform="translate(425.341797 0)"/>
      <use xlink:href="#DejaVuSerif-20" transform="translate(465.527344 0)"/>
      <use xlink:href="#DejaVuSerif-3d" transform="translate(497.314453 0)"/>
      <use xlink:href="#DejaVuSerif-20" transform="translate(581.103516 0)"/>
      <use xlink:href="#DejaVuSerif-33" transform="translate(612.890625 0)"/>
      <use xlink:href="#DejaVuSerif-30" transform="translate(676.513672 0)"/>
      <use xlink:href="#DejaVuSerif-30" transform="translate(740.136719 0)"/>
      <use xlink:href="#DejaVuSerif-30" transform="translate(803.759766 0)"/>
      <use xlink:href="#DejaVuSerif-30" transform="translate(867.382812 0)"/>
      <use xlink:href="#DejaVuSerif-20" transform="translate(931.005859 0)"/>
      <use xlink:href="#DejaVuSerif-6b" transform="translate(962.792969 0)"/>
      <use xlink:href="#DejaVuSerif-6d" transform="translate(1023.388672 0)"/>
     </g>
    </g>
   </g>
  </g>
  <g id="axes_2">
   <g id="patch_8">
    <path d="M 52.75 528.92 
L 682.125 528.92 
L 682.125 306.96 
L 52.75 306.96 
z
" style="fill: #ffffff"/>
   </g>
   <g id="matplotlib.axis_3">
    <g id="xtick_12">
     <g id="line2d_27">
      <g>
       <use xlink:href="#m7662ea9d71" x="81.357955" y="528.92" style="stroke: #000000; stroke-width: 0.8"/>
      </g>
     </g>
     <g id="text_23">
      <!-- 0 -->
      <g transform="translate(78.176705 543.518438) scale(0.1 -0.1)">
       <use xlink:href="#DejaVuSerif-30"/>
      </g>
     </g>
    </g>
    <g id="xtick_13">
     <g id="line2d_28">
      <g>
       <use xlink:href="#m7662ea9d71" x="138.645473" y="528.92" style="stroke: #000000; stroke-width: 0.8"/>
      </g>
     </g>
     <g id="text_24">
      <!-- 0.1 -->
      <g transform="translate(130.693911 543.518438) scale(0.1 -0.1)">
       <use xlink:href="#DejaVuSerif-30"/>
       <use xlink:href="#DejaVuSerif-2e" transform="translate(63.623047 0)"/>
       <use xlink:href="#DejaVuSerif-31" transform="translate(95.410156 0)"/>
      </g>
     </g>
    </g>
    <g id="xtick_14">
     <g id="line2d_29">
      <g>
       <use xlink:href="#m7662ea9d71" x="195.932992" y="528.92" style="stroke: #000000; stroke-width: 0.8"/>
      </g>
     </g>
     <g id="text_25">
      <!-- 0.2 -->
      <g transform="translate(187.981429 543.518438) scale(0.1 -0.1)">
       <use xlink:href="#DejaVuSerif-30"/>
       <use xlink:href="#DejaVuSerif-2e" transform="translate(63.623047 0)"/>
       <use xlink:href="#DejaVuSerif-32" transform="translate(95.410156 0)"/>
      </g>
     </g>
    </g>
    <g id="xtick_15">
     <g id="line2d_30">
      <g>
       <use xlink:href="#m7662ea9d71" x="253.22051" y="528.92" style="stroke: #000000; stroke-width: 0.8"/>
      </g>
     </g>
     <g id="text_26">
      <!-- 0.3 -->
      <g transform="translate(245.268948 543.518438) scale(0.1 -0.1)">
       <use xlink:href="#DejaVuSerif-30"/>
       <use xlink:href="#DejaVuSerif-2e" transform="translate(63.623047 0)"/>
       <use xlink:href="#DejaVuSerif-33" transform="translate(95.410156 0)"/>
      </g>
     </g>
    </g>
    <g id="xtick_16">
     <g id="line2d_31">
      <g>
       <use xlink:href="#m7662ea9d71" x="310.508029" y="528.92" style="stroke: #000000; stroke-width: 0.8"/>
      </g>
     </g>
     <g id="text_27">
      <!-- 0.4 -->
      <g transform="translate(302.556466 543.518438) scale(0.1 -0.1)">
       <use xlink:href="#DejaVuSerif-30"/>
       <use xlink:href="#DejaVuSerif-2e" transform="translate(63.623047 0)"/>
       <use xlink:href="#DejaVuSerif-34" transform="translate(95.410156 0)"/>
      </g>
     </g>
    </g>
    <g id="xtick_17">
     <g id="line2d_32">
      <g>
       <use xlink:href="#m7662ea9d71" x="367.795547" y="528.92" style="stroke: #000000; stroke-width: 0.8"/>
      </g>
     </g>
     <g id="text_28">
      <!-- 0.5 -->
      <g transform="translate(359.843984 543.518438) scale(0.1 -0.1)">
       <use xlink:href="#DejaVuSerif-30"/>
       <use xlink:href="#DejaVuSerif-2e" transform="translate(63.623047 0)"/>
       <use xlink:href="#DejaVuSerif-35" transform="translate(95.410156 0)"/>
      </g>
     </g>
    </g>
    <g id="xtick_18">
     <g id="line2d_33">
      <g>
       <use xlink:href="#m7662ea9d71" x="425.083065" y="528.92" style="stroke: #000000; stroke-width: 0.8"/>
      </g>
     </g>
     <g id="text_29">
      <!-- 0.6 -->
      <g transform="translate(417.131503 543.518438) scale(0.1 -0.1)">
       <use xlink:href="#DejaVuSerif-30"/>
       <use xlink:href="#DejaVuSerif-2e" transform="translate(63.623047 0)"/>
       <use xlink:href="#DejaVuSerif-36" transform="translate(95.410156 0)"/>
      </g>
     </g>
    </g>
    <g id="xtick_19">
     <g id="line2d_34">
      <g>
       <use xlink:href="#m7662ea9d71" x="482.370584" y="528.92" style="stroke: #000000; stroke-width: 0.8"/>
      </g>
     </g>
     <g id="text_30">
      <!-- 0.7 -->
      <g transform="translate(474.419021 543.518438) scale(0.1 -0.1)">
       <use xlink:href="#DejaVuSerif-30"/>
       <use xlink:href="#DejaVuSerif-2e" transform="translate(63.623047 0)"/>
       <use xlink:href="#DejaVuSerif-37" transform="translate(95.410156 0)"/>
      </g>
     </g>
    </g>
    <g id="xtick_20">
     <g id="line2d_35">
      <g>
       <use xlink:href="#m7662ea9d71" x="539.658102" y="528.92" style="stroke: #000000; stroke-width: 0.8"/>
      </g>
     </g>
     <g id="text_31">
      <!-- 0.8 -->
      <g transform="translate(531.70654 543.518438) scale(0.1 -0.1)">
       <use xlink:href="#DejaVuSerif-30"/>
       <use xlink:href="#DejaVuSerif-2e" transform="translate(63.623047 0)"/>
       <use xlink:href="#DejaVuSerif-38" transform="translate(95.410156 0)"/>
      </g>
     </g>
    </g>
    <g id="xtick_21">
     <g id="line2d_36">
      <g>
       <use xlink:href="#m7662ea9d71" x="596.945621" y="528.92" style="stroke: #000000; stroke-width: 0.8"/>
      </g>
     </g>
     <g id="text_32">
      <!-- 0.9 -->
      <g transform="translate(588.994058 543.518438) scale(0.1 -0.1)">
       <use xlink:href="#DejaVuSerif-30"/>
       <use xlink:href="#DejaVuSerif-2e" transform="translate(63.623047 0)"/>
       <use xlink:href="#DejaVuSerif-39" transform="translate(95.410156 0)"/>
      </g>
     </g>
    </g>
    <g id="xtick_22">
     <g id="line2d_37">
      <g>
       <use xlink:href="#m7662ea9d71" x="654.233139" y="528.92" style="stroke: #000000; stroke-width: 0.8"/>
      </g>
     </g>
     <g id="text_33">
      <!-- 1.0 -->
      <g transform="translate(646.281577 543.518438) scale(0.1 -0.1)">
       <use xlink:href="#DejaVuSerif-31"/>
       <use xlink:href="#DejaVuSerif-2e" transform="translate(63.623047 0)"/>
       <use xlink:href="#DejaVuSerif-30" transform="translate(95.410156 0)"/>
      </g>
     </g>
    </g>
    <g id="text_34">
     <!-- Number of Orbits -->
     <g transform="translate(295.77375 561.755625) scale(0.16 -0.16)">
      <defs>
       <path id="DejaVuSerif-4e" d="M 313 0 
L 313 331 
L 941 331 
L 941 4331 
L 313 4331 
L 313 4666 
L 1509 4666 
L 4306 984 
L 4306 4331 
L 3681 4331 
L 3681 4666 
L 5319 4666 
L 5319 4331 
L 4691 4331 
L 4691 -91 
L 4313 -91 
L 1325 3841 
L 1325 331 
L 1953 331 
L 1953 0 
L 313 0 
z
" transform="scale(0.015625)"/>
       <path id="DejaVuSerif-75" d="M 2266 3322 
L 3341 3322 
L 3341 331 
L 3884 331 
L 3884 0 
L 2766 0 
L 2766 588 
Q 2606 256 2353 82 
Q 2100 -91 1766 -91 
Q 1213 -91 952 223 
Q 691 538 691 1209 
L 691 2988 
L 172 2988 
L 172 3322 
L 1269 3322 
L 1269 1388 
Q 1269 781 1417 556 
Q 1566 331 1947 331 
Q 2347 331 2556 625 
Q 2766 919 2766 1478 
L 2766 2988 
L 2266 2988 
L 2266 3322 
z
" transform="scale(0.015625)"/>
       <path id="DejaVuSerif-62" d="M 738 331 
L 738 4531 
L 184 4531 
L 184 4863 
L 1313 4863 
L 1313 2803 
Q 1481 3116 1742 3264 
Q 2003 3413 2388 3413 
Q 3000 3413 3387 2928 
Q 3775 2444 3775 1663 
Q 3775 881 3387 395 
Q 3000 -91 2388 -91 
Q 2003 -91 1742 57 
Q 1481 206 1313 519 
L 1313 0 
L 184 0 
L 184 331 
L 738 331 
z
M 1313 1497 
Q 1313 897 1542 583 
Q 1772 269 2209 269 
Q 2650 269 2876 622 
Q 3103 975 3103 1663 
Q 3103 2353 2876 2703 
Q 2650 3053 2209 3053 
Q 1772 3053 1542 2737 
Q 1313 2422 1313 1825 
L 1313 1497 
z
" transform="scale(0.015625)"/>
       <path id="DejaVuSerif-66" d="M 2753 4078 
L 2450 4078 
Q 2447 4313 2317 4434 
Q 2188 4556 1941 4556 
Q 1619 4556 1487 4379 
Q 1356 4203 1356 3750 
L 1356 3322 
L 2284 3322 
L 2284 2988 
L 1356 2988 
L 1356 331 
L 2094 331 
L 2094 0 
L 231 0 
L 231 331 
L 781 331 
L 781 2988 
L 231 2988 
L 231 3322 
L 781 3322 
L 781 3738 
Q 781 4294 1070 4578 
Q 1359 4863 1919 4863 
Q 2128 4863 2337 4825 
Q 2547 4788 2753 4709 
L 2753 4078 
z
" transform="scale(0.015625)"/>
       <path id="DejaVuSerif-4f" d="M 2625 244 
Q 3391 244 3781 770 
Q 4172 1297 4172 2328 
Q 4172 3363 3781 3889 
Q 3391 4416 2625 4416 
Q 1856 4416 1465 3889 
Q 1075 3363 1075 2328 
Q 1075 1297 1465 770 
Q 1856 244 2625 244 
z
M 2625 -91 
Q 2150 -91 1751 65 
Q 1353 222 1050 525 
Q 700 875 529 1319 
Q 359 1763 359 2328 
Q 359 2894 529 3339 
Q 700 3784 1050 4134 
Q 1356 4441 1750 4595 
Q 2144 4750 2625 4750 
Q 3641 4750 4266 4084 
Q 4891 3419 4891 2328 
Q 4891 1769 4719 1320 
Q 4547 872 4197 525 
Q 3891 219 3497 64 
Q 3103 -91 2625 -91 
z
" transform="scale(0.015625)"/>
       <path id="DejaVuSerif-73" d="M 359 184 
L 359 959 
L 691 959 
Q 703 588 923 403 
Q 1144 219 1575 219 
Q 1963 219 2166 364 
Q 2369 509 2369 788 
Q 2369 1006 2220 1140 
Q 2072 1275 1594 1428 
L 1178 1569 
Q 750 1706 558 1912 
Q 366 2119 366 2438 
Q 366 2894 700 3153 
Q 1034 3413 1625 3413 
Q 1888 3413 2178 3344 
Q 2469 3275 2778 3144 
L 2778 2419 
L 2447 2419 
Q 2434 2741 2221 2922 
Q 2009 3103 1644 3103 
Q 1281 3103 1095 2975 
Q 909 2847 909 2591 
Q 909 2381 1050 2254 
Q 1191 2128 1613 1997 
L 2069 1856 
Q 2541 1709 2748 1489 
Q 2956 1269 2956 922 
Q 2956 450 2595 179 
Q 2234 -91 1600 -91 
Q 1278 -91 972 -22 
Q 666 47 359 184 
z
" transform="scale(0.015625)"/>
      </defs>
      <use xlink:href="#DejaVuSerif-4e"/>
      <use xlink:href="#DejaVuSerif-75" transform="translate(87.5 0)"/>
      <use xlink:href="#DejaVuSerif-6d" transform="translate(151.904297 0)"/>
      <use xlink:href="#DejaVuSerif-62" transform="translate(246.728516 0)"/>
      <use xlink:href="#DejaVuSerif-65" transform="translate(310.742188 0)"/>
      <use xlink:href="#DejaVuSerif-72" transform="translate(369.921875 0)"/>
      <use xlink:href="#DejaVuSerif-20" transform="translate(417.724609 0)"/>
      <use xlink:href="#DejaVuSerif-6f" transform="translate(449.511719 0)"/>
      <use xlink:href="#DejaVuSerif-66" transform="translate(509.716797 0)"/>
      <use xlink:href="#DejaVuSerif-20" transform="translate(546.728516 0)"/>
      <use xlink:href="#DejaVuSerif-4f" transform="translate(578.515625 0)"/>
      <use xlink:href="#DejaVuSerif-72" transform="translate(660.498047 0)"/>
      <use xlink:href="#DejaVuSerif-62" transform="translate(708.300781 0)"/>
      <use xlink:href="#DejaVuSerif-69" transform="translate(772.314453 0)"/>
      <use xlink:href="#DejaVuSerif-74" transform="translate(804.296875 0)"/>
      <use xlink:href="#DejaVuSerif-73" transform="translate(844.482422 0)"/>
     </g>
    </g>
   </g>
   <g id="matplotlib.axis_4">
    <g id="ytick_6">
     <g id="line2d_38">
      <g>
       <use xlink:href="#md8e70a1d1c" x="52.75" y="502.557263" style="stroke: #000000; stroke-width: 0.8"/>
      </g>
     </g>
     <g id="text_35">
      <!-- −2.0 -->
      <g transform="translate(21.467187 506.356481) scale(0.1 -0.1)">
       <use xlink:href="#DejaVuSerif-2212"/>
       <use xlink:href="#DejaVuSerif-32" transform="translate(83.789062 0)"/>
       <use xlink:href="#DejaVuSerif-2e" transform="translate(147.412109 0)"/>
       <use xlink:href="#DejaVuSerif-30" transform="translate(179.199219 0)"/>
      </g>
     </g>
    </g>
    <g id="ytick_7">
     <g id="line2d_39">
      <g>
       <use xlink:href="#md8e70a1d1c" x="52.75" y="475.881182" style="stroke: #000000; stroke-width: 0.8"/>
      </g>
     </g>
     <g id="text_36">
      <!-- −1.5 -->
      <g transform="translate(21.467187 479.680401) scale(0.1 -0.1)">
       <use xlink:href="#DejaVuSerif-2212"/>
       <use xlink:href="#DejaVuSerif-31" transform="translate(83.789062 0)"/>
       <use xlink:href="#DejaVuSerif-2e" transform="translate(147.412109 0)"/>
       <use xlink:href="#DejaVuSerif-35" transform="translate(179.199219 0)"/>
      </g>
     </g>
    </g>
    <g id="ytick_8">
     <g id="line2d_40">
      <g>
       <use xlink:href="#md8e70a1d1c" x="52.75" y="449.205102" style="stroke: #000000; stroke-width: 0.8"/>
      </g>
     </g>
     <g id="text_37">
      <!-- −1.0 -->
      <g transform="translate(21.467187 453.004321) scale(0.1 -0.1)">
       <use xlink:href="#DejaVuSerif-2212"/>
       <use xlink:href="#DejaVuSerif-31" transform="translate(83.789062 0)"/>
       <use xlink:href="#DejaVuSerif-2e" transform="translate(147.412109 0)"/>
       <use xlink:href="#DejaVuSerif-30" transform="translate(179.199219 0)"/>
      </g>
     </g>
    </g>
    <g id="ytick_9">
     <g id="line2d_41">
      <g>
       <use xlink:href="#md8e70a1d1c" x="52.75" y="422.529022" style="stroke: #000000; stroke-width: 0.8"/>
      </g>
     </g>
     <g id="text_38">
      <!-- −0.5 -->
      <g transform="translate(21.467187 426.328241) scale(0.1 -0.1)">
       <use xlink:href="#DejaVuSerif-2212"/>
       <use xlink:href="#DejaVuSerif-30" transform="translate(83.789062 0)"/>
       <use xlink:href="#DejaVuSerif-2e" transform="translate(147.412109 0)"/>
       <use xlink:href="#DejaVuSerif-35" transform="translate(179.199219 0)"/>
      </g>
     </g>
    </g>
    <g id="ytick_10">
     <g id="line2d_42">
      <g>
       <use xlink:href="#md8e70a1d1c" x="52.75" y="395.852941" style="stroke: #000000; stroke-width: 0.8"/>
      </g>
     </g>
     <g id="text_39">
      <!-- 0.0 -->
      <g transform="translate(29.846875 399.65216) scale(0.1 -0.1)">
       <use xlink:href="#DejaVuSerif-30"/>
       <use xlink:href="#DejaVuSerif-2e" transform="translate(63.623047 0)"/>
       <use xlink:href="#DejaVuSerif-30" transform="translate(95.410156 0)"/>
      </g>
     </g>
    </g>
    <g id="ytick_11">
     <g id="line2d_43">
      <g>
       <use xlink:href="#md8e70a1d1c" x="52.75" y="369.176861" style="stroke: #000000; stroke-width: 0.8"/>
      </g>
     </g>
     <g id="text_40">
      <!-- 0.5 -->
      <g transform="translate(29.846875 372.97608) scale(0.1 -0.1)">
       <use xlink:href="#DejaVuSerif-30"/>
       <use xlink:href="#DejaVuSerif-2e" transform="translate(63.623047 0)"/>
       <use xlink:href="#DejaVuSerif-35" transform="translate(95.410156 0)"/>
      </g>
     </g>
    </g>
    <g id="ytick_12">
     <g id="line2d_44">
      <g>
       <use xlink:href="#md8e70a1d1c" x="52.75" y="342.500781" style="stroke: #000000; stroke-width: 0.8"/>
      </g>
     </g>
     <g id="text_41">
      <!-- 1.0 -->
      <g transform="translate(29.846875 346.3) scale(0.1 -0.1)">
       <use xlink:href="#DejaVuSerif-31"/>
       <use xlink:href="#DejaVuSerif-2e" transform="translate(63.623047 0)"/>
       <use xlink:href="#DejaVuSerif-30" transform="translate(95.410156 0)"/>
      </g>
     </g>
    </g>
    <g id="ytick_13">
     <g id="line2d_45">
      <g>
       <use xlink:href="#md8e70a1d1c" x="52.75" y="315.824701" style="stroke: #000000; stroke-width: 0.8"/>
      </g>
     </g>
     <g id="text_42">
      <!-- 1.5 -->
      <g transform="translate(29.846875 319.623919) scale(0.1 -0.1)">
       <use xlink:href="#DejaVuSerif-31"/>
       <use xlink:href="#DejaVuSerif-2e" transform="translate(63.623047 0)"/>
       <use xlink:href="#DejaVuSerif-35" transform="translate(95.410156 0)"/>
      </g>
     </g>
    </g>
    <g id="text_43">
     <!-- Error in Y [km] -->
     <g transform="translate(14.139687 479.36375) rotate(-90) scale(0.16 -0.16)">
      <defs>
       <path id="DejaVuSerif-59" d="M 1209 0 
L 1209 331 
L 1806 331 
L 1806 2009 
L 366 4331 
L -72 4331 
L -72 4666 
L 1663 4666 
L 1663 4331 
L 1119 4331 
L 2284 2444 
L 3450 4331 
L 2925 4331 
L 2925 4666 
L 4281 4666 
L 4281 4331 
L 3841 4331 
L 2438 2069 
L 2438 331 
L 3034 331 
L 3034 0 
L 1209 0 
z
" transform="scale(0.015625)"/>
      </defs>
      <use xlink:href="#DejaVuSerif-45"/>
      <use xlink:href="#DejaVuSerif-72" transform="translate(72.998047 0)"/>
      <use xlink:href="#DejaVuSerif-72" transform="translate(120.800781 0)"/>
      <use xlink:href="#DejaVuSerif-6f" transform="translate(168.603516 0)"/>
      <use xlink:href="#DejaVuSerif-72" transform="translate(228.808594 0)"/>
      <use xlink:href="#DejaVuSerif-20" transform="translate(276.611328 0)"/>
      <use xlink:href="#DejaVuSerif-69" transform="translate(308.398438 0)"/>
      <use xlink:href="#DejaVuSerif-6e" transform="translate(340.380859 0)"/>
      <use xlink:href="#DejaVuSerif-20" transform="translate(404.785156 0)"/>
      <use xlink:href="#DejaVuSerif-59" transform="translate(436.572266 0)"/>
      <use xlink:href="#DejaVuSerif-20" transform="translate(502.587891 0)"/>
      <use xlink:href="#DejaVuSerif-5b" transform="translate(534.375 0)"/>
      <use xlink:href="#DejaVuSerif-6b" transform="translate(573.388672 0)"/>
      <use xlink:href="#DejaVuSerif-6d" transform="translate(633.984375 0)"/>
      <use xlink:href="#DejaVuSerif-5d" transform="translate(728.808594 0)"/>
     </g>
    </g>
   </g>
   <g id="line2d_46">
    <path d="M 81.357955 395.852941 
L 100.692492 394.257326 
L 125.039687 392.596584 
L 134.348909 392.362126 
L 148.670789 391.997414 
L 157.980011 391.762956 
L 166.573138 391.841109 
L 170.153608 391.997414 
L 174.450172 392.257923 
L 183.0433 392.987347 
L 203.810025 395.357975 
L 208.822683 396.165552 
L 216.699717 397.415993 
L 237.466442 401.297571 
L 249.64004 403.850555 
L 253.936604 404.710234 
L 257.517074 405.51781 
L 288.309115 412.134729 
L 291.889585 412.759949 
L 301.198807 414.349052 
L 306.211465 415.182679 
L 313.372404 416.394044 
L 332.706942 419.129385 
L 338.435694 419.754605 
L 349.177103 420.816178 
L 362.066795 421.648177 
L 371.376017 421.964044 
L 378.536957 422.004748 
L 389.278366 421.747496 
L 398.587588 421.213453 
L 405.032434 420.640334 
L 410.761186 419.91091 
L 420.786502 418.347859 
L 426.515253 417.31885 
L 439.404945 414.635611 
L 442.985415 413.749882 
L 450.146355 411.770017 
L 452.294637 411.118745 
L 458.739483 408.878371 
L 462.319952 407.62793 
L 468.764798 405.153098 
L 472.345268 403.772403 
L 475.925738 402.313555 
L 482.370584 399.630316 
L 485.951054 397.963061 
L 504.569497 389.053667 
L 508.866061 386.813293 
L 536.077633 372.850032 
L 540.374196 370.609658 
L 553.979982 363.784333 
L 561.140922 360.293518 
L 565.437486 358.209449 
L 569.73405 356.229584 
L 573.31452 354.614431 
L 586.920305 349.274004 
L 596.229527 345.991596 
L 602.674373 343.972654 
L 610.551407 341.784382 
L 616.996252 340.247381 
L 619.860628 339.648212 
L 626.305474 338.586639 
L 632.034226 337.805113 
L 637.762978 337.225482 
L 643.49173 336.899846 
L 648.504388 336.826578 
L 653.517045 336.941568 
L 653.517045 336.941568 
" clip-path="url(#p91e04ac02d)" style="fill: none; stroke: #ff0000; stroke-width: 1.5; stroke-linecap: square"/>
   </g>
   <g id="line2d_47">
    <path d="M 81.357955 395.852941 
L 100.692492 400.294613 
L 110.717808 402.378682 
L 116.44656 403.329538 
L 137.929379 406.351438 
L 150.102977 407.132964 
L 156.547823 407.263218 
L 165.14095 407.159015 
L 169.437514 406.742201 
L 174.450172 406.11698 
L 176.598454 406.012777 
L 180.895018 405.595963 
L 188.772052 404.345522 
L 193.068616 403.511894 
L 195.932992 402.990877 
L 205.958307 400.698401 
L 213.835341 398.510129 
L 215.983623 397.93701 
L 222.428469 395.957145 
L 230.305503 392.987347 
L 233.169879 391.841109 
L 240.330818 389.13182 
L 248.207852 385.588903 
L 254.652698 382.410698 
L 260.38145 379.805612 
L 273.271141 373.136592 
L 275.419423 371.990354 
L 294.037867 362.403638 
L 310.508029 353.520294 
L 315.520686 350.863107 
L 323.39772 346.668918 
L 330.55866 343.126001 
L 337.7196 339.843593 
L 348.46101 335.454023 
L 352.757573 333.917023 
L 357.770231 332.295357 
L 363.498983 330.673691 
L 369.227735 329.306834 
L 374.240393 328.319344 
L 379.253051 327.547587 
L 384.981803 326.909341 
L 390.710554 326.596731 
L 396.439306 326.596731 
L 401.451964 326.870265 
L 407.180716 327.599689 
L 417.922126 329.657707 
L 422.21869 330.856047 
L 430.811817 333.773743 
L 434.392287 335.180489 
L 439.404945 337.472965 
L 443.701509 339.583085 
L 458.739483 348.440377 
L 462.319952 350.889158 
L 470.196986 356.72455 
L 475.925738 361.205298 
L 480.222302 364.435605 
L 488.099336 370.844116 
L 493.111994 375.324864 
L 508.149967 389.652837 
L 526.052317 408.044744 
L 549.683418 433.9914 
L 552.547794 437.221707 
L 558.276546 443.213404 
L 566.15358 451.653883 
L 569.73405 455.457308 
L 574.030614 459.990158 
L 591.932963 478.069455 
L 595.513433 481.456066 
L 604.822655 489.818392 
L 614.84797 498.076515 
L 623.441098 504.198467 
L 629.16985 507.845587 
L 633.466414 510.333444 
L 638.479072 512.977607 
L 642.775636 514.963985 
L 647.0722 516.712649 
L 651.368764 518.189407 
L 653.517045 518.830909 
L 653.517045 518.830909 
" clip-path="url(#p91e04ac02d)" style="fill: none; stroke: #00bfff; stroke-width: 1.5; stroke-linecap: square"/>
   </g>
   <g id="line2d_48">
    <path d="M 81.357955 395.852941 
L 99.976398 398.197519 
L 108.569526 399.031146 
L 133.632815 400.750503 
L 150.102977 400.854706 
L 153.683447 401.011012 
L 160.128292 400.906808 
L 165.14095 400.6463 
L 167.289232 400.542096 
L 170.153608 400.437893 
L 174.450172 400.333689 
L 180.178924 400.021079 
L 183.0433 399.916876 
L 186.62377 399.552164 
L 188.055958 399.44796 
L 192.352522 399.239553 
L 194.500804 399.13535 
L 200.945649 398.562231 
L 212.403153 396.999179 
L 215.267529 396.686569 
L 220.996281 395.748738 
L 226.725033 394.6025 
L 229.589409 394.081483 
L 232.453785 393.560466 
L 236.034254 392.935245 
L 253.22051 389.079718 
L 258.949262 387.516666 
L 261.813638 386.787242 
L 266.110202 385.641004 
L 268.258484 385.067886 
L 274.703329 383.08802 
L 278.283799 381.889681 
L 281.148175 380.95185 
L 284.012551 380.014019 
L 303.347089 374.28283 
L 306.927559 373.08449 
L 311.940216 371.521438 
L 314.804592 370.583608 
L 319.101156 369.228963 
L 326.262096 366.72808 
L 332.706942 364.722164 
L 344.164446 361.491858 
L 349.177103 360.228391 
L 357.770231 358.30714 
L 366.363359 356.696871 
L 372.808205 355.757412 
L 379.969145 354.90099 
L 389.278366 354.145515 
L 393.57493 354.015261 
L 400.73587 354.119464 
L 405.032434 354.353922 
L 411.47728 355.161499 
L 417.206032 356.09933 
L 425.083065 357.714483 
L 427.947441 358.2355 
L 435.108381 359.902755 
L 437.972757 360.632179 
L 444.417603 362.143129 
L 453.010731 364.748215 
L 459.455577 367.196996 
L 461.603859 368.030623 
L 465.900422 369.697878 
L 477.357926 374.803847 
L 483.802772 378.190459 
L 493.828088 383.921648 
L 496.692464 385.484699 
L 502.421215 388.923413 
L 515.310907 397.259688 
L 520.323565 400.281588 
L 526.768411 404.60603 
L 534.645445 410.233016 
L 545.386854 417.162545 
L 547.535136 418.517189 
L 552.547794 421.695394 
L 566.15358 429.719059 
L 568.301862 431.021602 
L 574.746708 434.668722 
L 581.191553 438.055334 
L 583.339835 439.201572 
L 600.526091 447.850457 
L 605.538749 450.142933 
L 607.687031 451.158917 
L 622.725004 457.61953 
L 629.16985 460.094361 
L 634.182508 461.826744 
L 644.207824 464.822592 
L 649.220482 466.050239 
L 653.517045 466.958763 
L 653.517045 466.958763 
" clip-path="url(#p91e04ac02d)" style="fill: none; stroke: #ffa500; stroke-width: 1.5; stroke-linecap: square"/>
   </g>
   <g id="line2d_49">
    <path d="M 81.357955 395.852941 
L 104.272962 401.584131 
L 112.86609 403.251386 
L 117.878748 404.241318 
L 125.755781 405.283353 
L 129.336251 405.648065 
L 132.916721 406.064878 
L 137.929379 406.533794 
L 140.077661 406.742201 
L 145.090319 407.002709 
L 147.954695 406.898506 
L 150.102977 406.690099 
L 153.683447 406.585896 
L 155.831729 406.377489 
L 167.289232 406.273285 
L 169.437514 406.064878 
L 173.017984 405.960675 
L 184.475488 404.189217 
L 187.339864 403.459792 
L 189.488146 403.042979 
L 191.636428 402.521962 
L 200.945649 401.063113 
L 203.093931 400.542096 
L 204.526119 400.229486 
L 207.390495 399.500062 
L 208.822683 399.187451 
L 216.699717 396.790772 
L 218.131905 396.269755 
L 220.280187 395.540331 
L 227.441127 392.518431 
L 228.873315 391.997414 
L 239.614724 387.204056 
L 241.763006 386.057818 
L 243.911288 385.015784 
L 246.05957 383.869546 
L 247.491758 383.140122 
L 248.923946 382.410698 
L 259.665356 377.61734 
L 261.097544 376.887916 
L 264.678014 375.220661 
L 276.851611 368.23903 
L 278.999893 367.196996 
L 287.593021 362.091027 
L 289.025209 361.153196 
L 292.605679 358.964924 
L 294.753961 357.506076 
L 296.186149 356.568245 
L 297.618337 355.630414 
L 300.482713 353.858956 
L 301.914901 352.921125 
L 306.211465 350.316039 
L 312.65631 346.200003 
L 316.23678 344.011731 
L 321.965532 340.36461 
L 337.7196 331.298911 
L 341.30007 329.631656 
L 349.177103 326.010587 
L 353.473667 324.239128 
L 357.770231 322.689102 
L 363.498983 320.911131 
L 368.511641 319.61103 
L 373.524299 318.527477 
L 378.536957 317.713388 
L 381.401333 317.348676 
L 388.562272 317.049091 
L 393.57493 317.153294 
L 398.587588 317.439854 
L 403.600246 317.908769 
L 410.761186 319.002905 
L 414.341656 319.940736 
L 417.206032 320.67016 
L 423.650878 322.650026 
L 427.231347 324.056772 
L 439.404945 329.475351 
L 441.553227 330.621589 
L 442.985415 331.351013 
L 447.281979 333.956099 
L 448.714167 334.89393 
L 450.146355 335.831761 
L 455.875107 339.895695 
L 460.171671 342.500781 
L 470.91308 350.420242 
L 474.49355 353.442142 
L 475.925738 354.58838 
L 483.086678 360.736383 
L 484.518866 361.88262 
L 488.099336 364.90452 
L 489.531524 366.050758 
L 498.124652 373.657609 
L 500.272933 375.741678 
L 502.421215 377.721543 
L 508.866061 384.390563 
L 516.743095 393.456262 
L 526.768411 403.772403 
L 528.200599 405.335454 
L 532.497163 409.816202 
L 533.929351 411.379254 
L 536.077633 413.671729 
L 538.942008 416.902036 
L 540.374196 418.465088 
L 541.806384 420.028139 
L 543.238572 421.591191 
L 553.263888 433.157772 
L 554.696076 434.720824 
L 556.128264 436.283876 
L 580.475459 460.980091 
L 582.623741 462.959956 
L 587.636399 467.961721 
L 593.365151 473.06769 
L 598.377809 478.017353 
L 601.958279 481.299761 
L 606.254843 484.946882 
L 616.996252 493.439462 
L 623.441098 498.024413 
L 634.182508 504.953942 
L 638.479072 507.350621 
L 642.059542 509.200232 
L 647.788294 511.909521 
L 652.084857 513.667954 
L 653.517045 514.202811 
L 653.517045 514.202811 
" clip-path="url(#p91e04ac02d)" style="fill: none; stroke: #ffc0cb; stroke-width: 1.5; stroke-linecap: square"/>
   </g>
   <g id="line2d_50">
    <path d="M 81.357955 395.852941 
L 99.976398 397.494146 
L 109.28562 397.93701 
L 112.86609 398.093315 
L 118.594842 398.197519 
L 123.607499 398.458027 
L 125.039687 398.353824 
L 127.187969 398.145417 
L 128.620157 398.041214 
L 134.348909 397.31179 
L 135.781097 397.207586 
L 137.929379 396.999179 
L 139.361567 396.894976 
L 160.128292 393.97728 
L 167.289232 393.873076 
L 168.72142 393.768873 
L 170.153608 393.664669 
L 171.585796 393.560466 
L 173.017984 393.456262 
L 175.88236 393.143652 
L 177.314548 393.039449 
L 179.46283 392.831042 
L 181.611112 392.726838 
L 183.759394 392.518431 
L 201.661743 392.518431 
L 202.377837 392.310025 
L 203.093931 392.310025 
L 203.810025 392.101618 
L 207.390495 392.101618 
L 208.106589 391.893211 
L 208.822683 391.893211 
L 209.538777 391.684804 
L 211.687059 391.684804 
L 212.403153 391.476397 
L 215.267529 391.476397 
L 216.699717 391.059583 
L 217.415811 391.059583 
L 218.847999 390.64277 
L 219.564093 390.64277 
L 222.428469 389.809142 
L 223.860657 389.809142 
L 224.576751 389.600735 
L 225.292845 389.600735 
L 226.008939 389.392328 
L 227.441127 389.392328 
L 229.589409 388.767108 
L 233.885973 388.767108 
L 235.31816 388.350294 
L 236.750348 388.350294 
L 237.466442 388.141887 
L 238.89863 388.141887 
L 239.614724 387.93348 
L 241.046912 387.93348 
L 242.4791 387.516666 
L 243.195194 387.516666 
L 243.911288 387.308259 
L 244.627382 387.308259 
L 248.207852 386.266225 
L 248.923946 386.266225 
L 249.64004 386.057818 
L 250.356134 386.057818 
L 251.072228 385.849411 
L 251.788322 385.849411 
L 256.80098 384.390563 
L 257.517074 384.390563 
L 266.110202 381.993884 
L 271.12286 381.368663 
L 273.271141 381.26446 
L 296.902243 377.721543 
L 298.334431 377.408933 
L 304.063183 376.471102 
L 305.495371 376.158492 
L 311.940216 375.116457 
L 314.088498 374.59544 
L 320.533344 373.553406 
L 321.965532 373.240795 
L 324.829908 372.719778 
L 326.97819 372.302964 
L 335.571318 371.57354 
L 339.151788 371.156726 
L 345.596634 370.583608 
L 347.744916 370.34915 
L 353.473667 369.828133 
L 356.338043 369.619726 
L 369.943829 369.22245 
L 377.820863 369.320141 
L 389.99446 370.06259 
L 410.045092 373.08449 
L 417.922126 374.90805 
L 426.515253 377.304729 
L 432.960099 378.346764 
L 434.392287 378.659374 
L 437.256663 379.180391 
L 438.688851 379.493002 
L 441.553227 380.014019 
L 445.133697 380.95185 
L 447.281979 381.160257 
L 448.714167 381.26446 
L 450.862449 381.472867 
L 453.010731 381.57707 
L 465.900422 383.556936 
L 468.048704 384.077953 
L 470.91308 384.390563 
L 475.209644 384.390563 
L 475.925738 384.59897 
L 482.370584 384.59897 
L 483.086678 384.807377 
L 483.802772 384.807377 
L 485.951054 385.432598 
L 486.667148 385.432598 
L 488.099336 385.849411 
L 488.81543 385.849411 
L 489.531524 386.057818 
L 490.247618 386.057818 
L 491.679806 386.474632 
L 492.3959 386.474632 
L 493.111994 386.683039 
L 494.544182 386.683039 
L 498.124652 387.725073 
L 498.840746 387.725073 
L 528.200599 396.269755 
L 528.916693 396.686569 
L 529.632787 396.894976 
L 530.348881 397.31179 
L 533.213257 398.145417 
L 533.929351 398.562231 
L 534.645445 398.770638 
L 543.954666 398.770638 
L 546.102948 399.395858 
L 546.819042 399.395858 
L 548.25123 399.812672 
L 548.967324 399.812672 
L 549.683418 400.021079 
L 550.399512 400.021079 
L 554.696076 401.375724 
L 556.128264 401.896741 
L 561.857016 403.668199 
L 564.005298 404.501827 
L 565.437486 405.022844 
L 566.869674 405.543861 
L 571.882332 407.106913 
L 573.31452 407.62793 
L 575.462802 408.357354 
L 576.894989 408.878371 
L 579.043271 409.607795 
L 580.475459 410.128813 
L 582.623741 410.858237 
L 584.772023 411.691864 
L 586.204211 412.212881 
L 589.068587 413.359119 
L 590.500775 413.880136 
L 595.513433 415.964205 
L 596.945621 416.485222 
L 601.958279 418.569291 
L 609.119219 420.549156 
L 610.551407 420.861767 
L 616.280158 422.424818 
L 653.517045 430.502213 
L 653.517045 430.502213 
" clip-path="url(#p91e04ac02d)" style="fill: none; stroke: #c0c0c0; stroke-width: 1.5; stroke-linecap: square"/>
   </g>
   <g id="patch_9">
    <path d="M 52.75 528.92 
L 52.75 306.96 
" style="fill: none; stroke: #000000; stroke-width: 0.8; stroke-linejoin: miter; stroke-linecap: square"/>
   </g>
   <g id="patch_10">
    <path d="M 682.125 528.92 
L 682.125 306.96 
" style="fill: none; stroke: #000000; stroke-width: 0.8; stroke-linejoin: miter; stroke-linecap: square"/>
   </g>
   <g id="patch_11">
    <path d="M 52.75 528.92 
L 682.125 528.92 
" style="fill: none; stroke: #000000; stroke-width: 0.8; stroke-linejoin: miter; stroke-linecap: square"/>
   </g>
   <g id="patch_12">
    <path d="M 52.75 306.96 
L 682.125 306.96 
" style="fill: none; stroke: #000000; stroke-width: 0.8; stroke-linejoin: miter; stroke-linecap: square"/>
   </g>
  </g>
  <g id="text_44">
   <!-- Global Error in Position States - Earth -->
   <g transform="translate(186.0525 25.197187) scale(0.18 -0.18)">
    <defs>
     <path id="DejaVuSerif-47" d="M 4097 3272 
Q 3988 3856 3641 4136 
Q 3294 4416 2675 4416 
Q 1869 4416 1472 3897 
Q 1075 3378 1075 2328 
Q 1075 1300 1484 772 
Q 1894 244 2688 244 
Q 3041 244 3362 331 
Q 3684 419 3975 594 
L 3975 1797 
L 3097 1797 
L 3097 2131 
L 4609 2131 
L 4609 391 
Q 4194 150 3714 29 
Q 3234 -91 2688 -91 
Q 1631 -91 995 570 
Q 359 1231 359 2328 
Q 359 3434 996 4092 
Q 1634 4750 2713 4750 
Q 3113 4750 3539 4658 
Q 3966 4566 4447 4378 
L 4447 3272 
L 4097 3272 
z
" transform="scale(0.015625)"/>
     <path id="DejaVuSerif-50" d="M 1581 2375 
L 2406 2375 
Q 2872 2375 3115 2626 
Q 3359 2878 3359 3353 
Q 3359 3831 3115 4081 
Q 2872 4331 2406 4331 
L 1581 4331 
L 1581 2375 
z
M 353 0 
L 353 331 
L 947 331 
L 947 4331 
L 353 4331 
L 353 4666 
L 2559 4666 
Q 3259 4666 3668 4311 
Q 4078 3956 4078 3353 
Q 4078 2753 3668 2397 
Q 3259 2041 2559 2041 
L 1581 2041 
L 1581 331 
L 2303 331 
L 2303 0 
L 353 0 
z
" transform="scale(0.015625)"/>
     <path id="DejaVuSerif-53" d="M 594 225 
L 594 1288 
L 953 1284 
Q 969 753 1261 498 
Q 1553 244 2150 244 
Q 2706 244 2998 464 
Q 3291 684 3291 1106 
Q 3291 1444 3114 1625 
Q 2938 1806 2369 1978 
L 1753 2163 
Q 1084 2366 811 2669 
Q 538 2972 538 3500 
Q 538 4094 959 4422 
Q 1381 4750 2144 4750 
Q 2469 4750 2856 4679 
Q 3244 4609 3681 4475 
L 3681 3481 
L 3328 3481 
Q 3275 3975 2998 4195 
Q 2722 4416 2156 4416 
Q 1663 4416 1405 4214 
Q 1147 4013 1147 3628 
Q 1147 3294 1340 3103 
Q 1534 2913 2163 2725 
L 2741 2553 
Q 3375 2363 3645 2067 
Q 3916 1772 3916 1275 
Q 3916 597 3481 253 
Q 3047 -91 2188 -91 
Q 1803 -91 1404 -12 
Q 1006 66 594 225 
z
" transform="scale(0.015625)"/>
     <path id="DejaVuSerif-2d" d="M 281 1959 
L 1881 1959 
L 1881 1472 
L 281 1472 
L 281 1959 
z
" transform="scale(0.015625)"/>
     <path id="DejaVuSerif-68" d="M 263 0 
L 263 331 
L 781 331 
L 781 4531 
L 231 4531 
L 231 4863 
L 1356 4863 
L 1356 2731 
Q 1516 3069 1770 3241 
Q 2025 3413 2363 3413 
Q 2913 3413 3172 3097 
Q 3431 2781 3431 2113 
L 3431 331 
L 3944 331 
L 3944 0 
L 2356 0 
L 2356 331 
L 2853 331 
L 2853 1931 
Q 2853 2541 2704 2764 
Q 2556 2988 2175 2988 
Q 1775 2988 1565 2697 
Q 1356 2406 1356 1850 
L 1356 331 
L 1856 331 
L 1856 0 
L 263 0 
z
" transform="scale(0.015625)"/>
    </defs>
    <use xlink:href="#DejaVuSerif-47"/>
    <use xlink:href="#DejaVuSerif-6c" transform="translate(79.882812 0)"/>
    <use xlink:href="#DejaVuSerif-6f" transform="translate(111.865234 0)"/>
    <use xlink:href="#DejaVuSerif-62" transform="translate(172.070312 0)"/>
    <use xlink:href="#DejaVuSerif-61" transform="translate(236.083984 0)"/>
    <use xlink:href="#DejaVuSerif-6c" transform="translate(295.703125 0)"/>
    <use xlink:href="#DejaVuSerif-20" transform="translate(327.685547 0)"/>
    <use xlink:href="#DejaVuSerif-45" transform="translate(359.472656 0)"/>
    <use xlink:href="#DejaVuSerif-72" transform="translate(432.470703 0)"/>
    <use xlink:href="#DejaVuSerif-72" transform="translate(480.273438 0)"/>
    <use xlink:href="#DejaVuSerif-6f" transform="translate(528.076172 0)"/>
    <use xlink:href="#DejaVuSerif-72" transform="translate(588.28125 0)"/>
    <use xlink:href="#DejaVuSerif-20" transform="translate(636.083984 0)"/>
    <use xlink:href="#DejaVuSerif-69" transform="translate(667.871094 0)"/>
    <use xlink:href="#DejaVuSerif-6e" transform="translate(699.853516 0)"/>
    <use xlink:href="#DejaVuSerif-20" transform="translate(764.257812 0)"/>
    <use xlink:href="#DejaVuSerif-50" transform="translate(796.044922 0)"/>
    <use xlink:href="#DejaVuSerif-6f" transform="translate(859.330078 0)"/>
    <use xlink:href="#DejaVuSerif-73" transform="translate(919.535156 0)"/>
    <use xlink:href="#DejaVuSerif-69" transform="translate(970.853516 0)"/>
    <use xlink:href="#DejaVuSerif-74" transform="translate(1002.835938 0)"/>
    <use xlink:href="#DejaVuSerif-69" transform="translate(1043.021484 0)"/>
    <use xlink:href="#DejaVuSerif-6f" transform="translate(1075.003906 0)"/>
    <use xlink:href="#DejaVuSerif-6e" transform="translate(1135.208984 0)"/>
    <use xlink:href="#DejaVuSerif-20" transform="translate(1199.613281 0)"/>
    <use xlink:href="#DejaVuSerif-53" transform="translate(1231.400391 0)"/>
    <use xlink:href="#DejaVuSerif-74" transform="translate(1299.90625 0)"/>
    <use xlink:href="#DejaVuSerif-61" transform="translate(1340.091797 0)"/>
    <use xlink:href="#DejaVuSerif-74" transform="translate(1399.710938 0)"/>
    <use xlink:href="#DejaVuSerif-65" transform="translate(1439.896484 0)"/>
    <use xlink:href="#DejaVuSerif-73" transform="translate(1499.076172 0)"/>
    <use xlink:href="#DejaVuSerif-20" transform="translate(1550.394531 0)"/>
    <use xlink:href="#DejaVuSerif-2d" transform="translate(1582.181641 0)"/>
    <use xlink:href="#DejaVuSerif-20" transform="translate(1615.970703 0)"/>
    <use xlink:href="#DejaVuSerif-45" transform="translate(1647.757812 0)"/>
    <use xlink:href="#DejaVuSerif-61" transform="translate(1720.755859 0)"/>
    <use xlink:href="#DejaVuSerif-72" transform="translate(1780.375 0)"/>
    <use xlink:href="#DejaVuSerif-74" transform="translate(1828.177734 0)"/>
    <use xlink:href="#DejaVuSerif-68" transform="translate(1868.363281 0)"/>
   </g>
  </g>
 </g>
 <defs>
  <clipPath id="pf65298b807">
   <rect x="52.75" y="33.96" width="629.375" height="221.96"/>
  </clipPath>
  <clipPath id="p91e04ac02d">
   <rect x="52.75" y="306.96" width="629.375" height="221.96"/>
  </clipPath>
 </defs>
</svg>
