<?xml version="1.0" encoding="utf-8" standalone="no"?>
<!DOCTYPE svg PUBLIC "-//W3C//DTD SVG 1.1//EN"
  "http://www.w3.org/Graphics/SVG/1.1/DTD/svg11.dtd">
<svg xmlns:xlink="http://www.w3.org/1999/xlink" width="720pt" height="576pt" viewBox="0 0 720 576" xmlns="http://www.w3.org/2000/svg" version="1.1">
 <metadata>
  <rdf:RDF xmlns:dc="http://purl.org/dc/elements/1.1/" xmlns:cc="http://creativecommons.org/ns#" xmlns:rdf="http://www.w3.org/1999/02/22-rdf-syntax-ns#">
   <cc:Work>
    <dc:type rdf:resource="http://purl.org/dc/dcmitype/StillImage"/>
    <dc:date>2025-02-19T11:27:02.009941</dc:date>
    <dc:format>image/svg+xml</dc:format>
    <dc:creator>
     <cc:Agent>
      <dc:title>Matplotlib v3.10.0, https://matplotlib.org/</dc:title>
     </cc:Agent>
    </dc:creator>
   </cc:Work>
  </rdf:RDF>
 </metadata>
 <defs>
  <style type="text/css">*{stroke-linejoin: round; stroke-linecap: butt}</style>
 </defs>
 <g id="figure_1">
  <g id="patch_1">
   <path d="M 0 576 
L 720 576 
L 720 0 
L 0 0 
z
" style="fill: #ffffff"/>
  </g>
  <g id="axes_1">
   <g id="patch_2">
    <path d="M 52.75 255.92 
L 682.125 255.92 
L 682.125 33.96 
L 52.75 33.96 
z
" style="fill: #ffffff"/>
   </g>
   <g id="matplotlib.axis_1">
    <g id="xtick_1">
     <g id="line2d_1">
      <defs>
       <path id="m214510d597" d="M 0 0 
L 0 3.5 
" style="stroke: #000000; stroke-width: 0.8"/>
      </defs>
      <g>
       <use xlink:href="#m214510d597" x="81.357955" y="255.92" style="stroke: #000000; stroke-width: 0.8"/>
      </g>
     </g>
     <g id="text_1">
      <!-- 0 -->
      <g transform="translate(78.176705 270.518437) scale(0.1 -0.1)">
       <defs>
        <path id="DejaVuSerif-30" d="M 2034 219 
Q 2513 219 2750 744 
Q 2988 1269 2988 2328 
Q 2988 3391 2750 3916 
Q 2513 4441 2034 4441 
Q 1556 4441 1318 3916 
Q 1081 3391 1081 2328 
Q 1081 1269 1318 744 
Q 1556 219 2034 219 
z
M 2034 -91 
Q 1275 -91 848 546 
Q 422 1184 422 2328 
Q 422 3475 848 4112 
Q 1275 4750 2034 4750 
Q 2797 4750 3222 4112 
Q 3647 3475 3647 2328 
Q 3647 1184 3222 546 
Q 2797 -91 2034 -91 
z
" transform="scale(0.015625)"/>
       </defs>
       <use xlink:href="#DejaVuSerif-30"/>
      </g>
     </g>
    </g>
    <g id="xtick_2">
     <g id="line2d_2">
      <g>
       <use xlink:href="#m214510d597" x="138.645473" y="255.92" style="stroke: #000000; stroke-width: 0.8"/>
      </g>
     </g>
     <g id="text_2">
      <!-- 0.1 -->
      <g transform="translate(130.693911 270.518437) scale(0.1 -0.1)">
       <defs>
        <path id="DejaVuSerif-2e" d="M 603 325 
Q 603 500 722 622 
Q 841 744 1019 744 
Q 1191 744 1312 622 
Q 1434 500 1434 325 
Q 1434 153 1312 31 
Q 1191 -91 1019 -91 
Q 841 -91 722 29 
Q 603 150 603 325 
z
" transform="scale(0.015625)"/>
        <path id="DejaVuSerif-31" d="M 909 0 
L 909 331 
L 1722 331 
L 1722 4213 
L 781 3603 
L 781 4013 
L 1919 4750 
L 2350 4750 
L 2350 331 
L 3163 331 
L 3163 0 
L 909 0 
z
" transform="scale(0.015625)"/>
       </defs>
       <use xlink:href="#DejaVuSerif-30"/>
       <use xlink:href="#DejaVuSerif-2e" transform="translate(63.623047 0)"/>
       <use xlink:href="#DejaVuSerif-31" transform="translate(95.410156 0)"/>
      </g>
     </g>
    </g>
    <g id="xtick_3">
     <g id="line2d_3">
      <g>
       <use xlink:href="#m214510d597" x="195.932992" y="255.92" style="stroke: #000000; stroke-width: 0.8"/>
      </g>
     </g>
     <g id="text_3">
      <!-- 0.2 -->
      <g transform="translate(187.981429 270.518437) scale(0.1 -0.1)">
       <defs>
        <path id="DejaVuSerif-32" d="M 819 3553 
L 469 3553 
L 469 4384 
Q 803 4563 1142 4656 
Q 1481 4750 1806 4750 
Q 2534 4750 2956 4397 
Q 3378 4044 3378 3438 
Q 3378 2753 2422 1800 
Q 2347 1728 2309 1691 
L 1131 513 
L 3078 513 
L 3078 1088 
L 3444 1088 
L 3444 0 
L 434 0 
L 434 341 
L 1850 1753 
Q 2319 2222 2519 2614 
Q 2719 3006 2719 3438 
Q 2719 3909 2473 4175 
Q 2228 4441 1797 4441 
Q 1350 4441 1106 4219 
Q 863 3997 819 3553 
z
" transform="scale(0.015625)"/>
       </defs>
       <use xlink:href="#DejaVuSerif-30"/>
       <use xlink:href="#DejaVuSerif-2e" transform="translate(63.623047 0)"/>
       <use xlink:href="#DejaVuSerif-32" transform="translate(95.410156 0)"/>
      </g>
     </g>
    </g>
    <g id="xtick_4">
     <g id="line2d_4">
      <g>
       <use xlink:href="#m214510d597" x="253.22051" y="255.92" style="stroke: #000000; stroke-width: 0.8"/>
      </g>
     </g>
     <g id="text_4">
      <!-- 0.3 -->
      <g transform="translate(245.268948 270.518437) scale(0.1 -0.1)">
       <defs>
        <path id="DejaVuSerif-33" d="M 622 4469 
Q 988 4606 1323 4678 
Q 1659 4750 1953 4750 
Q 2638 4750 3022 4454 
Q 3406 4159 3406 3634 
Q 3406 3213 3140 2930 
Q 2875 2647 2388 2547 
Q 2963 2466 3280 2130 
Q 3597 1794 3597 1259 
Q 3597 606 3158 257 
Q 2719 -91 1894 -91 
Q 1528 -91 1179 -12 
Q 831 66 488 225 
L 488 1131 
L 838 1131 
Q 869 681 1141 450 
Q 1413 219 1906 219 
Q 2384 219 2661 495 
Q 2938 772 2938 1253 
Q 2938 1803 2653 2086 
Q 2369 2369 1819 2369 
L 1522 2369 
L 1522 2688 
L 1678 2688 
Q 2225 2688 2498 2914 
Q 2772 3141 2772 3597 
Q 2772 4006 2547 4223 
Q 2322 4441 1900 4441 
Q 1478 4441 1245 4241 
Q 1013 4041 972 3647 
L 622 3647 
L 622 4469 
z
" transform="scale(0.015625)"/>
       </defs>
       <use xlink:href="#DejaVuSerif-30"/>
       <use xlink:href="#DejaVuSerif-2e" transform="translate(63.623047 0)"/>
       <use xlink:href="#DejaVuSerif-33" transform="translate(95.410156 0)"/>
      </g>
     </g>
    </g>
    <g id="xtick_5">
     <g id="line2d_5">
      <g>
       <use xlink:href="#m214510d597" x="310.508029" y="255.92" style="stroke: #000000; stroke-width: 0.8"/>
      </g>
     </g>
     <g id="text_5">
      <!-- 0.4 -->
      <g transform="translate(302.556466 270.518437) scale(0.1 -0.1)">
       <defs>
        <path id="DejaVuSerif-34" d="M 2234 1581 
L 2234 4063 
L 641 1581 
L 2234 1581 
z
M 3609 0 
L 1484 0 
L 1484 331 
L 2234 331 
L 2234 1247 
L 197 1247 
L 197 1588 
L 2241 4750 
L 2859 4750 
L 2859 1581 
L 3750 1581 
L 3750 1247 
L 2859 1247 
L 2859 331 
L 3609 331 
L 3609 0 
z
" transform="scale(0.015625)"/>
       </defs>
       <use xlink:href="#DejaVuSerif-30"/>
       <use xlink:href="#DejaVuSerif-2e" transform="translate(63.623047 0)"/>
       <use xlink:href="#DejaVuSerif-34" transform="translate(95.410156 0)"/>
      </g>
     </g>
    </g>
    <g id="xtick_6">
     <g id="line2d_6">
      <g>
       <use xlink:href="#m214510d597" x="367.795547" y="255.92" style="stroke: #000000; stroke-width: 0.8"/>
      </g>
     </g>
     <g id="text_6">
      <!-- 0.5 -->
      <g transform="translate(359.843984 270.518437) scale(0.1 -0.1)">
       <defs>
        <path id="DejaVuSerif-35" d="M 3219 4666 
L 3219 4153 
L 1081 4153 
L 1081 2816 
Q 1244 2928 1461 2984 
Q 1678 3041 1947 3041 
Q 2703 3041 3140 2622 
Q 3578 2203 3578 1478 
Q 3578 738 3136 323 
Q 2694 -91 1894 -91 
Q 1572 -91 1234 -12 
Q 897 66 544 225 
L 544 1131 
L 897 1131 
Q 925 688 1179 453 
Q 1434 219 1894 219 
Q 2388 219 2653 544 
Q 2919 869 2919 1478 
Q 2919 2084 2655 2407 
Q 2391 2731 1894 2731 
Q 1613 2731 1398 2631 
Q 1184 2531 1019 2322 
L 750 2322 
L 750 4666 
L 3219 4666 
z
" transform="scale(0.015625)"/>
       </defs>
       <use xlink:href="#DejaVuSerif-30"/>
       <use xlink:href="#DejaVuSerif-2e" transform="translate(63.623047 0)"/>
       <use xlink:href="#DejaVuSerif-35" transform="translate(95.410156 0)"/>
      </g>
     </g>
    </g>
    <g id="xtick_7">
     <g id="line2d_7">
      <g>
       <use xlink:href="#m214510d597" x="425.083065" y="255.92" style="stroke: #000000; stroke-width: 0.8"/>
      </g>
     </g>
     <g id="text_7">
      <!-- 0.6 -->
      <g transform="translate(417.131503 270.518437) scale(0.1 -0.1)">
       <defs>
        <path id="DejaVuSerif-36" d="M 2094 219 
Q 2534 219 2771 542 
Q 3009 866 3009 1472 
Q 3009 2078 2771 2401 
Q 2534 2725 2094 2725 
Q 1647 2725 1412 2412 
Q 1178 2100 1178 1509 
Q 1178 888 1415 553 
Q 1653 219 2094 219 
z
M 1075 2569 
Q 1288 2803 1556 2918 
Q 1825 3034 2163 3034 
Q 2859 3034 3264 2615 
Q 3669 2197 3669 1472 
Q 3669 763 3233 336 
Q 2797 -91 2069 -91 
Q 1278 -91 853 498 
Q 428 1088 428 2181 
Q 428 3406 931 4078 
Q 1434 4750 2350 4750 
Q 2597 4750 2869 4703 
Q 3141 4656 3425 4563 
L 3425 3794 
L 3072 3794 
Q 3034 4109 2831 4275 
Q 2628 4441 2284 4441 
Q 1678 4441 1381 3981 
Q 1084 3522 1075 2569 
z
" transform="scale(0.015625)"/>
       </defs>
       <use xlink:href="#DejaVuSerif-30"/>
       <use xlink:href="#DejaVuSerif-2e" transform="translate(63.623047 0)"/>
       <use xlink:href="#DejaVuSerif-36" transform="translate(95.410156 0)"/>
      </g>
     </g>
    </g>
    <g id="xtick_8">
     <g id="line2d_8">
      <g>
       <use xlink:href="#m214510d597" x="482.370584" y="255.92" style="stroke: #000000; stroke-width: 0.8"/>
      </g>
     </g>
     <g id="text_8">
      <!-- 0.7 -->
      <g transform="translate(474.419021 270.518437) scale(0.1 -0.1)">
       <defs>
        <path id="DejaVuSerif-37" d="M 3609 4347 
L 1784 0 
L 1319 0 
L 3059 4153 
L 903 4153 
L 903 3578 
L 538 3578 
L 538 4666 
L 3609 4666 
L 3609 4347 
z
" transform="scale(0.015625)"/>
       </defs>
       <use xlink:href="#DejaVuSerif-30"/>
       <use xlink:href="#DejaVuSerif-2e" transform="translate(63.623047 0)"/>
       <use xlink:href="#DejaVuSerif-37" transform="translate(95.410156 0)"/>
      </g>
     </g>
    </g>
    <g id="xtick_9">
     <g id="line2d_9">
      <g>
       <use xlink:href="#m214510d597" x="539.658102" y="255.92" style="stroke: #000000; stroke-width: 0.8"/>
      </g>
     </g>
     <g id="text_9">
      <!-- 0.8 -->
      <g transform="translate(531.70654 270.518437) scale(0.1 -0.1)">
       <defs>
        <path id="DejaVuSerif-38" d="M 2981 1275 
Q 2981 1775 2732 2051 
Q 2484 2328 2034 2328 
Q 1584 2328 1336 2051 
Q 1088 1775 1088 1275 
Q 1088 772 1336 495 
Q 1584 219 2034 219 
Q 2484 219 2732 495 
Q 2981 772 2981 1275 
z
M 2853 3541 
Q 2853 3966 2637 4203 
Q 2422 4441 2034 4441 
Q 1650 4441 1433 4203 
Q 1216 3966 1216 3541 
Q 1216 3113 1433 2875 
Q 1650 2638 2034 2638 
Q 2422 2638 2637 2875 
Q 2853 3113 2853 3541 
z
M 2516 2484 
Q 3047 2413 3344 2092 
Q 3641 1772 3641 1275 
Q 3641 619 3225 264 
Q 2809 -91 2034 -91 
Q 1263 -91 845 264 
Q 428 619 428 1275 
Q 428 1772 725 2092 
Q 1022 2413 1556 2484 
Q 1084 2569 832 2842 
Q 581 3116 581 3541 
Q 581 4103 968 4426 
Q 1356 4750 2034 4750 
Q 2713 4750 3100 4426 
Q 3488 4103 3488 3541 
Q 3488 3116 3236 2842 
Q 2984 2569 2516 2484 
z
" transform="scale(0.015625)"/>
       </defs>
       <use xlink:href="#DejaVuSerif-30"/>
       <use xlink:href="#DejaVuSerif-2e" transform="translate(63.623047 0)"/>
       <use xlink:href="#DejaVuSerif-38" transform="translate(95.410156 0)"/>
      </g>
     </g>
    </g>
    <g id="xtick_10">
     <g id="line2d_10">
      <g>
       <use xlink:href="#m214510d597" x="596.945621" y="255.92" style="stroke: #000000; stroke-width: 0.8"/>
      </g>
     </g>
     <g id="text_10">
      <!-- 0.9 -->
      <g transform="translate(588.994058 270.518437) scale(0.1 -0.1)">
       <defs>
        <path id="DejaVuSerif-39" d="M 2994 2091 
Q 2784 1856 2512 1740 
Q 2241 1625 1900 1625 
Q 1206 1625 804 2044 
Q 403 2463 403 3188 
Q 403 3897 839 4323 
Q 1275 4750 2003 4750 
Q 2794 4750 3217 4161 
Q 3641 3572 3641 2478 
Q 3641 1253 3137 581 
Q 2634 -91 1722 -91 
Q 1475 -91 1203 -44 
Q 931 3 647 97 
L 647 872 
L 997 872 
Q 1038 556 1241 387 
Q 1444 219 1784 219 
Q 2391 219 2687 676 
Q 2984 1134 2994 2091 
z
M 1978 4441 
Q 1534 4441 1298 4117 
Q 1063 3794 1063 3188 
Q 1063 2581 1298 2256 
Q 1534 1931 1978 1931 
Q 2422 1931 2658 2245 
Q 2894 2559 2894 3150 
Q 2894 3772 2656 4106 
Q 2419 4441 1978 4441 
z
" transform="scale(0.015625)"/>
       </defs>
       <use xlink:href="#DejaVuSerif-30"/>
       <use xlink:href="#DejaVuSerif-2e" transform="translate(63.623047 0)"/>
       <use xlink:href="#DejaVuSerif-39" transform="translate(95.410156 0)"/>
      </g>
     </g>
    </g>
    <g id="xtick_11">
     <g id="line2d_11">
      <g>
       <use xlink:href="#m214510d597" x="654.233139" y="255.92" style="stroke: #000000; stroke-width: 0.8"/>
      </g>
     </g>
     <g id="text_11">
      <!-- 1.0 -->
      <g transform="translate(646.281577 270.518437) scale(0.1 -0.1)">
       <use xlink:href="#DejaVuSerif-31"/>
       <use xlink:href="#DejaVuSerif-2e" transform="translate(63.623047 0)"/>
       <use xlink:href="#DejaVuSerif-30" transform="translate(95.410156 0)"/>
      </g>
     </g>
    </g>
   </g>
   <g id="matplotlib.axis_2">
    <g id="ytick_1">
     <g id="line2d_12">
      <defs>
       <path id="m4da460b94f" d="M 0 0 
L -3.5 0 
" style="stroke: #000000; stroke-width: 0.8"/>
      </defs>
      <g>
       <use xlink:href="#m4da460b94f" x="52.75" y="234.250762" style="stroke: #000000; stroke-width: 0.8"/>
      </g>
     </g>
     <g id="text_12">
      <!-- −15 -->
      <g transform="translate(24.645312 238.049981) scale(0.1 -0.1)">
       <defs>
        <path id="DejaVuSerif-2212" d="M 678 2259 
L 4684 2259 
L 4684 1753 
L 678 1753 
L 678 2259 
z
" transform="scale(0.015625)"/>
       </defs>
       <use xlink:href="#DejaVuSerif-2212"/>
       <use xlink:href="#DejaVuSerif-31" transform="translate(83.789062 0)"/>
       <use xlink:href="#DejaVuSerif-35" transform="translate(147.412109 0)"/>
      </g>
     </g>
    </g>
    <g id="ytick_2">
     <g id="line2d_13">
      <g>
       <use xlink:href="#m4da460b94f" x="52.75" y="188.289248" style="stroke: #000000; stroke-width: 0.8"/>
      </g>
     </g>
     <g id="text_13">
      <!-- −10 -->
      <g transform="translate(24.645312 192.088467) scale(0.1 -0.1)">
       <use xlink:href="#DejaVuSerif-2212"/>
       <use xlink:href="#DejaVuSerif-31" transform="translate(83.789062 0)"/>
       <use xlink:href="#DejaVuSerif-30" transform="translate(147.412109 0)"/>
      </g>
     </g>
    </g>
    <g id="ytick_3">
     <g id="line2d_14">
      <g>
       <use xlink:href="#m4da460b94f" x="52.75" y="142.327734" style="stroke: #000000; stroke-width: 0.8"/>
      </g>
     </g>
     <g id="text_14">
      <!-- −5 -->
      <g transform="translate(31.007812 146.126953) scale(0.1 -0.1)">
       <use xlink:href="#DejaVuSerif-2212"/>
       <use xlink:href="#DejaVuSerif-35" transform="translate(83.789062 0)"/>
      </g>
     </g>
    </g>
    <g id="ytick_4">
     <g id="line2d_15">
      <g>
       <use xlink:href="#m4da460b94f" x="52.75" y="96.36622" style="stroke: #000000; stroke-width: 0.8"/>
      </g>
     </g>
     <g id="text_15">
      <!-- 0 -->
      <g transform="translate(39.3875 100.165439) scale(0.1 -0.1)">
       <use xlink:href="#DejaVuSerif-30"/>
      </g>
     </g>
    </g>
    <g id="ytick_5">
     <g id="line2d_16">
      <g>
       <use xlink:href="#m4da460b94f" x="52.75" y="50.404707" style="stroke: #000000; stroke-width: 0.8"/>
      </g>
     </g>
     <g id="text_16">
      <!-- 5 -->
      <g transform="translate(39.3875 54.203925) scale(0.1 -0.1)">
       <use xlink:href="#DejaVuSerif-35"/>
      </g>
     </g>
    </g>
    <g id="text_17">
     <!-- Error in X [km] -->
     <g transform="translate(17.317812 206.7775) rotate(-90) scale(0.16 -0.16)">
      <defs>
       <path id="DejaVuSerif-45" d="M 353 0 
L 353 331 
L 947 331 
L 947 4331 
L 353 4331 
L 353 4666 
L 4109 4666 
L 4109 3628 
L 3725 3628 
L 3725 4281 
L 1581 4281 
L 1581 2719 
L 3109 2719 
L 3109 3303 
L 3494 3303 
L 3494 1753 
L 3109 1753 
L 3109 2338 
L 1581 2338 
L 1581 384 
L 3775 384 
L 3775 1038 
L 4159 1038 
L 4159 0 
L 353 0 
z
" transform="scale(0.015625)"/>
       <path id="DejaVuSerif-72" d="M 3059 3328 
L 3059 2497 
L 2728 2497 
Q 2713 2744 2591 2866 
Q 2469 2988 2234 2988 
Q 1809 2988 1582 2694 
Q 1356 2400 1356 1850 
L 1356 331 
L 2022 331 
L 2022 0 
L 263 0 
L 263 331 
L 781 331 
L 781 2994 
L 231 2994 
L 231 3322 
L 1356 3322 
L 1356 2731 
Q 1525 3078 1790 3245 
Q 2056 3413 2438 3413 
Q 2578 3413 2733 3391 
Q 2888 3369 3059 3328 
z
" transform="scale(0.015625)"/>
       <path id="DejaVuSerif-6f" d="M 1925 219 
Q 2388 219 2623 584 
Q 2859 950 2859 1663 
Q 2859 2375 2623 2739 
Q 2388 3103 1925 3103 
Q 1463 3103 1227 2739 
Q 991 2375 991 1663 
Q 991 950 1228 584 
Q 1466 219 1925 219 
z
M 1925 -91 
Q 1200 -91 759 389 
Q 319 869 319 1663 
Q 319 2456 758 2934 
Q 1197 3413 1925 3413 
Q 2653 3413 3092 2934 
Q 3531 2456 3531 1663 
Q 3531 869 3092 389 
Q 2653 -91 1925 -91 
z
" transform="scale(0.015625)"/>
       <path id="DejaVuSerif-20" transform="scale(0.015625)"/>
       <path id="DejaVuSerif-69" d="M 622 4353 
Q 622 4497 726 4603 
Q 831 4709 978 4709 
Q 1122 4709 1226 4603 
Q 1331 4497 1331 4353 
Q 1331 4206 1228 4103 
Q 1125 4000 978 4000 
Q 831 4000 726 4103 
Q 622 4206 622 4353 
z
M 1356 331 
L 1900 331 
L 1900 0 
L 231 0 
L 231 331 
L 781 331 
L 781 2988 
L 231 2988 
L 231 3322 
L 1356 3322 
L 1356 331 
z
" transform="scale(0.015625)"/>
       <path id="DejaVuSerif-6e" d="M 263 0 
L 263 331 
L 781 331 
L 781 2988 
L 231 2988 
L 231 3322 
L 1356 3322 
L 1356 2731 
Q 1516 3069 1770 3241 
Q 2025 3413 2363 3413 
Q 2913 3413 3172 3097 
Q 3431 2781 3431 2113 
L 3431 331 
L 3944 331 
L 3944 0 
L 2356 0 
L 2356 331 
L 2853 331 
L 2853 1931 
Q 2853 2541 2703 2767 
Q 2553 2994 2175 2994 
Q 1775 2994 1565 2701 
Q 1356 2409 1356 1850 
L 1356 331 
L 1856 331 
L 1856 0 
L 263 0 
z
" transform="scale(0.015625)"/>
       <path id="DejaVuSerif-58" d="M 2119 1997 
L 978 331 
L 1581 331 
L 1581 0 
L 38 0 
L 38 331 
L 575 331 
L 1919 2291 
L 556 4331 
L 56 4331 
L 56 4666 
L 1906 4666 
L 1906 4331 
L 1356 4331 
L 2356 2828 
L 3384 4331 
L 2784 4331 
L 2784 4666 
L 4313 4666 
L 4313 4331 
L 3788 4331 
L 2553 2534 
L 4025 331 
L 4525 331 
L 4525 0 
L 2675 0 
L 2675 331 
L 3231 331 
L 2119 1997 
z
" transform="scale(0.015625)"/>
       <path id="DejaVuSerif-5b" d="M 550 4863 
L 2003 4863 
L 2003 4531 
L 1147 4531 
L 1147 -513 
L 2003 -513 
L 2003 -844 
L 550 -844 
L 550 4863 
z
" transform="scale(0.015625)"/>
       <path id="DejaVuSerif-6b" d="M 1831 0 
L 219 0 
L 219 331 
L 738 331 
L 738 4531 
L 184 4531 
L 184 4863 
L 1313 4863 
L 1313 1697 
L 2713 2988 
L 2234 2988 
L 2234 3322 
L 3738 3322 
L 3738 2988 
L 3169 2988 
L 2181 2075 
L 3444 331 
L 3922 331 
L 3922 0 
L 2284 0 
L 2284 331 
L 2759 331 
L 1766 1697 
L 1313 1275 
L 1313 331 
L 1831 331 
L 1831 0 
z
" transform="scale(0.015625)"/>
       <path id="DejaVuSerif-6d" d="M 3316 2675 
Q 3481 3041 3739 3227 
Q 3997 3413 4341 3413 
Q 4863 3413 5119 3089 
Q 5375 2766 5375 2113 
L 5375 331 
L 5894 331 
L 5894 0 
L 4300 0 
L 4300 331 
L 4800 331 
L 4800 2047 
Q 4800 2556 4650 2772 
Q 4500 2988 4153 2988 
Q 3769 2988 3567 2697 
Q 3366 2406 3366 1850 
L 3366 331 
L 3866 331 
L 3866 0 
L 2291 0 
L 2291 331 
L 2791 331 
L 2791 2069 
Q 2791 2566 2641 2777 
Q 2491 2988 2144 2988 
Q 1759 2988 1557 2697 
Q 1356 2406 1356 1850 
L 1356 331 
L 1856 331 
L 1856 0 
L 263 0 
L 263 331 
L 781 331 
L 781 2994 
L 231 2994 
L 231 3322 
L 1356 3322 
L 1356 2731 
Q 1516 3063 1762 3238 
Q 2009 3413 2322 3413 
Q 2709 3413 2968 3220 
Q 3228 3028 3316 2675 
z
" transform="scale(0.015625)"/>
       <path id="DejaVuSerif-5d" d="M 1947 4863 
L 1947 -844 
L 494 -844 
L 494 -513 
L 1350 -513 
L 1350 4531 
L 494 4531 
L 494 4863 
L 1947 4863 
z
" transform="scale(0.015625)"/>
      </defs>
      <use xlink:href="#DejaVuSerif-45"/>
      <use xlink:href="#DejaVuSerif-72" transform="translate(72.998047 0)"/>
      <use xlink:href="#DejaVuSerif-72" transform="translate(120.800781 0)"/>
      <use xlink:href="#DejaVuSerif-6f" transform="translate(168.603516 0)"/>
      <use xlink:href="#DejaVuSerif-72" transform="translate(228.808594 0)"/>
      <use xlink:href="#DejaVuSerif-20" transform="translate(276.611328 0)"/>
      <use xlink:href="#DejaVuSerif-69" transform="translate(308.398438 0)"/>
      <use xlink:href="#DejaVuSerif-6e" transform="translate(340.380859 0)"/>
      <use xlink:href="#DejaVuSerif-20" transform="translate(404.785156 0)"/>
      <use xlink:href="#DejaVuSerif-58" transform="translate(436.572266 0)"/>
      <use xlink:href="#DejaVuSerif-20" transform="translate(507.763672 0)"/>
      <use xlink:href="#DejaVuSerif-5b" transform="translate(539.550781 0)"/>
      <use xlink:href="#DejaVuSerif-6b" transform="translate(578.564453 0)"/>
      <use xlink:href="#DejaVuSerif-6d" transform="translate(639.160156 0)"/>
      <use xlink:href="#DejaVuSerif-5d" transform="translate(733.984375 0)"/>
     </g>
    </g>
   </g>
   <g id="line2d_17">
    <path d="M 81.357955 96.36622 
L 86.370612 96.438035 
L 87.8028 96.50985 
L 95.679834 96.581665 
L 96.395928 96.65348 
L 102.840774 95.935331 
L 104.989056 95.576257 
L 107.853432 95.217183 
L 115.014372 93.8527 
L 118.594842 93.565441 
L 125.039687 92.811385 
L 129.336251 92.272773 
L 132.200627 91.877791 
L 141.509849 90.369679 
L 145.806413 89.615623 
L 147.954695 89.220641 
L 152.251259 88.251141 
L 155.115635 87.712529 
L 157.263917 87.28164 
L 159.412198 86.743028 
L 164.424856 85.378546 
L 178.030642 81.392821 
L 180.895018 80.56695 
L 197.365179 75.719447 
L 215.267529 70.88092 
L 226.725033 68.107071 
L 234.602067 66.437375 
L 246.05957 64.372698 
L 253.22051 63.385243 
L 263.245826 62.469604 
L 270.406766 62.218252 
L 275.419423 62.325974 
L 283.296457 62.828678 
L 291.889585 63.798179 
L 296.902243 64.659957 
L 308.359747 67.065755 
L 311.940216 68.071163 
L 321.965532 71.19511 
L 325.546002 72.559592 
L 339.867882 78.412504 
L 350.609291 83.870434 
L 351.325385 84.373138 
L 352.757573 85.091287 
L 354.189761 86.02488 
L 357.054137 87.676622 
L 358.486325 88.466585 
L 370.659923 95.863516 
L 374.956487 98.951556 
L 376.388675 100.028779 
L 377.820863 101.106002 
L 379.253051 102.183224 
L 382.117427 104.122226 
L 383.549615 105.055819 
L 387.846178 108.143858 
L 389.99446 109.7956 
L 392.142742 111.375527 
L 394.291024 113.027269 
L 395.723212 114.104492 
L 404.31634 120.890997 
L 410.761186 125.846223 
L 415.05775 129.185614 
L 420.786502 133.602228 
L 425.083065 136.977527 
L 427.231347 138.593361 
L 433.676193 143.51268 
L 436.540569 145.846663 
L 442.985415 150.586444 
L 449.430261 155.218503 
L 453.726825 158.342449 
L 459.455577 162.256359 
L 461.603859 163.656749 
L 465.900422 166.565251 
L 468.048704 167.965641 
L 475.209644 172.328394 
L 485.951054 178.127445 
L 490.963712 180.667896 
L 497.408558 183.54049 
L 502.421215 185.515399 
L 508.149967 187.4544 
L 513.162625 188.873866 
L 517.459189 189.85571 
L 521.755753 190.623231 
L 526.052317 191.215704 
L 530.348881 191.565801 
L 534.645445 191.700454 
L 539.658102 191.610686 
L 543.238572 191.34138 
L 546.102948 190.964352 
L 551.115606 190.102574 
L 554.696076 189.31261 
L 557.560452 188.432878 
L 561.857016 186.817043 
L 565.437486 185.273024 
L 568.301862 183.944449 
L 571.166238 182.579966 
L 579.043271 178.127445 
L 581.191553 176.834777 
L 586.204211 173.71083 
L 589.784681 171.269125 
L 593.365151 168.647882 
L 601.958279 161.645933 
L 606.970937 157.229319 
L 611.983595 152.561353 
L 617.712346 146.959793 
L 622.725004 141.537771 
L 625.58938 138.234287 
L 631.318132 131.19643 
L 642.059542 117.048902 
L 644.923918 113.170899 
L 647.0722 110.226489 
L 653.517045 101.177816 
L 653.517045 101.177816 
" clip-path="url(#p1c387ed8be)" style="fill: none; stroke: #ff0000; stroke-width: 1.5; stroke-linecap: square"/>
   </g>
   <g id="line2d_18">
    <path d="M 81.357955 96.36622 
L 85.654518 96.294406 
L 87.086706 96.222591 
L 88.518894 96.150776 
L 92.815458 95.648072 
L 93.531552 95.504442 
L 94.96374 95.432627 
L 97.828116 95.217183 
L 99.976398 95.145368 
L 104.272962 94.642664 
L 113.582184 92.703662 
L 119.310936 91.05192 
L 122.175311 90.405587 
L 127.904063 88.789752 
L 136.497191 86.527584 
L 144.374225 84.265416 
L 146.522507 83.619082 
L 157.263917 80.495135 
L 160.128292 79.669264 
L 171.585796 75.539909 
L 174.450172 74.498594 
L 188.055958 69.615183 
L 202.377837 64.33679 
L 205.958307 63.160822 
L 215.983623 59.870803 
L 224.576751 57.341604 
L 231.737691 55.445212 
L 239.614724 53.68126 
L 245.343476 52.559152 
L 251.788322 51.67942 
L 263.245826 50.620151 
L 266.826296 50.548336 
L 278.283799 51.230577 
L 281.148175 51.553744 
L 284.012551 51.948726 
L 287.593021 52.59506 
L 292.605679 53.70819 
L 299.766619 55.611284 
L 306.927559 57.873453 
L 309.075841 58.699323 
L 311.224122 59.561102 
L 317.668968 62.254159 
L 323.39772 65.198569 
L 330.55866 69.579276 
L 331.990848 70.512869 
L 334.855224 72.020981 
L 336.287412 73.026389 
L 337.7196 73.816353 
L 339.867882 75.180835 
L 346.312728 79.776986 
L 348.46101 81.428728 
L 350.609291 83.008655 
L 354.905855 86.527584 
L 357.054137 88.322955 
L 364.215077 94.13996 
L 371.376017 100.746927 
L 374.240393 103.475892 
L 376.388675 105.558523 
L 381.401333 110.441934 
L 386.41399 115.1099 
L 397.871494 126.743908 
L 403.600246 132.919987 
L 405.748528 135.218063 
L 409.328998 139.02425 
L 417.206032 147.067515 
L 429.379629 159.742839 
L 431.527911 162.005007 
L 435.108381 165.847103 
L 445.849791 176.475703 
L 455.875107 185.88345 
L 463.75214 192.849492 
L 471.629174 199.420552 
L 478.07402 204.321917 
L 483.802772 208.379457 
L 490.963712 212.930724 
L 495.97637 215.767411 
L 500.272933 217.984695 
L 503.853403 219.622972 
L 508.149967 221.348773 
L 512.446531 222.810878 
L 516.743095 223.990213 
L 520.323565 224.762223 
L 523.904035 225.327765 
L 527.484505 225.695816 
L 531.064975 225.830469 
L 535.361539 225.722747 
L 538.942008 225.363672 
L 543.238572 224.717339 
L 547.535136 223.765792 
L 551.8317 222.473124 
L 556.128264 220.641845 
L 561.857016 217.661528 
L 565.437486 215.578897 
L 569.73405 212.88584 
L 573.31452 210.444134 
L 579.043271 206.02752 
L 582.623741 203.047203 
L 586.204211 199.851441 
L 589.784681 196.476143 
L 592.649057 193.603548 
L 596.229527 189.689638 
L 605.538749 178.809686 
L 607.687031 176.044814 
L 614.84797 165.452121 
L 616.996252 162.076822 
L 619.144534 158.701524 
L 621.292816 155.54167 
L 624.873286 150.011925 
L 628.453756 144.123106 
L 636.33079 130.478281 
L 642.775636 118.628829 
L 644.923918 114.679011 
L 647.0722 110.801008 
L 652.084857 101.536891 
L 653.517045 98.807926 
L 653.517045 98.807926 
" clip-path="url(#p1c387ed8be)" style="fill: none; stroke: #00bfff; stroke-width: 1.5; stroke-linecap: square"/>
   </g>
   <g id="line2d_19">
    <path d="M 81.357955 96.36622 
L 84.938424 96.078961 
L 87.8028 96.007146 
L 94.96374 95.360812 
L 97.828116 95.288997 
L 112.149996 93.780885 
L 114.298278 93.421811 
L 115.730466 93.206366 
L 117.878748 92.703662 
L 120.743124 91.913699 
L 124.323593 91.267365 
L 126.471875 90.980105 
L 128.620157 90.621031 
L 130.052345 90.405587 
L 155.831729 85.127194 
L 159.412198 84.33723 
L 161.56048 84.014064 
L 185.191582 78.197059 
L 187.339864 77.676402 
L 209.538777 72.209495 
L 218.847999 70.212144 
L 233.169879 67.528063 
L 240.330818 66.410445 
L 248.923946 65.324245 
L 256.80098 64.642004 
L 260.38145 64.462466 
L 265.394108 64.444513 
L 271.12286 64.62405 
L 273.271141 64.62405 
L 281.864269 65.162661 
L 287.593021 65.844903 
L 299.050525 67.676182 
L 304.063183 68.789312 
L 309.791935 70.117887 
L 311.940216 70.656499 
L 321.965532 73.744538 
L 329.126472 76.688947 
L 330.55866 77.335281 
L 334.855224 78.987023 
L 336.287412 79.489727 
L 339.151788 80.71058 
L 341.30007 81.715988 
L 344.164446 82.936841 
L 349.893197 85.88125 
L 354.905855 88.82566 
L 360.634607 91.770069 
L 364.215077 93.8527 
L 365.647265 94.642664 
L 369.227735 96.868924 
L 371.376017 98.305222 
L 374.956487 100.531483 
L 379.253051 103.475892 
L 382.117427 105.271264 
L 384.265709 106.707561 
L 386.41399 108.072043 
L 388.562272 109.508341 
L 391.426648 111.303712 
L 398.587588 116.402568 
L 400.019776 117.479791 
L 402.884152 119.562422 
L 407.180716 122.937721 
L 416.489938 129.544688 
L 420.070408 132.345468 
L 424.366971 135.469415 
L 427.947441 138.090657 
L 429.379629 139.096065 
L 435.108381 143.333142 
L 439.404945 146.241644 
L 445.849791 150.694166 
L 450.146355 153.387224 
L 453.010731 155.290317 
L 461.603859 160.784155 
L 473.061362 167.570659 
L 476.641832 169.4558 
L 490.963712 176.17049 
L 495.97637 178.208236 
L 500.989027 180.057469 
L 505.285591 181.448882 
L 510.298249 182.861054 
L 515.310907 184.022996 
L 519.607471 184.810716 
L 524.620129 185.506422 
L 529.632787 185.901404 
L 533.929351 186.02708 
L 539.658102 185.919358 
L 544.67076 185.452561 
L 549.683418 184.62669 
L 553.979982 183.477652 
L 557.560452 182.292707 
L 561.140922 181.323206 
L 569.017956 178.450612 
L 574.746708 175.793462 
L 578.327177 173.926275 
L 580.475459 172.849052 
L 582.623741 171.664107 
L 589.784681 167.2834 
L 597.661715 161.645933 
L 599.093903 160.496895 
L 606.970937 153.243594 
L 614.131876 145.918478 
L 616.280158 143.404957 
L 622.725004 136.79799 
L 627.021568 131.914579 
L 637.762978 118.844273 
L 646.356106 107.784784 
L 648.504388 105.055819 
L 653.517045 98.377037 
L 653.517045 98.377037 
" clip-path="url(#p1c387ed8be)" style="fill: none; stroke: #ffa500; stroke-width: 1.5; stroke-linecap: square"/>
   </g>
   <g id="line2d_20">
    <path d="M 81.357955 96.36622 
L 85.654518 96.294406 
L 87.086706 96.222591 
L 88.518894 96.150776 
L 90.667176 96.007146 
L 93.531552 95.935331 
L 94.96374 95.863516 
L 110.717808 95.791701 
L 112.149996 95.719887 
L 117.878748 95.648072 
L 121.459217 95.360812 
L 124.323593 95.432627 
L 126.471875 95.576257 
L 134.348909 95.504442 
L 136.497191 95.360812 
L 139.361567 95.288997 
L 140.793755 95.217183 
L 144.374225 95.145368 
L 150.819071 94.570849 
L 155.115635 94.463126 
L 161.56048 94.247682 
L 166.573138 94.13996 
L 170.869702 93.99633 
L 173.017984 93.99633 
L 188.055958 93.888608 
L 196.649086 93.565441 
L 254.652698 92.003467 
L 258.949262 91.877791 
L 264.678014 91.770069 
L 270.406766 91.590532 
L 278.283799 91.48281 
L 282.580363 91.375087 
L 286.876927 91.267365 
L 299.050525 90.764661 
L 314.804592 90.836476 
L 316.23678 90.908291 
L 318.385062 90.980105 
L 322.681626 91.33918 
L 324.113814 91.410995 
L 328.410378 91.841884 
L 329.126472 91.770069 
L 330.55866 91.841884 
L 333.423036 91.913699 
L 337.7196 92.272773 
L 339.151788 92.344588 
L 343.448352 92.703662 
L 344.88054 92.775477 
L 347.744916 92.990922 
L 349.177103 93.062737 
L 353.473667 93.565441 
L 354.905855 93.8527 
L 357.770231 93.924515 
L 359.202419 93.99633 
L 360.634607 94.068145 
L 376.388675 95.576257 
L 377.820863 95.648072 
L 381.401333 96.294406 
L 383.549615 96.36622 
L 387.846178 96.725295 
L 389.99446 96.79711 
L 391.426648 96.868924 
L 392.858836 96.940739 
L 395.723212 97.156184 
L 397.1554 97.227999 
L 405.748528 98.161592 
L 407.89681 98.520666 
L 409.328998 98.592481 
L 413.625562 98.664296 
L 415.05775 98.736111 
L 416.489938 98.807926 
L 418.63822 98.951556 
L 422.21869 99.02337 
L 425.083065 99.238815 
L 426.515253 99.31063 
L 437.256663 100.280131 
L 439.404945 100.387853 
L 450.862449 101.429168 
L 468.764798 102.434577 
L 480.222302 103.475892 
L 508.866061 105.022156 
L 520.323565 105.603407 
L 537.509821 106.348487 
L 541.09029 106.51007 
L 564.005298 107.569339 
L 566.869674 107.677062 
L 576.178895 108.036136 
L 579.043271 108.143858 
L 581.907647 108.179766 
L 596.229527 107.42571 
L 596.945621 107.28208 
L 598.377809 107.210265 
L 605.538749 106.420302 
L 606.970937 106.204857 
L 612.699689 105.558523 
L 614.84797 105.199449 
L 616.280158 105.127634 
L 625.58938 104.122226 
L 627.021568 103.906781 
L 629.16985 103.619522 
L 630.602038 103.404077 
L 632.034226 103.188633 
L 634.182508 102.829558 
L 636.33079 102.542299 
L 641.343448 101.536891 
L 642.059542 101.536891 
L 643.49173 101.321446 
L 649.936576 100.603297 
L 653.517045 99.885149 
L 653.517045 99.885149 
" clip-path="url(#p1c387ed8be)" style="fill: none; stroke: #ffc0cb; stroke-width: 1.5; stroke-linecap: square"/>
   </g>
   <g id="line2d_21">
    <path d="M 81.357955 96.36622 
L 87.086706 96.294406 
L 90.667176 96.007146 
L 92.099364 95.935331 
L 98.54421 95.360812 
L 99.976398 95.288997 
L 106.421244 94.570849 
L 114.298278 92.919107 
L 117.162654 92.129143 
L 118.594842 91.770069 
L 125.755781 89.687438 
L 127.904063 89.184734 
L 137.929379 86.096695 
L 143.658131 83.870434 
L 145.090319 83.36773 
L 148.670789 81.859618 
L 150.102977 81.213284 
L 153.683447 79.705172 
L 155.831729 78.699763 
L 157.263917 78.05343 
L 158.696105 77.407096 
L 162.276574 76.042613 
L 170.869702 72.487778 
L 179.46283 68.717497 
L 190.20424 64.300883 
L 193.068616 63.115938 
L 205.958307 58.05299 
L 218.131905 53.582514 
L 225.292845 51.215429 
L 232.453785 49.085108 
L 238.182536 47.541089 
L 243.195194 46.454889 
L 253.22051 44.785193 
L 258.233168 44.264536 
L 264.678014 44.049091 
L 269.690672 44.156813 
L 284.728645 45.018592 
L 286.876927 45.305851 
L 296.186149 47.244852 
L 299.766619 48.39389 
L 301.914901 49.183854 
L 303.347089 49.686558 
L 308.359747 51.769189 
L 316.952874 56.149896 
L 321.965532 59.237935 
L 324.829908 61.176936 
L 329.842566 64.264976 
L 338.435694 70.369239 
L 342.732258 73.888168 
L 344.88054 75.683539 
L 347.028822 77.478911 
L 352.757573 82.793211 
L 354.905855 84.804027 
L 356.338043 86.02488 
L 359.202419 88.753845 
L 372.092111 101.82415 
L 375.672581 105.917597 
L 378.536957 109.221081 
L 381.401333 112.524565 
L 382.833521 114.104492 
L 389.99446 122.147757 
L 407.89681 143.835846 
L 412.193374 149.293776 
L 425.799159 165.523936 
L 427.947441 168.037456 
L 442.269321 185.129394 
L 445.849791 189.222841 
L 450.146355 194.034437 
L 454.442919 198.630589 
L 460.887765 205.309371 
L 478.790114 222.25768 
L 482.370584 225.220043 
L 488.099336 229.403259 
L 491.679806 231.809057 
L 495.97637 234.520068 
L 500.989027 237.383686 
L 505.285591 239.524666 
L 508.866061 241.104593 
L 512.446531 242.452244 
L 516.027001 243.577718 
L 519.607471 244.466427 
L 523.187941 245.148668 
L 527.484505 245.687279 
L 530.348881 245.812955 
L 533.213257 245.795002 
L 536.077633 245.633418 
L 540.374196 245.040946 
L 547.535136 243.37125 
L 553.263888 241.288619 
L 557.560452 239.241895 
L 559.708734 238.05695 
L 561.857016 236.80019 
L 569.73405 231.629519 
L 573.31452 228.68511 
L 579.043271 223.406717 
L 584.772023 217.517898 
L 593.365151 207.032928 
L 599.093903 199.420552 
L 602.674373 194.178067 
L 604.822655 191.018213 
L 606.970937 187.642914 
L 619.144534 167.965641 
L 622.725004 161.717748 
L 625.58938 156.618892 
L 629.16985 149.94011 
L 637.046884 134.715359 
L 646.356106 115.828049 
L 653.517045 100.818742 
L 653.517045 100.818742 
" clip-path="url(#p1c387ed8be)" style="fill: none; stroke: #c0c0c0; stroke-width: 1.5; stroke-linecap: square"/>
   </g>
   <g id="patch_3">
    <path d="M 52.75 255.92 
L 52.75 33.96 
" style="fill: none; stroke: #000000; stroke-width: 0.8; stroke-linejoin: miter; stroke-linecap: square"/>
   </g>
   <g id="patch_4">
    <path d="M 682.125 255.92 
L 682.125 33.96 
" style="fill: none; stroke: #000000; stroke-width: 0.8; stroke-linejoin: miter; stroke-linecap: square"/>
   </g>
   <g id="patch_5">
    <path d="M 52.75 255.92 
L 682.125 255.92 
" style="fill: none; stroke: #000000; stroke-width: 0.8; stroke-linejoin: miter; stroke-linecap: square"/>
   </g>
   <g id="patch_6">
    <path d="M 52.75 33.96 
L 682.125 33.96 
" style="fill: none; stroke: #000000; stroke-width: 0.8; stroke-linejoin: miter; stroke-linecap: square"/>
   </g>
   <g id="legend_1">
    <g id="patch_7">
     <path d="M 59.75 250.92 
L 203.571875 250.92 
Q 205.571875 250.92 205.571875 248.92 
L 205.571875 176.529375 
Q 205.571875 174.529375 203.571875 174.529375 
L 59.75 174.529375 
Q 57.75 174.529375 57.75 176.529375 
L 57.75 248.92 
Q 57.75 250.92 59.75 250.92 
z
" style="fill: #ffffff; opacity: 0.8; stroke: #cccccc; stroke-linejoin: miter"/>
    </g>
    <g id="line2d_22">
     <path d="M 61.75 182.627812 
L 71.75 182.627812 
L 81.75 182.627812 
" style="fill: none; stroke: #ff0000; stroke-width: 1.5; stroke-linecap: square"/>
    </g>
    <g id="text_18">
     <!-- e = 0, alt = 300 km -->
     <g transform="translate(89.75 186.127812) scale(0.1 -0.1)">
      <defs>
       <path id="DejaVuSerif-65" d="M 3469 1600 
L 991 1600 
L 991 1575 
Q 991 903 1244 561 
Q 1497 219 1991 219 
Q 2369 219 2611 417 
Q 2853 616 2950 1006 
L 3413 1006 
Q 3275 459 2904 184 
Q 2534 -91 1931 -91 
Q 1203 -91 761 389 
Q 319 869 319 1663 
Q 319 2450 753 2931 
Q 1188 3413 1894 3413 
Q 2647 3413 3050 2948 
Q 3453 2484 3469 1600 
z
M 2791 1931 
Q 2772 2513 2545 2808 
Q 2319 3103 1894 3103 
Q 1497 3103 1269 2806 
Q 1041 2509 991 1931 
L 2791 1931 
z
" transform="scale(0.015625)"/>
       <path id="DejaVuSerif-3d" d="M 678 2894 
L 4684 2894 
L 4684 2394 
L 678 2394 
L 678 2894 
z
M 678 1619 
L 4684 1619 
L 4684 1119 
L 678 1119 
L 678 1619 
z
" transform="scale(0.015625)"/>
       <path id="DejaVuSerif-2c" d="M 231 -622 
Q 525 -406 662 -114 
Q 800 178 800 594 
L 800 709 
L 1416 709 
Q 1391 175 1164 -208 
Q 938 -591 481 -872 
L 231 -622 
z
" transform="scale(0.015625)"/>
       <path id="DejaVuSerif-61" d="M 2547 1044 
L 2547 1747 
L 1806 1747 
Q 1378 1747 1168 1562 
Q 959 1378 959 997 
Q 959 650 1171 447 
Q 1384 244 1747 244 
Q 2106 244 2326 466 
Q 2547 688 2547 1044 
z
M 3122 2075 
L 3122 331 
L 3634 331 
L 3634 0 
L 2547 0 
L 2547 359 
Q 2356 128 2106 18 
Q 1856 -91 1522 -91 
Q 969 -91 644 203 
Q 319 497 319 997 
Q 319 1513 691 1797 
Q 1063 2081 1741 2081 
L 2547 2081 
L 2547 2309 
Q 2547 2688 2317 2895 
Q 2088 3103 1672 3103 
Q 1328 3103 1125 2947 
Q 922 2791 872 2484 
L 575 2484 
L 575 3156 
Q 875 3284 1158 3348 
Q 1441 3413 1709 3413 
Q 2400 3413 2761 3070 
Q 3122 2728 3122 2075 
z
" transform="scale(0.015625)"/>
       <path id="DejaVuSerif-6c" d="M 1313 331 
L 1856 331 
L 1856 0 
L 184 0 
L 184 331 
L 738 331 
L 738 4531 
L 184 4531 
L 184 4863 
L 1313 4863 
L 1313 331 
z
" transform="scale(0.015625)"/>
       <path id="DejaVuSerif-74" d="M 691 2988 
L 184 2988 
L 184 3322 
L 691 3322 
L 691 4353 
L 1269 4353 
L 1269 3322 
L 2350 3322 
L 2350 2988 
L 1269 2988 
L 1269 878 
Q 1269 456 1350 337 
Q 1431 219 1650 219 
Q 1875 219 1978 351 
Q 2081 484 2088 781 
L 2522 781 
Q 2497 328 2275 118 
Q 2053 -91 1600 -91 
Q 1103 -91 897 129 
Q 691 350 691 878 
L 691 2988 
z
" transform="scale(0.015625)"/>
      </defs>
      <use xlink:href="#DejaVuSerif-65"/>
      <use xlink:href="#DejaVuSerif-20" transform="translate(59.179688 0)"/>
      <use xlink:href="#DejaVuSerif-3d" transform="translate(90.966797 0)"/>
      <use xlink:href="#DejaVuSerif-20" transform="translate(174.755859 0)"/>
      <use xlink:href="#DejaVuSerif-30" transform="translate(206.542969 0)"/>
      <use xlink:href="#DejaVuSerif-2c" transform="translate(270.166016 0)"/>
      <use xlink:href="#DejaVuSerif-20" transform="translate(301.953125 0)"/>
      <use xlink:href="#DejaVuSerif-61" transform="translate(333.740234 0)"/>
      <use xlink:href="#DejaVuSerif-6c" transform="translate(393.359375 0)"/>
      <use xlink:href="#DejaVuSerif-74" transform="translate(425.341797 0)"/>
      <use xlink:href="#DejaVuSerif-20" transform="translate(465.527344 0)"/>
      <use xlink:href="#DejaVuSerif-3d" transform="translate(497.314453 0)"/>
      <use xlink:href="#DejaVuSerif-20" transform="translate(581.103516 0)"/>
      <use xlink:href="#DejaVuSerif-33" transform="translate(612.890625 0)"/>
      <use xlink:href="#DejaVuSerif-30" transform="translate(676.513672 0)"/>
      <use xlink:href="#DejaVuSerif-30" transform="translate(740.136719 0)"/>
      <use xlink:href="#DejaVuSerif-20" transform="translate(803.759766 0)"/>
      <use xlink:href="#DejaVuSerif-6b" transform="translate(835.546875 0)"/>
      <use xlink:href="#DejaVuSerif-6d" transform="translate(896.142578 0)"/>
     </g>
    </g>
    <g id="line2d_23">
     <path d="M 61.75 197.305937 
L 71.75 197.305937 
L 81.75 197.305937 
" style="fill: none; stroke: #00bfff; stroke-width: 1.5; stroke-linecap: square"/>
    </g>
    <g id="text_19">
     <!-- e = 0, alt = 5000 km -->
     <g transform="translate(89.75 200.805937) scale(0.1 -0.1)">
      <use xlink:href="#DejaVuSerif-65"/>
      <use xlink:href="#DejaVuSerif-20" transform="translate(59.179688 0)"/>
      <use xlink:href="#DejaVuSerif-3d" transform="translate(90.966797 0)"/>
      <use xlink:href="#DejaVuSerif-20" transform="translate(174.755859 0)"/>
      <use xlink:href="#DejaVuSerif-30" transform="translate(206.542969 0)"/>
      <use xlink:href="#DejaVuSerif-2c" transform="translate(270.166016 0)"/>
      <use xlink:href="#DejaVuSerif-20" transform="translate(301.953125 0)"/>
      <use xlink:href="#DejaVuSerif-61" transform="translate(333.740234 0)"/>
      <use xlink:href="#DejaVuSerif-6c" transform="translate(393.359375 0)"/>
      <use xlink:href="#DejaVuSerif-74" transform="translate(425.341797 0)"/>
      <use xlink:href="#DejaVuSerif-20" transform="translate(465.527344 0)"/>
      <use xlink:href="#DejaVuSerif-3d" transform="translate(497.314453 0)"/>
      <use xlink:href="#DejaVuSerif-20" transform="translate(581.103516 0)"/>
      <use xlink:href="#DejaVuSerif-35" transform="translate(612.890625 0)"/>
      <use xlink:href="#DejaVuSerif-30" transform="translate(676.513672 0)"/>
      <use xlink:href="#DejaVuSerif-30" transform="translate(740.136719 0)"/>
      <use xlink:href="#DejaVuSerif-30" transform="translate(803.759766 0)"/>
      <use xlink:href="#DejaVuSerif-20" transform="translate(867.382812 0)"/>
      <use xlink:href="#DejaVuSerif-6b" transform="translate(899.169922 0)"/>
      <use xlink:href="#DejaVuSerif-6d" transform="translate(959.765625 0)"/>
     </g>
    </g>
    <g id="line2d_24">
     <path d="M 61.75 211.984062 
L 71.75 211.984062 
L 81.75 211.984062 
" style="fill: none; stroke: #ffa500; stroke-width: 1.5; stroke-linecap: square"/>
    </g>
    <g id="text_20">
     <!-- e = 0, alt = 10000 km -->
     <g transform="translate(89.75 215.484062) scale(0.1 -0.1)">
      <use xlink:href="#DejaVuSerif-65"/>
      <use xlink:href="#DejaVuSerif-20" transform="translate(59.179688 0)"/>
      <use xlink:href="#DejaVuSerif-3d" transform="translate(90.966797 0)"/>
      <use xlink:href="#DejaVuSerif-20" transform="translate(174.755859 0)"/>
      <use xlink:href="#DejaVuSerif-30" transform="translate(206.542969 0)"/>
      <use xlink:href="#DejaVuSerif-2c" transform="translate(270.166016 0)"/>
      <use xlink:href="#DejaVuSerif-20" transform="translate(301.953125 0)"/>
      <use xlink:href="#DejaVuSerif-61" transform="translate(333.740234 0)"/>
      <use xlink:href="#DejaVuSerif-6c" transform="translate(393.359375 0)"/>
      <use xlink:href="#DejaVuSerif-74" transform="translate(425.341797 0)"/>
      <use xlink:href="#DejaVuSerif-20" transform="translate(465.527344 0)"/>
      <use xlink:href="#DejaVuSerif-3d" transform="translate(497.314453 0)"/>
      <use xlink:href="#DejaVuSerif-20" transform="translate(581.103516 0)"/>
      <use xlink:href="#DejaVuSerif-31" transform="translate(612.890625 0)"/>
      <use xlink:href="#DejaVuSerif-30" transform="translate(676.513672 0)"/>
      <use xlink:href="#DejaVuSerif-30" transform="translate(740.136719 0)"/>
      <use xlink:href="#DejaVuSerif-30" transform="translate(803.759766 0)"/>
      <use xlink:href="#DejaVuSerif-30" transform="translate(867.382812 0)"/>
      <use xlink:href="#DejaVuSerif-20" transform="translate(931.005859 0)"/>
      <use xlink:href="#DejaVuSerif-6b" transform="translate(962.792969 0)"/>
      <use xlink:href="#DejaVuSerif-6d" transform="translate(1023.388672 0)"/>
     </g>
    </g>
    <g id="line2d_25">
     <path d="M 61.75 226.662187 
L 71.75 226.662187 
L 81.75 226.662187 
" style="fill: none; stroke: #ffc0cb; stroke-width: 1.5; stroke-linecap: square"/>
    </g>
    <g id="text_21">
     <!-- e = 0, alt = 20000 km -->
     <g transform="translate(89.75 230.162187) scale(0.1 -0.1)">
      <use xlink:href="#DejaVuSerif-65"/>
      <use xlink:href="#DejaVuSerif-20" transform="translate(59.179688 0)"/>
      <use xlink:href="#DejaVuSerif-3d" transform="translate(90.966797 0)"/>
      <use xlink:href="#DejaVuSerif-20" transform="translate(174.755859 0)"/>
      <use xlink:href="#DejaVuSerif-30" transform="translate(206.542969 0)"/>
      <use xlink:href="#DejaVuSerif-2c" transform="translate(270.166016 0)"/>
      <use xlink:href="#DejaVuSerif-20" transform="translate(301.953125 0)"/>
      <use xlink:href="#DejaVuSerif-61" transform="translate(333.740234 0)"/>
      <use xlink:href="#DejaVuSerif-6c" transform="translate(393.359375 0)"/>
      <use xlink:href="#DejaVuSerif-74" transform="translate(425.341797 0)"/>
      <use xlink:href="#DejaVuSerif-20" transform="translate(465.527344 0)"/>
      <use xlink:href="#DejaVuSerif-3d" transform="translate(497.314453 0)"/>
      <use xlink:href="#DejaVuSerif-20" transform="translate(581.103516 0)"/>
      <use xlink:href="#DejaVuSerif-32" transform="translate(612.890625 0)"/>
      <use xlink:href="#DejaVuSerif-30" transform="translate(676.513672 0)"/>
      <use xlink:href="#DejaVuSerif-30" transform="translate(740.136719 0)"/>
      <use xlink:href="#DejaVuSerif-30" transform="translate(803.759766 0)"/>
      <use xlink:href="#DejaVuSerif-30" transform="translate(867.382812 0)"/>
      <use xlink:href="#DejaVuSerif-20" transform="translate(931.005859 0)"/>
      <use xlink:href="#DejaVuSerif-6b" transform="translate(962.792969 0)"/>
      <use xlink:href="#DejaVuSerif-6d" transform="translate(1023.388672 0)"/>
     </g>
    </g>
    <g id="line2d_26">
     <path d="M 61.75 241.340312 
L 71.75 241.340312 
L 81.75 241.340312 
" style="fill: none; stroke: #c0c0c0; stroke-width: 1.5; stroke-linecap: square"/>
    </g>
    <g id="text_22">
     <!-- e = 0, alt = 30000 km -->
     <g transform="translate(89.75 244.840312) scale(0.1 -0.1)">
      <use xlink:href="#DejaVuSerif-65"/>
      <use xlink:href="#DejaVuSerif-20" transform="translate(59.179688 0)"/>
      <use xlink:href="#DejaVuSerif-3d" transform="translate(90.966797 0)"/>
      <use xlink:href="#DejaVuSerif-20" transform="translate(174.755859 0)"/>
      <use xlink:href="#DejaVuSerif-30" transform="translate(206.542969 0)"/>
      <use xlink:href="#DejaVuSerif-2c" transform="translate(270.166016 0)"/>
      <use xlink:href="#DejaVuSerif-20" transform="translate(301.953125 0)"/>
      <use xlink:href="#DejaVuSerif-61" transform="translate(333.740234 0)"/>
      <use xlink:href="#DejaVuSerif-6c" transform="translate(393.359375 0)"/>
      <use xlink:href="#DejaVuSerif-74" transform="translate(425.341797 0)"/>
      <use xlink:href="#DejaVuSerif-20" transform="translate(465.527344 0)"/>
      <use xlink:href="#DejaVuSerif-3d" transform="translate(497.314453 0)"/>
      <use xlink:href="#DejaVuSerif-20" transform="translate(581.103516 0)"/>
      <use xlink:href="#DejaVuSerif-33" transform="translate(612.890625 0)"/>
      <use xlink:href="#DejaVuSerif-30" transform="translate(676.513672 0)"/>
      <use xlink:href="#DejaVuSerif-30" transform="translate(740.136719 0)"/>
      <use xlink:href="#DejaVuSerif-30" transform="translate(803.759766 0)"/>
      <use xlink:href="#DejaVuSerif-30" transform="translate(867.382812 0)"/>
      <use xlink:href="#DejaVuSerif-20" transform="translate(931.005859 0)"/>
      <use xlink:href="#DejaVuSerif-6b" transform="translate(962.792969 0)"/>
      <use xlink:href="#DejaVuSerif-6d" transform="translate(1023.388672 0)"/>
     </g>
    </g>
   </g>
  </g>
  <g id="axes_2">
   <g id="patch_8">
    <path d="M 52.75 528.92 
L 682.125 528.92 
L 682.125 306.96 
L 52.75 306.96 
z
" style="fill: #ffffff"/>
   </g>
   <g id="matplotlib.axis_3">
    <g id="xtick_12">
     <g id="line2d_27">
      <g>
       <use xlink:href="#m214510d597" x="81.357955" y="528.92" style="stroke: #000000; stroke-width: 0.8"/>
      </g>
     </g>
     <g id="text_23">
      <!-- 0 -->
      <g transform="translate(78.176705 543.518438) scale(0.1 -0.1)">
       <use xlink:href="#DejaVuSerif-30"/>
      </g>
     </g>
    </g>
    <g id="xtick_13">
     <g id="line2d_28">
      <g>
       <use xlink:href="#m214510d597" x="138.645473" y="528.92" style="stroke: #000000; stroke-width: 0.8"/>
      </g>
     </g>
     <g id="text_24">
      <!-- 0.1 -->
      <g transform="translate(130.693911 543.518438) scale(0.1 -0.1)">
       <use xlink:href="#DejaVuSerif-30"/>
       <use xlink:href="#DejaVuSerif-2e" transform="translate(63.623047 0)"/>
       <use xlink:href="#DejaVuSerif-31" transform="translate(95.410156 0)"/>
      </g>
     </g>
    </g>
    <g id="xtick_14">
     <g id="line2d_29">
      <g>
       <use xlink:href="#m214510d597" x="195.932992" y="528.92" style="stroke: #000000; stroke-width: 0.8"/>
      </g>
     </g>
     <g id="text_25">
      <!-- 0.2 -->
      <g transform="translate(187.981429 543.518438) scale(0.1 -0.1)">
       <use xlink:href="#DejaVuSerif-30"/>
       <use xlink:href="#DejaVuSerif-2e" transform="translate(63.623047 0)"/>
       <use xlink:href="#DejaVuSerif-32" transform="translate(95.410156 0)"/>
      </g>
     </g>
    </g>
    <g id="xtick_15">
     <g id="line2d_30">
      <g>
       <use xlink:href="#m214510d597" x="253.22051" y="528.92" style="stroke: #000000; stroke-width: 0.8"/>
      </g>
     </g>
     <g id="text_26">
      <!-- 0.3 -->
      <g transform="translate(245.268948 543.518438) scale(0.1 -0.1)">
       <use xlink:href="#DejaVuSerif-30"/>
       <use xlink:href="#DejaVuSerif-2e" transform="translate(63.623047 0)"/>
       <use xlink:href="#DejaVuSerif-33" transform="translate(95.410156 0)"/>
      </g>
     </g>
    </g>
    <g id="xtick_16">
     <g id="line2d_31">
      <g>
       <use xlink:href="#m214510d597" x="310.508029" y="528.92" style="stroke: #000000; stroke-width: 0.8"/>
      </g>
     </g>
     <g id="text_27">
      <!-- 0.4 -->
      <g transform="translate(302.556466 543.518438) scale(0.1 -0.1)">
       <use xlink:href="#DejaVuSerif-30"/>
       <use xlink:href="#DejaVuSerif-2e" transform="translate(63.623047 0)"/>
       <use xlink:href="#DejaVuSerif-34" transform="translate(95.410156 0)"/>
      </g>
     </g>
    </g>
    <g id="xtick_17">
     <g id="line2d_32">
      <g>
       <use xlink:href="#m214510d597" x="367.795547" y="528.92" style="stroke: #000000; stroke-width: 0.8"/>
      </g>
     </g>
     <g id="text_28">
      <!-- 0.5 -->
      <g transform="translate(359.843984 543.518438) scale(0.1 -0.1)">
       <use xlink:href="#DejaVuSerif-30"/>
       <use xlink:href="#DejaVuSerif-2e" transform="translate(63.623047 0)"/>
       <use xlink:href="#DejaVuSerif-35" transform="translate(95.410156 0)"/>
      </g>
     </g>
    </g>
    <g id="xtick_18">
     <g id="line2d_33">
      <g>
       <use xlink:href="#m214510d597" x="425.083065" y="528.92" style="stroke: #000000; stroke-width: 0.8"/>
      </g>
     </g>
     <g id="text_29">
      <!-- 0.6 -->
      <g transform="translate(417.131503 543.518438) scale(0.1 -0.1)">
       <use xlink:href="#DejaVuSerif-30"/>
       <use xlink:href="#DejaVuSerif-2e" transform="translate(63.623047 0)"/>
       <use xlink:href="#DejaVuSerif-36" transform="translate(95.410156 0)"/>
      </g>
     </g>
    </g>
    <g id="xtick_19">
     <g id="line2d_34">
      <g>
       <use xlink:href="#m214510d597" x="482.370584" y="528.92" style="stroke: #000000; stroke-width: 0.8"/>
      </g>
     </g>
     <g id="text_30">
      <!-- 0.7 -->
      <g transform="translate(474.419021 543.518438) scale(0.1 -0.1)">
       <use xlink:href="#DejaVuSerif-30"/>
       <use xlink:href="#DejaVuSerif-2e" transform="translate(63.623047 0)"/>
       <use xlink:href="#DejaVuSerif-37" transform="translate(95.410156 0)"/>
      </g>
     </g>
    </g>
    <g id="xtick_20">
     <g id="line2d_35">
      <g>
       <use xlink:href="#m214510d597" x="539.658102" y="528.92" style="stroke: #000000; stroke-width: 0.8"/>
      </g>
     </g>
     <g id="text_31">
      <!-- 0.8 -->
      <g transform="translate(531.70654 543.518438) scale(0.1 -0.1)">
       <use xlink:href="#DejaVuSerif-30"/>
       <use xlink:href="#DejaVuSerif-2e" transform="translate(63.623047 0)"/>
       <use xlink:href="#DejaVuSerif-38" transform="translate(95.410156 0)"/>
      </g>
     </g>
    </g>
    <g id="xtick_21">
     <g id="line2d_36">
      <g>
       <use xlink:href="#m214510d597" x="596.945621" y="528.92" style="stroke: #000000; stroke-width: 0.8"/>
      </g>
     </g>
     <g id="text_32">
      <!-- 0.9 -->
      <g transform="translate(588.994058 543.518438) scale(0.1 -0.1)">
       <use xlink:href="#DejaVuSerif-30"/>
       <use xlink:href="#DejaVuSerif-2e" transform="translate(63.623047 0)"/>
       <use xlink:href="#DejaVuSerif-39" transform="translate(95.410156 0)"/>
      </g>
     </g>
    </g>
    <g id="xtick_22">
     <g id="line2d_37">
      <g>
       <use xlink:href="#m214510d597" x="654.233139" y="528.92" style="stroke: #000000; stroke-width: 0.8"/>
      </g>
     </g>
     <g id="text_33">
      <!-- 1.0 -->
      <g transform="translate(646.281577 543.518438) scale(0.1 -0.1)">
       <use xlink:href="#DejaVuSerif-31"/>
       <use xlink:href="#DejaVuSerif-2e" transform="translate(63.623047 0)"/>
       <use xlink:href="#DejaVuSerif-30" transform="translate(95.410156 0)"/>
      </g>
     </g>
    </g>
    <g id="text_34">
     <!-- Number of Orbits -->
     <g transform="translate(295.77375 561.755625) scale(0.16 -0.16)">
      <defs>
       <path id="DejaVuSerif-4e" d="M 313 0 
L 313 331 
L 941 331 
L 941 4331 
L 313 4331 
L 313 4666 
L 1509 4666 
L 4306 984 
L 4306 4331 
L 3681 4331 
L 3681 4666 
L 5319 4666 
L 5319 4331 
L 4691 4331 
L 4691 -91 
L 4313 -91 
L 1325 3841 
L 1325 331 
L 1953 331 
L 1953 0 
L 313 0 
z
" transform="scale(0.015625)"/>
       <path id="DejaVuSerif-75" d="M 2266 3322 
L 3341 3322 
L 3341 331 
L 3884 331 
L 3884 0 
L 2766 0 
L 2766 588 
Q 2606 256 2353 82 
Q 2100 -91 1766 -91 
Q 1213 -91 952 223 
Q 691 538 691 1209 
L 691 2988 
L 172 2988 
L 172 3322 
L 1269 3322 
L 1269 1388 
Q 1269 781 1417 556 
Q 1566 331 1947 331 
Q 2347 331 2556 625 
Q 2766 919 2766 1478 
L 2766 2988 
L 2266 2988 
L 2266 3322 
z
" transform="scale(0.015625)"/>
       <path id="DejaVuSerif-62" d="M 738 331 
L 738 4531 
L 184 4531 
L 184 4863 
L 1313 4863 
L 1313 2803 
Q 1481 3116 1742 3264 
Q 2003 3413 2388 3413 
Q 3000 3413 3387 2928 
Q 3775 2444 3775 1663 
Q 3775 881 3387 395 
Q 3000 -91 2388 -91 
Q 2003 -91 1742 57 
Q 1481 206 1313 519 
L 1313 0 
L 184 0 
L 184 331 
L 738 331 
z
M 1313 1497 
Q 1313 897 1542 583 
Q 1772 269 2209 269 
Q 2650 269 2876 622 
Q 3103 975 3103 1663 
Q 3103 2353 2876 2703 
Q 2650 3053 2209 3053 
Q 1772 3053 1542 2737 
Q 1313 2422 1313 1825 
L 1313 1497 
z
" transform="scale(0.015625)"/>
       <path id="DejaVuSerif-66" d="M 2753 4078 
L 2450 4078 
Q 2447 4313 2317 4434 
Q 2188 4556 1941 4556 
Q 1619 4556 1487 4379 
Q 1356 4203 1356 3750 
L 1356 3322 
L 2284 3322 
L 2284 2988 
L 1356 2988 
L 1356 331 
L 2094 331 
L 2094 0 
L 231 0 
L 231 331 
L 781 331 
L 781 2988 
L 231 2988 
L 231 3322 
L 781 3322 
L 781 3738 
Q 781 4294 1070 4578 
Q 1359 4863 1919 4863 
Q 2128 4863 2337 4825 
Q 2547 4788 2753 4709 
L 2753 4078 
z
" transform="scale(0.015625)"/>
       <path id="DejaVuSerif-4f" d="M 2625 244 
Q 3391 244 3781 770 
Q 4172 1297 4172 2328 
Q 4172 3363 3781 3889 
Q 3391 4416 2625 4416 
Q 1856 4416 1465 3889 
Q 1075 3363 1075 2328 
Q 1075 1297 1465 770 
Q 1856 244 2625 244 
z
M 2625 -91 
Q 2150 -91 1751 65 
Q 1353 222 1050 525 
Q 700 875 529 1319 
Q 359 1763 359 2328 
Q 359 2894 529 3339 
Q 700 3784 1050 4134 
Q 1356 4441 1750 4595 
Q 2144 4750 2625 4750 
Q 3641 4750 4266 4084 
Q 4891 3419 4891 2328 
Q 4891 1769 4719 1320 
Q 4547 872 4197 525 
Q 3891 219 3497 64 
Q 3103 -91 2625 -91 
z
" transform="scale(0.015625)"/>
       <path id="DejaVuSerif-73" d="M 359 184 
L 359 959 
L 691 959 
Q 703 588 923 403 
Q 1144 219 1575 219 
Q 1963 219 2166 364 
Q 2369 509 2369 788 
Q 2369 1006 2220 1140 
Q 2072 1275 1594 1428 
L 1178 1569 
Q 750 1706 558 1912 
Q 366 2119 366 2438 
Q 366 2894 700 3153 
Q 1034 3413 1625 3413 
Q 1888 3413 2178 3344 
Q 2469 3275 2778 3144 
L 2778 2419 
L 2447 2419 
Q 2434 2741 2221 2922 
Q 2009 3103 1644 3103 
Q 1281 3103 1095 2975 
Q 909 2847 909 2591 
Q 909 2381 1050 2254 
Q 1191 2128 1613 1997 
L 2069 1856 
Q 2541 1709 2748 1489 
Q 2956 1269 2956 922 
Q 2956 450 2595 179 
Q 2234 -91 1600 -91 
Q 1278 -91 972 -22 
Q 666 47 359 184 
z
" transform="scale(0.015625)"/>
      </defs>
      <use xlink:href="#DejaVuSerif-4e"/>
      <use xlink:href="#DejaVuSerif-75" transform="translate(87.5 0)"/>
      <use xlink:href="#DejaVuSerif-6d" transform="translate(151.904297 0)"/>
      <use xlink:href="#DejaVuSerif-62" transform="translate(246.728516 0)"/>
      <use xlink:href="#DejaVuSerif-65" transform="translate(310.742188 0)"/>
      <use xlink:href="#DejaVuSerif-72" transform="translate(369.921875 0)"/>
      <use xlink:href="#DejaVuSerif-20" transform="translate(417.724609 0)"/>
      <use xlink:href="#DejaVuSerif-6f" transform="translate(449.511719 0)"/>
      <use xlink:href="#DejaVuSerif-66" transform="translate(509.716797 0)"/>
      <use xlink:href="#DejaVuSerif-20" transform="translate(546.728516 0)"/>
      <use xlink:href="#DejaVuSerif-4f" transform="translate(578.515625 0)"/>
      <use xlink:href="#DejaVuSerif-72" transform="translate(660.498047 0)"/>
      <use xlink:href="#DejaVuSerif-62" transform="translate(708.300781 0)"/>
      <use xlink:href="#DejaVuSerif-69" transform="translate(772.314453 0)"/>
      <use xlink:href="#DejaVuSerif-74" transform="translate(804.296875 0)"/>
      <use xlink:href="#DejaVuSerif-73" transform="translate(844.482422 0)"/>
     </g>
    </g>
   </g>
   <g id="matplotlib.axis_4">
    <g id="ytick_6">
     <g id="line2d_38">
      <g>
       <use xlink:href="#m4da460b94f" x="52.75" y="509.938603" style="stroke: #000000; stroke-width: 0.8"/>
      </g>
     </g>
     <g id="text_35">
      <!-- −20 -->
      <g transform="translate(24.645312 513.737822) scale(0.1 -0.1)">
       <use xlink:href="#DejaVuSerif-2212"/>
       <use xlink:href="#DejaVuSerif-32" transform="translate(83.789062 0)"/>
       <use xlink:href="#DejaVuSerif-30" transform="translate(147.412109 0)"/>
      </g>
     </g>
    </g>
    <g id="ytick_7">
     <g id="line2d_39">
      <g>
       <use xlink:href="#m4da460b94f" x="52.75" y="479.608946" style="stroke: #000000; stroke-width: 0.8"/>
      </g>
     </g>
     <g id="text_36">
      <!-- −15 -->
      <g transform="translate(24.645312 483.408164) scale(0.1 -0.1)">
       <use xlink:href="#DejaVuSerif-2212"/>
       <use xlink:href="#DejaVuSerif-31" transform="translate(83.789062 0)"/>
       <use xlink:href="#DejaVuSerif-35" transform="translate(147.412109 0)"/>
      </g>
     </g>
    </g>
    <g id="ytick_8">
     <g id="line2d_40">
      <g>
       <use xlink:href="#m4da460b94f" x="52.75" y="449.279288" style="stroke: #000000; stroke-width: 0.8"/>
      </g>
     </g>
     <g id="text_37">
      <!-- −10 -->
      <g transform="translate(24.645312 453.078507) scale(0.1 -0.1)">
       <use xlink:href="#DejaVuSerif-2212"/>
       <use xlink:href="#DejaVuSerif-31" transform="translate(83.789062 0)"/>
       <use xlink:href="#DejaVuSerif-30" transform="translate(147.412109 0)"/>
      </g>
     </g>
    </g>
    <g id="ytick_9">
     <g id="line2d_41">
      <g>
       <use xlink:href="#m4da460b94f" x="52.75" y="418.949631" style="stroke: #000000; stroke-width: 0.8"/>
      </g>
     </g>
     <g id="text_38">
      <!-- −5 -->
      <g transform="translate(31.007812 422.74885) scale(0.1 -0.1)">
       <use xlink:href="#DejaVuSerif-2212"/>
       <use xlink:href="#DejaVuSerif-35" transform="translate(83.789062 0)"/>
      </g>
     </g>
    </g>
    <g id="ytick_10">
     <g id="line2d_42">
      <g>
       <use xlink:href="#m4da460b94f" x="52.75" y="388.619974" style="stroke: #000000; stroke-width: 0.8"/>
      </g>
     </g>
     <g id="text_39">
      <!-- 0 -->
      <g transform="translate(39.3875 392.419192) scale(0.1 -0.1)">
       <use xlink:href="#DejaVuSerif-30"/>
      </g>
     </g>
    </g>
    <g id="ytick_11">
     <g id="line2d_43">
      <g>
       <use xlink:href="#m4da460b94f" x="52.75" y="358.290316" style="stroke: #000000; stroke-width: 0.8"/>
      </g>
     </g>
     <g id="text_40">
      <!-- 5 -->
      <g transform="translate(39.3875 362.089535) scale(0.1 -0.1)">
       <use xlink:href="#DejaVuSerif-35"/>
      </g>
     </g>
    </g>
    <g id="ytick_12">
     <g id="line2d_44">
      <g>
       <use xlink:href="#m4da460b94f" x="52.75" y="327.960659" style="stroke: #000000; stroke-width: 0.8"/>
      </g>
     </g>
     <g id="text_41">
      <!-- 10 -->
      <g transform="translate(33.025 331.759878) scale(0.1 -0.1)">
       <use xlink:href="#DejaVuSerif-31"/>
       <use xlink:href="#DejaVuSerif-30" transform="translate(63.623047 0)"/>
      </g>
     </g>
    </g>
    <g id="text_42">
     <!-- Error in Y [km] -->
     <g transform="translate(17.317812 479.36375) rotate(-90) scale(0.16 -0.16)">
      <defs>
       <path id="DejaVuSerif-59" d="M 1209 0 
L 1209 331 
L 1806 331 
L 1806 2009 
L 366 4331 
L -72 4331 
L -72 4666 
L 1663 4666 
L 1663 4331 
L 1119 4331 
L 2284 2444 
L 3450 4331 
L 2925 4331 
L 2925 4666 
L 4281 4666 
L 4281 4331 
L 3841 4331 
L 2438 2069 
L 2438 331 
L 3034 331 
L 3034 0 
L 1209 0 
z
" transform="scale(0.015625)"/>
      </defs>
      <use xlink:href="#DejaVuSerif-45"/>
      <use xlink:href="#DejaVuSerif-72" transform="translate(72.998047 0)"/>
      <use xlink:href="#DejaVuSerif-72" transform="translate(120.800781 0)"/>
      <use xlink:href="#DejaVuSerif-6f" transform="translate(168.603516 0)"/>
      <use xlink:href="#DejaVuSerif-72" transform="translate(228.808594 0)"/>
      <use xlink:href="#DejaVuSerif-20" transform="translate(276.611328 0)"/>
      <use xlink:href="#DejaVuSerif-69" transform="translate(308.398438 0)"/>
      <use xlink:href="#DejaVuSerif-6e" transform="translate(340.380859 0)"/>
      <use xlink:href="#DejaVuSerif-20" transform="translate(404.785156 0)"/>
      <use xlink:href="#DejaVuSerif-59" transform="translate(436.572266 0)"/>
      <use xlink:href="#DejaVuSerif-20" transform="translate(502.587891 0)"/>
      <use xlink:href="#DejaVuSerif-5b" transform="translate(534.375 0)"/>
      <use xlink:href="#DejaVuSerif-6b" transform="translate(573.388672 0)"/>
      <use xlink:href="#DejaVuSerif-6d" transform="translate(633.984375 0)"/>
      <use xlink:href="#DejaVuSerif-5d" transform="translate(728.808594 0)"/>
     </g>
    </g>
   </g>
   <g id="line2d_45">
    <path d="M 81.357955 388.619974 
L 104.272962 391.98467 
L 132.200627 395.136111 
L 140.793755 395.610012 
L 154.399541 395.965438 
L 167.289232 395.870657 
L 175.88236 395.491537 
L 188.772052 394.543735 
L 202.377837 393.122032 
L 211.687059 391.368599 
L 215.267529 390.799918 
L 228.157221 388.146073 
L 234.602067 386.53481 
L 239.614724 385.444838 
L 251.072228 382.317092 
L 286.876927 370.374789 
L 317.668968 359.261813 
L 332.706942 354.392482 
L 344.88054 350.86192 
L 352.757573 348.87746 
L 360.634607 347.153645 
L 367.079453 345.98 
L 373.524299 345.018129 
L 379.253051 344.363554 
L 385.697897 343.824492 
L 391.426648 343.587541 
L 397.1554 343.599389 
L 402.168058 343.777101 
L 406.464622 344.085137 
L 413.625562 344.902616 
L 418.63822 345.660857 
L 423.650878 346.584964 
L 427.231347 347.390596 
L 433.676193 348.978164 
L 440.121039 350.778987 
L 445.849791 352.579811 
L 450.862449 354.333244 
L 457.307295 356.773834 
L 467.33261 361.204807 
L 472.345268 363.621701 
L 489.531524 372.839074 
L 500.989027 379.758027 
L 506.001685 382.980553 
L 508.149967 384.354866 
L 512.446531 387.293051 
L 519.607471 392.411181 
L 523.904035 395.349366 
L 537.509821 405.348675 
L 539.658102 406.959938 
L 541.806384 408.476421 
L 549.683418 414.329097 
L 557.560452 420.205468 
L 586.920305 441.459924 
L 595.513433 447.3126 
L 601.242185 451.009027 
L 612.699689 457.714724 
L 620.576722 461.778425 
L 628.453756 465.463004 
L 634.182508 467.832508 
L 639.195166 469.686646 
L 643.49173 471.090577 
L 647.788294 472.316796 
L 652.084857 473.36234 
L 653.517045 473.669264 
L 653.517045 473.669264 
" clip-path="url(#pdc84577558)" style="fill: none; stroke: #ff0000; stroke-width: 1.5; stroke-linecap: square"/>
   </g>
   <g id="line2d_46">
    <path d="M 81.357955 388.619974 
L 98.54421 391.960975 
L 110.001714 393.939511 
L 122.891405 395.752182 
L 139.361567 397.29236 
L 142.942037 397.43453 
L 150.102977 397.576701 
L 159.412198 397.48192 
L 169.437514 397.05541 
L 178.746736 396.344558 
L 185.907676 395.301976 
L 188.772052 394.828075 
L 190.920334 394.591125 
L 197.365179 393.643323 
L 206.674401 391.70033 
L 210.970965 390.657748 
L 215.267529 389.709946 
L 224.576751 387.150881 
L 238.182536 382.554042 
L 244.627382 380.089758 
L 247.491758 379.047176 
L 254.652698 376.10899 
L 259.665356 373.881656 
L 263.96192 372.080832 
L 266.110202 371.180421 
L 271.12286 369.095257 
L 324.113814 344.665666 
L 331.274754 341.703785 
L 339.151788 338.682667 
L 345.596634 336.431638 
L 352.757573 334.168761 
L 359.202419 332.406442 
L 364.215077 331.233537 
L 369.227735 330.232421 
L 374.956487 329.314238 
L 379.253051 328.801833 
L 384.981803 328.369399 
L 389.278366 328.233152 
L 395.723212 328.327932 
L 401.451964 328.7189 
L 406.464622 329.311277 
L 411.47728 330.140603 
L 417.922126 331.514916 
L 424.366971 333.292044 
L 435.108381 336.941081 
L 438.688851 338.339089 
L 442.269321 339.855572 
L 451.578543 344.286545 
L 455.159013 346.182148 
L 460.887765 349.52315 
L 465.184328 352.129605 
L 466.616516 353.077407 
L 469.480892 354.87823 
L 474.49355 357.958586 
L 476.641832 359.427679 
L 478.790114 360.944161 
L 485.23496 365.73056 
L 493.828088 372.649514 
L 500.272933 378.051984 
L 502.421215 379.852807 
L 506.001685 383.027943 
L 508.866061 385.634398 
L 515.310907 391.74772 
L 519.607471 395.870657 
L 525.336223 401.320518 
L 556.128264 432.029296 
L 559.708734 435.702028 
L 579.759365 455.48739 
L 591.932963 466.624061 
L 598.377809 472.239787 
L 604.822655 477.429002 
L 609.119219 480.746308 
L 616.280158 485.828895 
L 621.292816 489.039574 
L 626.305474 492.013302 
L 631.318132 494.714537 
L 637.762978 497.794893 
L 642.059542 499.577945 
L 645.640012 500.884134 
L 649.936576 502.228828 
L 653.517045 503.165523 
L 653.517045 503.165523 
" clip-path="url(#pdc84577558)" style="fill: none; stroke: #00bfff; stroke-width: 1.5; stroke-linecap: square"/>
   </g>
   <g id="line2d_47">
    <path d="M 81.357955 388.619974 
L 99.976398 391.179039 
L 105.70515 391.830652 
L 114.298278 392.719216 
L 123.607499 393.548543 
L 141.509849 394.638515 
L 159.412198 394.543735 
L 169.437514 394.117224 
L 172.30189 394.022444 
L 175.166266 393.927664 
L 180.895018 393.453763 
L 185.191582 392.979862 
L 195.216898 392.221621 
L 205.958307 390.705138 
L 210.254871 389.946896 
L 215.983623 389.093875 
L 228.157221 386.5822 
L 235.31816 384.781376 
L 238.182536 384.117915 
L 252.504416 380.231928 
L 257.517074 378.668055 
L 266.110202 376.29855 
L 268.258484 375.682479 
L 271.12286 374.829458 
L 281.148175 371.606932 
L 289.741303 368.953087 
L 323.39772 357.911196 
L 337.7196 353.740868 
L 347.028822 351.383211 
L 354.905855 349.66532 
L 362.066795 348.353207 
L 368.511641 347.378748 
L 374.956487 346.620507 
L 380.685239 346.158453 
L 388.562272 345.803028 
L 397.1554 345.755638 
L 403.600246 346.075521 
L 410.045092 346.703439 
L 417.206032 347.746021 
L 421.502596 348.551653 
L 436.540569 352.10591 
L 447.998073 355.612776 
L 453.010731 357.36621 
L 458.739483 359.759409 
L 472.345268 365.967511 
L 476.641832 367.768334 
L 478.790114 368.810916 
L 480.938396 369.900888 
L 490.247618 374.924238 
L 499.55684 380.374098 
L 501.705121 381.60624 
L 508.149967 385.539618 
L 518.175283 392.07945 
L 520.323565 393.453763 
L 531.064975 400.657056 
L 539.658102 406.817768 
L 548.25123 412.599359 
L 559.708734 420.845235 
L 569.73405 427.598322 
L 584.772023 437.929362 
L 596.229527 445.393301 
L 601.242185 448.426267 
L 613.415783 455.179355 
L 620.576722 458.626984 
L 627.021568 461.411151 
L 633.466414 463.851741 
L 638.479072 465.575555 
L 644.207824 467.275675 
L 649.220482 468.519665 
L 653.517045 469.396752 
L 653.517045 469.396752 
" clip-path="url(#pdc84577558)" style="fill: none; stroke: #ffa500; stroke-width: 1.5; stroke-linecap: square"/>
   </g>
   <g id="line2d_48">
    <path d="M 81.357955 388.619974 
L 100.692492 389.25974 
L 120.02703 389.472995 
L 135.065003 389.567776 
L 138.645473 389.591471 
L 150.819071 389.49669 
L 161.56048 389.046485 
L 165.14095 388.904314 
L 172.30189 388.809534 
L 177.314548 388.572584 
L 179.46283 388.477803 
L 185.191582 388.193463 
L 200.229555 388.098683 
L 205.242213 387.861732 
L 207.390495 387.766952 
L 209.538777 387.719562 
L 216.699717 387.624782 
L 220.996281 387.435221 
L 223.860657 387.340441 
L 236.034254 386.62959 
L 241.046912 386.53481 
L 246.05957 386.297859 
L 248.923946 386.203079 
L 259.665356 385.397448 
L 261.097544 385.255277 
L 263.245826 385.160497 
L 270.406766 384.781376 
L 273.271141 384.686596 
L 284.012551 383.880965 
L 288.309115 383.407064 
L 291.889585 383.075333 
L 294.753961 382.767298 
L 303.347089 382.103836 
L 314.088498 381.13234 
L 321.249438 380.563658 
L 326.262096 380.160843 
L 334.855224 379.485534 
L 344.88054 378.762835 
L 360.634607 378.081603 
L 374.240393 377.7943 
L 387.846178 377.779491 
L 402.168058 378.123069 
L 410.761186 378.50219 
L 432.244005 379.829112 
L 436.540569 380.066063 
L 442.985415 380.611049 
L 449.430261 381.13234 
L 455.159013 381.795801 
L 458.739483 382.127531 
L 463.036046 382.601432 
L 472.345268 383.312284 
L 474.49355 383.501844 
L 497.408558 384.923547 
L 499.55684 385.018327 
L 512.446531 385.966129 
L 516.027001 386.345249 
L 533.213257 387.577392 
L 536.793727 387.956512 
L 538.942008 388.193463 
L 541.09029 388.383023 
L 543.238572 388.477803 
L 552.547794 389.188655 
L 557.560452 389.757336 
L 576.894989 391.131648 
L 581.191553 391.605549 
L 596.945621 393.264202 
L 602.674373 393.927664 
L 620.576722 395.598164 
L 652.800951 398.156489 
L 653.517045 398.204249 
L 653.517045 398.204249 
" clip-path="url(#pdc84577558)" style="fill: none; stroke: #ffc0cb; stroke-width: 1.5; stroke-linecap: square"/>
   </g>
   <g id="line2d_49">
    <path d="M 81.357955 388.619974 
L 102.840774 393.358983 
L 111.433902 394.982093 
L 121.459217 396.391948 
L 125.755781 396.913239 
L 132.200627 397.671481 
L 146.522507 398.998403 
L 157.263917 398.903623 
L 167.289232 398.334942 
L 169.437514 398.240162 
L 171.585796 398.050602 
L 175.166266 397.718871 
L 183.0433 396.581509 
L 185.191582 396.249778 
L 188.772052 395.681097 
L 203.093931 392.742912 
L 216.699717 389.046485 
L 228.157221 385.160497 
L 235.31816 382.411872 
L 237.466442 381.60624 
L 244.627382 378.668055 
L 258.949262 371.938662 
L 263.245826 369.758718 
L 267.54239 367.673554 
L 285.444739 358.100756 
L 289.741303 355.636471 
L 293.321773 353.646088 
L 301.914901 348.622738 
L 307.643653 345.471297 
L 318.385062 339.547536 
L 326.262096 335.471988 
L 342.732258 327.960659 
L 349.893197 325.117254 
L 354.189761 323.577076 
L 359.202419 321.983584 
L 364.215077 320.604829 
L 369.943829 319.282349 
L 374.956487 318.346395 
L 379.253051 317.754018 
L 384.265709 317.274194 
L 387.846178 317.084633 
L 393.57493 317.084633 
L 397.1554 317.238651 
L 401.451964 317.62962 
L 407.180716 318.458946 
L 412.909468 319.691088 
L 415.773844 320.425635 
L 426.515253 323.719246 
L 429.379629 324.856608 
L 435.824475 327.534148 
L 440.837133 329.951043 
L 445.849791 332.699668 
L 452.294637 336.633045 
L 455.875107 339.09733 
L 458.739483 341.087714 
L 462.319952 343.551999 
L 467.33261 347.295816 
L 472.345268 351.371363 
L 485.23496 362.602815 
L 495.260276 372.033442 
L 508.149967 384.970937 
L 513.878719 391.179039 
L 517.459189 395.065026 
L 524.620129 402.78961 
L 537.509821 417.433148 
L 541.09029 421.556086 
L 553.979982 436.199624 
L 558.276546 441.175583 
L 566.15358 449.89536 
L 569.017956 453.070496 
L 573.31452 457.762114 
L 589.784681 475.083192 
L 600.526091 485.603792 
L 605.538749 490.129546 
L 611.983595 495.532016 
L 616.280158 498.944102 
L 622.00891 503.185515 
L 626.305474 506.064463 
L 630.602038 508.730156 
L 634.182508 510.779777 
L 639.91126 513.706115 
L 643.49173 515.305531 
L 647.788294 516.999726 
L 651.368764 518.20225 
L 653.517045 518.830909 
L 653.517045 518.830909 
" clip-path="url(#pdc84577558)" style="fill: none; stroke: #c0c0c0; stroke-width: 1.5; stroke-linecap: square"/>
   </g>
   <g id="patch_9">
    <path d="M 52.75 528.92 
L 52.75 306.96 
" style="fill: none; stroke: #000000; stroke-width: 0.8; stroke-linejoin: miter; stroke-linecap: square"/>
   </g>
   <g id="patch_10">
    <path d="M 682.125 528.92 
L 682.125 306.96 
" style="fill: none; stroke: #000000; stroke-width: 0.8; stroke-linejoin: miter; stroke-linecap: square"/>
   </g>
   <g id="patch_11">
    <path d="M 52.75 528.92 
L 682.125 528.92 
" style="fill: none; stroke: #000000; stroke-width: 0.8; stroke-linejoin: miter; stroke-linecap: square"/>
   </g>
   <g id="patch_12">
    <path d="M 52.75 306.96 
L 682.125 306.96 
" style="fill: none; stroke: #000000; stroke-width: 0.8; stroke-linejoin: miter; stroke-linecap: square"/>
   </g>
  </g>
  <g id="text_43">
   <!-- Global Error in Position States - Jupiter -->
   <g transform="translate(180.413438 25.197187) scale(0.18 -0.18)">
    <defs>
     <path id="DejaVuSerif-47" d="M 4097 3272 
Q 3988 3856 3641 4136 
Q 3294 4416 2675 4416 
Q 1869 4416 1472 3897 
Q 1075 3378 1075 2328 
Q 1075 1300 1484 772 
Q 1894 244 2688 244 
Q 3041 244 3362 331 
Q 3684 419 3975 594 
L 3975 1797 
L 3097 1797 
L 3097 2131 
L 4609 2131 
L 4609 391 
Q 4194 150 3714 29 
Q 3234 -91 2688 -91 
Q 1631 -91 995 570 
Q 359 1231 359 2328 
Q 359 3434 996 4092 
Q 1634 4750 2713 4750 
Q 3113 4750 3539 4658 
Q 3966 4566 4447 4378 
L 4447 3272 
L 4097 3272 
z
" transform="scale(0.015625)"/>
     <path id="DejaVuSerif-50" d="M 1581 2375 
L 2406 2375 
Q 2872 2375 3115 2626 
Q 3359 2878 3359 3353 
Q 3359 3831 3115 4081 
Q 2872 4331 2406 4331 
L 1581 4331 
L 1581 2375 
z
M 353 0 
L 353 331 
L 947 331 
L 947 4331 
L 353 4331 
L 353 4666 
L 2559 4666 
Q 3259 4666 3668 4311 
Q 4078 3956 4078 3353 
Q 4078 2753 3668 2397 
Q 3259 2041 2559 2041 
L 1581 2041 
L 1581 331 
L 2303 331 
L 2303 0 
L 353 0 
z
" transform="scale(0.015625)"/>
     <path id="DejaVuSerif-53" d="M 594 225 
L 594 1288 
L 953 1284 
Q 969 753 1261 498 
Q 1553 244 2150 244 
Q 2706 244 2998 464 
Q 3291 684 3291 1106 
Q 3291 1444 3114 1625 
Q 2938 1806 2369 1978 
L 1753 2163 
Q 1084 2366 811 2669 
Q 538 2972 538 3500 
Q 538 4094 959 4422 
Q 1381 4750 2144 4750 
Q 2469 4750 2856 4679 
Q 3244 4609 3681 4475 
L 3681 3481 
L 3328 3481 
Q 3275 3975 2998 4195 
Q 2722 4416 2156 4416 
Q 1663 4416 1405 4214 
Q 1147 4013 1147 3628 
Q 1147 3294 1340 3103 
Q 1534 2913 2163 2725 
L 2741 2553 
Q 3375 2363 3645 2067 
Q 3916 1772 3916 1275 
Q 3916 597 3481 253 
Q 3047 -91 2188 -91 
Q 1803 -91 1404 -12 
Q 1006 66 594 225 
z
" transform="scale(0.015625)"/>
     <path id="DejaVuSerif-2d" d="M 281 1959 
L 1881 1959 
L 1881 1472 
L 281 1472 
L 281 1959 
z
" transform="scale(0.015625)"/>
     <path id="DejaVuSerif-4a" d="M -538 -1119 
L -538 -384 
L -181 -384 
Q -172 -694 -34 -845 
Q 103 -997 378 -997 
Q 750 -997 897 -762 
Q 1044 -528 1044 153 
L 1044 4331 
L 319 4331 
L 319 4666 
L 2272 4666 
L 2272 4331 
L 1678 4331 
L 1678 128 
Q 1678 -644 1368 -987 
Q 1059 -1331 372 -1331 
Q 150 -1331 -79 -1278 
Q -309 -1225 -538 -1119 
z
" transform="scale(0.015625)"/>
     <path id="DejaVuSerif-70" d="M 1313 1825 
L 1313 1497 
Q 1313 897 1542 583 
Q 1772 269 2209 269 
Q 2650 269 2876 622 
Q 3103 975 3103 1663 
Q 3103 2353 2876 2703 
Q 2650 3053 2209 3053 
Q 1772 3053 1542 2737 
Q 1313 2422 1313 1825 
z
M 738 2988 
L 184 2988 
L 184 3322 
L 1313 3322 
L 1313 2803 
Q 1481 3116 1742 3264 
Q 2003 3413 2388 3413 
Q 3000 3413 3387 2928 
Q 3775 2444 3775 1663 
Q 3775 881 3387 395 
Q 3000 -91 2388 -91 
Q 2003 -91 1742 57 
Q 1481 206 1313 519 
L 1313 -997 
L 1856 -997 
L 1856 -1331 
L 184 -1331 
L 184 -997 
L 738 -997 
L 738 2988 
z
" transform="scale(0.015625)"/>
    </defs>
    <use xlink:href="#DejaVuSerif-47"/>
    <use xlink:href="#DejaVuSerif-6c" transform="translate(79.882812 0)"/>
    <use xlink:href="#DejaVuSerif-6f" transform="translate(111.865234 0)"/>
    <use xlink:href="#DejaVuSerif-62" transform="translate(172.070312 0)"/>
    <use xlink:href="#DejaVuSerif-61" transform="translate(236.083984 0)"/>
    <use xlink:href="#DejaVuSerif-6c" transform="translate(295.703125 0)"/>
    <use xlink:href="#DejaVuSerif-20" transform="translate(327.685547 0)"/>
    <use xlink:href="#DejaVuSerif-45" transform="translate(359.472656 0)"/>
    <use xlink:href="#DejaVuSerif-72" transform="translate(432.470703 0)"/>
    <use xlink:href="#DejaVuSerif-72" transform="translate(480.273438 0)"/>
    <use xlink:href="#DejaVuSerif-6f" transform="translate(528.076172 0)"/>
    <use xlink:href="#DejaVuSerif-72" transform="translate(588.28125 0)"/>
    <use xlink:href="#DejaVuSerif-20" transform="translate(636.083984 0)"/>
    <use xlink:href="#DejaVuSerif-69" transform="translate(667.871094 0)"/>
    <use xlink:href="#DejaVuSerif-6e" transform="translate(699.853516 0)"/>
    <use xlink:href="#DejaVuSerif-20" transform="translate(764.257812 0)"/>
    <use xlink:href="#DejaVuSerif-50" transform="translate(796.044922 0)"/>
    <use xlink:href="#DejaVuSerif-6f" transform="translate(859.330078 0)"/>
    <use xlink:href="#DejaVuSerif-73" transform="translate(919.535156 0)"/>
    <use xlink:href="#DejaVuSerif-69" transform="translate(970.853516 0)"/>
    <use xlink:href="#DejaVuSerif-74" transform="translate(1002.835938 0)"/>
    <use xlink:href="#DejaVuSerif-69" transform="translate(1043.021484 0)"/>
    <use xlink:href="#DejaVuSerif-6f" transform="translate(1075.003906 0)"/>
    <use xlink:href="#DejaVuSerif-6e" transform="translate(1135.208984 0)"/>
    <use xlink:href="#DejaVuSerif-20" transform="translate(1199.613281 0)"/>
    <use xlink:href="#DejaVuSerif-53" transform="translate(1231.400391 0)"/>
    <use xlink:href="#DejaVuSerif-74" transform="translate(1299.90625 0)"/>
    <use xlink:href="#DejaVuSerif-61" transform="translate(1340.091797 0)"/>
    <use xlink:href="#DejaVuSerif-74" transform="translate(1399.710938 0)"/>
    <use xlink:href="#DejaVuSerif-65" transform="translate(1439.896484 0)"/>
    <use xlink:href="#DejaVuSerif-73" transform="translate(1499.076172 0)"/>
    <use xlink:href="#DejaVuSerif-20" transform="translate(1550.394531 0)"/>
    <use xlink:href="#DejaVuSerif-2d" transform="translate(1582.181641 0)"/>
    <use xlink:href="#DejaVuSerif-20" transform="translate(1615.970703 0)"/>
    <use xlink:href="#DejaVuSerif-4a" transform="translate(1647.757812 0)"/>
    <use xlink:href="#DejaVuSerif-75" transform="translate(1687.845703 0)"/>
    <use xlink:href="#DejaVuSerif-70" transform="translate(1752.25 0)"/>
    <use xlink:href="#DejaVuSerif-69" transform="translate(1816.263672 0)"/>
    <use xlink:href="#DejaVuSerif-74" transform="translate(1848.246094 0)"/>
    <use xlink:href="#DejaVuSerif-65" transform="translate(1888.431641 0)"/>
    <use xlink:href="#DejaVuSerif-72" transform="translate(1947.611328 0)"/>
   </g>
  </g>
 </g>
 <defs>
  <clipPath id="p1c387ed8be">
   <rect x="52.75" y="33.96" width="629.375" height="221.96"/>
  </clipPath>
  <clipPath id="pdc84577558">
   <rect x="52.75" y="306.96" width="629.375" height="221.96"/>
  </clipPath>
 </defs>
</svg>
