<?xml version="1.0" encoding="utf-8" standalone="no"?>
<!DOCTYPE svg PUBLIC "-//W3C//DTD SVG 1.1//EN"
  "http://www.w3.org/Graphics/SVG/1.1/DTD/svg11.dtd">
<svg xmlns:xlink="http://www.w3.org/1999/xlink" width="720pt" height="576pt" viewBox="0 0 720 576" xmlns="http://www.w3.org/2000/svg" version="1.1">
 <metadata>
  <rdf:RDF xmlns:dc="http://purl.org/dc/elements/1.1/" xmlns:cc="http://creativecommons.org/ns#" xmlns:rdf="http://www.w3.org/1999/02/22-rdf-syntax-ns#">
   <cc:Work>
    <dc:type rdf:resource="http://purl.org/dc/dcmitype/StillImage"/>
    <dc:date>2025-02-19T11:26:41.831095</dc:date>
    <dc:format>image/svg+xml</dc:format>
    <dc:creator>
     <cc:Agent>
      <dc:title>Matplotlib v3.10.0, https://matplotlib.org/</dc:title>
     </cc:Agent>
    </dc:creator>
   </cc:Work>
  </rdf:RDF>
 </metadata>
 <defs>
  <style type="text/css">*{stroke-linejoin: round; stroke-linecap: butt}</style>
 </defs>
 <g id="figure_1">
  <g id="patch_1">
   <path d="M 0 576 
L 720 576 
L 720 0 
L 0 0 
z
" style="fill: #ffffff"/>
  </g>
  <g id="axes_1">
   <g id="patch_2">
    <path d="M 52.75 255.92 
L 682.125 255.92 
L 682.125 33.96 
L 52.75 33.96 
z
" style="fill: #ffffff"/>
   </g>
   <g id="matplotlib.axis_1">
    <g id="xtick_1">
     <g id="line2d_1">
      <defs>
       <path id="mf93e91e56e" d="M 0 0 
L 0 3.5 
" style="stroke: #000000; stroke-width: 0.8"/>
      </defs>
      <g>
       <use xlink:href="#mf93e91e56e" x="81.357955" y="255.92" style="stroke: #000000; stroke-width: 0.8"/>
      </g>
     </g>
     <g id="text_1">
      <!-- 0 -->
      <g transform="translate(78.176705 270.518437) scale(0.1 -0.1)">
       <defs>
        <path id="DejaVuSerif-30" d="M 2034 219 
Q 2513 219 2750 744 
Q 2988 1269 2988 2328 
Q 2988 3391 2750 3916 
Q 2513 4441 2034 4441 
Q 1556 4441 1318 3916 
Q 1081 3391 1081 2328 
Q 1081 1269 1318 744 
Q 1556 219 2034 219 
z
M 2034 -91 
Q 1275 -91 848 546 
Q 422 1184 422 2328 
Q 422 3475 848 4112 
Q 1275 4750 2034 4750 
Q 2797 4750 3222 4112 
Q 3647 3475 3647 2328 
Q 3647 1184 3222 546 
Q 2797 -91 2034 -91 
z
" transform="scale(0.015625)"/>
       </defs>
       <use xlink:href="#DejaVuSerif-30"/>
      </g>
     </g>
    </g>
    <g id="xtick_2">
     <g id="line2d_2">
      <g>
       <use xlink:href="#mf93e91e56e" x="138.645473" y="255.92" style="stroke: #000000; stroke-width: 0.8"/>
      </g>
     </g>
     <g id="text_2">
      <!-- 0.1 -->
      <g transform="translate(130.693911 270.518437) scale(0.1 -0.1)">
       <defs>
        <path id="DejaVuSerif-2e" d="M 603 325 
Q 603 500 722 622 
Q 841 744 1019 744 
Q 1191 744 1312 622 
Q 1434 500 1434 325 
Q 1434 153 1312 31 
Q 1191 -91 1019 -91 
Q 841 -91 722 29 
Q 603 150 603 325 
z
" transform="scale(0.015625)"/>
        <path id="DejaVuSerif-31" d="M 909 0 
L 909 331 
L 1722 331 
L 1722 4213 
L 781 3603 
L 781 4013 
L 1919 4750 
L 2350 4750 
L 2350 331 
L 3163 331 
L 3163 0 
L 909 0 
z
" transform="scale(0.015625)"/>
       </defs>
       <use xlink:href="#DejaVuSerif-30"/>
       <use xlink:href="#DejaVuSerif-2e" transform="translate(63.623047 0)"/>
       <use xlink:href="#DejaVuSerif-31" transform="translate(95.410156 0)"/>
      </g>
     </g>
    </g>
    <g id="xtick_3">
     <g id="line2d_3">
      <g>
       <use xlink:href="#mf93e91e56e" x="195.932992" y="255.92" style="stroke: #000000; stroke-width: 0.8"/>
      </g>
     </g>
     <g id="text_3">
      <!-- 0.2 -->
      <g transform="translate(187.981429 270.518437) scale(0.1 -0.1)">
       <defs>
        <path id="DejaVuSerif-32" d="M 819 3553 
L 469 3553 
L 469 4384 
Q 803 4563 1142 4656 
Q 1481 4750 1806 4750 
Q 2534 4750 2956 4397 
Q 3378 4044 3378 3438 
Q 3378 2753 2422 1800 
Q 2347 1728 2309 1691 
L 1131 513 
L 3078 513 
L 3078 1088 
L 3444 1088 
L 3444 0 
L 434 0 
L 434 341 
L 1850 1753 
Q 2319 2222 2519 2614 
Q 2719 3006 2719 3438 
Q 2719 3909 2473 4175 
Q 2228 4441 1797 4441 
Q 1350 4441 1106 4219 
Q 863 3997 819 3553 
z
" transform="scale(0.015625)"/>
       </defs>
       <use xlink:href="#DejaVuSerif-30"/>
       <use xlink:href="#DejaVuSerif-2e" transform="translate(63.623047 0)"/>
       <use xlink:href="#DejaVuSerif-32" transform="translate(95.410156 0)"/>
      </g>
     </g>
    </g>
    <g id="xtick_4">
     <g id="line2d_4">
      <g>
       <use xlink:href="#mf93e91e56e" x="253.22051" y="255.92" style="stroke: #000000; stroke-width: 0.8"/>
      </g>
     </g>
     <g id="text_4">
      <!-- 0.3 -->
      <g transform="translate(245.268948 270.518437) scale(0.1 -0.1)">
       <defs>
        <path id="DejaVuSerif-33" d="M 622 4469 
Q 988 4606 1323 4678 
Q 1659 4750 1953 4750 
Q 2638 4750 3022 4454 
Q 3406 4159 3406 3634 
Q 3406 3213 3140 2930 
Q 2875 2647 2388 2547 
Q 2963 2466 3280 2130 
Q 3597 1794 3597 1259 
Q 3597 606 3158 257 
Q 2719 -91 1894 -91 
Q 1528 -91 1179 -12 
Q 831 66 488 225 
L 488 1131 
L 838 1131 
Q 869 681 1141 450 
Q 1413 219 1906 219 
Q 2384 219 2661 495 
Q 2938 772 2938 1253 
Q 2938 1803 2653 2086 
Q 2369 2369 1819 2369 
L 1522 2369 
L 1522 2688 
L 1678 2688 
Q 2225 2688 2498 2914 
Q 2772 3141 2772 3597 
Q 2772 4006 2547 4223 
Q 2322 4441 1900 4441 
Q 1478 4441 1245 4241 
Q 1013 4041 972 3647 
L 622 3647 
L 622 4469 
z
" transform="scale(0.015625)"/>
       </defs>
       <use xlink:href="#DejaVuSerif-30"/>
       <use xlink:href="#DejaVuSerif-2e" transform="translate(63.623047 0)"/>
       <use xlink:href="#DejaVuSerif-33" transform="translate(95.410156 0)"/>
      </g>
     </g>
    </g>
    <g id="xtick_5">
     <g id="line2d_5">
      <g>
       <use xlink:href="#mf93e91e56e" x="310.508029" y="255.92" style="stroke: #000000; stroke-width: 0.8"/>
      </g>
     </g>
     <g id="text_5">
      <!-- 0.4 -->
      <g transform="translate(302.556466 270.518437) scale(0.1 -0.1)">
       <defs>
        <path id="DejaVuSerif-34" d="M 2234 1581 
L 2234 4063 
L 641 1581 
L 2234 1581 
z
M 3609 0 
L 1484 0 
L 1484 331 
L 2234 331 
L 2234 1247 
L 197 1247 
L 197 1588 
L 2241 4750 
L 2859 4750 
L 2859 1581 
L 3750 1581 
L 3750 1247 
L 2859 1247 
L 2859 331 
L 3609 331 
L 3609 0 
z
" transform="scale(0.015625)"/>
       </defs>
       <use xlink:href="#DejaVuSerif-30"/>
       <use xlink:href="#DejaVuSerif-2e" transform="translate(63.623047 0)"/>
       <use xlink:href="#DejaVuSerif-34" transform="translate(95.410156 0)"/>
      </g>
     </g>
    </g>
    <g id="xtick_6">
     <g id="line2d_6">
      <g>
       <use xlink:href="#mf93e91e56e" x="367.795547" y="255.92" style="stroke: #000000; stroke-width: 0.8"/>
      </g>
     </g>
     <g id="text_6">
      <!-- 0.5 -->
      <g transform="translate(359.843984 270.518437) scale(0.1 -0.1)">
       <defs>
        <path id="DejaVuSerif-35" d="M 3219 4666 
L 3219 4153 
L 1081 4153 
L 1081 2816 
Q 1244 2928 1461 2984 
Q 1678 3041 1947 3041 
Q 2703 3041 3140 2622 
Q 3578 2203 3578 1478 
Q 3578 738 3136 323 
Q 2694 -91 1894 -91 
Q 1572 -91 1234 -12 
Q 897 66 544 225 
L 544 1131 
L 897 1131 
Q 925 688 1179 453 
Q 1434 219 1894 219 
Q 2388 219 2653 544 
Q 2919 869 2919 1478 
Q 2919 2084 2655 2407 
Q 2391 2731 1894 2731 
Q 1613 2731 1398 2631 
Q 1184 2531 1019 2322 
L 750 2322 
L 750 4666 
L 3219 4666 
z
" transform="scale(0.015625)"/>
       </defs>
       <use xlink:href="#DejaVuSerif-30"/>
       <use xlink:href="#DejaVuSerif-2e" transform="translate(63.623047 0)"/>
       <use xlink:href="#DejaVuSerif-35" transform="translate(95.410156 0)"/>
      </g>
     </g>
    </g>
    <g id="xtick_7">
     <g id="line2d_7">
      <g>
       <use xlink:href="#mf93e91e56e" x="425.083065" y="255.92" style="stroke: #000000; stroke-width: 0.8"/>
      </g>
     </g>
     <g id="text_7">
      <!-- 0.6 -->
      <g transform="translate(417.131503 270.518437) scale(0.1 -0.1)">
       <defs>
        <path id="DejaVuSerif-36" d="M 2094 219 
Q 2534 219 2771 542 
Q 3009 866 3009 1472 
Q 3009 2078 2771 2401 
Q 2534 2725 2094 2725 
Q 1647 2725 1412 2412 
Q 1178 2100 1178 1509 
Q 1178 888 1415 553 
Q 1653 219 2094 219 
z
M 1075 2569 
Q 1288 2803 1556 2918 
Q 1825 3034 2163 3034 
Q 2859 3034 3264 2615 
Q 3669 2197 3669 1472 
Q 3669 763 3233 336 
Q 2797 -91 2069 -91 
Q 1278 -91 853 498 
Q 428 1088 428 2181 
Q 428 3406 931 4078 
Q 1434 4750 2350 4750 
Q 2597 4750 2869 4703 
Q 3141 4656 3425 4563 
L 3425 3794 
L 3072 3794 
Q 3034 4109 2831 4275 
Q 2628 4441 2284 4441 
Q 1678 4441 1381 3981 
Q 1084 3522 1075 2569 
z
" transform="scale(0.015625)"/>
       </defs>
       <use xlink:href="#DejaVuSerif-30"/>
       <use xlink:href="#DejaVuSerif-2e" transform="translate(63.623047 0)"/>
       <use xlink:href="#DejaVuSerif-36" transform="translate(95.410156 0)"/>
      </g>
     </g>
    </g>
    <g id="xtick_8">
     <g id="line2d_8">
      <g>
       <use xlink:href="#mf93e91e56e" x="482.370584" y="255.92" style="stroke: #000000; stroke-width: 0.8"/>
      </g>
     </g>
     <g id="text_8">
      <!-- 0.7 -->
      <g transform="translate(474.419021 270.518437) scale(0.1 -0.1)">
       <defs>
        <path id="DejaVuSerif-37" d="M 3609 4347 
L 1784 0 
L 1319 0 
L 3059 4153 
L 903 4153 
L 903 3578 
L 538 3578 
L 538 4666 
L 3609 4666 
L 3609 4347 
z
" transform="scale(0.015625)"/>
       </defs>
       <use xlink:href="#DejaVuSerif-30"/>
       <use xlink:href="#DejaVuSerif-2e" transform="translate(63.623047 0)"/>
       <use xlink:href="#DejaVuSerif-37" transform="translate(95.410156 0)"/>
      </g>
     </g>
    </g>
    <g id="xtick_9">
     <g id="line2d_9">
      <g>
       <use xlink:href="#mf93e91e56e" x="539.658102" y="255.92" style="stroke: #000000; stroke-width: 0.8"/>
      </g>
     </g>
     <g id="text_9">
      <!-- 0.8 -->
      <g transform="translate(531.70654 270.518437) scale(0.1 -0.1)">
       <defs>
        <path id="DejaVuSerif-38" d="M 2981 1275 
Q 2981 1775 2732 2051 
Q 2484 2328 2034 2328 
Q 1584 2328 1336 2051 
Q 1088 1775 1088 1275 
Q 1088 772 1336 495 
Q 1584 219 2034 219 
Q 2484 219 2732 495 
Q 2981 772 2981 1275 
z
M 2853 3541 
Q 2853 3966 2637 4203 
Q 2422 4441 2034 4441 
Q 1650 4441 1433 4203 
Q 1216 3966 1216 3541 
Q 1216 3113 1433 2875 
Q 1650 2638 2034 2638 
Q 2422 2638 2637 2875 
Q 2853 3113 2853 3541 
z
M 2516 2484 
Q 3047 2413 3344 2092 
Q 3641 1772 3641 1275 
Q 3641 619 3225 264 
Q 2809 -91 2034 -91 
Q 1263 -91 845 264 
Q 428 619 428 1275 
Q 428 1772 725 2092 
Q 1022 2413 1556 2484 
Q 1084 2569 832 2842 
Q 581 3116 581 3541 
Q 581 4103 968 4426 
Q 1356 4750 2034 4750 
Q 2713 4750 3100 4426 
Q 3488 4103 3488 3541 
Q 3488 3116 3236 2842 
Q 2984 2569 2516 2484 
z
" transform="scale(0.015625)"/>
       </defs>
       <use xlink:href="#DejaVuSerif-30"/>
       <use xlink:href="#DejaVuSerif-2e" transform="translate(63.623047 0)"/>
       <use xlink:href="#DejaVuSerif-38" transform="translate(95.410156 0)"/>
      </g>
     </g>
    </g>
    <g id="xtick_10">
     <g id="line2d_10">
      <g>
       <use xlink:href="#mf93e91e56e" x="596.945621" y="255.92" style="stroke: #000000; stroke-width: 0.8"/>
      </g>
     </g>
     <g id="text_10">
      <!-- 0.9 -->
      <g transform="translate(588.994058 270.518437) scale(0.1 -0.1)">
       <defs>
        <path id="DejaVuSerif-39" d="M 2994 2091 
Q 2784 1856 2512 1740 
Q 2241 1625 1900 1625 
Q 1206 1625 804 2044 
Q 403 2463 403 3188 
Q 403 3897 839 4323 
Q 1275 4750 2003 4750 
Q 2794 4750 3217 4161 
Q 3641 3572 3641 2478 
Q 3641 1253 3137 581 
Q 2634 -91 1722 -91 
Q 1475 -91 1203 -44 
Q 931 3 647 97 
L 647 872 
L 997 872 
Q 1038 556 1241 387 
Q 1444 219 1784 219 
Q 2391 219 2687 676 
Q 2984 1134 2994 2091 
z
M 1978 4441 
Q 1534 4441 1298 4117 
Q 1063 3794 1063 3188 
Q 1063 2581 1298 2256 
Q 1534 1931 1978 1931 
Q 2422 1931 2658 2245 
Q 2894 2559 2894 3150 
Q 2894 3772 2656 4106 
Q 2419 4441 1978 4441 
z
" transform="scale(0.015625)"/>
       </defs>
       <use xlink:href="#DejaVuSerif-30"/>
       <use xlink:href="#DejaVuSerif-2e" transform="translate(63.623047 0)"/>
       <use xlink:href="#DejaVuSerif-39" transform="translate(95.410156 0)"/>
      </g>
     </g>
    </g>
    <g id="xtick_11">
     <g id="line2d_11">
      <g>
       <use xlink:href="#mf93e91e56e" x="654.233139" y="255.92" style="stroke: #000000; stroke-width: 0.8"/>
      </g>
     </g>
     <g id="text_11">
      <!-- 1.0 -->
      <g transform="translate(646.281577 270.518437) scale(0.1 -0.1)">
       <use xlink:href="#DejaVuSerif-31"/>
       <use xlink:href="#DejaVuSerif-2e" transform="translate(63.623047 0)"/>
       <use xlink:href="#DejaVuSerif-30" transform="translate(95.410156 0)"/>
      </g>
     </g>
    </g>
   </g>
   <g id="matplotlib.axis_2">
    <g id="ytick_1">
     <g id="line2d_12">
      <defs>
       <path id="m8d5c045a9f" d="M 0 0 
L -3.5 0 
" style="stroke: #000000; stroke-width: 0.8"/>
      </defs>
      <g>
       <use xlink:href="#m8d5c045a9f" x="52.75" y="255.205617" style="stroke: #000000; stroke-width: 0.8"/>
      </g>
     </g>
     <g id="text_12">
      <!-- −1.2 -->
      <g transform="translate(21.467187 259.004836) scale(0.1 -0.1)">
       <defs>
        <path id="DejaVuSerif-2212" d="M 678 2259 
L 4684 2259 
L 4684 1753 
L 678 1753 
L 678 2259 
z
" transform="scale(0.015625)"/>
       </defs>
       <use xlink:href="#DejaVuSerif-2212"/>
       <use xlink:href="#DejaVuSerif-31" transform="translate(83.789062 0)"/>
       <use xlink:href="#DejaVuSerif-2e" transform="translate(147.412109 0)"/>
       <use xlink:href="#DejaVuSerif-32" transform="translate(179.199219 0)"/>
      </g>
     </g>
    </g>
    <g id="ytick_2">
     <g id="line2d_13">
      <g>
       <use xlink:href="#m8d5c045a9f" x="52.75" y="229.537967" style="stroke: #000000; stroke-width: 0.8"/>
      </g>
     </g>
     <g id="text_13">
      <!-- −1.0 -->
      <g transform="translate(21.467187 233.337186) scale(0.1 -0.1)">
       <use xlink:href="#DejaVuSerif-2212"/>
       <use xlink:href="#DejaVuSerif-31" transform="translate(83.789062 0)"/>
       <use xlink:href="#DejaVuSerif-2e" transform="translate(147.412109 0)"/>
       <use xlink:href="#DejaVuSerif-30" transform="translate(179.199219 0)"/>
      </g>
     </g>
    </g>
    <g id="ytick_3">
     <g id="line2d_14">
      <g>
       <use xlink:href="#m8d5c045a9f" x="52.75" y="203.870317" style="stroke: #000000; stroke-width: 0.8"/>
      </g>
     </g>
     <g id="text_14">
      <!-- −0.8 -->
      <g transform="translate(21.467187 207.669536) scale(0.1 -0.1)">
       <use xlink:href="#DejaVuSerif-2212"/>
       <use xlink:href="#DejaVuSerif-30" transform="translate(83.789062 0)"/>
       <use xlink:href="#DejaVuSerif-2e" transform="translate(147.412109 0)"/>
       <use xlink:href="#DejaVuSerif-38" transform="translate(179.199219 0)"/>
      </g>
     </g>
    </g>
    <g id="ytick_4">
     <g id="line2d_15">
      <g>
       <use xlink:href="#m8d5c045a9f" x="52.75" y="178.202667" style="stroke: #000000; stroke-width: 0.8"/>
      </g>
     </g>
     <g id="text_15">
      <!-- −0.6 -->
      <g transform="translate(21.467187 182.001886) scale(0.1 -0.1)">
       <use xlink:href="#DejaVuSerif-2212"/>
       <use xlink:href="#DejaVuSerif-30" transform="translate(83.789062 0)"/>
       <use xlink:href="#DejaVuSerif-2e" transform="translate(147.412109 0)"/>
       <use xlink:href="#DejaVuSerif-36" transform="translate(179.199219 0)"/>
      </g>
     </g>
    </g>
    <g id="ytick_5">
     <g id="line2d_16">
      <g>
       <use xlink:href="#m8d5c045a9f" x="52.75" y="152.535018" style="stroke: #000000; stroke-width: 0.8"/>
      </g>
     </g>
     <g id="text_16">
      <!-- −0.4 -->
      <g transform="translate(21.467187 156.334236) scale(0.1 -0.1)">
       <use xlink:href="#DejaVuSerif-2212"/>
       <use xlink:href="#DejaVuSerif-30" transform="translate(83.789062 0)"/>
       <use xlink:href="#DejaVuSerif-2e" transform="translate(147.412109 0)"/>
       <use xlink:href="#DejaVuSerif-34" transform="translate(179.199219 0)"/>
      </g>
     </g>
    </g>
    <g id="ytick_6">
     <g id="line2d_17">
      <g>
       <use xlink:href="#m8d5c045a9f" x="52.75" y="126.867368" style="stroke: #000000; stroke-width: 0.8"/>
      </g>
     </g>
     <g id="text_17">
      <!-- −0.2 -->
      <g transform="translate(21.467187 130.666586) scale(0.1 -0.1)">
       <use xlink:href="#DejaVuSerif-2212"/>
       <use xlink:href="#DejaVuSerif-30" transform="translate(83.789062 0)"/>
       <use xlink:href="#DejaVuSerif-2e" transform="translate(147.412109 0)"/>
       <use xlink:href="#DejaVuSerif-32" transform="translate(179.199219 0)"/>
      </g>
     </g>
    </g>
    <g id="ytick_7">
     <g id="line2d_18">
      <g>
       <use xlink:href="#m8d5c045a9f" x="52.75" y="101.199718" style="stroke: #000000; stroke-width: 0.8"/>
      </g>
     </g>
     <g id="text_18">
      <!-- 0.0 -->
      <g transform="translate(29.846875 104.998936) scale(0.1 -0.1)">
       <use xlink:href="#DejaVuSerif-30"/>
       <use xlink:href="#DejaVuSerif-2e" transform="translate(63.623047 0)"/>
       <use xlink:href="#DejaVuSerif-30" transform="translate(95.410156 0)"/>
      </g>
     </g>
    </g>
    <g id="ytick_8">
     <g id="line2d_19">
      <g>
       <use xlink:href="#m8d5c045a9f" x="52.75" y="75.532068" style="stroke: #000000; stroke-width: 0.8"/>
      </g>
     </g>
     <g id="text_19">
      <!-- 0.2 -->
      <g transform="translate(29.846875 79.331287) scale(0.1 -0.1)">
       <use xlink:href="#DejaVuSerif-30"/>
       <use xlink:href="#DejaVuSerif-2e" transform="translate(63.623047 0)"/>
       <use xlink:href="#DejaVuSerif-32" transform="translate(95.410156 0)"/>
      </g>
     </g>
    </g>
    <g id="ytick_9">
     <g id="line2d_20">
      <g>
       <use xlink:href="#m8d5c045a9f" x="52.75" y="49.864418" style="stroke: #000000; stroke-width: 0.8"/>
      </g>
     </g>
     <g id="text_20">
      <!-- 0.4 -->
      <g transform="translate(29.846875 53.663637) scale(0.1 -0.1)">
       <use xlink:href="#DejaVuSerif-30"/>
       <use xlink:href="#DejaVuSerif-2e" transform="translate(63.623047 0)"/>
       <use xlink:href="#DejaVuSerif-34" transform="translate(95.410156 0)"/>
      </g>
     </g>
    </g>
    <g id="text_21">
     <!-- Error in X [km] -->
     <g transform="translate(14.139687 206.7775) rotate(-90) scale(0.16 -0.16)">
      <defs>
       <path id="DejaVuSerif-45" d="M 353 0 
L 353 331 
L 947 331 
L 947 4331 
L 353 4331 
L 353 4666 
L 4109 4666 
L 4109 3628 
L 3725 3628 
L 3725 4281 
L 1581 4281 
L 1581 2719 
L 3109 2719 
L 3109 3303 
L 3494 3303 
L 3494 1753 
L 3109 1753 
L 3109 2338 
L 1581 2338 
L 1581 384 
L 3775 384 
L 3775 1038 
L 4159 1038 
L 4159 0 
L 353 0 
z
" transform="scale(0.015625)"/>
       <path id="DejaVuSerif-72" d="M 3059 3328 
L 3059 2497 
L 2728 2497 
Q 2713 2744 2591 2866 
Q 2469 2988 2234 2988 
Q 1809 2988 1582 2694 
Q 1356 2400 1356 1850 
L 1356 331 
L 2022 331 
L 2022 0 
L 263 0 
L 263 331 
L 781 331 
L 781 2994 
L 231 2994 
L 231 3322 
L 1356 3322 
L 1356 2731 
Q 1525 3078 1790 3245 
Q 2056 3413 2438 3413 
Q 2578 3413 2733 3391 
Q 2888 3369 3059 3328 
z
" transform="scale(0.015625)"/>
       <path id="DejaVuSerif-6f" d="M 1925 219 
Q 2388 219 2623 584 
Q 2859 950 2859 1663 
Q 2859 2375 2623 2739 
Q 2388 3103 1925 3103 
Q 1463 3103 1227 2739 
Q 991 2375 991 1663 
Q 991 950 1228 584 
Q 1466 219 1925 219 
z
M 1925 -91 
Q 1200 -91 759 389 
Q 319 869 319 1663 
Q 319 2456 758 2934 
Q 1197 3413 1925 3413 
Q 2653 3413 3092 2934 
Q 3531 2456 3531 1663 
Q 3531 869 3092 389 
Q 2653 -91 1925 -91 
z
" transform="scale(0.015625)"/>
       <path id="DejaVuSerif-20" transform="scale(0.015625)"/>
       <path id="DejaVuSerif-69" d="M 622 4353 
Q 622 4497 726 4603 
Q 831 4709 978 4709 
Q 1122 4709 1226 4603 
Q 1331 4497 1331 4353 
Q 1331 4206 1228 4103 
Q 1125 4000 978 4000 
Q 831 4000 726 4103 
Q 622 4206 622 4353 
z
M 1356 331 
L 1900 331 
L 1900 0 
L 231 0 
L 231 331 
L 781 331 
L 781 2988 
L 231 2988 
L 231 3322 
L 1356 3322 
L 1356 331 
z
" transform="scale(0.015625)"/>
       <path id="DejaVuSerif-6e" d="M 263 0 
L 263 331 
L 781 331 
L 781 2988 
L 231 2988 
L 231 3322 
L 1356 3322 
L 1356 2731 
Q 1516 3069 1770 3241 
Q 2025 3413 2363 3413 
Q 2913 3413 3172 3097 
Q 3431 2781 3431 2113 
L 3431 331 
L 3944 331 
L 3944 0 
L 2356 0 
L 2356 331 
L 2853 331 
L 2853 1931 
Q 2853 2541 2703 2767 
Q 2553 2994 2175 2994 
Q 1775 2994 1565 2701 
Q 1356 2409 1356 1850 
L 1356 331 
L 1856 331 
L 1856 0 
L 263 0 
z
" transform="scale(0.015625)"/>
       <path id="DejaVuSerif-58" d="M 2119 1997 
L 978 331 
L 1581 331 
L 1581 0 
L 38 0 
L 38 331 
L 575 331 
L 1919 2291 
L 556 4331 
L 56 4331 
L 56 4666 
L 1906 4666 
L 1906 4331 
L 1356 4331 
L 2356 2828 
L 3384 4331 
L 2784 4331 
L 2784 4666 
L 4313 4666 
L 4313 4331 
L 3788 4331 
L 2553 2534 
L 4025 331 
L 4525 331 
L 4525 0 
L 2675 0 
L 2675 331 
L 3231 331 
L 2119 1997 
z
" transform="scale(0.015625)"/>
       <path id="DejaVuSerif-5b" d="M 550 4863 
L 2003 4863 
L 2003 4531 
L 1147 4531 
L 1147 -513 
L 2003 -513 
L 2003 -844 
L 550 -844 
L 550 4863 
z
" transform="scale(0.015625)"/>
       <path id="DejaVuSerif-6b" d="M 1831 0 
L 219 0 
L 219 331 
L 738 331 
L 738 4531 
L 184 4531 
L 184 4863 
L 1313 4863 
L 1313 1697 
L 2713 2988 
L 2234 2988 
L 2234 3322 
L 3738 3322 
L 3738 2988 
L 3169 2988 
L 2181 2075 
L 3444 331 
L 3922 331 
L 3922 0 
L 2284 0 
L 2284 331 
L 2759 331 
L 1766 1697 
L 1313 1275 
L 1313 331 
L 1831 331 
L 1831 0 
z
" transform="scale(0.015625)"/>
       <path id="DejaVuSerif-6d" d="M 3316 2675 
Q 3481 3041 3739 3227 
Q 3997 3413 4341 3413 
Q 4863 3413 5119 3089 
Q 5375 2766 5375 2113 
L 5375 331 
L 5894 331 
L 5894 0 
L 4300 0 
L 4300 331 
L 4800 331 
L 4800 2047 
Q 4800 2556 4650 2772 
Q 4500 2988 4153 2988 
Q 3769 2988 3567 2697 
Q 3366 2406 3366 1850 
L 3366 331 
L 3866 331 
L 3866 0 
L 2291 0 
L 2291 331 
L 2791 331 
L 2791 2069 
Q 2791 2566 2641 2777 
Q 2491 2988 2144 2988 
Q 1759 2988 1557 2697 
Q 1356 2406 1356 1850 
L 1356 331 
L 1856 331 
L 1856 0 
L 263 0 
L 263 331 
L 781 331 
L 781 2994 
L 231 2994 
L 231 3322 
L 1356 3322 
L 1356 2731 
Q 1516 3063 1762 3238 
Q 2009 3413 2322 3413 
Q 2709 3413 2968 3220 
Q 3228 3028 3316 2675 
z
" transform="scale(0.015625)"/>
       <path id="DejaVuSerif-5d" d="M 1947 4863 
L 1947 -844 
L 494 -844 
L 494 -513 
L 1350 -513 
L 1350 4531 
L 494 4531 
L 494 4863 
L 1947 4863 
z
" transform="scale(0.015625)"/>
      </defs>
      <use xlink:href="#DejaVuSerif-45"/>
      <use xlink:href="#DejaVuSerif-72" transform="translate(72.998047 0)"/>
      <use xlink:href="#DejaVuSerif-72" transform="translate(120.800781 0)"/>
      <use xlink:href="#DejaVuSerif-6f" transform="translate(168.603516 0)"/>
      <use xlink:href="#DejaVuSerif-72" transform="translate(228.808594 0)"/>
      <use xlink:href="#DejaVuSerif-20" transform="translate(276.611328 0)"/>
      <use xlink:href="#DejaVuSerif-69" transform="translate(308.398438 0)"/>
      <use xlink:href="#DejaVuSerif-6e" transform="translate(340.380859 0)"/>
      <use xlink:href="#DejaVuSerif-20" transform="translate(404.785156 0)"/>
      <use xlink:href="#DejaVuSerif-58" transform="translate(436.572266 0)"/>
      <use xlink:href="#DejaVuSerif-20" transform="translate(507.763672 0)"/>
      <use xlink:href="#DejaVuSerif-5b" transform="translate(539.550781 0)"/>
      <use xlink:href="#DejaVuSerif-6b" transform="translate(578.564453 0)"/>
      <use xlink:href="#DejaVuSerif-6d" transform="translate(639.160156 0)"/>
      <use xlink:href="#DejaVuSerif-5d" transform="translate(733.984375 0)"/>
     </g>
    </g>
   </g>
   <g id="line2d_21">
    <path d="M 81.357955 101.199718 
L 86.370612 101.199718 
L 99.976398 100.80806 
L 112.149996 99.899416 
L 125.039687 98.661779 
L 132.916721 97.737468 
L 137.929379 97.079483 
L 156.547823 94.118554 
L 171.585796 91.047962 
L 189.488146 87.23322 
L 220.280187 81.272196 
L 231.021597 79.492114 
L 241.763006 77.958776 
L 249.64004 77.065798 
L 260.38145 76.235484 
L 266.826296 75.992657 
L 273.987235 75.914325 
L 290.457397 76.728972 
L 296.186149 77.339958 
L 304.779277 78.561928 
L 313.372404 80.15989 
L 320.533344 81.820517 
L 331.990848 84.922442 
L 340.583976 87.648377 
L 350.609291 91.251623 
L 360.634607 95.309193 
L 372.092111 100.432069 
L 388.562272 108.468876 
L 418.63822 124.385827 
L 429.379629 130.135356 
L 443.701509 137.529845 
L 455.159013 143.201042 
L 467.33261 148.684243 
L 472.345268 150.760027 
L 479.506208 153.55646 
L 486.667148 156.102232 
L 492.3959 157.931271 
L 498.840746 159.764227 
L 505.285591 161.307357 
L 511.014343 162.446108 
L 516.743095 163.345933 
L 521.755753 163.94321 
L 528.200599 164.456281 
L 532.497163 164.609027 
L 537.509821 164.562029 
L 543.954666 164.193871 
L 550.399512 163.473221 
L 556.844358 162.392247 
L 561.140922 161.436604 
L 564.721392 160.48096 
L 570.450144 158.742002 
L 574.030614 157.535697 
L 579.043271 155.671409 
L 582.623741 154.167445 
L 589.068587 151.237849 
L 595.513433 147.885263 
L 601.958279 144.39168 
L 607.687031 141.007761 
L 611.983595 138.344492 
L 617.712346 134.584582 
L 627.737662 127.45642 
L 636.33079 120.751248 
L 643.49173 114.82939 
L 651.368764 107.967555 
L 653.517045 106.0876 
L 653.517045 106.0876 
" clip-path="url(#pdd9b7c5212)" style="fill: none; stroke: #ff0000; stroke-width: 1.5; stroke-linecap: square"/>
   </g>
   <g id="line2d_22">
    <path d="M 81.357955 101.199718 
L 84.938424 101.450378 
L 94.96374 101.387713 
L 97.112022 101.262383 
L 99.976398 101.199718 
L 102.12468 101.074387 
L 107.137338 101.011722 
L 109.28562 100.761062 
L 111.433902 100.447736 
L 113.582184 100.385071 
L 120.743124 99.821084 
L 123.607499 99.758419 
L 126.471875 99.570423 
L 132.200627 99.633089 
L 133.632815 99.695754 
L 138.645473 99.758419 
L 140.077661 99.821084 
L 142.225943 99.883749 
L 142.942037 99.946414 
L 146.522507 99.570423 
L 147.238601 99.445093 
L 148.670789 99.382428 
L 157.263917 98.567781 
L 159.412198 98.254455 
L 163.708762 97.815799 
L 165.14095 97.627804 
L 171.585796 96.969819 
L 178.030642 96.029842 
L 181.611112 95.497188 
L 202.377837 92.880918 
L 210.970965 92.019272 
L 233.169879 89.700661 
L 240.330818 89.105342 
L 258.233168 88.040034 
L 265.394108 87.63271 
L 271.838954 87.162722 
L 285.444739 86.6614 
L 286.876927 86.724065 
L 289.025209 86.786731 
L 294.037867 87.162722 
L 297.618337 87.225387 
L 301.914901 87.538713 
L 302.630995 87.538713 
L 304.063183 87.726708 
L 315.520686 88.792016 
L 316.952874 88.980011 
L 319.101156 89.230672 
L 328.410378 90.797301 
L 329.126472 90.859966 
L 330.55866 91.173292 
L 331.990848 91.361287 
L 338.435694 91.987939 
L 344.164446 92.927916 
L 345.596634 93.115912 
L 347.744916 93.429238 
L 349.177103 93.617233 
L 354.189761 94.557211 
L 355.621949 94.870536 
L 359.918513 95.685184 
L 361.350701 95.998509 
L 362.782889 96.311835 
L 365.647265 97.001152 
L 368.511641 97.565138 
L 374.240393 99.006437 
L 375.672581 99.319763 
L 378.536957 100.00908 
L 379.969145 100.322405 
L 389.99446 103.017007 
L 391.426648 103.455663 
L 395.007118 104.458306 
L 400.019776 106.150265 
L 401.451964 106.588922 
L 405.032434 107.77956 
L 406.464622 108.092885 
L 408.612904 108.531542 
L 416.489938 110.536827 
L 417.922126 110.850152 
L 424.366971 112.479447 
L 425.799159 112.792772 
L 427.947441 113.294094 
L 430.811817 113.85808 
L 466.616516 123.351852 
L 469.480892 124.135167 
L 474.49355 125.545133 
L 478.790114 126.767103 
L 486.667148 128.72539 
L 493.828088 130.182355 
L 508.149967 132.896539 
L 515.310907 133.985347 
L 525.336223 135.258233 
L 536.793727 136.166877 
L 541.806384 136.386206 
L 546.102948 136.668199 
L 555.41217 136.981525 
L 560.424828 136.887527 
L 565.437486 136.574201 
L 571.882332 135.916217 
L 572.598426 135.728221 
L 574.030614 135.540226 
L 575.462802 135.2269 
L 579.759365 134.412253 
L 581.191553 134.098927 
L 584.055929 133.534941 
L 592.649057 131.34166 
L 594.081245 131.028334 
L 599.809997 129.461705 
L 612.699689 124.887149 
L 614.131876 124.323162 
L 627.737662 119.497945 
L 629.16985 118.933958 
L 632.75032 117.61799 
L 637.762978 115.487374 
L 639.195166 114.923388 
L 645.640012 112.166121 
L 646.356106 111.91546 
L 650.65267 109.784845 
L 652.084857 109.095528 
L 653.517045 108.343546 
L 653.517045 108.343546 
" clip-path="url(#pdd9b7c5212)" style="fill: none; stroke: #00bfff; stroke-width: 1.5; stroke-linecap: square"/>
   </g>
   <g id="line2d_23">
    <path d="M 81.357955 101.199718 
L 82.790143 101.199718 
L 83.506236 101.074387 
L 84.22233 101.074387 
L 84.938424 101.199718 
L 93.531552 101.199718 
L 94.247646 101.325048 
L 96.395928 101.325048 
L 97.112022 101.199718 
L 97.828116 101.199718 
L 98.54421 101.074387 
L 99.260304 101.074387 
L 100.692492 100.823727 
L 103.556868 100.823727 
L 104.272962 100.698396 
L 105.70515 100.698396 
L 106.421244 100.573066 
L 109.28562 100.573066 
L 110.001714 100.698396 
L 110.717808 100.698396 
L 112.86609 100.322405 
L 113.582184 100.322405 
L 114.298278 100.197075 
L 115.014372 100.197075 
L 116.44656 99.946414 
L 120.02703 99.946414 
L 120.743124 99.821084 
L 123.607499 99.821084 
L 124.323593 99.695754 
L 125.039687 99.695754 
L 125.755781 99.570423 
L 127.904063 99.570423 
L 128.620157 99.445093 
L 129.336251 99.445093 
L 130.052345 99.319763 
L 130.768439 99.319763 
L 134.348909 98.693111 
L 135.781097 98.693111 
L 137.213285 98.442451 
L 137.929379 98.442451 
L 138.645473 98.31712 
L 139.361567 98.31712 
L 140.793755 98.06646 
L 141.509849 98.06646 
L 142.225943 97.941129 
L 143.658131 97.941129 
L 145.806413 97.565138 
L 148.670789 97.565138 
L 149.386883 97.439808 
L 150.102977 97.439808 
L 150.819071 97.314478 
L 152.251259 97.314478 
L 152.967353 97.189147 
L 153.683447 97.189147 
L 155.115635 97.377143 
L 159.412198 97.690469 
L 162.992668 97.753134 
L 165.14095 97.878464 
L 166.573138 97.815799 
L 169.437514 97.627804 
L 170.869702 97.565138 
L 173.734078 97.377143 
L 177.314548 97.314478 
L 180.895018 97.063817 
L 188.055958 97.126482 
L 189.488146 97.189147 
L 203.093931 97.09515 
L 210.254871 96.891488 
L 226.008939 96.439124 
L 245.343476 95.967177 
L 249.64004 95.873179 
L 256.80098 95.653851 
L 265.394108 96.12384 
L 268.974578 96.3745 
L 273.987235 96.311835 
L 276.851611 96.12384 
L 282.580363 96.061174 
L 284.012551 95.998509 
L 289.025209 95.935844 
L 290.457397 95.873179 
L 296.186149 95.810514 
L 297.618337 95.559853 
L 298.334431 95.559853 
L 299.050525 95.434523 
L 299.766619 95.434523 
L 301.198807 95.183862 
L 304.063183 95.183862 
L 304.779277 95.058532 
L 306.927559 95.058532 
L 307.643653 94.933202 
L 311.940216 94.933202 
L 313.372404 94.682541 
L 319.81725 94.682541 
L 320.533344 94.807871 
L 321.249438 94.807871 
L 321.965532 94.933202 
L 324.113814 94.933202 
L 324.829908 94.807871 
L 325.546002 94.807871 
L 326.262096 94.933202 
L 331.274754 94.933202 
L 331.990848 94.807871 
L 332.706942 94.933202 
L 334.13913 94.933202 
L 334.855224 95.058532 
L 338.435694 95.058532 
L 339.867882 95.309193 
L 343.448352 95.309193 
L 344.164446 95.434523 
L 344.88054 95.309193 
L 345.596634 95.309193 
L 346.312728 95.434523 
L 349.893197 95.434523 
L 350.609291 95.559853 
L 351.325385 95.559853 
L 352.041479 95.685184 
L 352.757573 95.685184 
L 354.189761 95.935844 
L 360.634607 95.935844 
L 362.066795 96.186505 
L 365.647265 96.186505 
L 369.227735 96.813156 
L 369.943829 96.813156 
L 370.659923 96.938487 
L 372.808205 96.938487 
L 375.672581 97.439808 
L 377.104769 97.439808 
L 377.820863 97.565138 
L 378.536957 97.565138 
L 379.969145 97.815799 
L 381.401333 97.815799 
L 382.833521 98.06646 
L 384.265709 98.06646 
L 384.981803 98.19179 
L 385.697897 98.19179 
L 386.41399 98.31712 
L 387.130084 98.31712 
L 389.278366 98.693111 
L 391.426648 98.693111 
L 395.007118 99.319763 
L 396.439306 99.319763 
L 405.032434 100.823727 
L 405.748528 100.823727 
L 406.464622 100.949057 
L 407.180716 100.949057 
L 407.89681 101.074387 
L 408.612904 101.074387 
L 410.761186 101.450378 
L 412.193374 101.450378 
L 415.05775 101.9517 
L 415.773844 101.9517 
L 422.934784 103.205003 
L 424.366971 103.205003 
L 427.947441 103.831654 
L 429.379629 103.831654 
L 430.811817 104.082315 
L 431.527911 104.082315 
L 432.244005 104.207645 
L 434.392287 104.207645 
L 435.108381 104.332976 
L 436.540569 104.332976 
L 437.256663 104.458306 
L 437.972757 104.458306 
L 438.688851 104.583636 
L 440.837133 104.646302 
L 443.701509 104.959627 
L 445.133697 105.147623 
L 446.565885 105.335618 
L 447.998073 105.523614 
L 452.294637 105.83694 
L 453.726825 105.83694 
L 455.875107 106.150265 
L 457.307295 106.338261 
L 460.171671 106.776917 
L 465.184328 107.278238 
L 468.764798 107.842225 
L 471.629174 108.155551 
L 474.49355 108.594207 
L 475.925738 108.782202 
L 478.07402 109.095528 
L 479.506208 109.189526 
L 485.23496 109.784845 
L 488.81543 110.160836 
L 496.692464 110.959816 
L 502.421215 111.49247 
L 512.446531 112.369783 
L 521.755753 113.074766 
L 531.064975 113.60742 
L 533.213257 113.670085 
L 536.793727 113.889413 
L 542.522478 114.046076 
L 544.67076 114.108741 
L 546.102948 114.171406 
L 547.535136 114.234071 
L 551.8317 114.547397 
L 553.263888 114.610062 
L 556.844358 114.860723 
L 558.276546 114.923388 
L 564.005298 115.362044 
L 568.301862 115.299379 
L 571.166238 115.111383 
L 576.178895 115.048718 
L 577.611083 114.986053 
L 579.043271 114.923388 
L 581.907647 114.735392 
L 589.068587 114.735392 
L 589.784681 114.610062 
L 591.216869 114.610062 
L 592.649057 114.359401 
L 593.365151 114.484732 
L 594.797339 114.484732 
L 596.229527 114.234071 
L 597.661715 114.234071 
L 598.377809 114.108741 
L 599.809997 114.108741 
L 600.526091 113.983411 
L 601.242185 113.983411 
L 602.674373 113.73275 
L 603.390467 113.73275 
L 604.106561 113.60742 
L 604.822655 113.60742 
L 610.551407 112.604777 
L 611.983595 112.604777 
L 613.415783 112.354116 
L 614.131876 112.354116 
L 616.996252 111.852795 
L 618.42844 111.852795 
L 622.00891 111.226143 
L 622.725004 111.226143 
L 625.58938 110.724822 
L 626.305474 110.474161 
L 627.021568 110.348831 
L 627.737662 110.348831 
L 630.602038 109.84751 
L 632.034226 109.84751 
L 634.898602 109.346189 
L 635.614696 109.346189 
L 637.762978 108.970198 
L 638.479072 108.719537 
L 640.627354 108.343546 
L 642.059542 107.842225 
L 644.923918 107.340903 
L 645.640012 107.090243 
L 647.0722 106.839582 
L 647.788294 106.588922 
L 652.800951 105.711609 
L 653.517045 105.460949 
L 653.517045 105.460949 
" clip-path="url(#pdd9b7c5212)" style="fill: none; stroke: #ffa500; stroke-width: 1.5; stroke-linecap: square"/>
   </g>
   <g id="line2d_24">
    <path d="M 81.357955 101.199718 
L 83.506236 101.199718 
L 84.22233 101.450378 
L 85.654518 101.450378 
L 86.370612 101.199718 
L 87.086706 101.199718 
L 87.8028 100.949057 
L 92.815458 100.949057 
L 93.531552 100.698396 
L 96.395928 100.698396 
L 97.828116 100.197075 
L 99.260304 100.197075 
L 99.976398 99.946414 
L 100.692492 99.946414 
L 101.408586 99.695754 
L 102.840774 99.695754 
L 106.421244 98.442451 
L 107.137338 98.442451 
L 109.28562 97.690469 
L 110.001714 97.690469 
L 115.014372 95.935844 
L 116.44656 95.935844 
L 117.878748 95.434523 
L 120.02703 95.434523 
L 132.200627 91.173292 
L 132.916721 91.173292 
L 133.632815 90.922631 
L 134.348909 90.42131 
L 135.781097 89.919989 
L 136.497191 89.919989 
L 137.213285 89.418667 
L 137.929379 89.168007 
L 138.645473 89.168007 
L 140.077661 88.666685 
L 140.793755 88.165364 
L 143.658131 87.162722 
L 144.374225 87.162722 
L 147.238601 86.160079 
L 147.954695 86.034749 
L 148.670789 85.784088 
L 149.386883 85.658758 
L 150.102977 85.408097 
L 151.535165 85.157436 
L 152.251259 84.906776 
L 155.115635 84.405455 
L 161.56048 82.149509 
L 162.992668 81.898848 
L 164.424856 81.397527 
L 167.289232 80.018893 
L 168.005326 79.768233 
L 172.30189 77.637617 
L 173.017984 77.386957 
L 176.598454 75.632332 
L 178.030642 75.131011 
L 179.46283 74.504359 
L 180.895018 74.003038 
L 183.0433 73.000395 
L 183.759394 72.749735 
L 184.475488 72.624404 
L 189.488146 70.932445 
L 197.365179 68.801829 
L 199.513461 68.112513 
L 203.093931 67.10987 
L 205.242213 66.420553 
L 207.390495 65.762569 
L 212.403153 64.32127 
L 221.712375 61.986993 
L 231.737691 59.684049 
L 239.614724 58.023422 
L 241.763006 57.584766 
L 251.788322 56.770119 
L 253.22051 56.707453 
L 254.652698 56.519458 
L 259.665356 56.456793 
L 260.38145 56.331462 
L 263.245826 56.331462 
L 264.678014 56.582123 
L 265.394108 56.456793 
L 267.54239 56.456793 
L 268.974578 56.707453 
L 270.406766 56.707453 
L 271.838954 56.958114 
L 274.703329 56.958114 
L 275.419423 57.083444 
L 276.851611 57.083444 
L 277.567705 57.208775 
L 278.283799 57.208775 
L 278.999893 57.083444 
L 286.160833 57.083444 
L 286.876927 56.958114 
L 287.593021 56.958114 
L 288.309115 56.832784 
L 289.025209 56.958114 
L 294.037867 56.958114 
L 294.753961 57.083444 
L 299.766619 57.083444 
L 300.482713 57.208775 
L 301.914901 57.208775 
L 302.630995 57.334105 
L 303.347089 57.835426 
L 307.643653 59.33939 
L 308.359747 59.33939 
L 309.075841 59.590051 
L 309.791935 60.091372 
L 311.224122 60.592693 
L 311.940216 61.094015 
L 314.088498 61.845997 
L 314.804592 62.347318 
L 315.520686 62.597979 
L 316.23678 63.0993 
L 319.81725 64.352603 
L 320.533344 64.853924 
L 321.965532 65.355246 
L 322.681626 65.856567 
L 323.39772 66.107228 
L 324.829908 67.10987 
L 326.97819 67.861852 
L 327.694284 68.363173 
L 328.410378 68.613834 
L 329.126472 69.115155 
L 331.990848 70.117798 
L 333.423036 71.12044 
L 334.855224 71.621762 
L 337.7196 73.627047 
L 338.435694 73.877708 
L 342.016164 76.384314 
L 342.732258 77.136296 
L 349.893197 82.149509 
L 350.609291 82.901491 
L 351.325385 83.152151 
L 352.757573 84.154794 
L 353.473667 84.906776 
L 357.054137 87.413382 
L 357.770231 88.165364 
L 359.202419 89.168007 
L 359.918513 89.919989 
L 362.066795 91.423953 
L 362.782889 92.175935 
L 372.808205 99.194433 
L 374.240393 100.698396 
L 376.388675 102.20236 
L 379.969145 105.96227 
L 380.685239 106.463591 
L 381.401333 107.215573 
L 382.117427 107.716894 
L 382.833521 108.468876 
L 384.265709 109.471519 
L 384.981803 110.223501 
L 385.697897 110.724822 
L 388.562272 113.73275 
L 390.710554 115.236714 
L 392.142742 116.740678 
L 392.858836 117.241999 
L 395.007118 119.497945 
L 396.439306 120.500587 
L 398.587588 122.756533 
L 399.303682 123.257854 
L 400.019776 124.009836 
L 402.168058 125.5138 
L 402.884152 126.265782 
L 404.31634 127.268425 
L 406.464622 129.52437 
L 407.180716 130.025692 
L 409.328998 132.281637 
L 411.47728 133.785601 
L 412.909468 135.289565 
L 413.625562 135.790887 
L 415.05775 137.29485 
L 415.773844 137.796172 
L 423.650878 146.067973 
L 426.515253 148.073258 
L 427.947441 149.577222 
L 428.663535 150.078543 
L 429.379629 150.830525 
L 430.811817 151.833168 
L 431.527911 152.58515 
L 432.960099 153.587792 
L 435.108381 156.094399 
L 446.565885 168.25144 
L 447.281979 169.128752 
L 448.714167 170.507386 
L 454.442919 176.397911 
L 457.307295 179.029848 
L 459.455577 181.160463 
L 470.91308 191.061558 
L 472.345268 192.189531 
L 475.209644 194.570807 
L 486.667148 201.463975 
L 495.97637 206.226527 
L 498.840746 207.542496 
L 507.433873 210.84025 
L 511.014343 211.957773 
L 515.310907 213.05703 
L 518.891377 213.73068 
L 526.768411 214.842987 
L 529.632787 215.062315 
L 531.781069 214.936985 
L 533.213257 214.87432 
L 540.374196 214.185003 
L 541.806384 213.871677 
L 546.102948 212.806369 
L 547.535136 212.618374 
L 548.25123 212.493043 
L 548.967324 212.493043 
L 551.115606 212.117053 
L 551.8317 211.866392 
L 553.263888 211.866392 
L 556.844358 211.23974 
L 558.276546 210.738419 
L 558.99264 210.613089 
L 561.140922 209.861107 
L 561.857016 209.735776 
L 563.289204 209.234455 
L 564.721392 208.983794 
L 566.15358 208.482473 
L 566.869674 208.357143 
L 567.585768 208.106482 
L 569.017956 207.855822 
L 574.746708 204.722564 
L 588.352493 195.072129 
L 591.216869 192.440192 
L 591.932963 191.68821 
L 592.649057 191.186889 
L 594.081245 189.682925 
L 594.797339 189.181604 
L 599.093903 184.669712 
L 599.809997 183.667069 
L 600.526091 182.915088 
L 601.242185 181.912445 
L 601.958279 181.160463 
L 602.674373 180.15782 
L 603.390467 179.405839 
L 604.106561 178.904517 
L 605.538749 177.400553 
L 606.254843 176.397911 
L 607.687031 174.893947 
L 608.403125 173.891304 
L 609.835313 172.38734 
L 610.551407 171.134037 
L 611.983595 169.128752 
L 613.415783 167.624788 
L 614.84797 165.619503 
L 615.564064 164.867521 
L 618.42844 160.856951 
L 619.860628 159.352987 
L 621.292816 157.347702 
L 622.00891 156.59572 
L 625.58938 151.582507 
L 626.305474 150.329204 
L 627.021568 149.577222 
L 627.737662 148.574579 
L 628.453756 147.321276 
L 630.602038 144.313348 
L 632.75032 140.553439 
L 634.898602 137.545511 
L 635.614696 136.292208 
L 636.33079 135.289565 
L 637.046884 134.036262 
L 637.762978 133.033619 
L 639.91126 129.27371 
L 641.343448 127.268425 
L 642.059542 126.015121 
L 642.775636 125.012479 
L 643.49173 123.759176 
L 644.923918 121.75389 
L 647.0722 117.993981 
L 648.504388 115.988696 
L 652.800951 108.468876 
L 653.517045 107.466234 
L 653.517045 107.466234 
" clip-path="url(#pdd9b7c5212)" style="fill: none; stroke: #ffc0cb; stroke-width: 1.5; stroke-linecap: square"/>
   </g>
   <g id="line2d_25">
    <path d="M 81.357955 101.199718 
L 87.8028 101.199718 
L 88.518894 100.949057 
L 89.234988 101.199718 
L 92.815458 101.199718 
L 93.531552 100.949057 
L 95.679834 100.949057 
L 96.395928 100.698396 
L 97.112022 100.698396 
L 97.828116 100.949057 
L 102.12468 100.949057 
L 102.840774 100.698396 
L 105.70515 100.698396 
L 106.421244 100.447736 
L 108.569526 100.447736 
L 109.28562 100.197075 
L 110.001714 99.695754 
L 111.433902 99.194433 
L 112.86609 98.19179 
L 113.582184 97.941129 
L 115.014372 96.938487 
L 115.730466 96.687826 
L 116.44656 96.186505 
L 117.162654 95.935844 
L 117.878748 95.434523 
L 120.02703 94.682541 
L 120.743124 94.682541 
L 123.607499 93.679898 
L 125.039687 93.679898 
L 127.187969 92.927916 
L 127.904063 92.927916 
L 128.620157 92.677256 
L 129.336251 92.677256 
L 131.484533 91.925274 
L 132.200627 91.925274 
L 133.632815 91.423953 
L 134.348909 90.922631 
L 135.781097 90.42131 
L 136.497191 90.42131 
L 138.645473 89.669328 
L 139.361567 89.669328 
L 141.509849 88.917346 
L 142.225943 88.416025 
L 142.942037 88.416025 
L 143.658131 88.165364 
L 144.374225 87.664043 
L 147.954695 86.41074 
L 148.670789 86.41074 
L 150.102977 85.909418 
L 150.819071 85.909418 
L 151.535165 85.658758 
L 153.683447 85.658758 
L 155.831729 84.154794 
L 158.696105 83.152151 
L 162.276574 80.645545 
L 165.14095 79.642902 
L 165.857044 79.141581 
L 170.153608 77.637617 
L 171.585796 76.634975 
L 172.30189 76.634975 
L 173.734078 75.632332 
L 175.166266 75.131011 
L 177.314548 74.128368 
L 178.030642 73.877708 
L 185.907676 69.867137 
L 186.62377 69.616477 
L 190.920334 67.2352 
L 192.352522 66.357888 
L 195.932992 64.352603 
L 198.081273 62.97397 
L 205.242213 60.404698 
L 206.674401 59.840711 
L 210.254871 58.524743 
L 210.970965 58.211417 
L 212.403153 57.772761 
L 217.415811 55.924139 
L 219.564093 55.156491 
L 234.602067 50.315607 
L 239.614724 49.062304 
L 245.343476 47.996996 
L 246.775664 47.68367 
L 248.207852 47.370344 
L 249.64004 46.806358 
L 250.356134 46.555697 
L 251.788322 46.555697 
L 253.22051 46.305037 
L 254.652698 46.305037 
L 256.084886 46.054376 
L 256.80098 46.054376 
L 257.517074 45.929046 
L 258.949262 45.929046 
L 259.665356 45.678385 
L 260.38145 45.553055 
L 261.097544 45.553055 
L 263.245826 45.177064 
L 264.678014 44.675743 
L 265.394108 44.550412 
L 268.974578 44.550412 
L 269.690672 44.425082 
L 271.12286 44.425082 
L 273.271141 44.049091 
L 273.987235 44.049091 
L 274.703329 44.299752 
L 276.135517 44.299752 
L 276.851611 44.550412 
L 278.283799 44.550412 
L 278.999893 44.801073 
L 281.148175 44.801073 
L 284.728645 46.054376 
L 286.876927 46.054376 
L 289.741303 47.057019 
L 291.173491 48.059661 
L 292.605679 48.059661 
L 296.186149 49.312964 
L 296.902243 49.312964 
L 299.050525 50.064946 
L 299.766619 50.064946 
L 301.198807 50.566268 
L 301.914901 50.566268 
L 302.630995 50.816928 
L 303.347089 50.816928 
L 304.063183 51.067589 
L 304.779277 51.56891 
L 309.075841 53.072874 
L 309.791935 53.574195 
L 311.224122 54.075517 
L 312.65631 55.078159 
L 314.088498 55.579481 
L 316.952874 57.584766 
L 317.668968 57.835426 
L 319.101156 58.838069 
L 320.533344 59.33939 
L 324.829908 62.347318 
L 325.546002 62.597979 
L 326.97819 63.600621 
L 327.694284 64.352603 
L 329.126472 65.355246 
L 329.842566 65.605906 
L 331.274754 66.608549 
L 331.990848 66.859209 
L 334.855224 68.864495 
L 336.287412 70.368458 
L 337.003506 70.86978 
L 337.7196 71.621762 
L 338.435694 72.123083 
L 339.151788 72.875065 
L 339.867882 73.376386 
L 341.30007 74.88035 
L 342.016164 75.381671 
L 342.732258 76.133653 
L 345.596634 78.138938 
L 347.028822 79.642902 
L 347.744916 80.645545 
L 348.46101 81.397527 
L 349.177103 82.400169 
L 349.893197 83.152151 
L 350.609291 84.154794 
L 351.325385 84.906776 
L 352.041479 85.909418 
L 352.757573 86.6614 
L 355.621949 90.671971 
L 356.338043 91.423953 
L 357.054137 92.426595 
L 357.770231 93.178577 
L 360.634607 97.189147 
L 361.350701 97.941129 
L 364.215077 101.9517 
L 364.931171 102.703682 
L 369.943829 109.72218 
L 370.659923 110.975483 
L 371.376017 111.978125 
L 372.092111 112.730107 
L 375.672581 117.74332 
L 384.265709 126.767103 
L 384.981803 127.769746 
L 387.130084 130.025692 
L 388.562272 132.030977 
L 389.278366 132.782959 
L 389.99446 133.785601 
L 394.291024 138.297493 
L 396.439306 141.305421 
L 398.587588 143.561366 
L 399.303682 144.564009 
L 400.73587 146.067973 
L 401.451964 147.070615 
L 402.168058 147.822597 
L 402.884152 148.82524 
L 403.600246 149.577222 
L 404.31634 150.579864 
L 405.032434 151.331846 
L 405.748528 152.334489 
L 406.464622 153.086471 
L 407.180716 153.587792 
L 407.89681 154.339774 
L 408.612904 155.342417 
L 410.045092 157.849023 
L 411.47728 159.854308 
L 412.193374 160.35563 
L 421.502596 170.131395 
L 422.21869 171.134037 
L 424.366971 173.389983 
L 425.083065 174.392626 
L 431.527911 181.160463 
L 432.244005 182.163106 
L 433.676193 183.165748 
L 435.108381 184.669712 
L 435.824475 185.672355 
L 436.540569 186.424337 
L 437.256663 187.426979 
L 437.972757 188.680282 
L 438.688851 189.682925 
L 439.404945 190.434907 
L 442.985415 195.44812 
L 445.849791 198.456047 
L 449.430261 203.46926 
L 453.010731 207.22917 
L 453.726825 208.231813 
L 454.442919 208.983794 
L 455.159013 209.986437 
L 456.591201 211.490401 
L 458.023389 213.495686 
L 459.455577 214.99965 
L 460.171671 216.002292 
L 461.603859 217.130265 
L 466.616516 221.642157 
L 468.048704 223.020791 
L 476.641832 230.41528 
L 478.07402 231.543252 
L 481.65449 234.55118 
L 486.667148 237.935099 
L 488.81543 239.125737 
L 494.544182 241.569678 
L 500.272933 243.512298 
L 504.569497 244.546273 
L 508.866061 245.321755 
L 512.446531 245.682079 
L 516.743095 245.830909 
L 518.891377 245.736911 
L 521.755753 245.548916 
L 523.904035 245.204257 
L 525.336223 244.890932 
L 527.484505 244.452276 
L 531.781069 243.386968 
L 533.213257 243.073642 
L 536.793727 241.820339 
L 539.658102 241.319018 
L 540.374196 241.068357 
L 541.09029 240.943027 
L 544.67076 239.689723 
L 547.535136 238.31109 
L 548.967324 237.809768 
L 551.8317 236.180474 
L 560.424828 230.039289 
L 561.140922 229.287307 
L 562.57311 228.284664 
L 566.869674 223.772772 
L 567.585768 223.271451 
L 568.301862 222.268809 
L 572.598426 217.756917 
L 573.31452 217.255596 
L 577.611083 211.23974 
L 581.191553 207.479831 
L 582.623741 205.474545 
L 583.339835 204.722564 
L 584.772023 202.717278 
L 585.488117 201.463975 
L 591.932963 192.440192 
L 592.649057 191.186889 
L 593.365151 190.184246 
L 594.081245 189.432264 
L 600.526091 180.408481 
L 601.958279 177.901875 
L 603.390467 175.896589 
L 604.106561 174.643286 
L 605.538749 172.638001 
L 606.254843 171.384698 
L 606.970937 170.382055 
L 607.687031 169.630073 
L 608.403125 168.627431 
L 609.119219 167.875449 
L 611.267501 164.867521 
L 614.131876 159.854308 
L 614.84797 158.851666 
L 621.292816 147.571937 
L 622.725004 144.81467 
L 627.737662 136.041547 
L 629.885944 131.780316 
L 631.318132 129.27371 
L 634.182508 123.007194 
L 642.775636 102.20236 
L 644.207824 99.695754 
L 653.517045 79.893563 
L 653.517045 79.893563 
" clip-path="url(#pdd9b7c5212)" style="fill: none; stroke: #c0c0c0; stroke-width: 1.5; stroke-linecap: square"/>
   </g>
   <g id="patch_3">
    <path d="M 52.75 255.92 
L 52.75 33.96 
" style="fill: none; stroke: #000000; stroke-width: 0.8; stroke-linejoin: miter; stroke-linecap: square"/>
   </g>
   <g id="patch_4">
    <path d="M 682.125 255.92 
L 682.125 33.96 
" style="fill: none; stroke: #000000; stroke-width: 0.8; stroke-linejoin: miter; stroke-linecap: square"/>
   </g>
   <g id="patch_5">
    <path d="M 52.75 255.92 
L 682.125 255.92 
" style="fill: none; stroke: #000000; stroke-width: 0.8; stroke-linejoin: miter; stroke-linecap: square"/>
   </g>
   <g id="patch_6">
    <path d="M 52.75 33.96 
L 682.125 33.96 
" style="fill: none; stroke: #000000; stroke-width: 0.8; stroke-linejoin: miter; stroke-linecap: square"/>
   </g>
   <g id="legend_1">
    <g id="patch_7">
     <path d="M 59.75 250.92 
L 203.571875 250.92 
Q 205.571875 250.92 205.571875 248.92 
L 205.571875 176.529375 
Q 205.571875 174.529375 203.571875 174.529375 
L 59.75 174.529375 
Q 57.75 174.529375 57.75 176.529375 
L 57.75 248.92 
Q 57.75 250.92 59.75 250.92 
z
" style="fill: #ffffff; opacity: 0.8; stroke: #cccccc; stroke-linejoin: miter"/>
    </g>
    <g id="line2d_26">
     <path d="M 61.75 182.627812 
L 71.75 182.627812 
L 81.75 182.627812 
" style="fill: none; stroke: #ff0000; stroke-width: 1.5; stroke-linecap: square"/>
    </g>
    <g id="text_22">
     <!-- e = 0, alt = 300 km -->
     <g transform="translate(89.75 186.127812) scale(0.1 -0.1)">
      <defs>
       <path id="DejaVuSerif-65" d="M 3469 1600 
L 991 1600 
L 991 1575 
Q 991 903 1244 561 
Q 1497 219 1991 219 
Q 2369 219 2611 417 
Q 2853 616 2950 1006 
L 3413 1006 
Q 3275 459 2904 184 
Q 2534 -91 1931 -91 
Q 1203 -91 761 389 
Q 319 869 319 1663 
Q 319 2450 753 2931 
Q 1188 3413 1894 3413 
Q 2647 3413 3050 2948 
Q 3453 2484 3469 1600 
z
M 2791 1931 
Q 2772 2513 2545 2808 
Q 2319 3103 1894 3103 
Q 1497 3103 1269 2806 
Q 1041 2509 991 1931 
L 2791 1931 
z
" transform="scale(0.015625)"/>
       <path id="DejaVuSerif-3d" d="M 678 2894 
L 4684 2894 
L 4684 2394 
L 678 2394 
L 678 2894 
z
M 678 1619 
L 4684 1619 
L 4684 1119 
L 678 1119 
L 678 1619 
z
" transform="scale(0.015625)"/>
       <path id="DejaVuSerif-2c" d="M 231 -622 
Q 525 -406 662 -114 
Q 800 178 800 594 
L 800 709 
L 1416 709 
Q 1391 175 1164 -208 
Q 938 -591 481 -872 
L 231 -622 
z
" transform="scale(0.015625)"/>
       <path id="DejaVuSerif-61" d="M 2547 1044 
L 2547 1747 
L 1806 1747 
Q 1378 1747 1168 1562 
Q 959 1378 959 997 
Q 959 650 1171 447 
Q 1384 244 1747 244 
Q 2106 244 2326 466 
Q 2547 688 2547 1044 
z
M 3122 2075 
L 3122 331 
L 3634 331 
L 3634 0 
L 2547 0 
L 2547 359 
Q 2356 128 2106 18 
Q 1856 -91 1522 -91 
Q 969 -91 644 203 
Q 319 497 319 997 
Q 319 1513 691 1797 
Q 1063 2081 1741 2081 
L 2547 2081 
L 2547 2309 
Q 2547 2688 2317 2895 
Q 2088 3103 1672 3103 
Q 1328 3103 1125 2947 
Q 922 2791 872 2484 
L 575 2484 
L 575 3156 
Q 875 3284 1158 3348 
Q 1441 3413 1709 3413 
Q 2400 3413 2761 3070 
Q 3122 2728 3122 2075 
z
" transform="scale(0.015625)"/>
       <path id="DejaVuSerif-6c" d="M 1313 331 
L 1856 331 
L 1856 0 
L 184 0 
L 184 331 
L 738 331 
L 738 4531 
L 184 4531 
L 184 4863 
L 1313 4863 
L 1313 331 
z
" transform="scale(0.015625)"/>
       <path id="DejaVuSerif-74" d="M 691 2988 
L 184 2988 
L 184 3322 
L 691 3322 
L 691 4353 
L 1269 4353 
L 1269 3322 
L 2350 3322 
L 2350 2988 
L 1269 2988 
L 1269 878 
Q 1269 456 1350 337 
Q 1431 219 1650 219 
Q 1875 219 1978 351 
Q 2081 484 2088 781 
L 2522 781 
Q 2497 328 2275 118 
Q 2053 -91 1600 -91 
Q 1103 -91 897 129 
Q 691 350 691 878 
L 691 2988 
z
" transform="scale(0.015625)"/>
      </defs>
      <use xlink:href="#DejaVuSerif-65"/>
      <use xlink:href="#DejaVuSerif-20" transform="translate(59.179688 0)"/>
      <use xlink:href="#DejaVuSerif-3d" transform="translate(90.966797 0)"/>
      <use xlink:href="#DejaVuSerif-20" transform="translate(174.755859 0)"/>
      <use xlink:href="#DejaVuSerif-30" transform="translate(206.542969 0)"/>
      <use xlink:href="#DejaVuSerif-2c" transform="translate(270.166016 0)"/>
      <use xlink:href="#DejaVuSerif-20" transform="translate(301.953125 0)"/>
      <use xlink:href="#DejaVuSerif-61" transform="translate(333.740234 0)"/>
      <use xlink:href="#DejaVuSerif-6c" transform="translate(393.359375 0)"/>
      <use xlink:href="#DejaVuSerif-74" transform="translate(425.341797 0)"/>
      <use xlink:href="#DejaVuSerif-20" transform="translate(465.527344 0)"/>
      <use xlink:href="#DejaVuSerif-3d" transform="translate(497.314453 0)"/>
      <use xlink:href="#DejaVuSerif-20" transform="translate(581.103516 0)"/>
      <use xlink:href="#DejaVuSerif-33" transform="translate(612.890625 0)"/>
      <use xlink:href="#DejaVuSerif-30" transform="translate(676.513672 0)"/>
      <use xlink:href="#DejaVuSerif-30" transform="translate(740.136719 0)"/>
      <use xlink:href="#DejaVuSerif-20" transform="translate(803.759766 0)"/>
      <use xlink:href="#DejaVuSerif-6b" transform="translate(835.546875 0)"/>
      <use xlink:href="#DejaVuSerif-6d" transform="translate(896.142578 0)"/>
     </g>
    </g>
    <g id="line2d_27">
     <path d="M 61.75 197.305937 
L 71.75 197.305937 
L 81.75 197.305937 
" style="fill: none; stroke: #00bfff; stroke-width: 1.5; stroke-linecap: square"/>
    </g>
    <g id="text_23">
     <!-- e = 0, alt = 5000 km -->
     <g transform="translate(89.75 200.805937) scale(0.1 -0.1)">
      <use xlink:href="#DejaVuSerif-65"/>
      <use xlink:href="#DejaVuSerif-20" transform="translate(59.179688 0)"/>
      <use xlink:href="#DejaVuSerif-3d" transform="translate(90.966797 0)"/>
      <use xlink:href="#DejaVuSerif-20" transform="translate(174.755859 0)"/>
      <use xlink:href="#DejaVuSerif-30" transform="translate(206.542969 0)"/>
      <use xlink:href="#DejaVuSerif-2c" transform="translate(270.166016 0)"/>
      <use xlink:href="#DejaVuSerif-20" transform="translate(301.953125 0)"/>
      <use xlink:href="#DejaVuSerif-61" transform="translate(333.740234 0)"/>
      <use xlink:href="#DejaVuSerif-6c" transform="translate(393.359375 0)"/>
      <use xlink:href="#DejaVuSerif-74" transform="translate(425.341797 0)"/>
      <use xlink:href="#DejaVuSerif-20" transform="translate(465.527344 0)"/>
      <use xlink:href="#DejaVuSerif-3d" transform="translate(497.314453 0)"/>
      <use xlink:href="#DejaVuSerif-20" transform="translate(581.103516 0)"/>
      <use xlink:href="#DejaVuSerif-35" transform="translate(612.890625 0)"/>
      <use xlink:href="#DejaVuSerif-30" transform="translate(676.513672 0)"/>
      <use xlink:href="#DejaVuSerif-30" transform="translate(740.136719 0)"/>
      <use xlink:href="#DejaVuSerif-30" transform="translate(803.759766 0)"/>
      <use xlink:href="#DejaVuSerif-20" transform="translate(867.382812 0)"/>
      <use xlink:href="#DejaVuSerif-6b" transform="translate(899.169922 0)"/>
      <use xlink:href="#DejaVuSerif-6d" transform="translate(959.765625 0)"/>
     </g>
    </g>
    <g id="line2d_28">
     <path d="M 61.75 211.984062 
L 71.75 211.984062 
L 81.75 211.984062 
" style="fill: none; stroke: #ffa500; stroke-width: 1.5; stroke-linecap: square"/>
    </g>
    <g id="text_24">
     <!-- e = 0, alt = 10000 km -->
     <g transform="translate(89.75 215.484062) scale(0.1 -0.1)">
      <use xlink:href="#DejaVuSerif-65"/>
      <use xlink:href="#DejaVuSerif-20" transform="translate(59.179688 0)"/>
      <use xlink:href="#DejaVuSerif-3d" transform="translate(90.966797 0)"/>
      <use xlink:href="#DejaVuSerif-20" transform="translate(174.755859 0)"/>
      <use xlink:href="#DejaVuSerif-30" transform="translate(206.542969 0)"/>
      <use xlink:href="#DejaVuSerif-2c" transform="translate(270.166016 0)"/>
      <use xlink:href="#DejaVuSerif-20" transform="translate(301.953125 0)"/>
      <use xlink:href="#DejaVuSerif-61" transform="translate(333.740234 0)"/>
      <use xlink:href="#DejaVuSerif-6c" transform="translate(393.359375 0)"/>
      <use xlink:href="#DejaVuSerif-74" transform="translate(425.341797 0)"/>
      <use xlink:href="#DejaVuSerif-20" transform="translate(465.527344 0)"/>
      <use xlink:href="#DejaVuSerif-3d" transform="translate(497.314453 0)"/>
      <use xlink:href="#DejaVuSerif-20" transform="translate(581.103516 0)"/>
      <use xlink:href="#DejaVuSerif-31" transform="translate(612.890625 0)"/>
      <use xlink:href="#DejaVuSerif-30" transform="translate(676.513672 0)"/>
      <use xlink:href="#DejaVuSerif-30" transform="translate(740.136719 0)"/>
      <use xlink:href="#DejaVuSerif-30" transform="translate(803.759766 0)"/>
      <use xlink:href="#DejaVuSerif-30" transform="translate(867.382812 0)"/>
      <use xlink:href="#DejaVuSerif-20" transform="translate(931.005859 0)"/>
      <use xlink:href="#DejaVuSerif-6b" transform="translate(962.792969 0)"/>
      <use xlink:href="#DejaVuSerif-6d" transform="translate(1023.388672 0)"/>
     </g>
    </g>
    <g id="line2d_29">
     <path d="M 61.75 226.662187 
L 71.75 226.662187 
L 81.75 226.662187 
" style="fill: none; stroke: #ffc0cb; stroke-width: 1.5; stroke-linecap: square"/>
    </g>
    <g id="text_25">
     <!-- e = 0, alt = 20000 km -->
     <g transform="translate(89.75 230.162187) scale(0.1 -0.1)">
      <use xlink:href="#DejaVuSerif-65"/>
      <use xlink:href="#DejaVuSerif-20" transform="translate(59.179688 0)"/>
      <use xlink:href="#DejaVuSerif-3d" transform="translate(90.966797 0)"/>
      <use xlink:href="#DejaVuSerif-20" transform="translate(174.755859 0)"/>
      <use xlink:href="#DejaVuSerif-30" transform="translate(206.542969 0)"/>
      <use xlink:href="#DejaVuSerif-2c" transform="translate(270.166016 0)"/>
      <use xlink:href="#DejaVuSerif-20" transform="translate(301.953125 0)"/>
      <use xlink:href="#DejaVuSerif-61" transform="translate(333.740234 0)"/>
      <use xlink:href="#DejaVuSerif-6c" transform="translate(393.359375 0)"/>
      <use xlink:href="#DejaVuSerif-74" transform="translate(425.341797 0)"/>
      <use xlink:href="#DejaVuSerif-20" transform="translate(465.527344 0)"/>
      <use xlink:href="#DejaVuSerif-3d" transform="translate(497.314453 0)"/>
      <use xlink:href="#DejaVuSerif-20" transform="translate(581.103516 0)"/>
      <use xlink:href="#DejaVuSerif-32" transform="translate(612.890625 0)"/>
      <use xlink:href="#DejaVuSerif-30" transform="translate(676.513672 0)"/>
      <use xlink:href="#DejaVuSerif-30" transform="translate(740.136719 0)"/>
      <use xlink:href="#DejaVuSerif-30" transform="translate(803.759766 0)"/>
      <use xlink:href="#DejaVuSerif-30" transform="translate(867.382812 0)"/>
      <use xlink:href="#DejaVuSerif-20" transform="translate(931.005859 0)"/>
      <use xlink:href="#DejaVuSerif-6b" transform="translate(962.792969 0)"/>
      <use xlink:href="#DejaVuSerif-6d" transform="translate(1023.388672 0)"/>
     </g>
    </g>
    <g id="line2d_30">
     <path d="M 61.75 241.340312 
L 71.75 241.340312 
L 81.75 241.340312 
" style="fill: none; stroke: #c0c0c0; stroke-width: 1.5; stroke-linecap: square"/>
    </g>
    <g id="text_26">
     <!-- e = 0, alt = 30000 km -->
     <g transform="translate(89.75 244.840312) scale(0.1 -0.1)">
      <use xlink:href="#DejaVuSerif-65"/>
      <use xlink:href="#DejaVuSerif-20" transform="translate(59.179688 0)"/>
      <use xlink:href="#DejaVuSerif-3d" transform="translate(90.966797 0)"/>
      <use xlink:href="#DejaVuSerif-20" transform="translate(174.755859 0)"/>
      <use xlink:href="#DejaVuSerif-30" transform="translate(206.542969 0)"/>
      <use xlink:href="#DejaVuSerif-2c" transform="translate(270.166016 0)"/>
      <use xlink:href="#DejaVuSerif-20" transform="translate(301.953125 0)"/>
      <use xlink:href="#DejaVuSerif-61" transform="translate(333.740234 0)"/>
      <use xlink:href="#DejaVuSerif-6c" transform="translate(393.359375 0)"/>
      <use xlink:href="#DejaVuSerif-74" transform="translate(425.341797 0)"/>
      <use xlink:href="#DejaVuSerif-20" transform="translate(465.527344 0)"/>
      <use xlink:href="#DejaVuSerif-3d" transform="translate(497.314453 0)"/>
      <use xlink:href="#DejaVuSerif-20" transform="translate(581.103516 0)"/>
      <use xlink:href="#DejaVuSerif-33" transform="translate(612.890625 0)"/>
      <use xlink:href="#DejaVuSerif-30" transform="translate(676.513672 0)"/>
      <use xlink:href="#DejaVuSerif-30" transform="translate(740.136719 0)"/>
      <use xlink:href="#DejaVuSerif-30" transform="translate(803.759766 0)"/>
      <use xlink:href="#DejaVuSerif-30" transform="translate(867.382812 0)"/>
      <use xlink:href="#DejaVuSerif-20" transform="translate(931.005859 0)"/>
      <use xlink:href="#DejaVuSerif-6b" transform="translate(962.792969 0)"/>
      <use xlink:href="#DejaVuSerif-6d" transform="translate(1023.388672 0)"/>
     </g>
    </g>
   </g>
  </g>
  <g id="axes_2">
   <g id="patch_8">
    <path d="M 52.75 528.92 
L 682.125 528.92 
L 682.125 306.96 
L 52.75 306.96 
z
" style="fill: #ffffff"/>
   </g>
   <g id="matplotlib.axis_3">
    <g id="xtick_12">
     <g id="line2d_31">
      <g>
       <use xlink:href="#mf93e91e56e" x="81.357955" y="528.92" style="stroke: #000000; stroke-width: 0.8"/>
      </g>
     </g>
     <g id="text_27">
      <!-- 0 -->
      <g transform="translate(78.176705 543.518438) scale(0.1 -0.1)">
       <use xlink:href="#DejaVuSerif-30"/>
      </g>
     </g>
    </g>
    <g id="xtick_13">
     <g id="line2d_32">
      <g>
       <use xlink:href="#mf93e91e56e" x="138.645473" y="528.92" style="stroke: #000000; stroke-width: 0.8"/>
      </g>
     </g>
     <g id="text_28">
      <!-- 0.1 -->
      <g transform="translate(130.693911 543.518438) scale(0.1 -0.1)">
       <use xlink:href="#DejaVuSerif-30"/>
       <use xlink:href="#DejaVuSerif-2e" transform="translate(63.623047 0)"/>
       <use xlink:href="#DejaVuSerif-31" transform="translate(95.410156 0)"/>
      </g>
     </g>
    </g>
    <g id="xtick_14">
     <g id="line2d_33">
      <g>
       <use xlink:href="#mf93e91e56e" x="195.932992" y="528.92" style="stroke: #000000; stroke-width: 0.8"/>
      </g>
     </g>
     <g id="text_29">
      <!-- 0.2 -->
      <g transform="translate(187.981429 543.518438) scale(0.1 -0.1)">
       <use xlink:href="#DejaVuSerif-30"/>
       <use xlink:href="#DejaVuSerif-2e" transform="translate(63.623047 0)"/>
       <use xlink:href="#DejaVuSerif-32" transform="translate(95.410156 0)"/>
      </g>
     </g>
    </g>
    <g id="xtick_15">
     <g id="line2d_34">
      <g>
       <use xlink:href="#mf93e91e56e" x="253.22051" y="528.92" style="stroke: #000000; stroke-width: 0.8"/>
      </g>
     </g>
     <g id="text_30">
      <!-- 0.3 -->
      <g transform="translate(245.268948 543.518438) scale(0.1 -0.1)">
       <use xlink:href="#DejaVuSerif-30"/>
       <use xlink:href="#DejaVuSerif-2e" transform="translate(63.623047 0)"/>
       <use xlink:href="#DejaVuSerif-33" transform="translate(95.410156 0)"/>
      </g>
     </g>
    </g>
    <g id="xtick_16">
     <g id="line2d_35">
      <g>
       <use xlink:href="#mf93e91e56e" x="310.508029" y="528.92" style="stroke: #000000; stroke-width: 0.8"/>
      </g>
     </g>
     <g id="text_31">
      <!-- 0.4 -->
      <g transform="translate(302.556466 543.518438) scale(0.1 -0.1)">
       <use xlink:href="#DejaVuSerif-30"/>
       <use xlink:href="#DejaVuSerif-2e" transform="translate(63.623047 0)"/>
       <use xlink:href="#DejaVuSerif-34" transform="translate(95.410156 0)"/>
      </g>
     </g>
    </g>
    <g id="xtick_17">
     <g id="line2d_36">
      <g>
       <use xlink:href="#mf93e91e56e" x="367.795547" y="528.92" style="stroke: #000000; stroke-width: 0.8"/>
      </g>
     </g>
     <g id="text_32">
      <!-- 0.5 -->
      <g transform="translate(359.843984 543.518438) scale(0.1 -0.1)">
       <use xlink:href="#DejaVuSerif-30"/>
       <use xlink:href="#DejaVuSerif-2e" transform="translate(63.623047 0)"/>
       <use xlink:href="#DejaVuSerif-35" transform="translate(95.410156 0)"/>
      </g>
     </g>
    </g>
    <g id="xtick_18">
     <g id="line2d_37">
      <g>
       <use xlink:href="#mf93e91e56e" x="425.083065" y="528.92" style="stroke: #000000; stroke-width: 0.8"/>
      </g>
     </g>
     <g id="text_33">
      <!-- 0.6 -->
      <g transform="translate(417.131503 543.518438) scale(0.1 -0.1)">
       <use xlink:href="#DejaVuSerif-30"/>
       <use xlink:href="#DejaVuSerif-2e" transform="translate(63.623047 0)"/>
       <use xlink:href="#DejaVuSerif-36" transform="translate(95.410156 0)"/>
      </g>
     </g>
    </g>
    <g id="xtick_19">
     <g id="line2d_38">
      <g>
       <use xlink:href="#mf93e91e56e" x="482.370584" y="528.92" style="stroke: #000000; stroke-width: 0.8"/>
      </g>
     </g>
     <g id="text_34">
      <!-- 0.7 -->
      <g transform="translate(474.419021 543.518438) scale(0.1 -0.1)">
       <use xlink:href="#DejaVuSerif-30"/>
       <use xlink:href="#DejaVuSerif-2e" transform="translate(63.623047 0)"/>
       <use xlink:href="#DejaVuSerif-37" transform="translate(95.410156 0)"/>
      </g>
     </g>
    </g>
    <g id="xtick_20">
     <g id="line2d_39">
      <g>
       <use xlink:href="#mf93e91e56e" x="539.658102" y="528.92" style="stroke: #000000; stroke-width: 0.8"/>
      </g>
     </g>
     <g id="text_35">
      <!-- 0.8 -->
      <g transform="translate(531.70654 543.518438) scale(0.1 -0.1)">
       <use xlink:href="#DejaVuSerif-30"/>
       <use xlink:href="#DejaVuSerif-2e" transform="translate(63.623047 0)"/>
       <use xlink:href="#DejaVuSerif-38" transform="translate(95.410156 0)"/>
      </g>
     </g>
    </g>
    <g id="xtick_21">
     <g id="line2d_40">
      <g>
       <use xlink:href="#mf93e91e56e" x="596.945621" y="528.92" style="stroke: #000000; stroke-width: 0.8"/>
      </g>
     </g>
     <g id="text_36">
      <!-- 0.9 -->
      <g transform="translate(588.994058 543.518438) scale(0.1 -0.1)">
       <use xlink:href="#DejaVuSerif-30"/>
       <use xlink:href="#DejaVuSerif-2e" transform="translate(63.623047 0)"/>
       <use xlink:href="#DejaVuSerif-39" transform="translate(95.410156 0)"/>
      </g>
     </g>
    </g>
    <g id="xtick_22">
     <g id="line2d_41">
      <g>
       <use xlink:href="#mf93e91e56e" x="654.233139" y="528.92" style="stroke: #000000; stroke-width: 0.8"/>
      </g>
     </g>
     <g id="text_37">
      <!-- 1.0 -->
      <g transform="translate(646.281577 543.518438) scale(0.1 -0.1)">
       <use xlink:href="#DejaVuSerif-31"/>
       <use xlink:href="#DejaVuSerif-2e" transform="translate(63.623047 0)"/>
       <use xlink:href="#DejaVuSerif-30" transform="translate(95.410156 0)"/>
      </g>
     </g>
    </g>
    <g id="text_38">
     <!-- Number of Orbits -->
     <g transform="translate(295.77375 561.755625) scale(0.16 -0.16)">
      <defs>
       <path id="DejaVuSerif-4e" d="M 313 0 
L 313 331 
L 941 331 
L 941 4331 
L 313 4331 
L 313 4666 
L 1509 4666 
L 4306 984 
L 4306 4331 
L 3681 4331 
L 3681 4666 
L 5319 4666 
L 5319 4331 
L 4691 4331 
L 4691 -91 
L 4313 -91 
L 1325 3841 
L 1325 331 
L 1953 331 
L 1953 0 
L 313 0 
z
" transform="scale(0.015625)"/>
       <path id="DejaVuSerif-75" d="M 2266 3322 
L 3341 3322 
L 3341 331 
L 3884 331 
L 3884 0 
L 2766 0 
L 2766 588 
Q 2606 256 2353 82 
Q 2100 -91 1766 -91 
Q 1213 -91 952 223 
Q 691 538 691 1209 
L 691 2988 
L 172 2988 
L 172 3322 
L 1269 3322 
L 1269 1388 
Q 1269 781 1417 556 
Q 1566 331 1947 331 
Q 2347 331 2556 625 
Q 2766 919 2766 1478 
L 2766 2988 
L 2266 2988 
L 2266 3322 
z
" transform="scale(0.015625)"/>
       <path id="DejaVuSerif-62" d="M 738 331 
L 738 4531 
L 184 4531 
L 184 4863 
L 1313 4863 
L 1313 2803 
Q 1481 3116 1742 3264 
Q 2003 3413 2388 3413 
Q 3000 3413 3387 2928 
Q 3775 2444 3775 1663 
Q 3775 881 3387 395 
Q 3000 -91 2388 -91 
Q 2003 -91 1742 57 
Q 1481 206 1313 519 
L 1313 0 
L 184 0 
L 184 331 
L 738 331 
z
M 1313 1497 
Q 1313 897 1542 583 
Q 1772 269 2209 269 
Q 2650 269 2876 622 
Q 3103 975 3103 1663 
Q 3103 2353 2876 2703 
Q 2650 3053 2209 3053 
Q 1772 3053 1542 2737 
Q 1313 2422 1313 1825 
L 1313 1497 
z
" transform="scale(0.015625)"/>
       <path id="DejaVuSerif-66" d="M 2753 4078 
L 2450 4078 
Q 2447 4313 2317 4434 
Q 2188 4556 1941 4556 
Q 1619 4556 1487 4379 
Q 1356 4203 1356 3750 
L 1356 3322 
L 2284 3322 
L 2284 2988 
L 1356 2988 
L 1356 331 
L 2094 331 
L 2094 0 
L 231 0 
L 231 331 
L 781 331 
L 781 2988 
L 231 2988 
L 231 3322 
L 781 3322 
L 781 3738 
Q 781 4294 1070 4578 
Q 1359 4863 1919 4863 
Q 2128 4863 2337 4825 
Q 2547 4788 2753 4709 
L 2753 4078 
z
" transform="scale(0.015625)"/>
       <path id="DejaVuSerif-4f" d="M 2625 244 
Q 3391 244 3781 770 
Q 4172 1297 4172 2328 
Q 4172 3363 3781 3889 
Q 3391 4416 2625 4416 
Q 1856 4416 1465 3889 
Q 1075 3363 1075 2328 
Q 1075 1297 1465 770 
Q 1856 244 2625 244 
z
M 2625 -91 
Q 2150 -91 1751 65 
Q 1353 222 1050 525 
Q 700 875 529 1319 
Q 359 1763 359 2328 
Q 359 2894 529 3339 
Q 700 3784 1050 4134 
Q 1356 4441 1750 4595 
Q 2144 4750 2625 4750 
Q 3641 4750 4266 4084 
Q 4891 3419 4891 2328 
Q 4891 1769 4719 1320 
Q 4547 872 4197 525 
Q 3891 219 3497 64 
Q 3103 -91 2625 -91 
z
" transform="scale(0.015625)"/>
       <path id="DejaVuSerif-73" d="M 359 184 
L 359 959 
L 691 959 
Q 703 588 923 403 
Q 1144 219 1575 219 
Q 1963 219 2166 364 
Q 2369 509 2369 788 
Q 2369 1006 2220 1140 
Q 2072 1275 1594 1428 
L 1178 1569 
Q 750 1706 558 1912 
Q 366 2119 366 2438 
Q 366 2894 700 3153 
Q 1034 3413 1625 3413 
Q 1888 3413 2178 3344 
Q 2469 3275 2778 3144 
L 2778 2419 
L 2447 2419 
Q 2434 2741 2221 2922 
Q 2009 3103 1644 3103 
Q 1281 3103 1095 2975 
Q 909 2847 909 2591 
Q 909 2381 1050 2254 
Q 1191 2128 1613 1997 
L 2069 1856 
Q 2541 1709 2748 1489 
Q 2956 1269 2956 922 
Q 2956 450 2595 179 
Q 2234 -91 1600 -91 
Q 1278 -91 972 -22 
Q 666 47 359 184 
z
" transform="scale(0.015625)"/>
      </defs>
      <use xlink:href="#DejaVuSerif-4e"/>
      <use xlink:href="#DejaVuSerif-75" transform="translate(87.5 0)"/>
      <use xlink:href="#DejaVuSerif-6d" transform="translate(151.904297 0)"/>
      <use xlink:href="#DejaVuSerif-62" transform="translate(246.728516 0)"/>
      <use xlink:href="#DejaVuSerif-65" transform="translate(310.742188 0)"/>
      <use xlink:href="#DejaVuSerif-72" transform="translate(369.921875 0)"/>
      <use xlink:href="#DejaVuSerif-20" transform="translate(417.724609 0)"/>
      <use xlink:href="#DejaVuSerif-6f" transform="translate(449.511719 0)"/>
      <use xlink:href="#DejaVuSerif-66" transform="translate(509.716797 0)"/>
      <use xlink:href="#DejaVuSerif-20" transform="translate(546.728516 0)"/>
      <use xlink:href="#DejaVuSerif-4f" transform="translate(578.515625 0)"/>
      <use xlink:href="#DejaVuSerif-72" transform="translate(660.498047 0)"/>
      <use xlink:href="#DejaVuSerif-62" transform="translate(708.300781 0)"/>
      <use xlink:href="#DejaVuSerif-69" transform="translate(772.314453 0)"/>
      <use xlink:href="#DejaVuSerif-74" transform="translate(804.296875 0)"/>
      <use xlink:href="#DejaVuSerif-73" transform="translate(844.482422 0)"/>
     </g>
    </g>
   </g>
   <g id="matplotlib.axis_4">
    <g id="ytick_10">
     <g id="line2d_42">
      <g>
       <use xlink:href="#m8d5c045a9f" x="52.75" y="511.111283" style="stroke: #000000; stroke-width: 0.8"/>
      </g>
     </g>
     <g id="text_39">
      <!-- −1.5 -->
      <g transform="translate(21.467187 514.910502) scale(0.1 -0.1)">
       <use xlink:href="#DejaVuSerif-2212"/>
       <use xlink:href="#DejaVuSerif-31" transform="translate(83.789062 0)"/>
       <use xlink:href="#DejaVuSerif-2e" transform="translate(147.412109 0)"/>
       <use xlink:href="#DejaVuSerif-35" transform="translate(179.199219 0)"/>
      </g>
     </g>
    </g>
    <g id="ytick_11">
     <g id="line2d_43">
      <g>
       <use xlink:href="#m8d5c045a9f" x="52.75" y="473.757959" style="stroke: #000000; stroke-width: 0.8"/>
      </g>
     </g>
     <g id="text_40">
      <!-- −1.0 -->
      <g transform="translate(21.467187 477.557177) scale(0.1 -0.1)">
       <use xlink:href="#DejaVuSerif-2212"/>
       <use xlink:href="#DejaVuSerif-31" transform="translate(83.789062 0)"/>
       <use xlink:href="#DejaVuSerif-2e" transform="translate(147.412109 0)"/>
       <use xlink:href="#DejaVuSerif-30" transform="translate(179.199219 0)"/>
      </g>
     </g>
    </g>
    <g id="ytick_12">
     <g id="line2d_44">
      <g>
       <use xlink:href="#m8d5c045a9f" x="52.75" y="436.404635" style="stroke: #000000; stroke-width: 0.8"/>
      </g>
     </g>
     <g id="text_41">
      <!-- −0.5 -->
      <g transform="translate(21.467187 440.203853) scale(0.1 -0.1)">
       <use xlink:href="#DejaVuSerif-2212"/>
       <use xlink:href="#DejaVuSerif-30" transform="translate(83.789062 0)"/>
       <use xlink:href="#DejaVuSerif-2e" transform="translate(147.412109 0)"/>
       <use xlink:href="#DejaVuSerif-35" transform="translate(179.199219 0)"/>
      </g>
     </g>
    </g>
    <g id="ytick_13">
     <g id="line2d_45">
      <g>
       <use xlink:href="#m8d5c045a9f" x="52.75" y="399.05131" style="stroke: #000000; stroke-width: 0.8"/>
      </g>
     </g>
     <g id="text_42">
      <!-- 0.0 -->
      <g transform="translate(29.846875 402.850529) scale(0.1 -0.1)">
       <use xlink:href="#DejaVuSerif-30"/>
       <use xlink:href="#DejaVuSerif-2e" transform="translate(63.623047 0)"/>
       <use xlink:href="#DejaVuSerif-30" transform="translate(95.410156 0)"/>
      </g>
     </g>
    </g>
    <g id="ytick_14">
     <g id="line2d_46">
      <g>
       <use xlink:href="#m8d5c045a9f" x="52.75" y="361.697986" style="stroke: #000000; stroke-width: 0.8"/>
      </g>
     </g>
     <g id="text_43">
      <!-- 0.5 -->
      <g transform="translate(29.846875 365.497205) scale(0.1 -0.1)">
       <use xlink:href="#DejaVuSerif-30"/>
       <use xlink:href="#DejaVuSerif-2e" transform="translate(63.623047 0)"/>
       <use xlink:href="#DejaVuSerif-35" transform="translate(95.410156 0)"/>
      </g>
     </g>
    </g>
    <g id="ytick_15">
     <g id="line2d_47">
      <g>
       <use xlink:href="#m8d5c045a9f" x="52.75" y="324.344662" style="stroke: #000000; stroke-width: 0.8"/>
      </g>
     </g>
     <g id="text_44">
      <!-- 1.0 -->
      <g transform="translate(29.846875 328.143881) scale(0.1 -0.1)">
       <use xlink:href="#DejaVuSerif-31"/>
       <use xlink:href="#DejaVuSerif-2e" transform="translate(63.623047 0)"/>
       <use xlink:href="#DejaVuSerif-30" transform="translate(95.410156 0)"/>
      </g>
     </g>
    </g>
    <g id="text_45">
     <!-- Error in Y [km] -->
     <g transform="translate(14.139687 479.36375) rotate(-90) scale(0.16 -0.16)">
      <defs>
       <path id="DejaVuSerif-59" d="M 1209 0 
L 1209 331 
L 1806 331 
L 1806 2009 
L 366 4331 
L -72 4331 
L -72 4666 
L 1663 4666 
L 1663 4331 
L 1119 4331 
L 2284 2444 
L 3450 4331 
L 2925 4331 
L 2925 4666 
L 4281 4666 
L 4281 4331 
L 3841 4331 
L 2438 2069 
L 2438 331 
L 3034 331 
L 3034 0 
L 1209 0 
z
" transform="scale(0.015625)"/>
      </defs>
      <use xlink:href="#DejaVuSerif-45"/>
      <use xlink:href="#DejaVuSerif-72" transform="translate(72.998047 0)"/>
      <use xlink:href="#DejaVuSerif-72" transform="translate(120.800781 0)"/>
      <use xlink:href="#DejaVuSerif-6f" transform="translate(168.603516 0)"/>
      <use xlink:href="#DejaVuSerif-72" transform="translate(228.808594 0)"/>
      <use xlink:href="#DejaVuSerif-20" transform="translate(276.611328 0)"/>
      <use xlink:href="#DejaVuSerif-69" transform="translate(308.398438 0)"/>
      <use xlink:href="#DejaVuSerif-6e" transform="translate(340.380859 0)"/>
      <use xlink:href="#DejaVuSerif-20" transform="translate(404.785156 0)"/>
      <use xlink:href="#DejaVuSerif-59" transform="translate(436.572266 0)"/>
      <use xlink:href="#DejaVuSerif-20" transform="translate(502.587891 0)"/>
      <use xlink:href="#DejaVuSerif-5b" transform="translate(534.375 0)"/>
      <use xlink:href="#DejaVuSerif-6b" transform="translate(573.388672 0)"/>
      <use xlink:href="#DejaVuSerif-6d" transform="translate(633.984375 0)"/>
      <use xlink:href="#DejaVuSerif-5d" transform="translate(728.808594 0)"/>
     </g>
    </g>
   </g>
   <g id="line2d_48">
    <path d="M 81.357955 399.05131 
L 107.853432 401.413252 
L 125.039687 402.62158 
L 136.497191 403.255383 
L 147.954695 403.583684 
L 157.980011 403.729595 
L 171.585796 403.620162 
L 178.030642 403.437773 
L 188.055958 402.945321 
L 203.093931 401.887464 
L 228.157221 399.2337 
L 236.750348 398.02993 
L 247.491758 396.288113 
L 257.517074 394.400384 
L 287.593021 388.16267 
L 329.842566 379.111603 
L 341.30007 377.032365 
L 353.473667 375.124117 
L 362.066795 373.996723 
L 370.659923 373.097886 
L 378.536957 372.477193 
L 385.697897 372.105574 
L 392.858836 371.920905 
L 400.73587 371.975622 
L 409.328998 372.299363 
L 417.206032 372.851091 
L 425.083065 373.662723 
L 435.108381 375.030642 
L 446.565885 377.027805 
L 455.875107 379.034087 
L 462.319952 380.620874 
L 468.764798 382.371811 
L 476.641832 384.688155 
L 483.086678 386.758273 
L 490.963712 389.466754 
L 512.446531 397.510121 
L 525.336223 402.717335 
L 534.645445 406.739018 
L 549.683418 413.323271 
L 582.623741 427.066304 
L 597.661715 432.702132 
L 610.551407 437.033878 
L 619.860628 439.838113 
L 627.021568 441.775999 
L 634.182508 443.495018 
L 640.627354 444.840139 
L 647.0722 445.970952 
L 653.517045 446.874207 
L 653.517045 446.874207 
" clip-path="url(#pdc7a43c3fd)" style="fill: none; stroke: #ff0000; stroke-width: 1.5; stroke-linecap: square"/>
   </g>
   <g id="line2d_49">
    <path d="M 81.357955 399.05131 
L 104.272962 400.410111 
L 143.658131 401.823627 
L 149.386883 401.714194 
L 151.535165 401.714194 
L 168.005326 401.60476 
L 170.869702 401.568282 
L 177.314548 401.458849 
L 190.920334 400.875203 
L 195.932992 400.76577 
L 216.699717 399.598478 
L 226.008939 398.759488 
L 229.589409 398.467665 
L 243.195194 396.972073 
L 248.207852 396.315471 
L 268.974578 394.090322 
L 274.703329 393.324287 
L 283.296457 392.339385 
L 291.889585 391.135616 
L 295.470055 390.661404 
L 311.224122 388.363299 
L 316.952874 387.524308 
L 329.842566 385.663937 
L 350.609291 383.110487 
L 364.215077 382.007032 
L 374.240393 381.453025 
L 384.981803 381.104205 
L 395.007118 381.076847 
L 411.47728 381.596656 
L 421.502596 382.21678 
L 429.379629 382.928098 
L 442.269321 384.350735 
L 449.430261 385.335637 
L 456.591201 386.174627 
L 463.75214 387.159529 
L 466.616516 387.560786 
L 476.641832 389.202289 
L 483.086678 390.406059 
L 492.3959 391.938129 
L 513.162625 396.278993 
L 518.891377 397.628674 
L 528.916693 399.780867 
L 536.793727 401.677716 
L 541.09029 402.662618 
L 556.128264 406.602226 
L 558.99264 407.368261 
L 561.857016 407.988385 
L 570.450144 409.848756 
L 576.894989 411.380826 
L 582.623741 412.657551 
L 586.920305 413.642453 
L 591.216869 414.627355 
L 597.661715 416.159425 
L 615.564064 420.15375 
L 623.441098 421.649342 
L 639.91126 424.485495 
L 647.0722 425.515995 
L 653.517045 426.326202 
L 653.517045 426.326202 
" clip-path="url(#pdc7a43c3fd)" style="fill: none; stroke: #00bfff; stroke-width: 1.5; stroke-linecap: square"/>
   </g>
   <g id="line2d_50">
    <path d="M 81.357955 399.05131 
L 104.272962 400.054451 
L 114.298278 400.218602 
L 120.743124 399.999735 
L 123.607499 399.890301 
L 125.755781 399.853823 
L 130.052345 399.963257 
L 150.819071 399.853823 
L 158.696105 399.343133 
L 163.708762 398.905399 
L 165.14095 398.832443 
L 174.450172 397.956975 
L 188.055958 397.884019 
L 190.20424 397.738108 
L 192.352522 397.665152 
L 193.78471 397.592196 
L 196.649086 397.51924 
L 198.081273 397.446285 
L 203.810025 397.373329 
L 205.242213 397.300373 
L 210.254871 397.227418 
L 213.835341 396.935595 
L 216.699717 396.862639 
L 218.847999 396.716728 
L 220.996281 396.643772 
L 224.576751 396.351949 
L 226.008939 396.278993 
L 227.441127 396.206038 
L 228.873315 396.133082 
L 232.453785 395.841259 
L 234.602067 395.768303 
L 237.466442 395.549436 
L 238.89863 395.476481 
L 243.195194 395.111702 
L 244.627382 395.038746 
L 273.987235 392.120518 
L 276.135517 392.047562 
L 277.567705 391.974606 
L 282.580363 391.901651 
L 284.012551 391.828695 
L 292.605679 391.755739 
L 302.630995 390.843793 
L 307.643653 390.479014 
L 317.668968 389.567068 
L 321.249438 389.275245 
L 335.571318 387.925564 
L 354.189761 386.603242 
L 363.498983 386.233904 
L 373.524299 386.024156 
L 384.265709 386.065194 
L 397.1554 386.174627 
L 407.180716 386.794751 
L 430.095723 389.0199 
L 432.960099 389.275245 
L 437.972757 389.895369 
L 439.404945 390.077758 
L 440.837133 390.150714 
L 463.036046 392.485296 
L 465.900422 392.995986 
L 468.764798 393.360765 
L 471.629174 393.871455 
L 473.061362 394.090322 
L 474.49355 394.309189 
L 477.357926 394.528056 
L 479.506208 394.601012 
L 482.370584 394.819879 
L 483.802772 394.892835 
L 488.099336 395.257613 
L 489.531524 395.330569 
L 510.298249 397.51924 
L 511.730437 397.738108 
L 516.743095 398.321753 
L 518.175283 398.54062 
L 521.039659 398.905399 
L 523.187941 399.270178 
L 526.052317 399.634956 
L 528.916693 400.145646 
L 531.064975 400.291557 
L 532.497163 400.364513 
L 533.929351 400.437469 
L 535.361539 400.510425 
L 538.942008 400.802247 
L 540.374196 400.875203 
L 542.522478 401.021115 
L 544.67076 401.09407 
L 546.102948 401.167026 
L 548.25123 401.239982 
L 551.115606 401.458849 
L 552.547794 401.531805 
L 554.696076 401.677716 
L 556.128264 401.750672 
L 586.204211 404.924245 
L 590.500775 405.471413 
L 603.390467 406.894049 
L 606.254843 407.22235 
L 630.602038 409.812278 
L 633.466414 410.085862 
L 641.343448 410.79718 
L 653.517045 411.97929 
L 653.517045 411.97929 
" clip-path="url(#pdc7a43c3fd)" style="fill: none; stroke: #ffa500; stroke-width: 1.5; stroke-linecap: square"/>
   </g>
   <g id="line2d_51">
    <path d="M 81.357955 399.05131 
L 101.408586 402.553185 
L 105.70515 403.100352 
L 118.594842 404.304122 
L 120.02703 404.377077 
L 121.459217 404.450033 
L 127.187969 404.522989 
L 145.090319 406.273926 
L 146.522507 406.20097 
L 152.967353 405.617324 
L 154.399541 405.544369 
L 159.412198 405.033679 
L 160.128292 404.741856 
L 161.56048 404.450033 
L 168.72142 404.450033 
L 169.437514 404.304122 
L 172.30189 404.304122 
L 173.017984 404.15821 
L 173.734078 404.15821 
L 174.450172 404.012299 
L 178.746736 404.012299 
L 179.46283 403.866387 
L 180.178924 403.866387 
L 180.895018 403.720476 
L 181.611112 403.720476 
L 183.759394 403.282742 
L 184.475488 403.282742 
L 191.636428 401.823627 
L 192.352522 401.823627 
L 193.068616 401.677716 
L 193.78471 401.677716 
L 202.377837 399.926779 
L 203.093931 399.634956 
L 206.674401 398.905399 
L 207.390495 398.613576 
L 208.822683 398.321753 
L 209.538777 398.02993 
L 211.687059 397.592196 
L 212.403153 397.300373 
L 215.983623 396.570816 
L 217.415811 395.987171 
L 219.564093 395.549436 
L 220.280187 395.257613 
L 221.712375 394.965791 
L 223.144563 394.382145 
L 223.860657 394.236233 
L 226.008939 393.360765 
L 226.725033 393.214853 
L 229.589409 392.047562 
L 231.737691 391.609828 
L 234.602067 390.442536 
L 235.31816 390.296625 
L 236.034254 390.004802 
L 236.750348 389.858891 
L 238.182536 389.275245 
L 239.614724 388.983422 
L 261.097544 380.228737 
L 262.529732 379.353268 
L 263.96192 378.769623 
L 264.678014 378.331888 
L 265.394108 378.040066 
L 266.110202 377.602331 
L 273.271141 374.684103 
L 273.987235 374.246369 
L 275.419423 373.662723 
L 276.135517 373.224989 
L 278.999893 372.057697 
L 279.715987 371.619963 
L 281.148175 371.036317 
L 281.864269 370.598583 
L 284.728645 369.431292 
L 286.160833 368.555823 
L 286.876927 368.264 
L 288.309115 367.388532 
L 300.482713 362.354588 
L 314.088498 355.496751 
L 315.520686 354.840149 
L 319.81725 352.724434 
L 321.249438 352.067832 
L 324.113814 350.681674 
L 326.262096 349.73325 
L 328.410378 348.71187 
L 339.867882 344.152138 
L 349.893197 340.650264 
L 354.905855 339.3553 
L 358.486325 338.534548 
L 363.498983 337.558765 
L 368.511641 336.782471 
L 373.524299 336.218204 
L 379.969145 335.743992 
L 387.846178 335.652797 
L 393.57493 335.762231 
L 402.168058 336.747133 
L 405.748528 337.403734 
L 412.193374 338.789893 
L 414.341656 339.373539 
L 416.489938 339.884229 
L 429.379629 343.896793 
L 431.527911 344.699305 
L 435.108381 345.866597 
L 438.688851 347.252755 
L 440.837133 347.982312 
L 445.133697 349.660294 
L 446.565885 350.608718 
L 447.281979 351.046452 
L 448.714167 351.630098 
L 449.430261 352.067832 
L 450.146355 352.359655 
L 456.591201 356.299264 
L 457.307295 356.882909 
L 459.455577 358.196112 
L 460.171671 358.779758 
L 460.887765 359.217492 
L 463.036046 360.968429 
L 463.75214 361.406163 
L 465.184328 362.573455 
L 465.900422 363.011189 
L 466.616516 363.594835 
L 467.33261 364.032569 
L 468.048704 364.616215 
L 469.480892 365.491683 
L 471.629174 367.24262 
L 472.345268 367.680355 
L 473.061362 367.972177 
L 474.49355 368.847646 
L 475.209644 369.139469 
L 476.641832 370.014937 
L 477.357926 370.30676 
L 481.65449 372.933166 
L 483.086678 374.100457 
L 489.531524 378.040066 
L 492.3959 380.374648 
L 493.828088 381.250117 
L 494.544182 381.833763 
L 495.97637 382.709231 
L 498.124652 384.460168 
L 498.840746 384.897902 
L 502.421215 387.816131 
L 503.853403 388.691599 
L 506.001685 390.442536 
L 506.717779 390.880271 
L 508.149967 392.047562 
L 508.866061 392.485296 
L 523.187941 404.15821 
L 524.620129 405.471413 
L 532.497163 411.891516 
L 533.929351 413.204718 
L 535.361539 414.37201 
L 537.509821 416.41477 
L 538.942008 417.582061 
L 541.09029 418.895264 
L 544.67076 421.813492 
L 546.102948 422.688961 
L 546.819042 423.272607 
L 549.683418 425.023544 
L 550.399512 425.607189 
L 552.547794 426.920392 
L 553.263888 427.504038 
L 553.979982 427.941772 
L 554.696076 428.525418 
L 555.41217 428.963152 
L 556.844358 430.130443 
L 558.276546 431.005912 
L 558.99264 431.589558 
L 560.424828 432.465026 
L 561.857016 433.632318 
L 563.289204 434.507786 
L 564.721392 435.675077 
L 566.869674 436.98828 
L 567.585768 437.571926 
L 568.301862 438.00966 
L 571.166238 440.344243 
L 574.746708 442.532914 
L 575.462802 443.11656 
L 576.178895 443.554294 
L 579.759365 446.399567 
L 581.191553 447.493903 
L 583.339835 449.171884 
L 584.772023 450.26622 
L 586.204211 451.360555 
L 588.352493 452.965581 
L 589.784681 454.059917 
L 591.216869 455.154252 
L 593.365151 456.832234 
L 594.797339 457.926569 
L 596.229527 459.020905 
L 601.242185 462.522779 
L 602.674373 463.471203 
L 606.254843 465.951698 
L 607.687031 466.900122 
L 609.119219 467.848546 
L 619.144534 473.867392 
L 626.305474 477.770523 
L 630.602038 479.849761 
L 634.182508 481.418308 
L 637.762978 482.950378 
L 646.356106 486.142191 
L 650.65267 487.478192 
L 653.517045 488.269306 
L 653.517045 488.269306 
" clip-path="url(#pdc7a43c3fd)" style="fill: none; stroke: #ffc0cb; stroke-width: 1.5; stroke-linecap: square"/>
   </g>
   <g id="line2d_52">
    <path d="M 81.357955 399.05131 
L 102.840774 404.559467 
L 117.878748 407.514173 
L 119.310936 407.73304 
L 123.607499 408.681464 
L 125.039687 409.046243 
L 130.768439 409.629889 
L 133.632815 409.411021 
L 135.065003 409.411021 
L 135.781097 409.26511 
L 140.077661 409.26511 
L 141.509849 408.973287 
L 142.225943 408.973287 
L 142.942037 408.827376 
L 147.954695 408.827376 
L 148.670789 408.681464 
L 149.386883 408.681464 
L 152.967353 407.951907 
L 153.683447 407.951907 
L 168.005326 405.033679 
L 169.437514 404.450033 
L 173.017984 403.720476 
L 175.166266 403.720476 
L 176.598454 403.428653 
L 178.030642 403.428653 
L 178.746736 403.282742 
L 180.178924 403.282742 
L 182.327206 402.845007 
L 183.0433 402.845007 
L 185.191582 402.407273 
L 185.907676 402.407273 
L 199.513461 399.634956 
L 200.229555 399.343133 
L 203.093931 398.759488 
L 203.810025 398.467665 
L 205.958307 398.02993 
L 211.687059 395.695348 
L 212.403153 395.549436 
L 213.119247 395.257613 
L 213.835341 395.111702 
L 223.860657 391.026182 
L 224.576751 390.588448 
L 226.725033 389.712979 
L 227.441127 389.275245 
L 231.737691 387.524308 
L 232.453785 387.086574 
L 234.602067 386.211105 
L 235.31816 385.773371 
L 236.034254 385.481548 
L 236.750348 385.043814 
L 238.182536 384.460168 
L 239.614724 383.5847 
L 240.330818 383.292877 
L 241.763006 382.417408 
L 242.4791 382.125585 
L 243.195194 381.687851 
L 243.911288 381.396028 
L 244.627382 380.958294 
L 245.343476 380.666471 
L 246.05957 380.228737 
L 247.491758 379.645091 
L 249.64004 378.331888 
L 250.356134 378.040066 
L 251.072228 377.602331 
L 252.504416 377.018686 
L 253.22051 376.580951 
L 253.936604 376.289128 
L 255.368792 375.41366 
L 256.80098 374.830014 
L 257.517074 374.39228 
L 258.233168 374.100457 
L 260.38145 372.787254 
L 261.813638 372.203609 
L 265.394108 370.014937 
L 266.110202 369.723114 
L 271.838954 366.22124 
L 272.555048 365.637595 
L 278.283799 362.13572 
L 279.715987 360.968429 
L 281.864269 359.655226 
L 282.580363 359.071581 
L 288.309115 355.569706 
L 289.025209 354.986061 
L 293.321773 352.359655 
L 294.037867 351.776009 
L 294.753961 351.338275 
L 295.470055 350.75463 
L 323.39772 333.755949 
L 324.829908 332.953436 
L 328.410378 330.83772 
L 332.706942 328.722005 
L 349.177103 322.119513 
L 354.189761 320.441531 
L 357.770231 319.43839 
L 361.350701 318.635878 
L 366.363359 317.783208 
L 370.659923 317.318115 
L 374.956487 317.103808 
L 379.969145 317.049091 
L 386.41399 317.486825 
L 390.710554 318.033993 
L 392.142742 318.289338 
L 395.007118 319.091851 
L 396.439306 319.456629 
L 400.019776 320.623921 
L 402.884152 321.718256 
L 405.032434 322.447814 
L 412.193374 325.438998 
L 415.05775 326.825156 
L 415.773844 327.116979 
L 422.21869 331.056587 
L 423.650878 332.223879 
L 424.366971 332.661613 
L 425.083065 333.245259 
L 425.799159 333.682993 
L 426.515253 334.266639 
L 428.663535 335.579842 
L 430.095723 336.163487 
L 440.837133 342.729501 
L 441.553227 343.313147 
L 442.269321 343.750881 
L 443.701509 344.918173 
L 444.417603 345.355907 
L 446.565885 347.106844 
L 447.998073 347.982312 
L 449.430261 349.149604 
L 450.146355 349.587338 
L 451.578543 350.75463 
L 452.294637 351.192364 
L 460.887765 358.196112 
L 462.319952 359.509315 
L 463.036046 360.092961 
L 468.048704 365.053949 
L 468.764798 365.637595 
L 484.518866 381.833763 
L 485.951054 383.438788 
L 488.099336 385.773371 
L 492.3959 390.880271 
L 494.544182 393.214853 
L 496.692464 395.695348 
L 498.124652 397.300373 
L 510.298249 412.037427 
L 516.027001 418.019795 
L 517.459189 419.624821 
L 520.323565 422.688961 
L 521.755753 424.293986 
L 526.052317 428.817241 
L 527.484505 430.422266 
L 528.916693 432.027292 
L 530.348881 433.632318 
L 532.497163 435.9669 
L 533.929351 437.571926 
L 540.374196 443.992029 
L 541.09029 444.575674 
L 544.67076 448.077548 
L 549.683418 452.163068 
L 553.263888 455.664942 
L 554.696076 456.832234 
L 558.276546 460.334108 
L 559.708734 461.501399 
L 562.57311 464.273716 
L 564.005298 465.441008 
L 565.437486 466.75421 
L 566.15358 467.337856 
L 568.301862 469.380616 
L 569.017956 469.964262 
L 570.450144 471.277465 
L 573.31452 473.612047 
L 574.746708 474.92525 
L 592.649057 489.516392 
L 593.365151 489.954127 
L 594.081245 490.537772 
L 596.229527 491.850975 
L 599.809997 494.769204 
L 606.970937 499.219502 
L 608.403125 500.167926 
L 614.84797 504.034579 
L 616.996252 505.20187 
L 618.42844 506.004383 
L 622.725004 508.120099 
L 625.58938 509.360346 
L 627.737662 510.381726 
L 629.16985 511.038327 
L 631.318132 512.023229 
L 634.898602 513.555299 
L 639.195166 515.196803 
L 642.059542 516.108749 
L 645.640012 517.11189 
L 650.65267 518.288301 
L 653.517045 518.830909 
L 653.517045 518.830909 
" clip-path="url(#pdc7a43c3fd)" style="fill: none; stroke: #c0c0c0; stroke-width: 1.5; stroke-linecap: square"/>
   </g>
   <g id="patch_9">
    <path d="M 52.75 528.92 
L 52.75 306.96 
" style="fill: none; stroke: #000000; stroke-width: 0.8; stroke-linejoin: miter; stroke-linecap: square"/>
   </g>
   <g id="patch_10">
    <path d="M 682.125 528.92 
L 682.125 306.96 
" style="fill: none; stroke: #000000; stroke-width: 0.8; stroke-linejoin: miter; stroke-linecap: square"/>
   </g>
   <g id="patch_11">
    <path d="M 52.75 528.92 
L 682.125 528.92 
" style="fill: none; stroke: #000000; stroke-width: 0.8; stroke-linejoin: miter; stroke-linecap: square"/>
   </g>
   <g id="patch_12">
    <path d="M 52.75 306.96 
L 682.125 306.96 
" style="fill: none; stroke: #000000; stroke-width: 0.8; stroke-linejoin: miter; stroke-linecap: square"/>
   </g>
  </g>
  <g id="text_46">
   <!-- Global Error in Position States - Moon -->
   <g transform="translate(185.855625 25.197187) scale(0.18 -0.18)">
    <defs>
     <path id="DejaVuSerif-47" d="M 4097 3272 
Q 3988 3856 3641 4136 
Q 3294 4416 2675 4416 
Q 1869 4416 1472 3897 
Q 1075 3378 1075 2328 
Q 1075 1300 1484 772 
Q 1894 244 2688 244 
Q 3041 244 3362 331 
Q 3684 419 3975 594 
L 3975 1797 
L 3097 1797 
L 3097 2131 
L 4609 2131 
L 4609 391 
Q 4194 150 3714 29 
Q 3234 -91 2688 -91 
Q 1631 -91 995 570 
Q 359 1231 359 2328 
Q 359 3434 996 4092 
Q 1634 4750 2713 4750 
Q 3113 4750 3539 4658 
Q 3966 4566 4447 4378 
L 4447 3272 
L 4097 3272 
z
" transform="scale(0.015625)"/>
     <path id="DejaVuSerif-50" d="M 1581 2375 
L 2406 2375 
Q 2872 2375 3115 2626 
Q 3359 2878 3359 3353 
Q 3359 3831 3115 4081 
Q 2872 4331 2406 4331 
L 1581 4331 
L 1581 2375 
z
M 353 0 
L 353 331 
L 947 331 
L 947 4331 
L 353 4331 
L 353 4666 
L 2559 4666 
Q 3259 4666 3668 4311 
Q 4078 3956 4078 3353 
Q 4078 2753 3668 2397 
Q 3259 2041 2559 2041 
L 1581 2041 
L 1581 331 
L 2303 331 
L 2303 0 
L 353 0 
z
" transform="scale(0.015625)"/>
     <path id="DejaVuSerif-53" d="M 594 225 
L 594 1288 
L 953 1284 
Q 969 753 1261 498 
Q 1553 244 2150 244 
Q 2706 244 2998 464 
Q 3291 684 3291 1106 
Q 3291 1444 3114 1625 
Q 2938 1806 2369 1978 
L 1753 2163 
Q 1084 2366 811 2669 
Q 538 2972 538 3500 
Q 538 4094 959 4422 
Q 1381 4750 2144 4750 
Q 2469 4750 2856 4679 
Q 3244 4609 3681 4475 
L 3681 3481 
L 3328 3481 
Q 3275 3975 2998 4195 
Q 2722 4416 2156 4416 
Q 1663 4416 1405 4214 
Q 1147 4013 1147 3628 
Q 1147 3294 1340 3103 
Q 1534 2913 2163 2725 
L 2741 2553 
Q 3375 2363 3645 2067 
Q 3916 1772 3916 1275 
Q 3916 597 3481 253 
Q 3047 -91 2188 -91 
Q 1803 -91 1404 -12 
Q 1006 66 594 225 
z
" transform="scale(0.015625)"/>
     <path id="DejaVuSerif-2d" d="M 281 1959 
L 1881 1959 
L 1881 1472 
L 281 1472 
L 281 1959 
z
" transform="scale(0.015625)"/>
     <path id="DejaVuSerif-4d" d="M 353 0 
L 353 331 
L 947 331 
L 947 4331 
L 319 4331 
L 319 4666 
L 1678 4666 
L 3316 1344 
L 4953 4666 
L 6228 4666 
L 6228 4331 
L 5606 4331 
L 5606 331 
L 6203 331 
L 6203 0 
L 4378 0 
L 4378 331 
L 4972 331 
L 4972 3938 
L 3372 684 
L 2931 684 
L 1331 3938 
L 1331 331 
L 1925 331 
L 1925 0 
L 353 0 
z
" transform="scale(0.015625)"/>
    </defs>
    <use xlink:href="#DejaVuSerif-47"/>
    <use xlink:href="#DejaVuSerif-6c" transform="translate(79.882812 0)"/>
    <use xlink:href="#DejaVuSerif-6f" transform="translate(111.865234 0)"/>
    <use xlink:href="#DejaVuSerif-62" transform="translate(172.070312 0)"/>
    <use xlink:href="#DejaVuSerif-61" transform="translate(236.083984 0)"/>
    <use xlink:href="#DejaVuSerif-6c" transform="translate(295.703125 0)"/>
    <use xlink:href="#DejaVuSerif-20" transform="translate(327.685547 0)"/>
    <use xlink:href="#DejaVuSerif-45" transform="translate(359.472656 0)"/>
    <use xlink:href="#DejaVuSerif-72" transform="translate(432.470703 0)"/>
    <use xlink:href="#DejaVuSerif-72" transform="translate(480.273438 0)"/>
    <use xlink:href="#DejaVuSerif-6f" transform="translate(528.076172 0)"/>
    <use xlink:href="#DejaVuSerif-72" transform="translate(588.28125 0)"/>
    <use xlink:href="#DejaVuSerif-20" transform="translate(636.083984 0)"/>
    <use xlink:href="#DejaVuSerif-69" transform="translate(667.871094 0)"/>
    <use xlink:href="#DejaVuSerif-6e" transform="translate(699.853516 0)"/>
    <use xlink:href="#DejaVuSerif-20" transform="translate(764.257812 0)"/>
    <use xlink:href="#DejaVuSerif-50" transform="translate(796.044922 0)"/>
    <use xlink:href="#DejaVuSerif-6f" transform="translate(859.330078 0)"/>
    <use xlink:href="#DejaVuSerif-73" transform="translate(919.535156 0)"/>
    <use xlink:href="#DejaVuSerif-69" transform="translate(970.853516 0)"/>
    <use xlink:href="#DejaVuSerif-74" transform="translate(1002.835938 0)"/>
    <use xlink:href="#DejaVuSerif-69" transform="translate(1043.021484 0)"/>
    <use xlink:href="#DejaVuSerif-6f" transform="translate(1075.003906 0)"/>
    <use xlink:href="#DejaVuSerif-6e" transform="translate(1135.208984 0)"/>
    <use xlink:href="#DejaVuSerif-20" transform="translate(1199.613281 0)"/>
    <use xlink:href="#DejaVuSerif-53" transform="translate(1231.400391 0)"/>
    <use xlink:href="#DejaVuSerif-74" transform="translate(1299.90625 0)"/>
    <use xlink:href="#DejaVuSerif-61" transform="translate(1340.091797 0)"/>
    <use xlink:href="#DejaVuSerif-74" transform="translate(1399.710938 0)"/>
    <use xlink:href="#DejaVuSerif-65" transform="translate(1439.896484 0)"/>
    <use xlink:href="#DejaVuSerif-73" transform="translate(1499.076172 0)"/>
    <use xlink:href="#DejaVuSerif-20" transform="translate(1550.394531 0)"/>
    <use xlink:href="#DejaVuSerif-2d" transform="translate(1582.181641 0)"/>
    <use xlink:href="#DejaVuSerif-20" transform="translate(1615.970703 0)"/>
    <use xlink:href="#DejaVuSerif-4d" transform="translate(1647.757812 0)"/>
    <use xlink:href="#DejaVuSerif-6f" transform="translate(1750.150391 0)"/>
    <use xlink:href="#DejaVuSerif-6f" transform="translate(1810.355469 0)"/>
    <use xlink:href="#DejaVuSerif-6e" transform="translate(1870.560547 0)"/>
   </g>
  </g>
 </g>
 <defs>
  <clipPath id="pdd9b7c5212">
   <rect x="52.75" y="33.96" width="629.375" height="221.96"/>
  </clipPath>
  <clipPath id="pdc7a43c3fd">
   <rect x="52.75" y="306.96" width="629.375" height="221.96"/>
  </clipPath>
 </defs>
</svg>
